<svg width="47" height="45" viewBox="0 0 47 45" fill="none" xmlns="http://www.w3.org/2000/svg">
<g clip-path="url(#clip0_816_6700)">
<path d="M0 12C0 5.37258 5.37258 0 12 0H34.5851C41.2125 0 46.5851 5.37258 46.5851 12V33.3459C46.5851 39.9734 41.2125 45.3459 34.5851 45.3459H12C5.37258 45.3459 0 39.9734 0 33.3459V12Z" fill="#E14A68"/>
<path fill-rule="evenodd" clip-rule="evenodd" d="M14.8547 11.4014C14.0678 10.6146 12.7921 10.6146 12.0052 11.4014C11.2184 12.1883 11.2184 13.464 12.0052 14.2508L20.4431 22.6887L12.0052 31.1267C11.2183 31.9135 11.2183 33.1893 12.0052 33.9761C12.792 34.763 14.0678 34.763 14.8546 33.9761L23.2926 25.5382L31.7305 33.9761C32.5173 34.7629 33.7931 34.7629 34.5799 33.9761C35.3668 33.1892 35.3668 31.9135 34.5799 31.1267L26.142 22.6887L34.5798 14.2509C35.3667 13.464 35.3667 12.1883 34.5798 11.4014C33.793 10.6146 32.5173 10.6146 31.7304 11.4014L23.2926 19.8393L14.8547 11.4014Z" fill="#FDF6E9"/>
</g>
<defs>
<clipPath id="clip0_816_6700">
<rect width="47" height="45" fill="white"/>
</clipPath>
</defs>
</svg>
