<svg width="394" height="90" viewBox="0 0 394 90" fill="none" xmlns="http://www.w3.org/2000/svg">
<g clip-path="url(#clip0_752_8938)">
<path d="M19.9222 40.2031C20.5599 40.4477 21.2189 40.6516 21.8364 40.9477C22.7065 41.3649 23.5558 41.8282 24.3967 42.309C25.0792 42.6977 25.6789 43.203 26.1765 43.8381C26.7705 44.5919 26.8933 45.4478 26.7189 46.3843C26.6218 46.9028 26.483 47.3966 26.099 47.7656C25.6308 48.2159 25.0762 48.5218 24.477 48.7325C23.5008 49.0746 22.4961 49.1887 21.4727 49.2289C20.0794 49.2798 18.6942 49.1963 17.3144 49.0004C14.6951 48.6321 12.1512 47.9659 9.71361 46.8861C9.64792 46.8562 9.57894 46.843 9.48705 46.8109C9.53313 47.4477 9.57557 48.0522 9.61574 48.6598C9.80831 51.4865 9.90013 54.3175 9.52842 57.1354C9.37936 58.2729 9.14822 59.3962 8.686 60.4502C8.24616 61.4497 7.57143 62.1626 6.53626 62.4657C5.888 62.6552 5.30098 62.4914 4.71146 62.2136C4.14649 61.9463 3.72261 61.5035 3.30715 61.0434C2.70114 60.3673 2.19083 59.6195 1.87498 58.7549C1.57648 57.929 1.2995 57.0867 1.12144 56.224C0.913879 55.2153 0.805233 54.186 0.694332 53.1598C0.621875 52.4963 0.631324 51.8226 0.60494 51.1534C0.576039 50.3702 0.539158 49.5852 0.518242 48.8037C0.508175 48.3476 0.526563 47.8906 0.529856 47.3919C0.468161 47.4432 0.422268 47.4734 0.390683 47.5155C0.058267 47.9271 -0.254106 48.3553 -0.607172 48.745C-1.49232 49.7319 -2.47456 50.5947 -3.60336 51.2633C-4.63237 51.8733 -5.71874 52.3434 -6.87852 52.5776C-8.24125 52.8533 -9.5646 52.743 -10.804 52.0206C-11.7131 51.4885 -12.4107 50.7367 -12.83 49.738C-13.1954 48.8713 -13.0501 47.9984 -12.6985 47.1596C-12.3346 46.2921 -11.7613 45.5782 -11.1415 44.9075C-10.5651 44.2885 -9.97795 43.6737 -9.37525 43.0814C-8.95007 42.6636 -8.48238 42.3005 -8.04289 41.8946C-7.62041 41.4989 -7.21631 41.0784 -6.79955 40.678C-6.48796 40.3806 -6.16778 40.0902 -5.81315 39.7602C-5.91979 39.7354 -5.98999 39.7115 -6.06634 39.7019C-8.18555 39.4402 -10.1859 38.7607 -12.0945 37.7676C-13.1483 37.2181 -14.169 36.5936 -15.0159 35.738C-15.8337 34.9113 -16.6561 34.0662 -17.1026 32.9184C-17.5416 31.7914 -17.4948 30.691 -16.9809 29.6116C-16.66 28.9372 -16.2557 28.3124 -15.6368 27.9087C-14.8684 27.4047 -14.0789 26.9035 -13.1354 26.914C-12.2569 26.9245 -11.3769 26.9702 -10.5013 27.0463C-7.75882 27.2877 -5.12297 27.9861 -2.58552 29.0997C-2.29596 29.227 -2.01092 29.3603 -1.64935 29.5277C-1.83365 29.0687 -1.99469 28.6777 -2.14776 28.2883C-2.76697 26.7155 -3.32657 25.1189 -3.68851 23.4568C-3.95395 22.2347 -4.09982 21.0141 -3.81712 19.7728C-3.68081 19.165 -3.47595 18.5895 -3.11065 18.0785C-2.81528 17.6606 -2.37588 17.4834 -1.96528 17.258C-1.09532 16.7795 -0.304919 17.0432 0.450947 17.5753C1.58505 18.3762 2.35819 19.497 2.99379 20.733C3.78359 22.2764 4.31343 23.9312 4.8404 25.5836C4.86895 25.6753 4.90201 25.7611 4.95321 25.9153C5.08406 25.5805 5.1788 25.2937 5.30957 25.027C5.73881 24.1404 6.1429 23.2379 6.62821 22.388C7.0224 21.6964 7.47595 21.0246 7.98122 20.4199C8.8359 19.3933 9.84495 18.5381 11.0105 17.9193C11.6815 17.5635 12.3721 17.2434 13.0797 16.9811C13.8917 16.6786 14.7211 16.8286 15.4809 17.1887C16.0978 17.4795 16.397 18.0821 16.5425 18.7718C16.8576 20.2491 16.659 21.706 16.4012 23.1674C16.1181 24.7491 15.5741 26.2271 14.8536 27.6373C14.5071 28.3148 14.1224 28.9752 13.7062 29.6097C12.9993 30.6805 12.2535 31.729 11.5242 32.7863C11.5062 32.8103 11.4967 32.8414 11.4485 32.9427C11.8529 32.7317 12.191 32.5535 12.5319 32.3777C13.9829 31.6199 15.4716 30.9664 17.0287 30.4813C18.1819 30.1199 19.3616 29.8778 20.5594 29.7968C22.4242 29.6682 24.246 29.8935 25.995 30.6233C26.7168 30.9228 27.3891 31.3128 27.9584 31.8709C28.8901 32.7869 29.1362 33.9297 28.9181 35.2147C28.8104 35.8461 28.6418 36.4661 28.2306 36.9393C27.854 37.3727 27.4075 37.7632 26.9378 38.0857C25.8563 38.8275 24.6297 39.2061 23.3786 39.4816C22.3247 39.7108 21.2596 39.8869 20.1998 40.0869C20.1031 40.1043 20.007 40.1272 19.9132 40.147L19.9267 40.1971L19.9222 40.2031ZM0.542482 40.9867C0.861802 41.2165 1.18564 41.4403 1.50044 41.6762C2.3882 42.3416 3.38459 42.5906 4.45135 42.4061C5.21277 42.276 5.97488 42.0831 6.70635 41.826C7.47818 41.5584 8.13642 41.0899 8.57452 40.3275C9.16777 39.2844 9.50435 38.1752 9.42563 36.9517C9.37522 36.1847 9.31048 35.4059 8.79219 34.817C8.19355 34.1374 7.55474 33.4926 6.89562 32.8749C6.37005 32.3822 5.71649 32.2267 5.01026 32.271C4.1134 32.3282 3.33853 32.7295 2.58632 33.1934C0.798497 34.3008 -0.347821 35.8701 -0.54495 38.0972C-0.64386 39.2422 -0.42875 40.2718 0.542482 40.9867Z" fill="#E14A68"/>
<ellipse cx="4.31113" cy="37.5706" rx="5.35483" ry="5.61651" fill="#FDF6E9"/>
<path d="M58.8227 71.3535C58.5747 71.4984 58.3401 71.6327 58.1079 71.7704C57.233 72.2839 56.3033 72.651 55.3104 72.8588C54.1804 73.0951 53.1302 72.8617 52.114 72.3889C51.1942 71.9603 50.3352 71.4352 49.557 70.792C48.8371 70.1979 48.4315 69.4064 48.2437 68.4968C48.0812 67.7075 48.0662 66.9131 48.2392 66.1255C48.4911 64.9703 49.0021 63.944 49.8828 63.1201C50.3347 62.6971 50.8065 62.3015 51.3186 61.9484C51.6507 61.7187 51.9893 61.5168 52.3545 61.3497C52.3782 61.339 52.3942 61.3114 52.4132 61.2937C52.1564 61.0549 51.9 60.8244 51.6534 60.5856C51.1741 60.1209 50.7858 59.5871 50.474 58.9955C50.0074 58.1125 49.707 57.178 49.6064 56.1832C49.5181 55.3174 49.5988 54.4762 50.081 53.7078C50.3448 53.2881 50.6789 52.9301 51.0673 52.6256C51.4107 52.3562 51.7529 52.0824 52.1181 51.8459C52.9407 51.313 53.8445 51.0563 54.8247 51.0688C55.36 51.0745 55.8848 51.111 56.3994 51.2711C56.9605 51.4442 57.4682 51.7173 57.9463 52.049C58.4833 52.4228 58.9494 52.8727 59.3682 53.3727C59.585 53.6312 59.7892 53.9016 60.0111 54.1806C60.1255 54.0823 60.2698 53.9591 60.4151 53.8351C60.4722 53.787 60.5257 53.7361 60.5851 53.6914C60.7739 53.5503 60.9546 53.3944 61.1556 53.2741C61.5084 53.0627 61.864 52.8478 62.2395 52.6806C62.8999 52.3879 63.5902 52.1735 64.3172 52.143C64.8873 52.1188 65.4575 52.0843 66.0219 52.2214C66.7521 52.3988 67.3637 52.7533 67.8432 53.3314C68.3735 53.9704 68.7666 54.6891 69.0486 55.4648C69.2639 56.058 69.3441 56.6853 69.3298 57.3198C69.3218 57.6655 69.3 58.0136 69.2428 58.3549C69.1578 58.8653 68.9292 59.3327 68.6841 59.7855C68.4928 60.1416 68.2599 60.4763 68.0544 60.8266C68.0273 60.8734 68.0228 60.9798 68.0565 61.0098C68.5398 61.46 68.8444 62.0226 69.1196 62.6131C69.631 63.7152 69.8204 64.8896 69.8756 66.0891C69.914 66.9289 69.885 67.7729 69.6362 68.5856C69.4546 69.1774 69.2276 69.7605 68.9724 70.3268C68.6517 71.0367 68.2151 71.6781 67.676 72.2507C67.2143 72.7412 66.669 73.1164 66.1106 73.485C65.5886 73.8311 65.0238 74.033 64.4079 74.0606C64.0432 74.0767 63.6736 74.0571 63.3132 74.0025C62.6859 73.9074 62.0523 73.8029 61.4876 73.4983C61.0951 73.2873 60.7237 73.0335 60.3479 72.7911C59.8268 72.4541 59.3605 72.0552 59.0029 71.5416C58.9556 71.4732 58.8857 71.4198 58.8234 71.3547L58.8227 71.3535ZM60.5201 64.503C61.1474 64.014 61.5392 63.6752 61.9425 62.8629C60.2104 63.181 60.1038 62.9919 61.4523 62.6082C61.4925 61.8685 61.5559 61.9159 61.2073 61.2744C61.0174 60.925 60.9298 61.024 60.7513 60.6687C60.5819 60.3294 60.6793 60.0754 60.3754 59.8765C59.8775 59.5512 59.261 60.7261 58.6701 60.5982C57.9902 60.45 58.5947 60.0051 58.0927 60.5123C57.6783 60.9324 57.1785 59.7292 56.935 60.2487C56.7649 60.611 56.6425 60.9957 56.4956 61.3696C56.2671 61.9503 56.145 62.5363 56.2552 63.1674C56.3227 63.5492 56.4745 63.885 56.6459 64.2195C56.7679 64.4566 56.8728 64.717 57.0494 64.9075C57.6201 65.5196 58.3086 65.889 59.1918 65.8408C59.9299 65.8012 60.6285 65.6558 61.3498 65.1819L60.5201 64.503Z" fill="#E97F7F"/>
<circle cx="59.1525" cy="62.686" r="3.39047" transform="rotate(-10.4073 59.1525 62.686)" fill="#FDF6E9"/>
<path d="M103.418 33.6793C102.961 33.6699 102.531 33.6573 102.101 33.6515C100.487 33.6217 98.9196 33.3476 97.3989 32.8046C95.6684 32.1867 94.4363 30.9972 93.4495 29.5109C92.5568 28.1647 91.8268 26.7381 91.3046 25.2181C90.821 23.8135 90.9279 22.4017 91.4287 21.0107C91.8639 19.8041 92.5036 18.7131 93.3928 17.7875C94.6947 16.4284 96.2413 15.4596 98.1216 15.0728C99.0865 14.8739 100.056 14.7287 101.045 14.6749C101.686 14.6389 102.314 14.6461 102.948 14.7227C102.99 14.7278 103.034 14.7037 103.075 14.6954C102.924 14.1579 102.768 13.6319 102.631 13.1028C102.367 12.0736 102.283 11.0261 102.351 9.96388C102.451 8.3773 102.82 6.85894 103.51 5.42471C104.11 4.17582 104.918 3.10071 106.211 2.45815C106.918 2.10761 107.669 1.89905 108.45 1.80833C109.14 1.72783 109.832 1.64053 110.524 1.6228C112.084 1.58285 113.524 1.98527 114.845 2.81662C115.566 3.2692 116.249 3.75474 116.814 4.39968C117.432 5.10098 117.895 5.89359 118.268 6.74126C118.687 7.69495 118.946 8.69297 119.099 9.71975C119.179 10.251 119.231 10.7878 119.301 11.3508C119.538 11.3125 119.836 11.2651 120.136 11.2176C120.254 11.1996 120.369 11.1749 120.486 11.1637C120.86 11.129 121.235 11.0674 121.608 11.071C122.262 11.0772 122.924 11.0809 123.572 11.1659C124.712 11.3172 125.828 11.5997 126.84 12.1623C127.634 12.6031 128.437 13.0301 129.089 13.6852C129.933 14.5327 130.469 15.5223 130.64 16.7055C130.829 18.0138 130.766 19.3161 130.504 20.6036C130.303 21.5879 129.891 22.5063 129.344 23.3558C129.046 23.8185 128.727 24.2731 128.366 24.6889C127.827 25.3113 127.128 25.7559 126.419 26.1671C125.863 26.4916 125.269 26.7525 124.699 27.0574C124.623 27.0984 124.529 27.239 124.55 27.3078C124.832 28.3207 124.778 29.3375 124.661 30.368C124.439 32.2892 123.721 34.0411 122.799 35.7155C122.153 36.8876 121.413 38.0095 120.4 38.9061C119.661 39.5587 118.869 40.1618 118.052 40.7186C117.026 41.4159 115.901 41.9241 114.693 42.2535C113.659 42.5359 112.606 42.5922 111.542 42.6287C110.546 42.6649 109.611 42.4697 108.752 41.9955C108.244 41.7143 107.758 41.3806 107.314 41.0071C106.541 40.3566 105.768 39.6883 105.254 38.8056C104.897 38.193 104.603 37.5398 104.295 36.8984C103.867 36.008 103.565 35.0789 103.507 34.0844C103.499 33.9523 103.449 33.8218 103.418 33.6815L103.418 33.6793ZM111.415 25.7887C112.673 25.6459 113.486 25.5115 114.709 24.7437C112.093 23.7365 112.105 23.3911 114.255 23.9907C114.924 23.0197 114.971 23.1368 115.031 21.9761C115.063 21.344 114.862 21.4055 114.915 20.7749C114.967 20.1735 115.31 19.9095 115.063 19.387C114.657 18.5316 112.844 19.6145 112.148 18.9499C111.348 18.1838 112.538 18.082 111.435 18.3536C110.523 18.5795 110.845 16.5307 110.082 17.0338C109.55 17.3843 109.064 17.8049 108.554 18.1905C107.762 18.7891 107.109 19.4832 106.734 20.4316C106.509 21.006 106.436 21.5881 106.39 22.1847C106.359 22.608 106.285 23.0486 106.367 23.4541C106.633 24.7594 107.261 25.833 108.5 26.5013C109.535 27.0608 110.604 27.4439 111.977 27.3999L111.415 25.7887Z" fill="#7B8C82"/>
<circle cx="111.067" cy="22.185" r="5.39687" transform="rotate(21.0584 111.067 22.185)" fill="#FDF6E9"/>
<path d="M292.992 13.4958C293.153 13.2013 293.297 12.8935 293.481 12.6124C293.739 12.2164 294.018 11.8339 294.304 11.4566C294.536 11.1503 294.815 10.8927 295.148 10.6941C295.543 10.4568 295.951 10.457 296.375 10.6082C296.609 10.6921 296.829 10.7947 296.973 11.0084C297.148 11.269 297.25 11.5617 297.304 11.8694C297.391 12.3707 297.37 12.8699 297.314 13.373C297.234 14.0578 297.093 14.7291 296.9 15.3898C296.535 16.6444 296.037 17.8412 295.354 18.9568C295.335 18.9868 295.323 19.0196 295.302 19.0623C295.602 19.0846 295.887 19.1064 296.173 19.1295C297.505 19.2343 298.831 19.3886 300.117 19.7687C300.636 19.9216 301.143 20.1137 301.6 20.4138C302.033 20.6992 302.316 21.0792 302.38 21.6066C302.421 21.9368 302.301 22.2123 302.128 22.4809C301.962 22.7383 301.724 22.9144 301.479 23.0851C301.119 23.3338 300.733 23.5306 300.307 23.6242C299.9 23.712 299.487 23.7881 299.072 23.8144C298.586 23.8449 298.098 23.8256 297.612 23.8076C297.297 23.7963 296.984 23.7443 296.67 23.7101C296.303 23.6691 295.934 23.6319 295.569 23.5871C295.355 23.5599 295.144 23.5188 294.911 23.4821C294.931 23.5158 294.941 23.5404 294.959 23.5588C295.126 23.7503 295.303 23.9331 295.458 24.1331C295.853 24.6353 296.182 25.1762 296.411 25.7751C296.619 26.3211 296.758 26.8853 296.781 27.4687C296.809 28.1543 296.66 28.7935 296.232 29.3486C295.917 29.7555 295.515 30.0437 295.019 30.1784C294.588 30.296 294.192 30.1635 293.827 29.9326C293.449 29.6937 293.159 29.3631 292.892 29.0129C292.646 28.6876 292.403 28.3573 292.171 28.021C292.008 27.7837 291.873 27.5295 291.716 27.2861C291.563 27.0517 291.397 26.8246 291.241 26.5926C291.125 26.4194 291.014 26.2424 290.886 26.0458C290.867 26.0962 290.85 26.1288 290.84 26.1655C290.562 27.1831 290.097 28.1132 289.494 28.9764C289.16 29.4528 288.793 29.9079 288.332 30.2617C287.886 30.6033 287.432 30.9459 286.864 31.0834C286.306 31.2187 285.797 31.1183 285.331 30.7911C285.041 30.5868 284.78 30.3452 284.637 30.0142C284.459 29.6031 284.284 29.1818 284.358 28.7214C284.428 28.2926 284.514 27.8656 284.614 27.4429C284.929 26.1192 285.449 24.8798 286.156 23.7177C286.236 23.5851 286.319 23.4551 286.424 23.2901C286.197 23.3479 286.002 23.3991 285.81 23.4466C285.031 23.6386 284.245 23.7998 283.444 23.8598C282.855 23.9035 282.275 23.8889 281.717 23.6634C281.444 23.5539 281.191 23.4133 280.98 23.1987C280.807 23.0249 280.757 22.7977 280.682 22.5811C280.523 22.1221 280.704 21.7543 281.008 21.4222C281.465 20.9241 282.045 20.625 282.668 20.4013C283.445 20.1238 284.256 19.9813 285.065 19.8399C285.11 19.8324 285.152 19.8223 285.228 19.8081C285.081 19.7206 284.955 19.6541 284.84 19.5714C284.459 19.2992 284.068 19.0381 283.707 18.741C283.414 18.4996 283.135 18.2306 282.89 17.9411C282.475 17.451 282.15 16.8975 281.948 16.2841C281.832 15.9311 281.734 15.5709 281.664 15.2066C281.583 14.7883 281.714 14.3934 281.938 14.0473C282.119 13.7662 282.422 13.6623 282.754 13.6397C283.466 13.5897 284.13 13.7893 284.792 14.0182C285.508 14.2679 286.157 14.6379 286.761 15.0893C287.051 15.3064 287.331 15.541 287.596 15.7891C288.043 16.21 288.476 16.6484 288.915 17.0793C288.925 17.0898 288.939 17.0967 288.983 17.1274C288.914 16.9148 288.856 16.737 288.799 16.558C288.553 15.7953 288.359 15.0215 288.247 14.2261C288.164 13.637 288.138 13.0432 288.189 12.4519C288.267 11.5312 288.506 10.6565 288.975 9.85281C289.168 9.52104 289.4 9.21982 289.702 8.98078C290.198 8.58978 290.748 8.54991 291.331 8.74694C291.618 8.84402 291.894 8.97011 292.084 9.2044C292.259 9.41905 292.408 9.66477 292.523 9.91709C292.789 10.498 292.875 11.1243 292.911 11.7553C292.94 12.2867 292.944 12.8198 292.959 13.352C292.96 13.4004 292.963 13.449 292.965 13.4963L292.99 13.4932L292.992 13.4958ZM291.927 23.0251C292.058 22.8852 292.186 22.7426 292.319 22.6053C292.695 22.2181 292.884 21.7486 292.877 21.2141C292.873 20.8327 292.839 20.4465 292.773 20.0708C292.705 19.6747 292.536 19.3199 292.213 19.0521C291.77 18.6887 291.278 18.4461 290.702 18.3984C290.341 18.3691 289.973 18.3459 289.66 18.5579C289.299 18.8027 288.952 19.0696 288.615 19.3484C288.347 19.5706 288.226 19.8792 288.194 20.2275C288.155 20.67 288.285 21.0771 288.445 21.4774C288.83 22.4294 289.476 23.1002 290.5 23.3533C291.026 23.4823 291.522 23.4496 291.927 23.0251Z" fill="#E14A68"/>
<circle cx="290.613" cy="20.942" r="2.64748" transform="rotate(-81.4134 290.613 20.942)" fill="#FDF6E9"/>
<path d="M341.951 40.1871C341.791 40.2018 341.64 40.2142 341.49 40.2291C340.925 40.2821 340.366 40.2479 339.814 40.1179C339.185 39.9699 338.708 39.6027 338.304 39.1222C337.94 38.6869 337.629 38.2171 337.386 37.7065C337.162 37.2347 337.144 36.7373 337.265 36.2316C337.369 35.7929 337.55 35.3866 337.824 35.0283C338.226 34.5023 338.728 34.103 339.37 33.894C339.699 33.7866 340.032 33.6979 340.375 33.6402C340.598 33.6024 340.818 33.5803 341.043 33.5821C341.057 33.5823 341.072 33.5721 341.086 33.5676C341.012 33.3857 340.937 33.2081 340.868 33.0286C340.735 32.6794 340.665 32.3167 340.647 31.9429C340.62 31.3846 340.689 30.8396 340.874 30.3114C341.034 29.8515 341.274 29.4441 341.701 29.1688C341.934 29.0186 342.188 28.9162 342.457 28.8538C342.695 28.7986 342.934 28.7409 343.175 28.7076C343.718 28.6323 344.237 28.7164 344.731 28.955C345.001 29.0848 345.259 29.2276 345.482 29.4307C345.725 29.6515 345.918 29.9103 346.082 30.1918C346.265 30.5086 346.395 30.8471 346.489 31.1998C346.538 31.3823 346.577 31.5678 346.623 31.7618C346.705 31.7391 346.807 31.7108 346.91 31.6824C346.951 31.6715 346.99 31.6584 347.03 31.6498C347.16 31.6231 347.288 31.5868 347.419 31.5734C347.648 31.5499 347.879 31.5252 348.109 31.5294C348.513 31.5375 348.914 31.5924 349.29 31.7492C349.584 31.8721 349.882 31.9897 350.135 32.193C350.464 32.456 350.69 32.7807 350.796 33.1874C350.913 33.6371 350.942 34.0946 350.901 34.5547C350.87 34.9065 350.762 35.2436 350.604 35.5619C350.518 35.7352 350.425 35.9066 350.315 36.066C350.151 36.3047 349.924 36.4875 349.693 36.659C349.511 36.7942 349.314 36.9087 349.127 37.0376C349.102 37.0549 349.074 37.1078 349.084 37.131C349.223 37.4738 349.244 37.8312 349.243 38.1958C349.241 38.8758 349.059 39.5161 348.803 40.1374C348.623 40.5722 348.408 40.9933 348.09 41.3464C347.857 41.6034 347.604 41.8452 347.341 42.0719C347.01 42.3558 346.636 42.5775 346.227 42.7401C345.877 42.8794 345.512 42.9404 345.141 42.9949C344.794 43.0467 344.46 43.0152 344.141 42.8833C343.953 42.805 343.77 42.7074 343.6 42.5944C343.305 42.3975 343.008 42.1943 342.794 41.9061C342.645 41.7061 342.517 41.4894 342.384 41.2774C342.199 40.9831 342.058 40.6703 341.998 40.3252C341.99 40.2793 341.967 40.2357 341.951 40.1878L341.951 40.1871ZM344.435 37.1161C344.869 37.0168 345.148 36.9379 345.545 36.6216C344.592 36.3724 344.582 36.2512 345.357 36.3763C345.553 36.0108 345.574 36.0498 345.549 35.6419C345.535 35.4198 345.468 35.4492 345.461 35.2268C345.456 35.0146 345.565 34.9089 345.458 34.7361C345.283 34.4531 344.692 34.9027 344.423 34.6978C344.113 34.4616 344.525 34.3793 344.15 34.5175C343.841 34.6322 343.872 33.9037 343.626 34.1095C343.454 34.2528 343.3 34.4189 343.137 34.5736C342.884 34.8139 342.683 35.0821 342.589 35.4281C342.533 35.6377 342.531 35.8439 342.538 36.0542C342.544 36.2033 342.535 36.3602 342.58 36.4986C342.724 36.9442 342.986 37.2947 343.445 37.4795C343.828 37.6344 344.217 37.7262 344.695 37.6569L344.435 37.1161Z" fill="#DE6843"/>
<circle cx="344.173" cy="35.8706" r="1.89753" transform="rotate(14.645 344.173 35.8706)" fill="#FDF6E9"/>
<path d="M372.082 60.0003C371.779 59.4758 371.44 58.9658 371.179 58.4192C370.811 57.6493 370.483 56.8611 370.17 56.0664C369.915 55.4223 369.781 54.7496 369.787 54.0507C369.792 53.2192 370.175 52.5908 370.805 52.0798C371.155 51.7973 371.519 51.5548 371.983 51.5338C372.549 51.5081 373.095 51.626 373.62 51.8315C374.474 52.1671 375.224 52.6676 375.946 53.227C376.926 53.9911 377.828 54.8383 378.665 55.7556C380.256 57.4947 381.632 59.385 382.711 61.484C382.739 61.5411 382.779 61.5892 382.825 61.6627C383.14 61.2211 383.441 60.8025 383.745 60.3833C385.156 58.4298 386.638 56.5311 388.429 54.9062C389.152 54.2497 389.923 53.6494 390.814 53.2266C391.66 52.8265 392.511 52.7477 393.384 53.1424C393.931 53.3898 394.243 53.8325 394.495 54.3511C394.735 54.8487 394.784 55.38 394.817 55.9178C394.862 56.7055 394.803 57.4852 394.548 58.2298C394.301 58.9392 394.031 59.6469 393.682 60.3114C393.274 61.088 392.787 61.8214 392.303 62.5541C391.99 63.0283 391.616 63.4622 391.269 63.9137C390.862 64.441 390.459 64.974 390.046 65.4956C389.804 65.7988 389.543 66.0863 389.268 66.4096C389.338 66.4115 389.386 66.418 389.431 66.4087C389.883 66.3305 390.33 66.23 390.784 66.1779C391.928 66.0409 393.071 66.0403 394.208 66.2502C395.244 66.4413 396.244 66.7564 397.165 67.2674C398.247 67.8674 399.092 68.6966 399.546 69.877C399.877 70.7442 399.944 71.6337 399.686 72.525C399.463 73.2992 398.888 73.7854 398.19 74.1312C397.467 74.4886 396.686 74.6261 395.896 74.7087C395.164 74.7826 394.427 74.8475 393.691 74.8889C393.173 74.918 392.655 74.8872 392.133 74.9004C391.628 74.9166 391.122 74.9596 390.618 74.9822C390.243 74.9979 389.866 75.004 389.443 75.0163C389.502 75.0935 389.537 75.1493 389.584 75.1992C390.891 76.5826 391.889 78.1704 392.652 79.9103C393.073 80.8716 393.431 81.8629 393.543 82.9056C393.651 83.9127 393.753 84.9344 393.432 85.9385C393.117 86.9246 392.485 87.6154 391.545 88.0253C390.957 88.2814 390.34 88.4575 389.696 88.3666C388.896 88.2556 388.082 88.1306 387.443 87.5838C386.847 87.0742 386.27 86.5409 385.713 85.9901C383.969 84.2633 382.547 82.2995 381.419 80.1212C381.29 79.8725 381.168 79.6225 381.012 79.3064C380.888 79.7112 380.785 80.0584 380.677 80.3999C380.242 81.7799 379.754 83.1413 379.095 84.4323C378.609 85.3812 378.043 86.2607 377.173 86.9084C376.748 87.2267 376.294 87.4848 375.765 87.609C375.335 87.7125 374.938 87.5766 374.534 87.4886C373.678 87.3028 373.281 86.6785 373.054 85.8989C372.716 84.7277 372.798 83.5543 373.038 82.3846C373.34 80.9261 373.88 79.5438 374.421 78.1647C374.452 78.0885 374.476 78.0137 374.525 77.8838C374.253 78.0272 374.032 78.16 373.797 78.2592C373.019 78.5917 372.251 78.9489 371.455 79.2255C370.808 79.4509 370.131 79.6295 369.456 79.7347C368.311 79.915 367.154 79.8953 366.019 79.6318C365.366 79.4799 364.719 79.2934 364.092 79.0596C363.372 78.7922 362.886 78.2197 362.563 77.5501C362.3 77.0074 362.424 76.4432 362.701 75.9101C363.291 74.7665 364.222 73.9301 365.196 73.1245C366.252 72.2551 367.431 71.6026 368.693 71.0953C369.299 70.8517 369.923 70.6412 370.554 70.4656C371.622 70.1719 372.704 69.9149 373.779 69.6427C373.805 69.6374 373.828 69.6225 373.917 69.5841C373.525 69.4902 373.196 69.4129 372.867 69.3325C371.461 68.9963 370.086 68.5706 368.757 67.9959C367.771 67.5716 366.832 67.0544 365.968 66.4218C364.623 65.4385 363.499 64.2491 362.701 62.7723C362.371 62.1639 362.124 61.5248 362.039 60.8351C361.902 59.7047 362.357 58.8186 363.207 58.1054C363.625 57.7552 364.079 57.4474 364.618 57.3741C365.112 57.307 365.631 57.3078 366.128 57.3663C367.272 57.5015 368.318 57.9565 369.324 58.4928C370.17 58.9465 370.995 59.4411 371.829 59.9172C371.904 59.9611 371.982 60.0012 372.057 60.042L372.075 60.0016L372.082 60.0003ZM385.765 70.5794C385.672 70.2468 385.573 69.9155 385.486 69.5816C385.242 68.6396 384.696 67.907 383.866 67.4169C383.274 67.066 382.647 66.7557 382.007 66.5048C381.333 66.2376 380.627 66.1664 379.911 66.4129C378.937 66.7536 378.101 67.2843 377.487 68.1273C377.103 68.6563 376.723 69.2012 376.756 69.8819C376.795 70.6677 376.88 71.4537 376.994 72.2337C377.084 72.8558 377.447 73.3312 377.954 73.7064C378.598 74.1824 379.347 74.3641 380.115 74.492C381.942 74.793 383.582 74.4256 384.932 73.086C385.625 72.396 386.039 71.6014 385.765 70.5794Z" fill="#E97F7F"/>
<circle cx="381.324" cy="70.6495" r="4.77549" transform="rotate(-140.083 381.324 70.6495)" fill="#FDF6E9"/>
</g>
<defs>
<clipPath id="clip0_752_8938">
<rect width="393" height="88.678" fill="white" transform="translate(0.312988 0.759033)"/>
</clipPath>
</defs>
</svg>
