<svg width="394" height="90" viewBox="0 0 394 90" fill="none" xmlns="http://www.w3.org/2000/svg">
<g clip-path="url(#clip0_752_8939)">
<path d="M20.3816 40.2031C21.0193 40.4477 21.6784 40.6516 22.2959 40.9477C23.166 41.3649 24.0153 41.8282 24.8562 42.309C25.5387 42.6977 26.1384 43.203 26.6359 43.8381C27.23 44.5919 27.3528 45.4478 27.1784 46.3843C27.0813 46.9028 26.9424 47.3966 26.5585 47.7656C26.0903 48.2159 25.5356 48.5218 24.9365 48.7325C23.9602 49.0746 22.9556 49.1887 21.9322 49.2289C20.5388 49.2798 19.1536 49.1963 17.7739 49.0004C15.1546 48.6321 12.6107 47.9659 10.1731 46.8861C10.1074 46.8562 10.0384 46.843 9.94653 46.8109C9.99261 47.4477 10.035 48.0522 10.0752 48.6598C10.2678 51.4865 10.3596 54.3175 9.98789 57.1354C9.83883 58.2729 9.60769 59.3962 9.14547 60.4502C8.70563 61.4497 8.03091 62.1626 6.99573 62.4657C6.34747 62.6552 5.76045 62.4914 5.17093 62.2136C4.60596 61.9463 4.18208 61.5035 3.76662 61.0434C3.16061 60.3673 2.6503 59.6195 2.33445 58.7549C2.03595 57.929 1.75897 57.0867 1.58091 56.224C1.37335 55.2153 1.26471 54.186 1.1538 53.1598C1.08135 52.4963 1.0908 51.8226 1.06441 51.1534C1.03551 50.3702 0.998631 49.5852 0.977715 48.8037C0.967647 48.3476 0.986035 47.8906 0.989329 47.3919C0.927634 47.4432 0.88174 47.4734 0.850155 47.5155C0.51774 47.9271 0.205367 48.3553 -0.147699 48.745C-1.03284 49.7319 -2.01509 50.5947 -3.14389 51.2633C-4.1729 51.8733 -5.25927 52.3434 -6.41904 52.5776C-7.78178 52.8533 -9.10513 52.743 -10.3446 52.0206C-11.2536 51.4885 -11.9512 50.7367 -12.3705 49.738C-12.7359 48.8713 -12.5907 47.9984 -12.2391 47.1596C-11.8752 46.2921 -11.3018 45.5782 -10.682 44.9075C-10.1057 44.2885 -9.51848 43.6737 -8.91577 43.0814C-8.4906 42.6636 -8.02291 42.3005 -7.58342 41.8946C-7.16093 41.4989 -6.75684 41.0784 -6.34008 40.678C-6.02849 40.3806 -5.70831 40.0902 -5.35368 39.7602C-5.46032 39.7354 -5.53051 39.7115 -5.60687 39.7019C-7.72608 39.4402 -9.72643 38.7607 -11.635 37.7676C-12.6888 37.2181 -13.7095 36.5936 -14.5565 35.738C-15.3742 34.9113 -16.1966 34.0662 -16.6432 32.9184C-17.0821 31.7914 -17.0353 30.691 -16.5214 29.6116C-16.2006 28.9372 -15.7962 28.3124 -15.1774 27.9087C-14.4089 27.4047 -13.6194 26.9035 -12.6759 26.914C-11.7974 26.9245 -10.9174 26.9702 -10.0418 27.0463C-7.29935 27.2877 -4.6635 27.9861 -2.12605 29.0997C-1.83649 29.227 -1.55145 29.3603 -1.18987 29.5277C-1.37418 29.0687 -1.53522 28.6777 -1.68829 28.2883C-2.3075 26.7155 -2.8671 25.1189 -3.22903 23.4568C-3.49447 22.2347 -3.64034 21.0141 -3.35765 19.7728C-3.22134 19.165 -3.01648 18.5895 -2.65118 18.0785C-2.35581 17.6606 -1.91641 17.4834 -1.50581 17.258C-0.635847 16.7795 0.154554 17.0432 0.910419 17.5753C2.04452 18.3762 2.81766 19.497 3.45326 20.733C4.24306 22.2764 4.7729 23.9312 5.29988 25.5836C5.32842 25.6753 5.36148 25.7611 5.41268 25.9153C5.54353 25.5805 5.63828 25.2937 5.76904 25.027C6.19829 24.1404 6.60238 23.2379 7.08768 22.388C7.48188 21.6964 7.93543 21.0246 8.44069 20.4199C9.29537 19.3933 10.3044 18.5381 11.47 17.9193C12.141 17.5635 12.8316 17.2434 13.5391 16.9811C14.3511 16.6786 15.1806 16.8286 15.9404 17.1887C16.5573 17.4795 16.8565 18.0821 17.002 18.7718C17.3171 20.2491 17.1185 21.706 16.8607 23.1674C16.5776 24.7491 16.0335 26.2271 15.3131 27.6373C14.9666 28.3148 14.5819 28.9752 14.1656 29.6097C13.4587 30.6805 12.7129 31.729 11.9837 32.7863C11.9657 32.8103 11.9562 32.8414 11.908 32.9427C12.3124 32.7317 12.6505 32.5535 12.9914 32.3777C14.4424 31.6199 15.9311 30.9664 17.4882 30.4813C18.6414 30.1199 19.821 29.8778 21.0189 29.7968C22.8837 29.6682 24.7055 29.8935 26.4545 30.6233C27.1763 30.9228 27.8486 31.3128 28.4179 31.8709C29.3495 32.7869 29.5956 33.9297 29.3776 35.2147C29.2699 35.8461 29.1012 36.4661 28.6901 36.9393C28.3134 37.3727 27.867 37.7632 27.3973 38.0857C26.3157 38.8275 25.0892 39.2061 23.8381 39.4816C22.7842 39.7108 21.719 39.8869 20.6592 40.0869C20.5626 40.1043 20.4665 40.1272 20.3727 40.147L20.3862 40.1971L20.3816 40.2031ZM1.00195 40.9867C1.32128 41.2165 1.64511 41.4403 1.95992 41.6762C2.84767 42.3416 3.84406 42.5906 4.91082 42.4061C5.67224 42.276 6.43435 42.0831 7.16583 41.826C7.93765 41.5584 8.5959 41.0899 9.034 40.3275C9.62724 39.2844 9.96382 38.1752 9.88511 36.9517C9.83469 36.1847 9.76995 35.4059 9.25166 34.817C8.65303 34.1374 8.01421 33.4926 7.35509 32.8749C6.82952 32.3822 6.17596 32.2267 5.46973 32.271C4.57287 32.3282 3.79801 32.7295 3.04579 33.1934C1.25797 34.3008 0.111652 35.8701 -0.085477 38.0972C-0.184387 39.2422 0.0307223 40.2718 1.00195 40.9867Z" fill="#E75F7A"/>
<ellipse cx="4.7706" cy="37.5706" rx="5.35483" ry="5.61651" fill="#212226"/>
<path d="M59.2821 71.3535C59.0341 71.4984 58.7996 71.6327 58.5674 71.7704C57.6925 72.2839 56.7628 72.651 55.7698 72.8588C54.6399 73.0951 53.5896 72.8617 52.5735 72.3889C51.6536 71.9603 50.7947 71.4352 50.0164 70.792C49.2966 70.1979 48.891 69.4064 48.7032 68.4968C48.5407 67.7075 48.5257 66.9131 48.6986 66.1255C48.9506 64.9703 49.4616 63.944 50.3423 63.1201C50.7942 62.6971 51.266 62.3015 51.7781 61.9484C52.1102 61.7187 52.4488 61.5168 52.814 61.3497C52.8377 61.339 52.8536 61.3114 52.8727 61.2937C52.6159 61.0549 52.3594 60.8244 52.1129 60.5856C51.6336 60.1209 51.2453 59.5871 50.9335 58.9955C50.4668 58.1125 50.1665 57.178 50.0659 56.1832C49.9776 55.3174 50.0582 54.4762 50.5405 53.7078C50.8043 53.2881 51.1383 52.9301 51.5268 52.6256C51.8701 52.3562 52.2123 52.0824 52.5775 51.8459C53.4002 51.313 54.304 51.0563 55.2842 51.0688C55.8194 51.0745 56.3443 51.111 56.8589 51.2711C57.42 51.4442 57.9276 51.7173 58.4058 52.049C58.9428 52.4228 59.4088 52.8727 59.8277 53.3727C60.0445 53.6312 60.2487 53.9016 60.4705 54.1806C60.585 54.0823 60.7292 53.9591 60.8746 53.8351C60.9317 53.787 60.9852 53.7361 61.0446 53.6914C61.2334 53.5503 61.4141 53.3944 61.615 53.2741C61.9679 53.0627 62.3235 52.8478 62.699 52.6806C63.3594 52.3879 64.0496 52.1735 64.7767 52.143C65.3468 52.1188 65.917 52.0843 66.4814 52.2214C67.2116 52.3988 67.8232 52.7533 68.3027 53.3314C68.833 53.9704 69.2261 54.6891 69.5081 55.4648C69.7233 56.058 69.8036 56.6853 69.7892 57.3198C69.7813 57.6655 69.7595 58.0136 69.7023 58.3549C69.6173 58.8653 69.3887 59.3327 69.1436 59.7855C68.9523 60.1416 68.7193 60.4763 68.5139 60.8266C68.4868 60.8734 68.4822 60.9798 68.516 61.0098C68.9993 61.46 69.3039 62.0226 69.5791 62.6131C70.0905 63.7152 70.2799 64.8896 70.3351 66.0891C70.3735 66.9289 70.3445 67.7729 70.0957 68.5856C69.914 69.1774 69.6871 69.7605 69.4319 70.3268C69.1112 71.0367 68.6746 71.6781 68.1355 72.2507C67.6738 72.7412 67.1284 73.1164 66.5701 73.485C66.0481 73.8311 65.4833 74.033 64.8674 74.0606C64.5027 74.0767 64.1331 74.0571 63.7727 74.0025C63.1454 73.9074 62.5117 73.8029 61.9471 73.4983C61.5546 73.2873 61.1832 73.0335 60.8074 72.7911C60.2863 72.4541 59.82 72.0552 59.4623 71.5416C59.415 71.4732 59.3452 71.4198 59.2829 71.3547L59.2821 71.3535ZM60.9796 64.503C61.6068 64.014 61.9986 63.6752 62.4019 62.8629C60.6699 63.181 60.5633 62.9919 61.9118 62.6082C61.952 61.8685 62.0154 61.9159 61.6668 61.2744C61.4769 60.925 61.3892 61.024 61.2108 60.6687C61.0413 60.3294 61.1388 60.0754 60.8349 59.8765C60.337 59.5512 59.7205 60.7261 59.1296 60.5982C58.4497 60.45 59.0542 60.0051 58.5522 60.5123C58.1378 60.9324 57.638 59.7292 57.3945 60.2487C57.2244 60.611 57.1019 60.9957 56.9551 61.3696C56.7266 61.9503 56.6045 62.5363 56.7147 63.1674C56.7822 63.5492 56.9339 63.885 57.1054 64.2195C57.2274 64.4566 57.3323 64.717 57.5089 64.9075C58.0796 65.5196 58.768 65.889 59.6513 65.8408C60.3894 65.8012 61.0879 65.6558 61.8093 65.1819L60.9796 64.503Z" fill="#F49898"/>
<circle cx="59.612" cy="62.686" r="3.39047" transform="rotate(-10.4073 59.612 62.686)" fill="#212226"/>
<path d="M103.878 33.6793C103.421 33.6699 102.991 33.6573 102.561 33.6515C100.946 33.6217 99.3791 33.3476 97.8583 32.8046C96.1279 32.1867 94.8958 30.9972 93.909 29.5109C93.0163 28.1647 92.2863 26.7381 91.7641 25.2181C91.2804 23.8135 91.3873 22.4017 91.8882 21.0107C92.3234 19.8041 92.963 18.7131 93.8522 17.7875C95.1542 16.4284 96.7007 15.4596 98.581 15.0728C99.546 14.8739 100.515 14.7287 101.504 14.6749C102.146 14.6389 102.773 14.6461 103.408 14.7227C103.449 14.7278 103.494 14.7037 103.534 14.6954C103.384 14.1579 103.227 13.6319 103.091 13.1028C102.826 12.0736 102.743 11.0261 102.811 9.96388C102.911 8.3773 103.28 6.85894 103.97 5.42471C104.569 4.17582 105.378 3.10071 106.671 2.45815C107.378 2.10761 108.129 1.89905 108.909 1.80833C109.599 1.72783 110.291 1.64053 110.983 1.6228C112.543 1.58285 113.983 1.98527 115.304 2.81662C116.026 3.2692 116.708 3.75474 117.274 4.39968C117.892 5.10098 118.354 5.89359 118.728 6.74126C119.146 7.69495 119.405 8.69297 119.558 9.71975C119.638 10.251 119.691 10.7878 119.76 11.3508C119.997 11.3125 120.295 11.2651 120.596 11.2176C120.713 11.1996 120.828 11.1749 120.946 11.1637C121.319 11.129 121.694 11.0674 122.067 11.071C122.722 11.0772 123.383 11.0809 124.032 11.1659C125.172 11.3172 126.287 11.5997 127.3 12.1623C128.094 12.6031 128.896 13.0301 129.549 13.6852C130.393 14.5327 130.929 15.5223 131.099 16.7055C131.288 18.0138 131.225 19.3161 130.963 20.6036C130.763 21.5879 130.35 22.5063 129.804 23.3558C129.506 23.8185 129.187 24.2731 128.826 24.6889C128.286 25.3113 127.587 25.7559 126.878 26.1671C126.323 26.4916 125.728 26.7525 125.158 27.0574C125.083 27.0984 124.988 27.239 125.009 27.3078C125.291 28.3207 125.237 29.3375 125.12 30.368C124.899 32.2892 124.18 34.0411 123.259 35.7155C122.613 36.8876 121.872 38.0095 120.859 38.9061C120.121 39.5587 119.328 40.1618 118.511 40.7186C117.486 41.4159 116.36 41.9241 115.153 42.2535C114.118 42.5359 113.066 42.5922 112.002 42.6287C111.005 42.6649 110.071 42.4697 109.212 41.9955C108.703 41.7143 108.217 41.3806 107.774 41.0071C107.001 40.3566 106.227 39.6883 105.714 38.8056C105.356 38.193 105.063 37.5398 104.754 36.8984C104.327 36.008 104.025 35.0789 103.966 34.0844C103.959 33.9523 103.908 33.8218 103.878 33.6815L103.878 33.6793ZM111.874 25.7887C113.132 25.6459 113.946 25.5115 115.168 24.7437C112.552 23.7365 112.565 23.3911 114.714 23.9907C115.384 23.0197 115.43 23.1368 115.49 21.9761C115.522 21.344 115.321 21.4055 115.374 20.7749C115.426 20.1735 115.769 19.9095 115.522 19.387C115.116 18.5316 113.303 19.6145 112.607 18.9499C111.807 18.1838 112.998 18.082 111.894 18.3536C110.983 18.5795 111.304 16.5307 110.542 17.0338C110.01 17.3843 109.524 17.8049 109.014 18.1905C108.221 18.7891 107.568 19.4832 107.194 20.4316C106.968 21.006 106.895 21.5881 106.85 22.1847C106.818 22.608 106.745 23.0486 106.826 23.4541C107.092 24.7594 107.72 25.833 108.959 26.5013C109.994 27.0608 111.064 27.4439 112.437 27.3999L111.874 25.7887Z" fill="#FAE9E6"/>
<circle cx="111.526" cy="22.185" r="5.39687" transform="rotate(21.0584 111.526 22.185)" fill="#212226"/>
<path d="M293.452 13.4958C293.613 13.2013 293.756 12.8935 293.94 12.6124C294.199 12.2164 294.477 11.8339 294.764 11.4566C294.995 11.1503 295.275 10.8927 295.608 10.6941C296.003 10.4568 296.411 10.457 296.834 10.6082C297.069 10.6921 297.289 10.7947 297.432 11.0084C297.608 11.269 297.709 11.5617 297.763 11.8694C297.851 12.3707 297.83 12.8699 297.773 13.373C297.694 14.0578 297.553 14.7291 297.36 15.3898C296.995 16.6444 296.496 17.8412 295.813 18.9568C295.794 18.9868 295.783 19.0196 295.761 19.0623C296.061 19.0846 296.346 19.1064 296.632 19.1295C297.964 19.2343 299.29 19.3886 300.576 19.7687C301.096 19.9216 301.602 20.1137 302.059 20.4138C302.493 20.6992 302.775 21.0792 302.84 21.6066C302.88 21.9368 302.761 22.2123 302.588 22.4809C302.421 22.7383 302.184 22.9144 301.939 23.0851C301.579 23.3338 301.193 23.5306 300.766 23.6242C300.359 23.712 299.946 23.7881 299.531 23.8144C299.046 23.8449 298.558 23.8256 298.071 23.8076C297.757 23.7963 297.443 23.7443 297.13 23.7101C296.762 23.6691 296.394 23.6319 296.028 23.5871C295.815 23.5599 295.603 23.5188 295.371 23.4821C295.39 23.5158 295.401 23.5404 295.418 23.5588C295.585 23.7503 295.762 23.9331 295.918 24.1331C296.312 24.6353 296.642 25.1762 296.87 25.7751C297.078 26.3211 297.217 26.8853 297.241 27.4687C297.269 28.1543 297.12 28.7935 296.692 29.3486C296.376 29.7555 295.975 30.0437 295.478 30.1784C295.047 30.296 294.651 30.1635 294.286 29.9326C293.909 29.6937 293.618 29.3631 293.351 29.0129C293.105 28.6876 292.862 28.3573 292.631 28.021C292.467 27.7837 292.332 27.5295 292.176 27.2861C292.023 27.0517 291.856 26.8246 291.7 26.5926C291.585 26.4194 291.473 26.2424 291.346 26.0458C291.326 26.0962 291.31 26.1288 291.3 26.1655C291.021 27.1831 290.557 28.1132 289.953 28.9764C289.619 29.4528 289.253 29.9079 288.791 30.2617C288.346 30.6033 287.891 30.9459 287.323 31.0834C286.766 31.2187 286.256 31.1183 285.791 30.7911C285.5 30.5868 285.239 30.3452 285.097 30.0142C284.918 29.6031 284.743 29.1818 284.818 28.7214C284.887 28.2926 284.974 27.8656 285.074 27.4429C285.389 26.1192 285.909 24.8798 286.615 23.7177C286.696 23.5851 286.779 23.4551 286.884 23.2901C286.656 23.3479 286.462 23.3991 286.269 23.4466C285.49 23.6386 284.705 23.7998 283.904 23.8598C283.314 23.9035 282.735 23.8889 282.177 23.6634C281.904 23.5539 281.651 23.4133 281.439 23.1987C281.266 23.0249 281.216 22.7977 281.142 22.5811C280.983 22.1221 281.164 21.7543 281.468 21.4222C281.925 20.9241 282.504 20.625 283.127 20.4013C283.905 20.1238 284.715 19.9813 285.524 19.8399C285.569 19.8324 285.612 19.8223 285.687 19.8081C285.541 19.7206 285.414 19.6541 285.3 19.5714C284.918 19.2992 284.527 19.0381 284.167 18.741C283.874 18.4996 283.594 18.2306 283.349 17.9411C282.934 17.451 282.61 16.8975 282.408 16.2841C282.291 15.9311 282.193 15.5709 282.123 15.2066C282.042 14.7883 282.173 14.3934 282.397 14.0473C282.578 13.7662 282.881 13.6623 283.213 13.6397C283.925 13.5897 284.589 13.7893 285.252 14.0182C285.968 14.2679 286.617 14.6379 287.221 15.0893C287.511 15.3064 287.79 15.541 288.055 15.7891C288.502 16.21 288.936 16.6484 289.375 17.0793C289.385 17.0898 289.399 17.0967 289.442 17.1274C289.374 16.9148 289.316 16.737 289.259 16.558C289.013 15.7953 288.818 15.0215 288.707 14.2261C288.624 13.637 288.598 13.0432 288.648 12.4519C288.726 11.5312 288.966 10.6565 289.435 9.85281C289.628 9.52104 289.859 9.21982 290.161 8.98078C290.657 8.58978 291.208 8.54991 291.791 8.74694C292.077 8.84402 292.354 8.97011 292.544 9.2044C292.718 9.41905 292.867 9.66477 292.983 9.91709C293.249 10.498 293.334 11.1243 293.371 11.7553C293.4 12.2867 293.403 12.8198 293.418 13.352C293.419 13.4004 293.423 13.449 293.425 13.4963L293.449 13.4932L293.452 13.4958ZM292.386 23.0251C292.517 22.8852 292.645 22.7426 292.778 22.6053C293.154 22.2181 293.344 21.7486 293.336 21.2141C293.332 20.8327 293.298 20.4465 293.233 20.0708C293.165 19.6747 292.995 19.3199 292.672 19.0521C292.23 18.6887 291.738 18.4461 291.161 18.3984C290.8 18.3691 290.432 18.3459 290.12 18.5579C289.759 18.8027 289.411 19.0696 289.075 19.3484C288.806 19.5706 288.685 19.8792 288.654 20.2275C288.614 20.67 288.744 21.0771 288.905 21.4774C289.289 22.4294 289.936 23.1002 290.959 23.3533C291.486 23.4823 291.981 23.4496 292.386 23.0251Z" fill="#E75F7A"/>
<circle cx="291.073" cy="20.942" r="2.64748" transform="rotate(-81.4134 291.073 20.942)" fill="#212226"/>
<path d="M342.411 40.1871C342.251 40.2018 342.1 40.2142 341.949 40.2291C341.384 40.2821 340.826 40.2479 340.273 40.1179C339.644 39.9699 339.167 39.6027 338.764 39.1222C338.399 38.6869 338.088 38.2171 337.846 37.7065C337.622 37.2347 337.604 36.7373 337.724 36.2316C337.829 35.7929 338.009 35.3866 338.284 35.0283C338.685 34.5023 339.187 34.103 339.829 33.894C340.159 33.7866 340.492 33.6979 340.835 33.6402C341.058 33.6024 341.277 33.5803 341.502 33.5821C341.517 33.5823 341.531 33.5721 341.545 33.5676C341.471 33.3857 341.396 33.2081 341.328 33.0286C341.195 32.6794 341.124 32.3167 341.106 31.9429C341.079 31.3846 341.148 30.8396 341.333 30.3114C341.494 29.8515 341.734 29.4441 342.16 29.1688C342.394 29.0186 342.648 28.9162 342.917 28.8538C343.155 28.7986 343.393 28.7409 343.634 28.7076C344.178 28.6323 344.697 28.7164 345.191 28.955C345.461 29.0848 345.718 29.2276 345.941 29.4307C346.185 29.6515 346.377 29.9103 346.541 30.1918C346.725 30.5086 346.855 30.8471 346.948 31.1998C346.997 31.3823 347.037 31.5678 347.083 31.7618C347.164 31.7391 347.267 31.7108 347.37 31.6824C347.41 31.6715 347.449 31.6584 347.49 31.6498C347.619 31.6231 347.748 31.5868 347.878 31.5734C348.107 31.5499 348.338 31.5252 348.568 31.5294C348.972 31.5375 349.373 31.5924 349.749 31.7492C350.044 31.8721 350.341 31.9897 350.595 32.193C350.923 32.456 351.149 32.7807 351.255 33.1874C351.373 33.6371 351.402 34.0946 351.361 34.5547C351.329 34.9065 351.221 35.2436 351.064 35.5619C350.978 35.7352 350.884 35.9066 350.774 36.066C350.61 36.3047 350.384 36.4875 350.152 36.659C349.971 36.7942 349.773 36.9087 349.586 37.0376C349.561 37.0549 349.534 37.1078 349.544 37.131C349.682 37.4738 349.703 37.8312 349.703 38.1958C349.701 38.8758 349.519 39.5161 349.262 40.1374C349.083 40.5722 348.868 40.9933 348.549 41.3464C348.317 41.6034 348.064 41.8452 347.8 42.0719C347.469 42.3558 347.096 42.5775 346.687 42.7401C346.336 42.8794 345.971 42.9404 345.601 42.9949C345.254 43.0467 344.92 43.0152 344.601 42.8833C344.412 42.805 344.229 42.7074 344.06 42.5944C343.764 42.3975 343.468 42.1943 343.254 41.9061C343.105 41.7061 342.976 41.4894 342.843 41.2774C342.659 40.9831 342.517 40.6703 342.457 40.3252C342.45 40.2793 342.427 40.2357 342.411 40.1878L342.411 40.1871ZM344.895 37.1161C345.329 37.0168 345.608 36.9379 346.005 36.6216C345.051 36.3724 345.042 36.2512 345.816 36.3763C346.012 36.0108 346.033 36.0498 346.008 35.6419C345.995 35.4198 345.927 35.4492 345.921 35.2268C345.915 35.0146 346.025 34.9089 345.918 34.7361C345.742 34.4531 345.151 34.9027 344.882 34.6978C344.573 34.4616 344.985 34.3793 344.61 34.5175C344.3 34.6322 344.332 33.9037 344.085 34.1095C343.913 34.2528 343.76 34.4189 343.597 34.5736C343.343 34.8139 343.143 35.0821 343.049 35.4281C342.993 35.6377 342.99 35.8439 342.998 36.0542C343.003 36.2033 342.995 36.3602 343.039 36.4986C343.184 36.9442 343.445 37.2947 343.904 37.4795C344.288 37.6344 344.677 37.7262 345.155 37.6569L344.895 37.1161Z" fill="#F8764E"/>
<circle cx="344.632" cy="35.8706" r="1.89753" transform="rotate(14.645 344.632 35.8706)" fill="#212226"/>
<path d="M372.541 60.0003C372.238 59.4758 371.899 58.9658 371.638 58.4192C371.271 57.6493 370.942 56.8611 370.63 56.0664C370.375 55.4223 370.24 54.7496 370.246 54.0507C370.251 53.2192 370.634 52.5908 371.265 52.0798C371.614 51.7973 371.978 51.5548 372.442 51.5338C373.008 51.5081 373.555 51.626 374.079 51.8315C374.934 52.1671 375.683 52.6676 376.405 53.227C377.386 53.9911 378.288 54.8383 379.125 55.7556C380.715 57.4947 382.092 59.385 383.17 61.484C383.199 61.5411 383.239 61.5892 383.284 61.6627C383.6 61.2211 383.901 60.8025 384.205 60.3833C385.615 58.4298 387.097 56.5311 388.889 54.9062C389.611 54.2497 390.382 53.6494 391.273 53.2266C392.119 52.8265 392.97 52.7477 393.843 53.1424C394.39 53.3898 394.702 53.8325 394.954 54.3511C395.195 54.8487 395.243 55.38 395.276 55.9178C395.322 56.7055 395.263 57.4852 395.007 58.2298C394.761 58.9392 394.491 59.6469 394.142 60.3114C393.733 61.088 393.246 61.8214 392.762 62.5541C392.45 63.0283 392.076 63.4622 391.728 63.9137C391.321 64.441 390.918 64.974 390.506 65.4956C390.264 65.7988 390.002 66.0863 389.728 66.4096C389.798 66.4115 389.846 66.418 389.89 66.4087C390.342 66.3305 390.789 66.23 391.244 66.1779C392.387 66.0409 393.53 66.0403 394.667 66.2502C395.704 66.4413 396.703 66.7564 397.624 67.2674C398.707 67.8674 399.552 68.6966 400.005 69.877C400.337 70.7442 400.404 71.6337 400.146 72.525C399.923 73.2992 399.347 73.7854 398.649 74.1312C397.927 74.4886 397.145 74.6261 396.355 74.7087C395.623 74.7826 394.886 74.8475 394.151 74.8889C393.632 74.918 393.114 74.8872 392.592 74.9004C392.087 74.9166 391.581 74.9596 391.078 74.9822C390.702 74.9979 390.325 75.004 389.902 75.0163C389.962 75.0935 389.997 75.1493 390.044 75.1992C391.35 76.5826 392.348 78.1704 393.112 79.9103C393.533 80.8716 393.89 81.8629 394.002 82.9056C394.111 83.9127 394.212 84.9344 393.891 85.9385C393.577 86.9246 392.944 87.6154 392.004 88.0253C391.417 88.2814 390.799 88.4575 390.156 88.3666C389.355 88.2556 388.541 88.1306 387.902 87.5838C387.307 87.0742 386.73 86.5409 386.172 85.9901C384.428 84.2633 383.006 82.2995 381.878 80.1212C381.75 79.8725 381.628 79.6225 381.472 79.3064C381.347 79.7112 381.244 80.0584 381.136 80.3999C380.702 81.7799 380.213 83.1413 379.554 84.4323C379.069 85.3812 378.503 86.2607 377.632 86.9084C377.207 87.2267 376.753 87.4848 376.224 87.609C375.794 87.7125 375.397 87.5766 374.993 87.4886C374.137 87.3028 373.74 86.6785 373.514 85.8989C373.175 84.7277 373.258 83.5543 373.497 82.3846C373.799 80.9261 374.34 79.5438 374.881 78.1647C374.911 78.0885 374.935 78.0137 374.985 77.8838C374.712 78.0272 374.491 78.16 374.256 78.2592C373.479 78.5917 372.71 78.9489 371.914 79.2255C371.267 79.4509 370.591 79.6295 369.915 79.7347C368.77 79.915 367.614 79.8953 366.479 79.6318C365.826 79.4799 365.179 79.2934 364.552 79.0596C363.831 78.7922 363.346 78.2197 363.022 77.5501C362.759 77.0074 362.883 76.4432 363.16 75.9101C363.751 74.7665 364.681 73.9301 365.655 73.1245C366.712 72.2551 367.89 71.6026 369.152 71.0953C369.759 70.8517 370.382 70.6412 371.013 70.4656C372.081 70.1719 373.163 69.9149 374.239 69.6427C374.264 69.6374 374.288 69.6225 374.376 69.5841C373.984 69.4902 373.656 69.4129 373.327 69.3325C371.921 68.9963 370.546 68.5706 369.216 67.9959C368.23 67.5716 367.291 67.0544 366.428 66.4218C365.082 65.4385 363.959 64.2491 363.161 62.7723C362.83 62.1639 362.583 61.5248 362.498 60.8351C362.361 59.7047 362.816 58.8186 363.666 58.1054C364.084 57.7552 364.538 57.4474 365.077 57.3741C365.572 57.307 366.09 57.3078 366.587 57.3663C367.732 57.5015 368.777 57.9565 369.783 58.4928C370.629 58.9465 371.454 59.4411 372.288 59.9172C372.364 59.9611 372.442 60.0012 372.517 60.042L372.535 60.0016L372.541 60.0003ZM386.224 70.5794C386.131 70.2468 386.032 69.9155 385.945 69.5816C385.701 68.6396 385.155 67.907 384.325 67.4169C383.733 67.066 383.107 66.7557 382.466 66.5048C381.792 66.2376 381.086 66.1664 380.371 66.4129C379.396 66.7536 378.561 67.2843 377.947 68.1273C377.563 68.6563 377.182 69.2012 377.215 69.8819C377.254 70.6677 377.339 71.4537 377.453 72.2337C377.544 72.8558 377.906 73.3312 378.413 73.7064C379.058 74.1824 379.807 74.3641 380.574 74.492C382.401 74.793 384.042 74.4256 385.392 73.086C386.084 72.396 386.499 71.6014 386.224 70.5794Z" fill="#F49898"/>
<circle cx="381.783" cy="70.6495" r="4.77549" transform="rotate(-140.083 381.783 70.6495)" fill="#212226"/>
</g>
<defs>
<clipPath id="clip0_752_8939">
<rect width="393" height="88.678" fill="white" transform="translate(0.772461 0.759033)"/>
</clipPath>
</defs>
</svg>
