<svg width="28" height="29" viewBox="0 0 28 29" fill="none" xmlns="http://www.w3.org/2000/svg">
<path fill-rule="evenodd" clip-rule="evenodd" d="M8.81343 6.4542C8.86921 6.57531 8.92494 6.69632 8.97806 6.81802L8.9735 6.81846L8.95764 6.84528C8.94223 6.83451 8.92659 6.82377 8.91087 6.81297C8.8763 6.78922 8.8413 6.76517 8.80728 6.73995C8.63764 6.6161 8.46878 6.49106 8.29991 6.36602C7.92484 6.0883 7.54972 5.81055 7.16598 5.54564C6.50383 5.091 5.8077 4.69021 5.01709 4.50547C4.67357 4.42543 4.31073 4.38404 3.9595 4.39216C3.57613 4.40103 3.23434 4.5808 2.91403 4.79304C2.26268 5.22543 1.87427 5.80995 1.8816 6.61219C1.88677 7.10174 2.00942 7.56861 2.19277 8.0205C2.63533 9.11722 3.32806 10.0383 4.19278 10.8325C4.74754 11.3434 5.3642 11.7794 6.02103 12.154C6.90672 12.661 7.83574 13.0672 8.79354 13.4132C8.94201 13.4677 9.09038 13.5211 9.25123 13.5791C9.33315 13.6086 9.4183 13.6393 9.50836 13.6719C9.48354 13.6795 9.46565 13.6855 9.45199 13.6901C9.42997 13.6974 9.41897 13.7011 9.40771 13.7022C9.17974 13.7333 8.95149 13.7635 8.72321 13.7938C8.17596 13.8662 7.62859 13.9386 7.08479 14.0245C6.62932 14.0977 6.17625 14.196 5.73239 14.3188C4.80886 14.5746 3.93244 14.9387 3.12431 15.4643C2.37925 15.9516 1.66188 16.4639 1.15848 17.2181C0.922745 17.5695 0.791453 17.9547 0.93311 18.3554C1.10668 18.8496 1.40153 19.2886 1.88487 19.5325C2.30546 19.7455 2.74376 19.927 3.189 20.0848C3.96277 20.3585 4.77108 20.4634 5.58667 20.4272C6.06787 20.4067 6.55568 20.3349 7.02635 20.228C7.46877 20.1279 7.9039 19.9935 8.3391 19.8591C8.47326 19.8177 8.60743 19.7762 8.74182 19.7358C8.86355 19.6998 8.98181 19.6516 9.11192 19.5985C9.16598 19.5764 9.22208 19.5535 9.28133 19.5303C9.26044 19.5711 9.24433 19.6038 9.2303 19.6323C9.21435 19.6647 9.20109 19.6917 9.18653 19.7188C8.6992 20.6417 8.21207 21.5669 7.88596 22.5642C7.62619 23.3643 7.47598 24.1792 7.62097 25.0259C7.71832 25.5895 7.94693 26.0578 8.53169 26.2552C8.57765 26.2708 8.62338 26.2872 8.6691 26.3037C8.89775 26.3861 9.12639 26.4685 9.38407 26.4363C9.76397 26.391 10.1022 26.2461 10.4247 26.0566C11.0851 25.6717 11.5507 25.1005 11.9651 24.4744C12.5282 23.6225 12.9772 22.7078 13.3901 21.7759C13.4547 21.6301 13.5183 21.4825 13.5864 21.3246C13.626 21.2327 13.6671 21.1374 13.7108 21.0367C13.7235 21.0719 13.7358 21.1059 13.7477 21.139C13.8151 21.3258 13.8717 21.4827 13.9315 21.6392C14.5498 23.253 15.3907 24.7397 16.4759 26.0859C16.8228 26.5153 17.1847 26.9341 17.5613 27.3377C17.966 27.7708 18.5257 27.9223 19.0775 28.063C19.5209 28.1773 19.967 28.1026 20.3984 27.9695C21.089 27.7566 21.5861 27.3228 21.8839 26.6571C22.1876 25.9794 22.1969 25.2561 22.2004 24.5426C22.2037 23.8038 22.0314 23.0817 21.8124 22.3755C21.4147 21.0973 20.8413 19.9072 20.0353 18.8359C20.0165 18.8108 20.0014 18.7843 19.9834 18.7528C19.9737 18.7358 19.9632 18.7173 19.9508 18.6967C20.0529 18.7052 20.1512 18.7138 20.2471 18.7221C20.4297 18.7381 20.6031 18.7532 20.7763 18.7654C20.9292 18.7757 21.0826 18.7833 21.2362 18.7909C21.4386 18.801 21.6411 18.8111 21.8428 18.8272C21.9981 18.8407 22.1523 18.8597 22.3062 18.8786C22.5156 18.9044 22.7244 18.9301 22.935 18.9419C23.4532 18.9708 23.9743 18.9833 24.4925 18.9892C25.052 18.9935 25.61 18.9588 26.1438 18.7654C26.6597 18.5782 27.101 18.2832 27.318 17.7587C27.5688 17.155 27.5919 16.527 27.4281 15.8938C27.2034 15.0318 26.6771 14.3847 25.9664 13.8795C25.3618 13.4493 24.6869 13.15 23.9762 12.9347C23.1967 12.6982 22.3968 12.6087 21.5852 12.6146C21.3655 12.6151 21.1463 12.6317 20.9268 12.6482C20.8245 12.6559 20.7221 12.6636 20.6196 12.6697C20.5962 12.6719 20.5722 12.6681 20.5419 12.6631C20.5308 12.6613 20.5188 12.6594 20.5057 12.6576C20.5835 12.5843 20.6598 12.5141 20.7346 12.4454C20.8689 12.3219 20.9983 12.203 21.1224 12.0789C21.3421 11.8571 21.5594 11.6313 21.7767 11.4056C21.8854 11.2928 21.994 11.18 22.1029 11.0676C22.1877 10.9797 22.274 10.8932 22.3604 10.8066C22.5579 10.6088 22.7553 10.411 22.9334 10.1972L22.963 10.1617C23.3498 9.69862 23.7374 9.23448 24.0758 8.73566C24.3724 8.29792 24.6171 7.82369 24.8455 7.34643C25.0831 6.84528 25.1857 6.30405 25.2157 5.74904C25.2348 5.3699 25.2428 4.99414 25.1135 4.62683C24.9782 4.244 24.7945 3.90947 24.4311 3.69327C23.8507 3.34819 23.2491 3.33642 22.6252 3.54994C21.968 3.77583 21.3811 4.13538 20.8235 4.53814C19.4413 5.53472 18.2546 6.74738 17.1134 8.00402C16.8675 8.27358 16.624 8.54293 16.3681 8.82726C16.3575 8.80486 16.3472 8.78549 16.3377 8.76754C16.3239 8.74137 16.3116 8.71823 16.3024 8.69317C15.7127 7.13882 14.8978 5.70712 13.9211 4.36445C13.4074 3.65641 12.8426 2.99235 12.2161 2.38017C11.7547 1.93174 11.2694 1.52238 10.6977 1.22019C10.3465 1.03505 9.97334 0.909509 9.5751 0.882988C9.24862 0.861141 8.97447 1.00226 8.7077 1.17259C8.22627 1.48068 7.90866 1.89052 7.83978 2.47224C7.78047 2.96103 7.82169 3.44255 7.94934 3.91354C8.10585 4.49452 8.27355 5.07214 8.47024 5.64009C8.56638 5.91774 8.69003 6.18622 8.81343 6.4542ZM17.7099 15.2093C17.715 15.2399 17.72 15.2705 17.725 15.3011C17.8076 15.8471 17.6354 16.276 17.3215 16.6358C17.1567 16.9462 16.9401 17.2359 16.672 17.4919C15.328 18.7748 13.1984 18.7254 11.9154 17.3814C10.6324 16.0374 10.6819 13.9078 12.0259 12.6248C13.3699 11.3418 15.4995 11.3913 16.7825 12.7353C17.4421 13.4263 17.7495 14.3249 17.7099 15.2093Z" fill="#C39A9A"/>
</svg>
