<svg width="28" height="28" viewBox="0 0 28 28" fill="none" xmlns="http://www.w3.org/2000/svg">
<path fill-rule="evenodd" clip-rule="evenodd" d="M8.81334 6.33504C8.86912 6.45616 8.92484 6.57717 8.97796 6.69887L8.97341 6.6993L8.95755 6.72612C8.94214 6.71536 8.9265 6.70462 8.91077 6.69381C8.87621 6.67006 8.84121 6.64602 8.80719 6.62079C8.63755 6.49694 8.46869 6.37191 8.29982 6.24687C7.92474 5.96915 7.54963 5.69139 7.16589 5.42649C6.50374 4.97185 5.8076 4.57106 5.017 4.38632C4.67348 4.30628 4.31064 4.26489 3.95941 4.273C3.57604 4.28188 3.23424 4.46165 2.91394 4.67388C2.26259 5.10628 1.87418 5.6908 1.8815 6.49304C1.88668 6.98259 2.00933 7.44946 2.19268 7.90135C2.63524 8.99806 3.32797 9.91913 4.19269 10.7134C4.74745 11.2243 5.36411 11.6602 6.02094 12.0349C6.90663 12.5418 7.83565 12.9481 8.79345 13.2941C8.94192 13.3485 9.09029 13.402 9.25114 13.4599C9.33306 13.4895 9.41821 13.5202 9.50826 13.5527C9.48345 13.5604 9.46556 13.5664 9.4519 13.5709C9.42988 13.5783 9.41887 13.5819 9.40762 13.583C9.17965 13.6142 8.95139 13.6444 8.72311 13.6746C8.17587 13.747 7.6285 13.8195 7.0847 13.9053C6.62923 13.9786 6.17615 14.0769 5.7323 14.1996C4.80877 14.4555 3.93235 14.8196 3.12421 15.3451C2.37916 15.8324 1.66178 16.3447 1.15839 17.0989C0.922654 17.4504 0.791362 17.8356 0.933018 18.2362C1.10659 18.7304 1.40144 19.1694 1.88478 19.4133C2.30537 19.6264 2.74366 19.8078 3.18891 19.9656C3.96268 20.2394 4.77099 20.3442 5.58658 20.308C6.06777 20.2875 6.55559 20.2158 7.02626 20.1089C7.46868 20.0087 7.90381 19.8744 8.33901 19.7399C8.47317 19.6985 8.60734 19.6571 8.74173 19.6166C8.86346 19.5807 8.98172 19.5324 9.11183 19.4793C9.16589 19.4572 9.22199 19.4343 9.28124 19.4111C9.26035 19.4519 9.24424 19.4846 9.23021 19.5132C9.21426 19.5456 9.201 19.5725 9.18644 19.5996C8.6991 20.5225 8.21198 21.4478 7.88587 22.4451C7.6261 23.2451 7.47589 24.0601 7.62088 24.9067C7.71822 25.4703 7.94684 25.9386 8.5316 26.136C8.57756 26.1516 8.62328 26.1681 8.66901 26.1846C8.89766 26.267 9.1263 26.3494 9.38398 26.3172C9.76388 26.2718 10.1021 26.1269 10.4246 25.9375C11.085 25.5525 11.5506 24.9814 11.965 24.3553C12.5281 23.5034 12.9771 22.5887 13.39 21.6567C13.4547 21.5109 13.5182 21.3634 13.5863 21.2054C13.6259 21.1136 13.667 21.0182 13.7108 20.9176C13.7234 20.9527 13.7357 20.9867 13.7476 21.0198C13.815 21.2067 13.8716 21.3635 13.9314 21.5201C14.5497 23.1338 15.3906 24.6205 16.4758 25.9667C16.8227 26.3961 17.1846 26.8149 17.5612 27.2185C17.9659 27.6516 18.5256 27.8031 19.0774 27.9439C19.5208 28.0581 19.9669 27.9835 20.3983 27.8504C21.0889 27.6374 21.586 27.2036 21.8838 26.538C22.1875 25.8603 22.1969 25.137 22.2003 24.4235C22.2036 23.6846 22.0313 22.9625 21.8123 22.2563C21.4146 20.9782 20.8412 19.7881 20.0352 18.7168C20.0164 18.6916 20.0013 18.6652 19.9833 18.6336C19.9736 18.6166 19.9631 18.5981 19.9507 18.5776C20.0528 18.586 20.1511 18.5946 20.247 18.603C20.4296 18.6189 20.6031 18.634 20.7762 18.6462C20.9291 18.6565 21.0825 18.6641 21.2361 18.6718C21.4385 18.6819 21.6411 18.692 21.8427 18.7081C21.998 18.7216 22.1522 18.7406 22.3061 18.7595C22.5155 18.7852 22.7243 18.8109 22.935 18.8227C23.4531 18.8516 23.9742 18.8642 24.4924 18.8701C25.0519 18.8743 25.61 18.8396 26.1437 18.6462C26.6597 18.4591 27.1009 18.164 27.3179 17.6395C27.5687 17.0359 27.5918 16.4079 27.428 15.7747C27.2033 14.9126 26.677 14.2656 25.9663 13.7603C25.3617 13.3301 24.6868 13.0309 23.9761 12.8155C23.1966 12.5791 22.3967 12.4896 21.5851 12.4955C21.3655 12.496 21.1463 12.5125 20.9267 12.529C20.8244 12.5367 20.722 12.5445 20.6195 12.5506C20.5961 12.5528 20.5721 12.5489 20.5418 12.544C20.5307 12.5422 20.5187 12.5402 20.5056 12.5384C20.5834 12.4652 20.6597 12.395 20.7345 12.3262C20.8688 12.2028 20.9982 12.0839 21.1223 11.9598C21.342 11.7379 21.5593 11.5122 21.7766 11.2865C21.8853 11.1736 21.9939 11.0608 22.1028 10.9485C22.1876 10.8606 22.2739 10.774 22.3603 10.6875C22.5578 10.4897 22.7552 10.2918 22.9333 10.078L22.963 10.0425C23.3497 9.57947 23.7373 9.11533 24.0757 8.6165C24.3723 8.17877 24.617 7.70454 24.8454 7.22728C25.083 6.72613 25.1856 6.1849 25.2156 5.62988C25.2348 5.25075 25.2427 4.87499 25.1134 4.50768C24.9781 4.12485 24.7944 3.79032 24.431 3.57412C23.8506 3.22904 23.249 3.21727 22.6251 3.43078C21.9679 3.65667 21.381 4.01622 20.8234 4.41898C19.4412 5.41557 18.2545 6.62823 17.1133 7.88487C16.8674 8.15443 16.6239 8.42378 16.368 8.70811C16.3574 8.68571 16.3472 8.66633 16.3376 8.64838C16.3238 8.62221 16.3115 8.59907 16.3023 8.57402C15.7127 7.01966 14.8977 5.58797 13.921 4.2453C13.4073 3.53726 12.8425 2.8732 12.216 2.26102C11.7546 1.81259 11.2693 1.40323 10.6976 1.10103C10.3464 0.915893 9.97325 0.790356 9.57501 0.763835C9.24853 0.741988 8.97438 0.883109 8.70761 1.05344C8.22617 1.36153 7.90857 1.77137 7.83969 2.35309C7.78038 2.84188 7.8216 3.3234 7.94925 3.79439C8.10576 4.37537 8.27346 4.95299 8.47015 5.52094C8.56629 5.79859 8.68994 6.06707 8.81334 6.33504ZM17.7098 15.0902C17.7149 15.1208 17.7199 15.1513 17.7249 15.1819C17.8075 15.7279 17.6353 16.1568 17.3214 16.5167C17.1567 16.8271 16.94 17.1167 16.6719 17.3727C15.3279 18.6557 13.1983 18.6062 11.9153 17.2622C10.6324 15.9182 10.6818 13.7886 12.0258 12.5057C13.3698 11.2227 15.4994 11.2721 16.7824 12.6161C17.442 13.3071 17.7494 14.2057 17.7098 15.0902Z" fill="#BCC4C2"/>
</svg>
