<svg width="80" height="80" viewBox="0 0 80 80" fill="none" xmlns="http://www.w3.org/2000/svg">
<g clip-path="url(#clip0_738_6578)">
<circle cx="39.7006" cy="39.7006" r="39.7006" fill="#F49898"/>
<path d="M31.7372 51.554C31.2658 51.5444 30.8224 51.5314 30.3793 51.5254C28.7143 51.4947 27.0982 51.2121 25.53 50.6521C23.7456 50.0149 22.4751 48.7883 21.4576 47.2557C20.537 45.8675 19.7843 44.3964 19.2458 42.8291C18.747 41.3806 18.8572 39.9248 19.3737 38.4904C19.8225 37.2462 20.4821 36.1211 21.399 35.1667C22.7416 33.7653 24.3363 32.7662 26.2753 32.3673C27.2703 32.1622 28.2698 32.0125 29.2894 31.957C29.9511 31.9199 30.5982 31.9274 31.2527 32.0063C31.295 32.0116 31.3409 31.9867 31.3828 31.9781C31.2278 31.4239 31.0663 30.8814 30.9258 30.3359C30.6528 29.2746 30.5667 28.1945 30.6369 27.0991C30.7402 25.463 31.1203 23.8973 31.8319 22.4184C32.4501 21.1305 33.2837 20.0219 34.6173 19.3593C35.3462 18.9978 36.1205 18.7828 36.9254 18.6892C37.6369 18.6062 38.3505 18.5162 39.0645 18.4979C40.6728 18.4567 42.158 18.8717 43.5198 19.7289C44.2642 20.1956 44.9678 20.6963 45.5511 21.3614C46.1883 22.0845 46.6651 22.9019 47.0503 23.776C47.4819 24.7594 47.7489 25.7885 47.9069 26.8474C47.9889 27.3952 48.0431 27.9487 48.1147 28.5293C48.3592 28.4898 48.6667 28.4409 48.9764 28.3919C49.0976 28.3733 49.2161 28.3479 49.3375 28.3363C49.7228 28.3006 50.1093 28.2371 50.4938 28.2407C51.1689 28.2471 51.8509 28.2509 52.5198 28.3385C53.6952 28.4946 54.8453 28.7859 55.8893 29.3661C56.7083 29.8206 57.5361 30.261 58.2089 30.9365C59.0792 31.8104 59.6317 32.8308 59.8077 34.051C60.0026 35.4001 59.9373 36.743 59.6674 38.0706C59.4605 39.0856 59.0354 40.0326 58.4717 40.9086C58.1643 41.3858 57.8356 41.8545 57.4632 42.2833C56.9068 42.9252 56.1863 43.3835 55.4551 43.8076C54.8822 44.1422 54.2693 44.4113 53.6815 44.7256C53.6035 44.768 53.5059 44.913 53.5274 44.9839C53.8184 46.0283 53.7628 47.0768 53.6421 48.1395C53.4139 50.1206 52.6728 51.9272 51.7224 53.6538C51.0566 54.8624 50.2928 56.0193 49.2482 56.9439C48.4868 57.6168 47.6695 58.2387 46.827 58.8129C45.7697 59.532 44.6089 60.056 43.3637 60.3957C42.297 60.6868 41.2119 60.7449 40.1143 60.7826C39.087 60.8199 38.1232 60.6186 37.2373 60.1296C36.7129 59.8396 36.2122 59.4955 35.7545 59.1103C34.9577 58.4396 34.1601 57.7504 33.6306 56.8402C33.2618 56.2086 32.9593 55.535 32.6408 54.8736C32.2 53.9553 31.8889 52.9974 31.8283 51.9718C31.8207 51.8355 31.7686 51.701 31.7372 51.5563L31.7372 51.554ZM39.9831 43.4174C41.2803 43.2701 42.1191 43.1316 43.3797 42.3398C40.6823 41.3012 40.6951 40.945 42.9117 41.5633C43.6019 40.562 43.6499 40.6828 43.7116 39.4859C43.745 38.8341 43.5376 38.8975 43.5922 38.2472C43.6456 37.627 43.9997 37.3549 43.7445 36.8161C43.3262 35.934 41.4564 37.0507 40.7387 36.3654C39.9138 35.5754 41.1413 35.4704 40.0039 35.7504C39.0638 35.9834 39.395 33.8707 38.6089 34.3894C38.0604 34.7509 37.5593 35.1846 37.0333 35.5823C36.2159 36.1995 35.5428 36.9153 35.1564 37.8933C34.9238 38.4856 34.8486 39.0858 34.802 39.7011C34.7696 40.1375 34.6934 40.5919 34.7775 41.01C35.052 42.356 35.6993 43.463 36.9772 44.1522C38.0446 44.7292 39.1471 45.1242 40.5631 45.0788L39.9831 43.4174Z" fill="#FDF6E9"/>
<circle cx="39.6245" cy="39.7015" r="5.56517" transform="rotate(21.0584 39.6245 39.7015)" fill="#DE6843"/>
</g>
<defs>
<clipPath id="clip0_738_6578">
<rect width="79.4012" height="79.4012" fill="white"/>
</clipPath>
</defs>
</svg>
