<svg width="80" height="80" viewBox="0 0 80 80" fill="none" xmlns="http://www.w3.org/2000/svg">
<g clip-path="url(#clip0_681_6078)">
<circle cx="39.8502" cy="39.7006" r="39.7006" fill="#388596"/>
<path d="M31.8867 51.554C31.4153 51.5444 30.9719 51.5314 30.5288 51.5254C28.8638 51.4947 27.2478 51.2121 25.6796 50.6521C23.8952 50.0149 22.6246 48.7883 21.6071 47.2557C20.6865 45.8675 19.9338 44.3964 19.3953 42.8291C18.8966 41.3806 19.0068 39.9248 19.5232 38.4904C19.972 37.2462 20.6316 36.1211 21.5485 35.1667C22.8911 33.7653 24.4859 32.7662 26.4248 32.3673C27.4199 32.1622 28.4194 32.0125 29.4389 31.957C30.1007 31.9199 30.7477 31.9274 31.4022 32.0063C31.4446 32.0116 31.4905 31.9867 31.5323 31.9781C31.3774 31.4239 31.2159 30.8814 31.0753 30.3359C30.8024 29.2746 30.7162 28.1945 30.7864 27.0991C30.8897 25.463 31.2699 23.8973 31.9814 22.4184C32.5996 21.1305 33.4332 20.0219 34.7668 19.3593C35.4957 18.9978 36.2701 18.7828 37.0749 18.6892C37.7864 18.6062 38.5 18.5162 39.214 18.4979C40.8223 18.4567 42.3076 18.8717 43.6693 19.7289C44.4137 20.1956 45.1173 20.6963 45.7007 21.3614C46.3378 22.0845 46.8146 22.9019 47.1998 23.776C47.6314 24.7594 47.8984 25.7885 48.0564 26.8474C48.1385 27.3952 48.1926 27.9487 48.2642 28.5293C48.5088 28.4898 48.8162 28.4409 49.126 28.3919C49.2471 28.3733 49.3656 28.3479 49.487 28.3363C49.8723 28.3006 50.2589 28.2371 50.6433 28.2407C51.3184 28.2471 52.0005 28.2509 52.6694 28.3385C53.8447 28.4946 54.9948 28.7859 56.0389 29.3661C56.8578 29.8206 57.6856 30.261 58.3584 30.9365C59.2287 31.8104 59.7812 32.8308 59.9572 34.051C60.1522 35.4001 60.0868 36.743 59.817 38.0706C59.6101 39.0856 59.185 40.0326 58.6212 40.9086C58.3139 41.3858 57.9852 41.8545 57.6127 42.2833C57.0563 42.9252 56.3358 43.3835 55.6047 43.8076C55.0317 44.1422 54.4188 44.4113 53.831 44.7256C53.753 44.768 53.6555 44.913 53.677 44.9839C53.968 46.0283 53.9123 47.0768 53.7916 48.1395C53.5634 50.1206 52.8223 51.9272 51.8719 53.6538C51.2062 54.8624 50.4423 56.0193 49.3977 56.9439C48.6363 57.6168 47.819 58.2387 46.9765 58.8129C45.9193 59.532 44.7585 60.056 43.5132 60.3957C42.4465 60.6868 41.3614 60.7449 40.2639 60.7826C39.2366 60.8199 38.2727 60.6186 37.3868 60.1296C36.8625 59.8396 36.3618 59.4955 35.904 59.1103C35.1072 58.4396 34.3097 57.7504 33.7801 56.8402C33.4113 56.2086 33.1088 55.535 32.7904 54.8736C32.3496 53.9553 32.0384 52.9974 31.9778 51.9718C31.9702 51.8355 31.9181 51.701 31.8868 51.5563L31.8867 51.554ZM40.1327 43.4174C41.4299 43.2701 42.2686 43.1316 43.5293 42.3398C40.8318 41.3012 40.8446 40.945 43.0612 41.5633C43.7514 40.562 43.7995 40.6828 43.8611 39.4859C43.8945 38.8341 43.6871 38.8975 43.7417 38.2472C43.7951 37.627 44.1492 37.3549 43.8941 36.8161C43.4757 35.934 41.6059 37.0507 40.8882 36.3654C40.0633 35.5754 41.2909 35.4704 40.1534 35.7504C39.2134 35.9834 39.5445 33.8707 38.7584 34.3894C38.21 34.7509 37.7088 35.1846 37.1829 35.5823C36.3654 36.1995 35.6924 36.9153 35.3059 37.8933C35.0734 38.4856 34.9981 39.0858 34.9515 39.7011C34.9192 40.1375 34.8429 40.5919 34.927 41.01C35.2016 42.356 35.8488 43.463 37.1268 44.1522C38.1941 44.7292 39.2967 45.1242 40.7126 45.0788L40.1327 43.4174Z" fill="#FDF6E9"/>
<circle cx="39.774" cy="39.7013" r="5.56517" transform="rotate(21.0584 39.774 39.7013)" fill="#87B2B7"/>
</g>
<defs>
<clipPath id="clip0_681_6078">
<rect width="79.4012" height="79.4012" fill="white" transform="translate(0.149597)"/>
</clipPath>
</defs>
</svg>
