<svg width="391" height="297" viewBox="0 0 391 297" fill="none" xmlns="http://www.w3.org/2000/svg">
<g filter="url(#filter0_d_806_28451)">
<path d="M296.5 31.0529L303.582 61.7881M329.5 16.4999L326.208 61.788M365.5 31.053L348.208 61.7881" stroke="#FDF6E9" stroke-width="4" stroke-linecap="round" stroke-linejoin="round"/>
</g>
<g filter="url(#filter1_i_806_28451)">
<path d="M264.23 208.097C286.408 185.908 266.539 161.785 273.009 132.925C278.568 108.124 304.889 92.6227 292.876 70.8863C280.863 49.1499 243.314 70.8863 211.557 70.8863C179.799 70.8863 92.5994 -29.9209 67.8614 22.885C55.7004 48.8444 87.9834 70.8012 73.8684 95.7926C60.2194 119.958 14.0954 102.352 10.5684 129.755C7.16641 156.184 68.8764 153.814 59.0834 178.662C56.1574 186.086 47.1494 187.024 46.6074 194.965C45.6634 208.825 68.7704 200.069 80.3364 208.097C101.561 222.829 88.5815 255.569 112.679 265.155C144.122 277.663 153.768 230.268 185.682 218.965C214.818 208.647 242.052 230.286 264.23 208.097Z" fill="#7B8C82"/>
</g>
<g filter="url(#filter2_d_806_28451)">
<path d="M77.2372 89.5776C81.8432 95.7184 102.719 88.9064 102.719 88.9064C102.719 88.9064 93.1332 102.357 91.1942 105.888C87.0502 113.434 85.0882 111.554 77.9262 121.856C74.5792 126.671 73.0562 133.299 75.7452 138.511C77.2052 141.34 81.6322 144.152 81.6322 144.152C81.6322 144.152 91.0872 150.222 80.7362 159.362C70.3852 168.501 65.0502 174.992 63.0462 184.244C61.0432 193.496 79.8432 245.347 80.6782 248.419C81.5132 251.491 78.9382 272.745 68.5612 272.122C63.5842 271.824 57.4492 265.836 57.4492 265.836C57.4492 265.836 58.1672 279.365 64.3982 283.12C68.7242 285.726 76.5312 289.359 84.6302 288.352C98.4062 286.639 106.599 276.406 109.4 262.856C112.2 249.305 126.533 173.07 126.533 173.07L124.157 56.9324L120.403 58.6687C120.403 58.6687 125.559 50.2317 124.523 46.3554C123.058 40.8769 115.678 37.6606 110.051 38.3605C103.151 39.2187 105.343 55.5305 105.343 55.5305C105.343 55.5305 94.1282 47.8873 89.0322 58.6469C84.1762 68.9 93.4972 73.3142 93.4972 73.3142C93.4972 73.3142 77.4902 68.0967 73.9242 74.8857C71.1892 80.0928 73.7072 84.8726 77.2372 89.5776Z" fill="#613F38"/>
</g>
<g filter="url(#filter3_d_806_28451)">
<path d="M107.743 110.369C99.1629 110.369 92.2076 103.413 92.2076 94.8337C92.2076 86.2539 99.1629 79.2986 107.743 79.2986C116.323 79.2986 123.278 86.2539 123.278 94.8337C123.278 103.413 116.323 110.369 107.743 110.369Z" fill="#E79595"/>
<rect x="213.208" y="72.0532" width="158.5" height="37" rx="14" fill="#386159"/>
<path d="M248.592 90.1177C248.592 89.5503 249.057 89.0854 249.631 89.0854H253.425V85.2915C253.425 84.7241 253.883 84.2524 254.458 84.2524C255.032 84.2524 255.497 84.7241 255.497 85.2915V89.0854H259.291C259.858 89.0854 260.323 89.5503 260.323 90.1177C260.323 90.6919 259.858 91.1567 259.291 91.1567H255.497V94.9507C255.497 95.5181 255.032 95.9897 254.458 95.9897C253.883 95.9897 253.425 95.5181 253.425 94.9507V91.1567H249.631C249.057 91.1567 248.592 90.6919 248.592 90.1177Z" fill="#FDF6E9"/>
<path d="M274.529 92.9632L272.846 88.4922C272.71 88.1466 272.571 87.7074 272.429 87.1747C272.367 87.4411 272.299 87.6876 272.225 87.9142C272.151 88.1352 272.083 88.3307 272.021 88.5007L270.338 92.9632H274.529ZM278.294 97.5532H276.756C276.58 97.5532 276.438 97.5107 276.331 97.4257C276.223 97.3351 276.141 97.2246 276.084 97.0942L275.064 94.3912H269.794L268.774 97.0942C268.729 97.2076 268.649 97.3124 268.536 97.4087C268.423 97.5051 268.281 97.5532 268.111 97.5532H266.573L271.426 85.3132H273.441L278.294 97.5532ZM284.733 91.0167C284.478 90.6881 284.198 90.4586 283.892 90.3282C283.586 90.1979 283.254 90.1327 282.897 90.1327C282.183 90.1327 281.625 90.3962 281.223 90.9232C280.821 91.4446 280.619 92.2181 280.619 93.2437C280.619 93.7764 280.665 94.2326 280.755 94.6122C280.846 94.9862 280.976 95.2922 281.146 95.5302C281.316 95.7682 281.523 95.9411 281.767 96.0487C282.011 96.1564 282.285 96.2102 282.591 96.2102C283.056 96.2102 283.456 96.1111 283.79 95.9127C284.13 95.7087 284.444 95.4226 284.733 95.0542V91.0167ZM286.561 84.9732V97.5532H285.456C285.212 97.5532 285.056 97.4371 284.988 97.2047L284.827 96.2612C284.464 96.6862 284.051 97.0291 283.586 97.2897C283.127 97.5504 282.591 97.6807 281.979 97.6807C281.492 97.6807 281.05 97.5844 280.653 97.3917C280.257 97.1934 279.917 96.9072 279.633 96.5332C279.35 96.1592 279.129 95.6974 278.97 95.1477C278.817 94.5924 278.741 93.9577 278.741 93.2437C278.741 92.5977 278.826 91.9999 278.996 91.4502C279.172 90.9006 279.421 90.4246 279.744 90.0222C280.067 89.6142 280.458 89.2969 280.917 89.0702C281.382 88.8379 281.9 88.7217 282.472 88.7217C282.982 88.7217 283.416 88.8039 283.773 88.9682C284.13 89.1269 284.45 89.3507 284.733 89.6397V84.9732H286.561ZM290.7 88.8832V97.5532H288.872V88.8832H290.7ZM291.006 86.2652C291.006 86.4296 290.972 86.5854 290.904 86.7327C290.841 86.8801 290.753 87.0104 290.64 87.1237C290.527 87.2314 290.394 87.3192 290.241 87.3872C290.093 87.4496 289.935 87.4807 289.765 87.4807C289.6 87.4807 289.444 87.4496 289.297 87.3872C289.155 87.3192 289.031 87.2314 288.923 87.1237C288.815 87.0104 288.728 86.8801 288.66 86.7327C288.597 86.5854 288.566 86.4296 288.566 86.2652C288.566 86.0952 288.597 85.9366 288.66 85.7892C288.728 85.6419 288.815 85.5144 288.923 85.4067C289.031 85.2934 289.155 85.2056 289.297 85.1432C289.444 85.0752 289.6 85.0412 289.765 85.0412C289.935 85.0412 290.093 85.0752 290.241 85.1432C290.394 85.2056 290.527 85.2934 290.64 85.4067C290.753 85.5144 290.841 85.6419 290.904 85.7892C290.972 85.9366 291.006 86.0952 291.006 86.2652ZM299.124 90.5832C299.068 90.6569 299.014 90.7136 298.963 90.7532C298.912 90.7929 298.838 90.8127 298.742 90.8127C298.645 90.8127 298.543 90.7787 298.436 90.7107C298.334 90.6427 298.209 90.5691 298.062 90.4897C297.92 90.4047 297.747 90.3282 297.543 90.2602C297.339 90.1922 297.084 90.1582 296.778 90.1582C296.382 90.1582 296.033 90.2291 295.733 90.3707C295.438 90.5124 295.189 90.7164 294.985 90.9827C294.786 91.2434 294.636 91.5636 294.534 91.9432C294.438 92.3172 294.39 92.7394 294.39 93.2097C294.39 93.6971 294.444 94.1306 294.551 94.5102C294.659 94.8899 294.812 95.2101 295.01 95.4707C295.214 95.7314 295.458 95.9297 295.741 96.0657C296.03 96.2017 296.353 96.2697 296.71 96.2697C297.062 96.2697 297.348 96.2272 297.569 96.1422C297.79 96.0572 297.974 95.9637 298.121 95.8617C298.269 95.7597 298.393 95.6662 298.495 95.5812C298.603 95.4962 298.716 95.4537 298.835 95.4537C298.983 95.4537 299.096 95.5104 299.175 95.6237L299.694 96.2952C299.484 96.5502 299.252 96.7656 298.997 96.9412C298.742 97.1169 298.473 97.2614 298.189 97.3747C297.906 97.4824 297.611 97.5589 297.305 97.6042C296.999 97.6552 296.69 97.6807 296.379 97.6807C295.84 97.6807 295.336 97.5816 294.866 97.3832C294.401 97.1792 293.993 96.8874 293.642 96.5077C293.296 96.1224 293.021 95.6549 292.817 95.1052C292.619 94.5499 292.52 93.9181 292.52 93.2097C292.52 92.5694 292.61 91.9772 292.792 91.4332C292.973 90.8836 293.237 90.4104 293.582 90.0137C293.934 89.6171 294.367 89.3082 294.883 89.0872C295.398 88.8606 295.993 88.7472 296.668 88.7472C297.297 88.7472 297.849 88.8492 298.325 89.0532C298.807 89.2572 299.235 89.5462 299.609 89.9202L299.124 90.5832ZM303.068 88.8832V97.5532H301.24V88.8832H303.068ZM303.374 86.2652C303.374 86.4296 303.34 86.5854 303.272 86.7327C303.209 86.8801 303.122 87.0104 303.008 87.1237C302.895 87.2314 302.762 87.3192 302.609 87.3872C302.461 87.4496 302.303 87.4807 302.133 87.4807C301.968 87.4807 301.813 87.4496 301.665 87.3872C301.524 87.3192 301.399 87.2314 301.291 87.1237C301.184 87.0104 301.096 86.8801 301.028 86.7327C300.965 86.5854 300.934 86.4296 300.934 86.2652C300.934 86.0952 300.965 85.9366 301.028 85.7892C301.096 85.6419 301.184 85.5144 301.291 85.4067C301.399 85.2934 301.524 85.2056 301.665 85.1432C301.813 85.0752 301.968 85.0412 302.133 85.0412C302.303 85.0412 302.461 85.0752 302.609 85.1432C302.762 85.2056 302.895 85.2934 303.008 85.4067C303.122 85.5144 303.209 85.6419 303.272 85.7892C303.34 85.9366 303.374 86.0952 303.374 86.2652ZM309.112 88.7472C309.753 88.7472 310.331 88.8521 310.846 89.0617C311.368 89.2714 311.81 89.5689 312.172 89.9542C312.541 90.3396 312.824 90.8071 313.022 91.3567C313.221 91.9064 313.32 92.5241 313.32 93.2097C313.32 93.8954 313.221 94.5131 313.022 95.0627C312.824 95.6124 312.541 96.0827 312.172 96.4737C311.81 96.8591 311.368 97.1566 310.846 97.3662C310.331 97.5759 309.753 97.6807 309.112 97.6807C308.466 97.6807 307.883 97.5759 307.361 97.3662C306.846 97.1566 306.404 96.8591 306.035 96.4737C305.667 96.0827 305.384 95.6124 305.185 95.0627C304.987 94.5131 304.888 93.8954 304.888 93.2097C304.888 92.5241 304.987 91.9064 305.185 91.3567C305.384 90.8071 305.667 90.3396 306.035 89.9542C306.404 89.5689 306.846 89.2714 307.361 89.0617C307.883 88.8521 308.466 88.7472 309.112 88.7472ZM309.112 96.2527C309.894 96.2527 310.475 95.9921 310.855 95.4707C311.24 94.9437 311.433 94.1929 311.433 93.2182C311.433 92.2436 311.24 91.4927 310.855 90.9657C310.475 90.4331 309.894 90.1667 309.112 90.1667C308.319 90.1667 307.73 90.4331 307.344 90.9657C306.959 91.4927 306.766 92.2436 306.766 93.2182C306.766 94.1929 306.959 94.9437 307.344 95.4707C307.73 95.9921 308.319 96.2527 309.112 96.2527ZM316.784 90.0307C316.971 89.8381 317.164 89.6652 317.362 89.5122C317.566 89.3536 317.782 89.2176 318.008 89.1042C318.235 88.9909 318.476 88.9031 318.731 88.8407C318.986 88.7784 319.264 88.7472 319.564 88.7472C320.04 88.7472 320.456 88.8266 320.813 88.9852C321.176 89.1439 321.479 89.3677 321.723 89.6567C321.972 89.9457 322.159 90.2942 322.284 90.7022C322.409 91.1046 322.471 91.5494 322.471 92.0367V97.5532H320.652V92.0367C320.652 91.4531 320.516 90.9997 320.244 90.6767C319.978 90.3537 319.57 90.1922 319.02 90.1922C318.612 90.1922 318.232 90.2857 317.881 90.4727C317.535 90.6597 317.209 90.9147 316.903 91.2377V97.5532H315.076V88.8832H316.181C316.43 88.8832 316.589 88.9994 316.657 89.2317L316.784 90.0307ZM329.238 93.7622C328.586 93.7849 328.036 93.8387 327.589 93.9237C327.141 94.0031 326.778 94.1079 326.501 94.2382C326.223 94.3629 326.022 94.5131 325.897 94.6887C325.778 94.8644 325.719 95.0571 325.719 95.2667C325.719 95.4707 325.75 95.6464 325.812 95.7937C325.88 95.9354 325.971 96.0544 326.084 96.1507C326.203 96.2414 326.339 96.3094 326.492 96.3547C326.651 96.3944 326.824 96.4142 327.011 96.4142C327.487 96.4142 327.895 96.3264 328.235 96.1507C328.58 95.9694 328.915 95.7087 329.238 95.3687V93.7622ZM324.393 90.0902C325.373 89.1779 326.54 88.7217 327.895 88.7217C328.393 88.7217 328.835 88.8039 329.221 88.9682C329.612 89.1269 329.938 89.3536 330.198 89.6482C330.465 89.9429 330.666 90.2942 330.802 90.7022C330.943 91.1046 331.014 91.5522 331.014 92.0452V97.5532H330.198C330.023 97.5532 329.889 97.5277 329.799 97.4767C329.708 97.4201 329.632 97.3096 329.569 97.1452L329.391 96.4397C329.17 96.6381 328.952 96.8166 328.736 96.9752C328.521 97.1282 328.297 97.2586 328.065 97.3662C327.838 97.4739 327.592 97.5532 327.325 97.6042C327.065 97.6609 326.776 97.6892 326.458 97.6892C326.107 97.6892 325.778 97.6411 325.472 97.5447C325.172 97.4484 324.911 97.3039 324.69 97.1112C324.469 96.9129 324.294 96.6692 324.163 96.3802C324.039 96.0912 323.976 95.7512 323.976 95.3602C323.976 95.0259 324.064 94.7001 324.24 94.3827C324.421 94.0654 324.716 93.7821 325.124 93.5327C325.537 93.2777 326.079 93.0681 326.747 92.9037C327.422 92.7394 328.252 92.6459 329.238 92.6232V92.0452C329.238 91.4219 329.105 90.9572 328.838 90.6512C328.572 90.3452 328.181 90.1922 327.665 90.1922C327.314 90.1922 327.019 90.2376 326.781 90.3282C326.543 90.4132 326.336 90.5067 326.161 90.6087C325.985 90.7107 325.829 90.8071 325.693 90.8977C325.557 90.9827 325.413 91.0252 325.26 91.0252C325.135 91.0252 325.027 90.9941 324.937 90.9317C324.852 90.8637 324.781 90.7816 324.724 90.6852L324.393 90.0902ZM334.881 90.4897C335.153 89.9401 335.481 89.5094 335.867 89.1977C336.252 88.8804 336.714 88.7217 337.252 88.7217C337.439 88.7217 337.615 88.7444 337.779 88.7897C337.943 88.8294 338.091 88.8917 338.221 88.9767L338.094 90.3537C338.071 90.4501 338.034 90.5181 337.983 90.5577C337.938 90.5917 337.875 90.6087 337.796 90.6087C337.711 90.6087 337.589 90.5946 337.431 90.5662C337.272 90.5322 337.105 90.5152 336.929 90.5152C336.674 90.5152 336.447 90.5521 336.249 90.6257C336.056 90.6994 335.881 90.8071 335.722 90.9487C335.569 91.0904 335.433 91.2632 335.314 91.4672C335.195 91.6712 335.085 91.9036 334.983 92.1642V97.5532H333.155V88.8832H334.218C334.41 88.8832 334.543 88.9201 334.617 88.9937C334.691 89.0617 334.742 89.1836 334.77 89.3592L334.881 90.4897Z" fill="#FDF6E9"/>
</g>
<g filter="url(#filter4_d_806_28451)">
<path d="M210.589 100.97C205.154 106.391 191.407 105.267 191.407 105.267C191.407 105.267 193.031 111.351 194.447 115.122C197.472 123.183 199.683 121.602 205.301 132.82C207.927 138.064 208.489 144.841 205.084 149.616C203.235 152.208 198.452 154.359 198.452 154.359C198.452 154.359 201.526 146.699 200.53 141.847C199.026 134.524 191.278 132.468 191.278 132.468C191.278 132.468 196.126 137.677 193.916 144.101C193.082 146.525 189.639 153.445 189.639 153.445L184.453 138.71C184.453 138.71 181.261 150.08 182.935 157.082C184.662 164.307 193.076 173.176 193.076 173.176C193.076 173.176 177.619 174.54 170.222 166.262C162.824 157.983 167.638 140.659 167.638 140.659L173.637 116.697V88.6805L170.15 64.3342L172.273 64.2191C172.273 64.2191 168.374 55.1327 169.953 51.4439C172.184 46.2304 179.947 44.0999 185.418 45.5956C192.124 47.4294 187.628 63.2616 187.628 63.2616C187.628 63.2616 199.819 57.2967 203.327 68.6732C206.67 79.5141 196.815 82.5534 196.815 82.5534C196.815 82.5534 213.403 79.6731 215.964 86.9013C217.928 92.4453 214.753 96.817 210.589 100.97Z" fill="#613F38"/>
</g>
<g filter="url(#filter5_d_806_28451)">
<path d="M175.031 171.07C168.898 157.674 151.614 141.693 151.614 141.693L132.125 135.931C132.125 135.931 112.151 132.602 109.932 133.342C107.713 134.082 102.164 161.788 102.164 161.788V187.146C102.164 187.146 117.33 263.911 126.207 266.87C135.084 269.829 159.866 238.759 159.866 238.759L182.281 214.897L186.498 192.888C186.498 192.888 180.054 182.041 175.031 171.07Z" fill="#CF5C36"/>
</g>
<g filter="url(#filter6_d_806_28451)">
<path d="M252.471 133.252C250.277 127.032 241.603 121.978 241.603 121.978L245.331 109.068C245.331 109.068 247.253 103.634 247.752 96.6413C247.998 93.1898 245.762 88.9181 242.016 89.5873C239.72 89.9974 235.863 98.9453 235.863 98.9453L233.282 108.513C233.282 108.513 230.542 115.222 228.62 120.656C227.323 124.325 221.671 131.697 221.671 131.697C221.671 131.697 220.11 123.976 217.015 120.076C210.79 112.23 203.703 120.82 203.703 120.82C203.703 120.82 210.297 128.3 210.249 134.385C210.214 138.687 207.293 145.203 207.293 145.203C207.293 145.203 206.937 146.322 209.763 149.571C212.141 152.306 214.497 154.633 213.77 157.542C211.288 167.465 201.271 180.775 201.271 180.775C201.271 180.775 190.815 194.115 180.863 197.896C168.049 202.765 158.682 203.234 151.813 199.521C137.863 191.981 127.555 159.698 127.555 159.698C127.555 159.698 105.079 157.017 97.5655 165.784C90.0065 174.604 99.2205 195.374 99.2205 195.374C99.2205 195.374 121.751 228.348 147.591 231.715C161.145 233.482 169.276 233.891 182.737 231.388C191.127 229.828 199.893 225.17 206.357 221.414C212.82 217.658 218.498 211.645 226.91 201.466C235.321 191.287 246.208 164.522 246.208 164.522C246.208 164.522 258.957 153.153 255.261 143.339C254.65 141.717 253.257 139.354 253.257 139.354C253.257 139.354 253.275 135.53 252.471 133.252Z" fill="#F2ACAC"/>
</g>
<g filter="url(#filter7_d_806_28451)">
<path d="M107.379 104.527C107.507 131.713 127.907 149.177 147.28 151.97C176.73 156.217 172.676 133.941 176.384 108.33C183.651 75.9732 166.483 54.2414 146.1 54.3377C125.717 54.4339 107.251 77.3415 107.379 104.527Z" fill="#F2ACAC"/>
</g>
<path d="M139.745 111.109L141.161 105.377C141.161 105.377 139.382 105.627 137.428 105.567L137.348 105.377L137.15 105.556C136.112 105.508 135.046 105.365 134.189 105.046C133.536 104.803 132.869 104.406 132.228 103.939V103.503L131.823 103.632C129.834 102.069 128.198 99.975 128.198 99.975L126.346 105.377L131.823 103.632C131.956 103.737 132.092 103.84 132.228 103.939V110.006L137.15 105.556C137.243 105.56 137.336 105.564 137.428 105.567L139.745 111.109Z" fill="#793333"/>
<path d="M113.818 114.637C109.305 114.637 105.647 110.935 105.647 106.369C105.647 101.802 109.305 98.1008 113.818 98.1008C118.33 98.1008 121.988 101.802 121.988 106.369C121.988 110.935 118.33 114.637 113.818 114.637Z" fill="#E79595"/>
<path d="M125.366 95.2656C125.67 97.6394 126.601 99.8864 128.059 101.771C129.518 103.656 131.451 105.108 133.655 105.977C135.859 106.845 138.254 107.097 140.587 106.707C142.921 106.316 145.108 105.297 146.919 103.757L145.497 102.046C143.99 103.328 142.17 104.176 140.227 104.501C138.284 104.826 136.291 104.616 134.456 103.894C132.621 103.171 131.013 101.961 129.799 100.393C128.584 98.8239 127.81 96.9535 127.556 94.9775L125.366 95.2656Z" fill="#793333"/>
<path d="M174.531 116.73L174.615 111.767C174.615 111.767 173.204 112.307 171.592 112.624L171.491 112.483L171.362 112.667C170.503 112.823 169.603 112.906 168.841 112.805C168.26 112.729 167.639 112.529 167.027 112.267L166.945 111.909L166.636 112.091C164.714 111.184 162.98 109.775 162.98 109.775L162.477 114.549L166.636 112.091C166.766 112.152 166.896 112.211 167.027 112.267L168.165 117.238L171.362 112.667C171.439 112.653 171.516 112.639 171.592 112.624L174.531 116.73Z" fill="#793333"/>
<path d="M159.776 106.449C160.472 108.336 161.656 110.002 163.204 111.273C164.753 112.543 166.609 113.37 168.578 113.668C170.547 113.966 172.556 113.723 174.395 112.965C176.234 112.207 177.834 110.961 179.029 109.36L177.543 108.224C176.549 109.558 175.216 110.594 173.686 111.225C172.155 111.856 170.483 112.059 168.844 111.811C167.205 111.563 165.66 110.874 164.371 109.817C163.081 108.759 162.096 107.373 161.517 105.802L159.776 106.449Z" fill="#793333"/>
<g filter="url(#filter8_d_806_28451)">
<path d="M114.548 195.847C126.383 193.721 142.188 180.548 142.188 180.548C142.188 180.548 137.048 169.569 134.072 163.656C129.358 154.292 134.233 149.779 127.587 141.488C121.495 133.888 113.743 128.885 103.785 131.31C91.5195 134.296 90.5435 158.763 90.5435 158.763L91.1455 197.156C91.1455 197.156 105.002 197.561 114.548 195.847Z" fill="#DE6843"/>
</g>
<path d="M151.97 50.126C151.97 50.126 173.348 56.5593 178.848 71.9978C181.565 79.6253 181.033 94.0829 181.033 94.0829C181.033 94.0829 157.033 92.3693 149.494 78.6194C141.954 64.8695 151.97 50.126 151.97 50.126Z" fill="#613F38"/>
<path d="M151.909 50.132C151.909 50.132 134.366 47.4448 120.508 55.841C112.443 60.7276 104.548 78.6055 104.548 78.6055C104.548 78.6055 127.137 84.0498 139.467 75.1501C151.797 66.2504 151.909 50.132 151.909 50.132Z" fill="#613F38"/>
<path d="M159.125 124.465C160.402 122.986 153.947 102.642 153.947 102.642L146.549 121.136C146.549 121.136 148.029 126.314 149.508 127.054C150.988 127.794 157.849 125.945 159.125 124.465Z" fill="#E79595"/>
<path d="M136.295 120.713C135.715 123.515 136.04 126.428 137.223 129.021C138.406 131.615 140.384 133.752 142.864 135.118C145.344 136.483 148.196 137.003 150.998 136.603C153.8 136.202 156.404 134.901 158.425 132.892L156.879 131.301C155.197 132.974 153.029 134.056 150.697 134.39C148.364 134.724 145.991 134.29 143.926 133.154C141.861 132.017 140.215 130.238 139.23 128.079C138.246 125.92 137.975 123.495 138.458 121.163L136.295 120.713Z" fill="#E79595"/>
<defs>
<filter id="filter0_d_806_28451" x="290.5" y="14.4998" width="81.0007" height="57.2887" filterUnits="userSpaceOnUse" color-interpolation-filters="sRGB">
<feFlood flood-opacity="0" result="BackgroundImageFix"/>
<feColorMatrix in="SourceAlpha" type="matrix" values="0 0 0 0 0 0 0 0 0 0 0 0 0 0 0 0 0 0 127 0" result="hardAlpha"/>
<feOffset dy="4"/>
<feGaussianBlur stdDeviation="2"/>
<feComposite in2="hardAlpha" operator="out"/>
<feColorMatrix type="matrix" values="0 0 0 0 0 0 0 0 0 0 0 0 0 0 0 0 0 0 0.25 0"/>
<feBlend mode="normal" in2="BackgroundImageFix" result="effect1_dropShadow_806_28451"/>
<feBlend mode="normal" in="SourceGraphic" in2="effect1_dropShadow_806_28451" result="shape"/>
</filter>
<filter id="filter1_i_806_28451" x="10.4326" y="7.58228" width="285.55" height="263.658" filterUnits="userSpaceOnUse" color-interpolation-filters="sRGB">
<feFlood flood-opacity="0" result="BackgroundImageFix"/>
<feBlend mode="normal" in="SourceGraphic" in2="BackgroundImageFix" result="shape"/>
<feColorMatrix in="SourceAlpha" type="matrix" values="0 0 0 0 0 0 0 0 0 0 0 0 0 0 0 0 0 0 127 0" result="hardAlpha"/>
<feOffset dy="4"/>
<feGaussianBlur stdDeviation="2"/>
<feComposite in2="hardAlpha" operator="arithmetic" k2="-1" k3="1"/>
<feColorMatrix type="matrix" values="0 0 0 0 0 0 0 0 0 0 0 0 0 0 0 0 0 0 0.25 0"/>
<feBlend mode="normal" in2="shape" result="effect1_innerShadow_806_28451"/>
</filter>
<filter id="filter2_d_806_28451" x="53.4492" y="38.2655" width="77.084" height="258.259" filterUnits="userSpaceOnUse" color-interpolation-filters="sRGB">
<feFlood flood-opacity="0" result="BackgroundImageFix"/>
<feColorMatrix in="SourceAlpha" type="matrix" values="0 0 0 0 0 0 0 0 0 0 0 0 0 0 0 0 0 0 127 0" result="hardAlpha"/>
<feOffset dy="4"/>
<feGaussianBlur stdDeviation="2"/>
<feComposite in2="hardAlpha" operator="out"/>
<feColorMatrix type="matrix" values="0 0 0 0 0 0 0 0 0 0 0 0 0 0 0 0 0 0 0.25 0"/>
<feBlend mode="normal" in2="BackgroundImageFix" result="effect1_dropShadow_806_28451"/>
<feBlend mode="normal" in="SourceGraphic" in2="effect1_dropShadow_806_28451" result="shape"/>
</filter>
<filter id="filter3_d_806_28451" x="88.2075" y="72.0532" width="287.5" height="46.3156" filterUnits="userSpaceOnUse" color-interpolation-filters="sRGB">
<feFlood flood-opacity="0" result="BackgroundImageFix"/>
<feColorMatrix in="SourceAlpha" type="matrix" values="0 0 0 0 0 0 0 0 0 0 0 0 0 0 0 0 0 0 127 0" result="hardAlpha"/>
<feOffset dy="4"/>
<feGaussianBlur stdDeviation="2"/>
<feComposite in2="hardAlpha" operator="out"/>
<feColorMatrix type="matrix" values="0 0 0 0 0 0 0 0 0 0 0 0 0 0 0 0 0 0 0.25 0"/>
<feBlend mode="normal" in2="BackgroundImageFix" result="effect1_dropShadow_806_28451"/>
<feBlend mode="normal" in="SourceGraphic" in2="effect1_dropShadow_806_28451" result="shape"/>
</filter>
<filter id="filter4_d_806_28451" x="162.099" y="45.1281" width="58.4607" height="136.132" filterUnits="userSpaceOnUse" color-interpolation-filters="sRGB">
<feFlood flood-opacity="0" result="BackgroundImageFix"/>
<feColorMatrix in="SourceAlpha" type="matrix" values="0 0 0 0 0 0 0 0 0 0 0 0 0 0 0 0 0 0 127 0" result="hardAlpha"/>
<feOffset dy="4"/>
<feGaussianBlur stdDeviation="2"/>
<feComposite in2="hardAlpha" operator="out"/>
<feColorMatrix type="matrix" values="0 0 0 0 0 0 0 0 0 0 0 0 0 0 0 0 0 0 0.25 0"/>
<feBlend mode="normal" in2="BackgroundImageFix" result="effect1_dropShadow_806_28451"/>
<feBlend mode="normal" in="SourceGraphic" in2="effect1_dropShadow_806_28451" result="shape"/>
</filter>
<filter id="filter5_d_806_28451" x="98.1636" y="133.235" width="92.334" height="141.834" filterUnits="userSpaceOnUse" color-interpolation-filters="sRGB">
<feFlood flood-opacity="0" result="BackgroundImageFix"/>
<feColorMatrix in="SourceAlpha" type="matrix" values="0 0 0 0 0 0 0 0 0 0 0 0 0 0 0 0 0 0 127 0" result="hardAlpha"/>
<feOffset dy="4"/>
<feGaussianBlur stdDeviation="2"/>
<feComposite in2="hardAlpha" operator="out"/>
<feColorMatrix type="matrix" values="0 0 0 0 0 0 0 0 0 0 0 0 0 0 0 0 0 0 0.25 0"/>
<feBlend mode="normal" in2="BackgroundImageFix" result="effect1_dropShadow_806_28451"/>
<feBlend mode="normal" in="SourceGraphic" in2="effect1_dropShadow_806_28451" result="shape"/>
</filter>
<filter id="filter6_d_806_28451" x="90.5872" y="89.5175" width="169.346" height="151.636" filterUnits="userSpaceOnUse" color-interpolation-filters="sRGB">
<feFlood flood-opacity="0" result="BackgroundImageFix"/>
<feColorMatrix in="SourceAlpha" type="matrix" values="0 0 0 0 0 0 0 0 0 0 0 0 0 0 0 0 0 0 127 0" result="hardAlpha"/>
<feOffset dy="4"/>
<feGaussianBlur stdDeviation="2"/>
<feComposite in2="hardAlpha" operator="out"/>
<feColorMatrix type="matrix" values="0 0 0 0 0 0 0 0 0 0 0 0 0 0 0 0 0 0 0.25 0"/>
<feBlend mode="normal" in2="BackgroundImageFix" result="effect1_dropShadow_806_28451"/>
<feBlend mode="normal" in="SourceGraphic" in2="effect1_dropShadow_806_28451" result="shape"/>
</filter>
<filter id="filter7_d_806_28451" x="103.378" y="54.3374" width="78.7041" height="106.156" filterUnits="userSpaceOnUse" color-interpolation-filters="sRGB">
<feFlood flood-opacity="0" result="BackgroundImageFix"/>
<feColorMatrix in="SourceAlpha" type="matrix" values="0 0 0 0 0 0 0 0 0 0 0 0 0 0 0 0 0 0 127 0" result="hardAlpha"/>
<feOffset dy="4"/>
<feGaussianBlur stdDeviation="2"/>
<feComposite in2="hardAlpha" operator="out"/>
<feColorMatrix type="matrix" values="0 0 0 0 0 0 0 0 0 0 0 0 0 0 0 0 0 0 0.25 0"/>
<feBlend mode="normal" in2="BackgroundImageFix" result="effect1_dropShadow_806_28451"/>
<feBlend mode="normal" in="SourceGraphic" in2="effect1_dropShadow_806_28451" result="shape"/>
</filter>
<filter id="filter8_d_806_28451" x="86.5435" y="130.694" width="59.644" height="74.5044" filterUnits="userSpaceOnUse" color-interpolation-filters="sRGB">
<feFlood flood-opacity="0" result="BackgroundImageFix"/>
<feColorMatrix in="SourceAlpha" type="matrix" values="0 0 0 0 0 0 0 0 0 0 0 0 0 0 0 0 0 0 127 0" result="hardAlpha"/>
<feOffset dy="4"/>
<feGaussianBlur stdDeviation="2"/>
<feComposite in2="hardAlpha" operator="out"/>
<feColorMatrix type="matrix" values="0 0 0 0 0 0 0 0 0 0 0 0 0 0 0 0 0 0 0.25 0"/>
<feBlend mode="normal" in2="BackgroundImageFix" result="effect1_dropShadow_806_28451"/>
<feBlend mode="normal" in="SourceGraphic" in2="effect1_dropShadow_806_28451" result="shape"/>
</filter>
</defs>
</svg>
