<svg width="391" height="297" viewBox="0 0 391 297" fill="none" xmlns="http://www.w3.org/2000/svg">
<g filter="url(#filter0_d_919_6563)">
<path d="M296.98 31.0529L304.063 61.7881M329.98 16.4999L326.688 61.788M365.98 31.053L348.688 61.7881" stroke="#212226" stroke-width="4" stroke-linecap="round" stroke-linejoin="round"/>
</g>
<g filter="url(#filter1_i_919_6563)">
<path d="M264.71 208.097C286.888 185.908 267.02 161.785 273.489 132.925C279.049 108.124 305.37 92.6227 293.357 70.8863C281.344 49.1499 243.795 70.8863 212.037 70.8863C180.28 70.8863 93.0799 -29.9209 68.3419 22.885C56.1809 48.8444 88.4639 70.8012 74.3489 95.7926C60.6999 119.958 14.5759 102.352 11.0489 129.755C7.64689 156.184 69.3569 153.814 59.5639 178.662C56.6379 186.086 47.6299 187.024 47.0879 194.965C46.1439 208.825 69.2509 200.069 80.8169 208.097C102.042 222.829 89.0619 255.569 113.16 265.155C144.603 277.663 154.249 230.268 186.163 218.965C215.298 208.647 242.532 230.286 264.71 208.097Z" fill="#7B8C82"/>
</g>
<g filter="url(#filter2_d_919_6563)">
<path d="M77.7177 89.5776C82.3237 95.7184 103.2 88.9064 103.2 88.9064C103.2 88.9064 93.6137 102.357 91.6747 105.888C87.5307 113.434 85.5687 111.554 78.4067 121.856C75.0597 126.671 73.5367 133.299 76.2257 138.511C77.6857 141.34 82.1127 144.152 82.1127 144.152C82.1127 144.152 91.5677 150.222 81.2167 159.362C70.8657 168.501 65.5307 174.992 63.5267 184.244C61.5237 193.496 80.3237 245.347 81.1587 248.419C81.9937 251.491 79.4187 272.745 69.0417 272.122C64.0647 271.824 57.9297 265.836 57.9297 265.836C57.9297 265.836 58.6477 279.365 64.8787 283.12C69.2047 285.726 77.0117 289.359 85.1107 288.352C98.8867 286.639 107.08 276.406 109.881 262.856C112.681 249.305 127.014 173.07 127.014 173.07L124.638 56.9324L120.884 58.6687C120.884 58.6687 126.04 50.2317 125.004 46.3554C123.539 40.8769 116.159 37.6606 110.532 38.3605C103.632 39.2187 105.824 55.5305 105.824 55.5305C105.824 55.5305 94.6087 47.8873 89.5127 58.6469C84.6567 68.9 93.9777 73.3142 93.9777 73.3142C93.9777 73.3142 77.9707 68.0967 74.4047 74.8857C71.6697 80.0928 74.1877 84.8726 77.7177 89.5776Z" fill="#613F38"/>
</g>
<g filter="url(#filter3_d_919_6563)">
<path d="M108.223 110.369C99.6434 110.369 92.6881 103.413 92.6881 94.8337C92.6881 86.2539 99.6434 79.2986 108.223 79.2986C116.803 79.2986 123.758 86.2539 123.758 94.8337C123.758 103.413 116.803 110.369 108.223 110.369Z" fill="#E79595"/>
<rect x="213.688" y="72.0532" width="158.5" height="37" rx="14" fill="#F2ACAC"/>
<path d="M249.073 90.1177C249.073 89.5503 249.538 89.0854 250.112 89.0854H253.906V85.2915C253.906 84.7241 254.364 84.2524 254.938 84.2524C255.512 84.2524 255.977 84.7241 255.977 85.2915V89.0854H259.771C260.338 89.0854 260.803 89.5503 260.803 90.1177C260.803 90.6919 260.338 91.1567 259.771 91.1567H255.977V94.9507C255.977 95.5181 255.512 95.9897 254.938 95.9897C254.364 95.9897 253.906 95.5181 253.906 94.9507V91.1567H250.112C249.538 91.1567 249.073 90.6919 249.073 90.1177Z" fill="#212226"/>
<path d="M275.009 92.9632L273.326 88.4922C273.19 88.1466 273.051 87.7074 272.91 87.1747C272.847 87.4411 272.779 87.6876 272.706 87.9142C272.632 88.1352 272.564 88.3307 272.502 88.5007L270.819 92.9632H275.009ZM278.775 97.5532H277.236C277.06 97.5532 276.919 97.5107 276.811 97.4257C276.703 97.3351 276.621 97.2246 276.565 97.0942L275.545 94.3912H270.275L269.255 97.0942C269.209 97.2076 269.13 97.3124 269.017 97.4087C268.903 97.5051 268.762 97.5532 268.592 97.5532H267.053L271.907 85.3132H273.921L278.775 97.5532ZM285.214 91.0167C284.959 90.6881 284.678 90.4586 284.372 90.3282C284.066 90.1979 283.735 90.1327 283.378 90.1327C282.664 90.1327 282.106 90.3962 281.703 90.9232C281.301 91.4446 281.1 92.2181 281.1 93.2437C281.1 93.7764 281.145 94.2326 281.236 94.6122C281.327 94.9862 281.457 95.2922 281.627 95.5302C281.797 95.7682 282.004 95.9411 282.247 96.0487C282.491 96.1564 282.766 96.2102 283.072 96.2102C283.537 96.2102 283.936 96.1111 284.27 95.9127C284.61 95.7087 284.925 95.4226 285.214 95.0542V91.0167ZM287.041 84.9732V97.5532H285.936C285.693 97.5532 285.537 97.4371 285.469 97.2047L285.307 96.2612C284.945 96.6862 284.531 97.0291 284.066 97.2897C283.607 97.5504 283.072 97.6807 282.46 97.6807C281.973 97.6807 281.531 97.5844 281.134 97.3917C280.737 97.1934 280.397 96.9072 280.114 96.5332C279.831 96.1592 279.61 95.6974 279.451 95.1477C279.298 94.5924 279.221 93.9577 279.221 93.2437C279.221 92.5977 279.306 91.9999 279.476 91.4502C279.652 90.9006 279.901 90.4246 280.224 90.0222C280.547 89.6142 280.938 89.2969 281.397 89.0702C281.862 88.8379 282.381 88.7217 282.953 88.7217C283.463 88.7217 283.896 88.8039 284.253 88.9682C284.61 89.1269 284.931 89.3507 285.214 89.6397V84.9732H287.041ZM291.18 88.8832V97.5532H289.353V88.8832H291.18ZM291.486 86.2652C291.486 86.4296 291.452 86.5854 291.384 86.7327C291.322 86.8801 291.234 87.0104 291.121 87.1237C291.007 87.2314 290.874 87.3192 290.721 87.3872C290.574 87.4496 290.415 87.4807 290.245 87.4807C290.081 87.4807 289.925 87.4496 289.778 87.3872C289.636 87.3192 289.511 87.2314 289.404 87.1237C289.296 87.0104 289.208 86.8801 289.14 86.7327C289.078 86.5854 289.047 86.4296 289.047 86.2652C289.047 86.0952 289.078 85.9366 289.14 85.7892C289.208 85.6419 289.296 85.5144 289.404 85.4067C289.511 85.2934 289.636 85.2056 289.778 85.1432C289.925 85.0752 290.081 85.0412 290.245 85.0412C290.415 85.0412 290.574 85.0752 290.721 85.1432C290.874 85.2056 291.007 85.2934 291.121 85.4067C291.234 85.5144 291.322 85.6419 291.384 85.7892C291.452 85.9366 291.486 86.0952 291.486 86.2652ZM299.605 90.5832C299.548 90.6569 299.494 90.7136 299.443 90.7532C299.392 90.7929 299.319 90.8127 299.222 90.8127C299.126 90.8127 299.024 90.7787 298.916 90.7107C298.814 90.6427 298.69 90.5691 298.542 90.4897C298.401 90.4047 298.228 90.3282 298.024 90.2602C297.82 90.1922 297.565 90.1582 297.259 90.1582C296.862 90.1582 296.514 90.2291 296.213 90.3707C295.919 90.5124 295.669 90.7164 295.465 90.9827C295.267 91.2434 295.117 91.5636 295.015 91.9432C294.918 92.3172 294.87 92.7394 294.87 93.2097C294.87 93.6971 294.924 94.1306 295.032 94.5102C295.139 94.8899 295.292 95.2101 295.491 95.4707C295.695 95.7314 295.938 95.9297 296.222 96.0657C296.511 96.2017 296.834 96.2697 297.191 96.2697C297.542 96.2697 297.828 96.2272 298.049 96.1422C298.27 96.0572 298.454 95.9637 298.602 95.8617C298.749 95.7597 298.874 95.6662 298.976 95.5812C299.083 95.4962 299.197 95.4537 299.316 95.4537C299.463 95.4537 299.576 95.5104 299.656 95.6237L300.174 96.2952C299.965 96.5502 299.732 96.7656 299.477 96.9412C299.222 97.1169 298.953 97.2614 298.67 97.3747C298.386 97.4824 298.092 97.5589 297.786 97.6042C297.48 97.6552 297.171 97.6807 296.859 97.6807C296.321 97.6807 295.817 97.5816 295.346 97.3832C294.882 97.1792 294.474 96.8874 294.122 96.5077C293.777 96.1224 293.502 95.6549 293.298 95.1052C293.099 94.5499 293 93.9181 293 93.2097C293 92.5694 293.091 91.9772 293.272 91.4332C293.454 90.8836 293.717 90.4104 294.063 90.0137C294.414 89.6171 294.848 89.3082 295.363 89.0872C295.879 88.8606 296.474 88.7472 297.148 88.7472C297.777 88.7472 298.33 88.8492 298.806 89.0532C299.287 89.2572 299.715 89.5462 300.089 89.9202L299.605 90.5832ZM303.548 88.8832V97.5532H301.721V88.8832H303.548ZM303.854 86.2652C303.854 86.4296 303.82 86.5854 303.752 86.7327C303.69 86.8801 303.602 87.0104 303.489 87.1237C303.375 87.2314 303.242 87.3192 303.089 87.3872C302.942 87.4496 302.783 87.4807 302.613 87.4807C302.449 87.4807 302.293 87.4496 302.146 87.3872C302.004 87.3192 301.879 87.2314 301.772 87.1237C301.664 87.0104 301.576 86.8801 301.508 86.7327C301.446 86.5854 301.415 86.4296 301.415 86.2652C301.415 86.0952 301.446 85.9366 301.508 85.7892C301.576 85.6419 301.664 85.5144 301.772 85.4067C301.879 85.2934 302.004 85.2056 302.146 85.1432C302.293 85.0752 302.449 85.0412 302.613 85.0412C302.783 85.0412 302.942 85.0752 303.089 85.1432C303.242 85.2056 303.375 85.2934 303.489 85.4067C303.602 85.5144 303.69 85.6419 303.752 85.7892C303.82 85.9366 303.854 86.0952 303.854 86.2652ZM309.593 88.7472C310.233 88.7472 310.811 88.8521 311.327 89.0617C311.848 89.2714 312.29 89.5689 312.653 89.9542C313.021 90.3396 313.305 90.8071 313.503 91.3567C313.701 91.9064 313.8 92.5241 313.8 93.2097C313.8 93.8954 313.701 94.5131 313.503 95.0627C313.305 95.6124 313.021 96.0827 312.653 96.4737C312.29 96.8591 311.848 97.1566 311.327 97.3662C310.811 97.5759 310.233 97.6807 309.593 97.6807C308.947 97.6807 308.363 97.5759 307.842 97.3662C307.326 97.1566 306.884 96.8591 306.516 96.4737C306.148 96.0827 305.864 95.6124 305.666 95.0627C305.468 94.5131 305.368 93.8954 305.368 93.2097C305.368 92.5241 305.468 91.9064 305.666 91.3567C305.864 90.8071 306.148 90.3396 306.516 89.9542C306.884 89.5689 307.326 89.2714 307.842 89.0617C308.363 88.8521 308.947 88.7472 309.593 88.7472ZM309.593 96.2527C310.375 96.2527 310.956 95.9921 311.335 95.4707C311.721 94.9437 311.913 94.1929 311.913 93.2182C311.913 92.2436 311.721 91.4927 311.335 90.9657C310.956 90.4331 310.375 90.1667 309.593 90.1667C308.8 90.1667 308.21 90.4331 307.825 90.9657C307.44 91.4927 307.247 92.2436 307.247 93.2182C307.247 94.1929 307.44 94.9437 307.825 95.4707C308.21 95.9921 308.8 96.2527 309.593 96.2527ZM317.265 90.0307C317.452 89.8381 317.645 89.6652 317.843 89.5122C318.047 89.3536 318.262 89.2176 318.489 89.1042C318.716 88.9909 318.956 88.9031 319.211 88.8407C319.466 88.7784 319.744 88.7472 320.044 88.7472C320.52 88.7472 320.937 88.8266 321.294 88.9852C321.657 89.1439 321.96 89.3677 322.203 89.6567C322.453 89.9457 322.64 90.2942 322.764 90.7022C322.889 91.1046 322.951 91.5494 322.951 92.0367V97.5532H321.132V92.0367C321.132 91.4531 320.996 90.9997 320.724 90.6767C320.458 90.3537 320.05 90.1922 319.5 90.1922C319.092 90.1922 318.713 90.2857 318.361 90.4727C318.016 90.6597 317.69 90.9147 317.384 91.2377V97.5532H315.556V88.8832H316.661C316.911 88.8832 317.069 88.9994 317.137 89.2317L317.265 90.0307ZM329.718 93.7622C329.067 93.7849 328.517 93.8387 328.069 93.9237C327.622 94.0031 327.259 94.1079 326.981 94.2382C326.704 94.3629 326.502 94.5131 326.378 94.6887C326.259 94.8644 326.199 95.0571 326.199 95.2667C326.199 95.4707 326.23 95.6464 326.293 95.7937C326.361 95.9354 326.451 96.0544 326.565 96.1507C326.684 96.2414 326.82 96.3094 326.973 96.3547C327.131 96.3944 327.304 96.4142 327.491 96.4142C327.967 96.4142 328.375 96.3264 328.715 96.1507C329.061 95.9694 329.395 95.7087 329.718 95.3687V93.7622ZM324.873 90.0902C325.854 89.1779 327.021 88.7217 328.375 88.7217C328.874 88.7217 329.316 88.8039 329.701 88.9682C330.092 89.1269 330.418 89.3536 330.679 89.6482C330.945 89.9429 331.146 90.2942 331.282 90.7022C331.424 91.1046 331.495 91.5522 331.495 92.0452V97.5532H330.679C330.503 97.5532 330.37 97.5277 330.279 97.4767C330.189 97.4201 330.112 97.3096 330.05 97.1452L329.871 96.4397C329.65 96.6381 329.432 96.8166 329.217 96.9752C329.001 97.1282 328.778 97.2586 328.545 97.3662C328.319 97.4739 328.072 97.5532 327.806 97.6042C327.545 97.6609 327.256 97.6892 326.939 97.6892C326.587 97.6892 326.259 97.6411 325.953 97.5447C325.652 97.4484 325.392 97.3039 325.171 97.1112C324.95 96.9129 324.774 96.6692 324.644 96.3802C324.519 96.0912 324.457 95.7512 324.457 95.3602C324.457 95.0259 324.545 94.7001 324.72 94.3827C324.902 94.0654 325.196 93.7821 325.604 93.5327C326.018 93.2777 326.559 93.0681 327.228 92.9037C327.902 92.7394 328.732 92.6459 329.718 92.6232V92.0452C329.718 91.4219 329.585 90.9572 329.319 90.6512C329.052 90.3452 328.661 90.1922 328.146 90.1922C327.794 90.1922 327.5 90.2376 327.262 90.3282C327.024 90.4132 326.817 90.5067 326.641 90.6087C326.466 90.7107 326.31 90.8071 326.174 90.8977C326.038 90.9827 325.893 91.0252 325.74 91.0252C325.616 91.0252 325.508 90.9941 325.417 90.9317C325.332 90.8637 325.261 90.7816 325.205 90.6852L324.873 90.0902ZM335.361 90.4897C335.633 89.9401 335.962 89.5094 336.347 89.1977C336.732 88.8804 337.194 88.7217 337.732 88.7217C337.919 88.7217 338.095 88.7444 338.259 88.7897C338.424 88.8294 338.571 88.8917 338.701 88.9767L338.574 90.3537C338.551 90.4501 338.514 90.5181 338.463 90.5577C338.418 90.5917 338.356 90.6087 338.276 90.6087C338.191 90.6087 338.07 90.5946 337.911 90.5662C337.752 90.5322 337.585 90.5152 337.409 90.5152C337.154 90.5152 336.928 90.5521 336.729 90.6257C336.537 90.6994 336.361 90.8071 336.202 90.9487C336.049 91.0904 335.913 91.2632 335.794 91.4672C335.675 91.6712 335.565 91.9036 335.463 92.1642V97.5532H333.635V88.8832H334.698C334.891 88.8832 335.024 88.9201 335.097 88.9937C335.171 89.0617 335.222 89.1836 335.25 89.3592L335.361 90.4897Z" fill="#212226"/>
</g>
<g filter="url(#filter4_d_919_6563)">
<path d="M211.069 100.97C205.634 106.391 191.888 105.267 191.888 105.267C191.888 105.267 193.512 111.351 194.928 115.122C197.953 123.183 200.163 121.602 205.782 132.82C208.407 138.064 208.97 144.841 205.565 149.616C203.716 152.208 198.933 154.359 198.933 154.359C198.933 154.359 202.007 146.699 201.01 141.847C199.507 134.524 191.759 132.468 191.759 132.468C191.759 132.468 196.607 137.677 194.397 144.101C193.563 146.525 190.12 153.445 190.12 153.445L184.934 138.71C184.934 138.71 181.742 150.08 183.416 157.082C185.143 164.307 193.557 173.176 193.557 173.176C193.557 173.176 178.1 174.54 170.703 166.262C163.305 157.983 168.119 140.659 168.119 140.659L174.118 116.697V88.6805L170.631 64.3342L172.754 64.2191C172.754 64.2191 168.855 55.1327 170.434 51.4439C172.665 46.2304 180.428 44.0999 185.899 45.5956C192.605 47.4294 188.109 63.2616 188.109 63.2616C188.109 63.2616 200.299 57.2967 203.808 68.6732C207.151 79.5141 197.295 82.5534 197.295 82.5534C197.295 82.5534 213.884 79.6731 216.444 86.9013C218.408 92.4453 215.234 96.817 211.069 100.97Z" fill="#613F38"/>
</g>
<g filter="url(#filter5_d_919_6563)">
<path d="M175.511 171.07C169.378 157.674 152.094 141.693 152.094 141.693L132.605 135.931C132.605 135.931 112.631 132.602 110.412 133.342C108.193 134.082 102.644 161.788 102.644 161.788V187.146C102.644 187.146 117.81 263.911 126.687 266.87C135.564 269.829 160.346 238.759 160.346 238.759L182.761 214.897L186.978 192.888C186.978 192.888 180.534 182.041 175.511 171.07Z" fill="#CF5C36"/>
</g>
<g filter="url(#filter6_d_919_6563)">
<path d="M252.951 133.252C250.757 127.032 242.083 121.978 242.083 121.978L245.812 109.068C245.812 109.068 247.734 103.634 248.233 96.6413C248.479 93.1898 246.243 88.9181 242.497 89.5873C240.201 89.9974 236.343 98.9453 236.343 98.9453L233.763 108.513C233.763 108.513 231.022 115.222 229.101 120.656C227.803 124.325 222.152 131.697 222.152 131.697C222.152 131.697 220.59 123.976 217.495 120.076C211.27 112.23 204.184 120.82 204.184 120.82C204.184 120.82 210.777 128.3 210.729 134.385C210.695 138.687 207.773 145.203 207.773 145.203C207.773 145.203 207.417 146.322 210.243 149.571C212.622 152.306 214.978 154.633 214.25 157.542C211.768 167.465 201.751 180.775 201.751 180.775C201.751 180.775 191.296 194.115 181.344 197.896C168.53 202.765 159.163 203.234 152.294 199.521C138.344 191.981 128.036 159.698 128.036 159.698C128.036 159.698 105.56 157.017 98.046 165.784C90.487 174.604 99.701 195.374 99.701 195.374C99.701 195.374 122.232 228.348 148.072 231.715C161.626 233.482 169.757 233.891 183.218 231.388C191.608 229.828 200.374 225.17 206.837 221.414C213.3 217.658 218.978 211.645 227.39 201.466C235.802 191.287 246.689 164.522 246.689 164.522C246.689 164.522 259.437 153.153 255.741 143.339C255.131 141.717 253.738 139.354 253.738 139.354C253.738 139.354 253.755 135.53 252.951 133.252Z" fill="#F2ACAC"/>
</g>
<g filter="url(#filter7_d_919_6563)">
<path d="M107.859 104.527C107.987 131.713 128.387 149.177 147.76 151.97C177.21 156.217 173.156 133.941 176.864 108.33C184.131 75.9732 166.963 54.2414 146.58 54.3377C126.197 54.4339 107.731 77.3415 107.859 104.527Z" fill="#F2ACAC"/>
</g>
<path d="M140.225 111.109L141.641 105.377C141.641 105.377 139.862 105.627 137.908 105.567L137.828 105.377L137.63 105.556C136.592 105.508 135.526 105.365 134.669 105.046C134.016 104.803 133.349 104.406 132.708 103.939V103.503L132.303 103.632C130.314 102.069 128.678 99.975 128.678 99.975L126.826 105.377L132.303 103.632C132.436 103.737 132.572 103.84 132.708 103.939V110.006L137.63 105.556C137.723 105.56 137.816 105.564 137.908 105.567L140.225 111.109Z" fill="#793333"/>
<path d="M114.298 114.637C109.786 114.637 106.128 110.935 106.128 106.369C106.128 101.802 109.786 98.1008 114.298 98.1008C118.81 98.1008 122.468 101.802 122.468 106.369C122.468 110.935 118.81 114.637 114.298 114.637Z" fill="#E79595"/>
<path d="M125.847 95.2656C126.151 97.6394 127.082 99.8864 128.54 101.771C129.999 103.656 131.932 105.108 134.136 105.977C136.34 106.845 138.735 107.097 141.068 106.707C143.402 106.316 145.589 105.297 147.4 103.757L145.978 102.046C144.471 103.328 142.651 104.176 140.708 104.501C138.765 104.826 136.772 104.616 134.937 103.894C133.102 103.171 131.494 101.961 130.28 100.393C129.065 98.8239 128.291 96.9535 128.037 94.9775L125.847 95.2656Z" fill="#793333"/>
<path d="M175.012 116.73L175.096 111.767C175.096 111.767 173.685 112.307 172.073 112.624L171.972 112.483L171.843 112.667C170.984 112.823 170.084 112.906 169.322 112.805C168.741 112.729 168.12 112.529 167.508 112.267L167.426 111.909L167.117 112.091C165.195 111.184 163.461 109.775 163.461 109.775L162.958 114.549L167.117 112.091C167.247 112.152 167.377 112.211 167.508 112.267L168.646 117.238L171.843 112.667C171.92 112.653 171.997 112.639 172.073 112.624L175.012 116.73Z" fill="#793333"/>
<path d="M160.257 106.449C160.953 108.336 162.137 110.002 163.685 111.273C165.234 112.543 167.09 113.37 169.059 113.668C171.028 113.966 173.037 113.723 174.876 112.965C176.715 112.207 178.315 110.961 179.51 109.36L178.024 108.224C177.03 109.558 175.697 110.594 174.167 111.225C172.636 111.856 170.964 112.059 169.325 111.811C167.686 111.563 166.141 110.874 164.852 109.817C163.562 108.759 162.577 107.373 161.998 105.802L160.257 106.449Z" fill="#793333"/>
<g filter="url(#filter8_d_919_6563)">
<path d="M115.028 195.847C126.863 193.721 142.668 180.548 142.668 180.548C142.668 180.548 137.529 169.569 134.553 163.656C129.839 154.292 134.713 149.779 128.067 141.488C121.975 133.888 114.224 128.885 104.266 131.31C92 134.296 91.024 158.763 91.024 158.763L91.626 197.156C91.626 197.156 105.482 197.561 115.028 195.847Z" fill="#DE6843"/>
</g>
<path d="M152.45 50.126C152.45 50.126 173.828 56.5593 179.328 71.9978C182.045 79.6253 181.513 94.0829 181.513 94.0829C181.513 94.0829 157.513 92.3693 149.974 78.6194C142.434 64.8695 152.45 50.126 152.45 50.126Z" fill="#613F38"/>
<path d="M152.39 50.132C152.39 50.132 134.847 47.4448 120.989 55.841C112.924 60.7276 105.029 78.6055 105.029 78.6055C105.029 78.6055 127.618 84.0498 139.948 75.1501C152.278 66.2504 152.39 50.132 152.39 50.132Z" fill="#613F38"/>
<path d="M159.606 124.465C160.883 122.986 154.428 102.642 154.428 102.642L147.03 121.136C147.03 121.136 148.51 126.314 149.989 127.054C151.469 127.794 158.33 125.945 159.606 124.465Z" fill="#E79595"/>
<path d="M136.776 120.713C136.196 123.515 136.521 126.428 137.704 129.021C138.887 131.615 140.865 133.752 143.345 135.118C145.825 136.483 148.677 137.003 151.479 136.603C154.281 136.202 156.885 134.901 158.906 132.892L157.36 131.301C155.678 132.974 153.51 134.056 151.178 134.39C148.845 134.724 146.472 134.29 144.407 133.154C142.342 132.017 140.696 130.238 139.711 128.079C138.727 125.92 138.456 123.495 138.939 121.163L136.776 120.713Z" fill="#E79595"/>
<defs>
<filter id="filter0_d_919_6563" x="290.98" y="14.4998" width="81.0009" height="57.2887" filterUnits="userSpaceOnUse" color-interpolation-filters="sRGB">
<feFlood flood-opacity="0" result="BackgroundImageFix"/>
<feColorMatrix in="SourceAlpha" type="matrix" values="0 0 0 0 0 0 0 0 0 0 0 0 0 0 0 0 0 0 127 0" result="hardAlpha"/>
<feOffset dy="4"/>
<feGaussianBlur stdDeviation="2"/>
<feComposite in2="hardAlpha" operator="out"/>
<feColorMatrix type="matrix" values="0 0 0 0 0 0 0 0 0 0 0 0 0 0 0 0 0 0 0.25 0"/>
<feBlend mode="normal" in2="BackgroundImageFix" result="effect1_dropShadow_919_6563"/>
<feBlend mode="normal" in="SourceGraphic" in2="effect1_dropShadow_919_6563" result="shape"/>
</filter>
<filter id="filter1_i_919_6563" x="10.9131" y="7.58228" width="285.55" height="263.658" filterUnits="userSpaceOnUse" color-interpolation-filters="sRGB">
<feFlood flood-opacity="0" result="BackgroundImageFix"/>
<feBlend mode="normal" in="SourceGraphic" in2="BackgroundImageFix" result="shape"/>
<feColorMatrix in="SourceAlpha" type="matrix" values="0 0 0 0 0 0 0 0 0 0 0 0 0 0 0 0 0 0 127 0" result="hardAlpha"/>
<feOffset dy="4"/>
<feGaussianBlur stdDeviation="2"/>
<feComposite in2="hardAlpha" operator="arithmetic" k2="-1" k3="1"/>
<feColorMatrix type="matrix" values="0 0 0 0 0 0 0 0 0 0 0 0 0 0 0 0 0 0 0.25 0"/>
<feBlend mode="normal" in2="shape" result="effect1_innerShadow_919_6563"/>
</filter>
<filter id="filter2_d_919_6563" x="53.9297" y="38.2655" width="77.084" height="258.259" filterUnits="userSpaceOnUse" color-interpolation-filters="sRGB">
<feFlood flood-opacity="0" result="BackgroundImageFix"/>
<feColorMatrix in="SourceAlpha" type="matrix" values="0 0 0 0 0 0 0 0 0 0 0 0 0 0 0 0 0 0 127 0" result="hardAlpha"/>
<feOffset dy="4"/>
<feGaussianBlur stdDeviation="2"/>
<feComposite in2="hardAlpha" operator="out"/>
<feColorMatrix type="matrix" values="0 0 0 0 0 0 0 0 0 0 0 0 0 0 0 0 0 0 0.25 0"/>
<feBlend mode="normal" in2="BackgroundImageFix" result="effect1_dropShadow_919_6563"/>
<feBlend mode="normal" in="SourceGraphic" in2="effect1_dropShadow_919_6563" result="shape"/>
</filter>
<filter id="filter3_d_919_6563" x="88.688" y="72.0532" width="287.5" height="46.3156" filterUnits="userSpaceOnUse" color-interpolation-filters="sRGB">
<feFlood flood-opacity="0" result="BackgroundImageFix"/>
<feColorMatrix in="SourceAlpha" type="matrix" values="0 0 0 0 0 0 0 0 0 0 0 0 0 0 0 0 0 0 127 0" result="hardAlpha"/>
<feOffset dy="4"/>
<feGaussianBlur stdDeviation="2"/>
<feComposite in2="hardAlpha" operator="out"/>
<feColorMatrix type="matrix" values="0 0 0 0 0 0 0 0 0 0 0 0 0 0 0 0 0 0 0.25 0"/>
<feBlend mode="normal" in2="BackgroundImageFix" result="effect1_dropShadow_919_6563"/>
<feBlend mode="normal" in="SourceGraphic" in2="effect1_dropShadow_919_6563" result="shape"/>
</filter>
<filter id="filter4_d_919_6563" x="162.579" y="45.1281" width="58.4607" height="136.132" filterUnits="userSpaceOnUse" color-interpolation-filters="sRGB">
<feFlood flood-opacity="0" result="BackgroundImageFix"/>
<feColorMatrix in="SourceAlpha" type="matrix" values="0 0 0 0 0 0 0 0 0 0 0 0 0 0 0 0 0 0 127 0" result="hardAlpha"/>
<feOffset dy="4"/>
<feGaussianBlur stdDeviation="2"/>
<feComposite in2="hardAlpha" operator="out"/>
<feColorMatrix type="matrix" values="0 0 0 0 0 0 0 0 0 0 0 0 0 0 0 0 0 0 0.25 0"/>
<feBlend mode="normal" in2="BackgroundImageFix" result="effect1_dropShadow_919_6563"/>
<feBlend mode="normal" in="SourceGraphic" in2="effect1_dropShadow_919_6563" result="shape"/>
</filter>
<filter id="filter5_d_919_6563" x="98.644" y="133.235" width="92.334" height="141.834" filterUnits="userSpaceOnUse" color-interpolation-filters="sRGB">
<feFlood flood-opacity="0" result="BackgroundImageFix"/>
<feColorMatrix in="SourceAlpha" type="matrix" values="0 0 0 0 0 0 0 0 0 0 0 0 0 0 0 0 0 0 127 0" result="hardAlpha"/>
<feOffset dy="4"/>
<feGaussianBlur stdDeviation="2"/>
<feComposite in2="hardAlpha" operator="out"/>
<feColorMatrix type="matrix" values="0 0 0 0 0 0 0 0 0 0 0 0 0 0 0 0 0 0 0.25 0"/>
<feBlend mode="normal" in2="BackgroundImageFix" result="effect1_dropShadow_919_6563"/>
<feBlend mode="normal" in="SourceGraphic" in2="effect1_dropShadow_919_6563" result="shape"/>
</filter>
<filter id="filter6_d_919_6563" x="91.0676" y="89.5175" width="169.346" height="151.636" filterUnits="userSpaceOnUse" color-interpolation-filters="sRGB">
<feFlood flood-opacity="0" result="BackgroundImageFix"/>
<feColorMatrix in="SourceAlpha" type="matrix" values="0 0 0 0 0 0 0 0 0 0 0 0 0 0 0 0 0 0 127 0" result="hardAlpha"/>
<feOffset dy="4"/>
<feGaussianBlur stdDeviation="2"/>
<feComposite in2="hardAlpha" operator="out"/>
<feColorMatrix type="matrix" values="0 0 0 0 0 0 0 0 0 0 0 0 0 0 0 0 0 0 0.25 0"/>
<feBlend mode="normal" in2="BackgroundImageFix" result="effect1_dropShadow_919_6563"/>
<feBlend mode="normal" in="SourceGraphic" in2="effect1_dropShadow_919_6563" result="shape"/>
</filter>
<filter id="filter7_d_919_6563" x="103.858" y="54.3374" width="78.7041" height="106.156" filterUnits="userSpaceOnUse" color-interpolation-filters="sRGB">
<feFlood flood-opacity="0" result="BackgroundImageFix"/>
<feColorMatrix in="SourceAlpha" type="matrix" values="0 0 0 0 0 0 0 0 0 0 0 0 0 0 0 0 0 0 127 0" result="hardAlpha"/>
<feOffset dy="4"/>
<feGaussianBlur stdDeviation="2"/>
<feComposite in2="hardAlpha" operator="out"/>
<feColorMatrix type="matrix" values="0 0 0 0 0 0 0 0 0 0 0 0 0 0 0 0 0 0 0.25 0"/>
<feBlend mode="normal" in2="BackgroundImageFix" result="effect1_dropShadow_919_6563"/>
<feBlend mode="normal" in="SourceGraphic" in2="effect1_dropShadow_919_6563" result="shape"/>
</filter>
<filter id="filter8_d_919_6563" x="87.0239" y="130.694" width="59.644" height="74.5044" filterUnits="userSpaceOnUse" color-interpolation-filters="sRGB">
<feFlood flood-opacity="0" result="BackgroundImageFix"/>
<feColorMatrix in="SourceAlpha" type="matrix" values="0 0 0 0 0 0 0 0 0 0 0 0 0 0 0 0 0 0 127 0" result="hardAlpha"/>
<feOffset dy="4"/>
<feGaussianBlur stdDeviation="2"/>
<feComposite in2="hardAlpha" operator="out"/>
<feColorMatrix type="matrix" values="0 0 0 0 0 0 0 0 0 0 0 0 0 0 0 0 0 0 0.25 0"/>
<feBlend mode="normal" in2="BackgroundImageFix" result="effect1_dropShadow_919_6563"/>
<feBlend mode="normal" in="SourceGraphic" in2="effect1_dropShadow_919_6563" result="shape"/>
</filter>
</defs>
</svg>
