<svg width="281" height="283" viewBox="0 0 281 283" fill="none" xmlns="http://www.w3.org/2000/svg">
<g clip-path="url(#clip0_806_27664)">
<mask id="mask0_806_27664" style="mask-type:luminance" maskUnits="userSpaceOnUse" x="0" y="1" width="281" height="281">
<path d="M280.688 141.334C280.688 64.0144 218.008 1.33423 140.688 1.33423C63.3681 1.33423 0.687988 64.0144 0.687988 141.334C0.687988 218.654 63.3681 281.334 140.688 281.334C218.008 281.334 280.688 218.654 280.688 141.334Z" fill="white"/>
</mask>
<g mask="url(#mask0_806_27664)">
<path d="M448.696 -60.4304H-288.993V282.07H448.696V-60.4304Z" fill="#F2ACAC"/>
<path d="M445.033 -59.8569H-307.596V283.776H445.033V-59.8569Z" fill="#7B8C82"/>
<path d="M-33.1577 236.169C0.0284271 194.084 0.832382 103.434 0.832382 103.434L91.7558 114.425C91.7558 114.425 165.685 35.7981 169.083 69.616C172.483 103.434 190.119 131.815 208.172 155.006C226.225 178.198 120.647 172.761 120.647 172.761L14.4285 302.96L-154.455 314.951L-172.197 295.341C-172.197 295.341 -87.8677 275.425 -70.3242 267.452C-48.8972 257.713 -43.0068 248.661 -33.1577 236.169Z" fill="#386159" stroke="#386159" stroke-width="1.36066" stroke-linecap="round"/>
<path d="M76.4608 176.849L64.5643 134.576L142.741 144.722L155.488 140.494C155.488 140.494 161.212 135.423 165.685 133.731C172.819 131.032 177.714 132.407 185.228 133.731C192.153 134.951 202.225 139.649 202.225 139.649L214.121 150.64L222.618 163.322L279.551 295.352L266.806 300.425L89.2071 303.807L5.9314 297.043C5.9314 297.043 10.2711 282.752 12.7294 273.231C15.2363 263.52 16.9225 258.13 20.3772 248.713C23.0815 241.339 24.271 237.014 28.0249 230.112C30.6535 225.279 32.4892 222.766 35.6727 218.276C41.7896 209.647 45.9534 205.207 53.0665 197.621L53.5175 197.139C61.3619 188.772 76.4608 176.849 76.4608 176.849Z" fill="#C6714F"/>
<path d="M124.046 -37.7552L118.097 -42.8279L126.595 -57.2006L155.487 -61.4277L173.331 -16.6189L163.984 0.290054L146.989 -22.5371L136.792 -30.1461L124.046 -37.7552Z" fill="#386159" stroke="#386159" stroke-width="1.36066" stroke-linecap="round"/>
<path d="M173.535 13.4312C181.74 16.2793 191.009 11.1231 194.238 1.91444C197.467 -7.29422 193.434 -17.0682 185.229 -19.9163C177.025 -22.7644 167.755 -17.6082 164.526 -8.39949C161.297 0.809167 165.33 10.5831 173.535 13.4312Z" fill="#386159"/>
<path d="M113.849 -42.8274C113.849 -42.8274 134.186 -33.0371 144.441 -23.3821C153.999 -14.3812 169.933 10.4359 169.933 10.4359" stroke="#386159" stroke-width="1.36066" stroke-linecap="round"/>
<path d="M4.47088 86.1278C17.4108 76.7267 18.389 56.1457 6.65574 40.159C-5.0775 24.1722 -25.079 18.8335 -38.019 28.2346C-50.9589 37.6357 -51.9371 58.2167 -40.2038 74.2034C-28.4706 90.1902 -8.46902 95.5289 4.47088 86.1278Z" fill="#386159"/>
<path d="M14.454 7.48017C26.5547 2.93299 33.2125 -9.05546 29.3248 -19.2968C25.4371 -29.5381 12.4759 -34.1541 0.37526 -29.6069C-11.7254 -25.0598 -18.3833 -13.0713 -14.4955 -2.82999C-10.6078 7.41133 2.35336 12.0273 14.454 7.48017Z" fill="#386159"/>
<path d="M29.6271 -12.3849L25.8321 64.0717L16.3451 62.1837L13.4989 64.0717L-9.27012 46.1374L-13.0649 -5.77756L23.9347 -18.0483L29.6271 -12.3849Z" fill="#386159" stroke="#386159" stroke-width="1.36066" stroke-linecap="round"/>
<path d="M41.0041 101.614C38.553 105.201 35.2226 108.21 31.3192 110.364C27.4158 112.518 23.0649 113.748 18.6677 113.94C14.2703 114.132 9.96774 113.28 6.15617 111.463C2.34461 109.646 -0.853385 106.922 -3.14328 103.542C-5.43317 100.162 -6.74135 96.2346 -6.94731 92.1217C-7.15329 88.0085 -6.25043 83.8422 -4.3219 80.006C-2.39337 76.17 0.498827 72.7875 4.08833 70.1702C7.67782 67.5529 11.8492 65.7849 16.2184 65.0291L19.2377 89.2904L41.0041 101.614Z" fill="#D17B58"/>
<path d="M16.1285 -7.31795C11.03 3.67289 3.3142 30.3449 7.63143 55.2453C13.4377 88.734 30.5747 112.999 52.6679 128.799C82.4223 150.078 128.079 158.645 143.591 149.09C161.437 138.099 168.079 108.733 173.333 79.7637C177.516 56.6943 175.033 35.7996 171.633 21.4274C167.24 2.85064 161.984 -8.77881 148.69 -22.5357C135.354 -36.3358 126.721 -43.0616 107.902 -47.0539C86.3886 -51.6182 71.7237 -47.0685 51.8181 -37.7538C38.2221 -31.3918 22.0114 -19.9997 16.1285 -7.31795Z" fill="#D17B58" stroke="#D17B58" stroke-width="1.36066" stroke-linecap="round"/>
<path d="M201.374 248.007C201.374 248.007 189.478 255.616 186.928 259.844C184.697 263.54 184.379 299.579 184.379 299.579" stroke="#C25B44" stroke-width="2.72131" stroke-linecap="round"/>
<path d="M20.3775 -14.082C20.3775 -14.082 23.7765 -10.7002 20.3775 1.13609C16.9785 12.9724 10.1804 12.1269 10.1804 12.1269" stroke="#386159" stroke-width="1.36066" stroke-linecap="square"/>
<path d="M28.8751 -22.5366C28.8751 -22.5366 33.9735 -8.16393 26.3257 7.05415C18.678 22.2723 8.48096 21.4268 8.48096 21.4268" stroke="#386159" stroke-width="1.36066" stroke-linecap="square"/>
<path d="M34.8225 -27.6094C34.8225 -27.6094 45.0194 -14.9276 33.9727 9.59043C22.9259 34.1085 7.63037 34.1085 7.63037 34.1085" stroke="#386159" stroke-width="1.36066" stroke-linecap="square"/>
<path d="M42.4709 -32.6824C42.4709 -32.6824 52.5545 -19.0858 41.9893 11.3157C31.4241 41.7172 6.78125 44.2535 6.78125 44.2535" stroke="#386159" stroke-width="1.36066" stroke-linecap="square"/>
<path d="M126.649 108.987C126.649 108.987 121.839 107.139 118.682 107.446C110.44 108.248 110.716 116.693 107.529 122.088C105.32 125.828 103.82 126.916 101.953 129.023C101.953 129.023 107.203 129.907 109.919 130.564C120.015 133.005 124.617 137.743 133.819 134.417C142.29 131.356 144.147 124.873 148.955 117.464C150.658 114.84 152.938 110.529 152.938 110.529C152.938 110.529 148.92 111.305 146.565 110.529C143.85 109.635 142.22 108.637 140.192 106.675C137.802 104.364 136.199 102.942 133.022 103.593C129.787 104.256 126.649 108.987 126.649 108.987Z" fill="#C25B44" stroke="#C25B44" stroke-width="1.36066" stroke-linecap="round"/>
<path d="M126.699 115.404C123.365 116.145 121.497 122.035 121.497 122.035C121.497 122.035 124.768 119.69 127.017 118.874C129.221 118.074 133.452 118.874 133.452 118.874C133.452 118.874 129.596 114.76 126.699 115.404Z" fill="#FDF6E9"/>
<path d="M39.0718 70.4641C39.0718 70.4641 47.8079 60.871 55.2171 57.7823C64.1142 54.0736 69.6629 53.5537 79.86 56.0915C89.0765 58.3853 92.6063 63.6991 92.6063 63.6991" stroke="#44140A" stroke-width="1.36066" stroke-linecap="round"/>
<path d="M79.0102 77.2256C67.9634 80.6074 39.0718 70.4619 39.0718 70.4619C39.0718 70.4619 47.5694 55.2439 57.7663 51.8621C67.9634 48.4801 76.461 50.1711 79.86 51.0166C83.2589 51.8621 89.1931 55.02 91.7565 60.3166C93.0838 63.0592 93.456 67.9256 93.456 67.9256C93.456 67.9256 90.0569 73.8436 79.0102 77.2256Z" fill="#FDF6E9" stroke="#44140A" stroke-width="1.36066" stroke-linecap="round"/>
<path d="M146.141 49.3262C157.613 41.7172 158.038 22.2719 158.038 22.2719C158.038 22.2719 146.772 16.8517 137.153 21.6235C127.534 26.3955 122.719 33.564 120.913 36.5512C119.107 39.5383 117.148 45.9441 119.094 51.4947C120.101 54.369 120.913 56.0899 120.913 56.0899C120.913 56.0899 134.67 56.9354 146.141 49.3262Z" fill="#FDF6E9"/>
<path d="M157.189 22.2719C157.189 22.2719 150.6 21.0019 143.163 24.0222C134.231 27.649 129.934 31.1803 124.518 40.1428C119.622 48.2433 120.895 54.4855 120.895 54.4855M158.038 22.2719C158.038 22.2719 157.613 41.7172 146.141 49.3262C134.67 56.9354 120.913 56.0899 120.913 56.0899C120.913 56.0899 120.101 54.369 119.094 51.4947C117.148 45.9441 119.107 39.5383 120.913 36.5512C122.719 33.564 127.534 26.3955 137.153 21.6235C146.772 16.8517 158.038 22.2719 158.038 22.2719Z" stroke="#44140A" stroke-width="1.36066" stroke-linecap="round"/>
<path d="M118.099 45.0988L119.799 51.8625L121.498 45.0988L124.897 39.1807L128.296 34.108L145.291 23.1172L153.789 21.4262L146.991 19.7354L141.892 20.5808L127.446 28.1898L121.498 36.6443L118.099 45.0988Z" fill="#44140A"/>
<path d="M47.5697 59.4718L43.3208 65.3899C43.3208 65.3899 51.9433 58.1946 58.6163 56.0899C62.1531 54.9745 64.2553 54.5153 67.9637 54.399C73.363 54.2296 76.4632 55.153 81.5597 56.9354C85.76 58.4042 91.7567 62.0081 91.7567 62.0081L90.0572 57.7808L84.9587 53.5536C84.9587 53.5536 81.6886 51.9241 76.4611 51.0173C71.2338 50.1103 63.715 50.1718 63.715 50.1718L54.3676 53.5536L47.5697 59.4718Z" fill="#44140A"/>
<path d="M128.294 82.2991C125.71 77.8025 113.808 61.5921 108.239 54.0641C107.221 52.689 105.069 53.2955 104.924 54.9999C104.07 65.0637 102.337 87.6777 103.651 91.5991C105.352 96.6717 120.646 97.5172 120.646 97.5172C120.646 97.5172 131.695 88.2173 128.294 82.2991Z" fill="#C25B44" stroke="#C25B44" stroke-width="1.36066" stroke-linecap="round"/>
<path d="M65.4135 116.962C71.5145 116.962 76.4603 111.663 76.4603 105.126C76.4603 98.5891 71.5145 93.2898 65.4135 93.2898C59.3125 93.2898 54.3667 98.5891 54.3667 105.126C54.3667 111.663 59.3125 116.962 65.4135 116.962Z" fill="#C25B44"/>
<path d="M160.587 78.0718C166.688 78.0718 171.634 72.7725 171.634 66.2355C171.634 59.6985 166.688 54.3992 160.587 54.3992C154.486 54.3992 149.54 59.6985 149.54 66.2355C149.54 72.7725 154.486 78.0718 160.587 78.0718Z" fill="#C25B44"/>
<path d="M88.3577 62.0083C88.3577 69.0121 83.4118 74.69 77.3108 74.69C71.2099 74.69 66.2642 69.0121 66.2642 62.0083C66.2642 55.0043 69.5104 51.0173 75.6114 51.0173C81.7123 51.0173 88.3577 55.0043 88.3577 62.0083Z" fill="#44140A"/>
<path d="M149.542 26.6756C152.879 32.8427 151.228 40.1746 145.857 43.0517C140.485 45.9289 133.424 43.2617 130.088 37.0946C126.751 30.9273 128.872 25.149 134.244 22.2719C139.616 19.3947 146.206 20.5084 149.542 26.6756Z" fill="#44140A"/>
<path d="M68.9682 21.6047C69.5832 21.8927 70.1073 22.4174 70.6065 22.8621C71.7411 23.8731 72.7614 24.9834 73.7595 26.1262C75.5774 28.2079 77.2459 30.423 78.8146 32.6967C80.0357 34.4669 81.2145 36.2669 82.2952 38.1242C82.9602 39.267 83.7498 40.3226 84.2867 41.5365C84.5249 42.0751 84.8262 42.6045 85.0357 43.1538C85.1242 43.3863 85.0267 43.3259 84.8825 43.1877C83.8233 42.1729 82.7299 41.2112 81.708 40.1479C78.8195 37.142 76.1817 33.9372 73.0872 31.1304C71.0366 29.2704 68.9846 27.3497 66.6449 25.8467C65.7856 25.295 64.9219 24.8087 64.1003 24.1957C64.0495 24.1578 63.7193 23.9167 63.7514 23.9544C64.1346 24.4051 64.6006 24.8029 65.0108 25.2287C67.3005 27.6046 69.5213 30.06 71.6915 32.5444C72.8804 33.9054 74.2028 35.2177 75.2146 36.7187C75.4189 37.0216 75.7152 37.271 75.1976 37.2098C72.7113 36.9152 70.4022 35.4428 68.1938 34.3817C65.6182 33.1443 63.078 31.9041 60.3642 30.9949C59.2622 30.6255 58.1702 30.2016 57.0197 30.0042C56.6829 29.9464 56.2879 29.9841 55.9644 29.8941C55.8956 29.8749 56.5419 30.2335 56.6708 30.309C57.5173 30.8048 58.4193 31.2992 59.0877 32.0279C59.4958 32.4727 59.7591 32.8462 60.0068 33.3826C60.212 33.8267 59.2107 33.7912 58.9516 33.8314C56.6189 34.1933 54.2336 34.2591 51.8795 34.4072C50.6569 34.484 49.4371 34.4934 48.2286 34.7119C48.1813 34.7205 47.2192 34.898 47.2499 34.9999C47.289 35.1296 48.0681 35.2869 48.1264 35.3047C49.2537 35.6473 50.3453 36.066 51.437 36.507C52.1833 36.8083 52.9306 37.1051 53.6923 37.3664C53.7325 37.3803 54.2284 37.4979 54.2284 37.5908C54.2284 37.7347 51.2749 38.4672 51.088 38.5222C48.5725 39.2631 46.031 39.9042 43.5138 40.639C42.1068 41.0498 40.6666 41.3685 39.2843 41.8582C39.1581 41.903 38.8137 41.9201 38.7906 42.1038C38.7821 42.1718 38.6375 42.2483 38.6375 42.1801" stroke="#386159" stroke-width="1.36066" stroke-linecap="round"/>
<path d="M111.565 4.54069C111.238 5.13389 111.125 5.86507 110.985 6.51692C110.667 7.99903 110.5 9.49412 110.37 11.0026C110.134 13.7503 110.097 16.5182 110.176 19.2749C110.237 21.421 110.224 21.8285 110.451 23.9629C110.59 25.2761 110.703 28.3296 110.988 29.6252C111.115 30.2 111.185 30.8045 111.341 31.3709C111.407 31.6108 111.45 31.5049 111.484 31.3086C111.74 29.8678 112.054 28.45 112.25 26.9918C112.804 22.8699 113.038 18.7341 113.876 14.6522C114.432 11.9474 114.953 9.19256 115.954 6.60676C116.321 5.65727 116.731 4.75806 117.032 3.78113C117.051 3.7207 117.175 3.33228 117.171 3.38162C117.129 3.9705 116.988 4.56506 116.908 5.14958C116.465 8.41145 116.124 11.6973 115.842 14.9766C115.687 16.7733 115.395 18.6088 115.466 20.4148C115.481 20.7792 115.389 21.1546 115.771 20.8017C117.606 19.1064 118.6 16.5632 119.756 14.4113C121.104 11.9018 122.423 9.41081 124.077 7.08546C124.749 6.14118 125.38 5.15844 126.193 4.32463C126.431 4.08054 126.773 3.87954 126.981 3.61717C127.025 3.56135 126.715 4.22998 126.656 4.36643C126.265 5.26322 125.829 6.19138 125.72 7.17196C125.654 7.77069 125.662 8.22669 125.78 8.80539C125.877 9.28453 126.665 8.66892 126.898 8.54949C128.997 7.47478 130.964 6.1298 132.954 4.86965C133.987 4.21515 134.978 3.50776 136.084 2.97606C136.128 2.95527 137.01 2.53476 137.046 2.63507C137.091 2.76276 136.554 3.34662 136.518 3.39514C135.81 4.33275 135.176 5.31099 134.555 6.30707C134.13 6.98802 133.702 7.66586 133.241 8.32338C133.217 8.35809 132.886 8.74386 132.941 8.81894C133.026 8.93522 135.846 7.796 136.03 7.73094C138.501 6.85526 140.935 5.88359 143.404 5.00204C144.783 4.50924 146.135 3.92259 147.544 3.5082C147.671 3.47036 147.96 3.2824 148.087 3.41731C148.134 3.46726 148.297 3.44421 148.256 3.38909" stroke="#386159" stroke-width="1.36066" stroke-linecap="round"/>
<path d="M19.5268 108.508C20.9347 108.508 22.0761 107.372 22.0761 105.971C22.0761 104.571 20.9347 103.435 19.5268 103.435C18.1189 103.435 16.9775 104.571 16.9775 105.971C16.9775 107.372 18.1189 108.508 19.5268 108.508Z" fill="white"/>
<path opacity="0.9" d="M20.8083 133.887C20.5819 130.884 21.8891 124.274 22.4922 117.154C22.4922 117.154 30.7506 130.128 30.9205 132.38C31.0904 134.633 30.2437 137.664 27.7495 138.656C25.0276 139.738 21.0345 136.89 20.8083 133.887Z" fill="white"/>
<path d="M85.8088 300.425C85.8088 300.425 129.996 136.408 169.934 133.026C209.873 129.644 220.919 162.617 224.319 168.535C227.717 174.452 279.553 295.352 279.553 295.352" stroke="#C25B44" stroke-width="2.72131"/>
<path d="M296.567 54.7948L296.747 54.7799C296.755 54.8119 296.765 54.846 296.773 54.878C295.68 55.2085 294.591 55.5573 293.494 55.865C293.096 55.975 292.676 55.9757 292.264 56.0422C292.062 56.0745 291.871 56.1523 291.671 56.1959C291.432 56.2496 291.191 56.3236 290.949 56.3274C289.115 56.3663 287.305 56.1818 285.518 55.7832C283.165 55.2611 281.038 54.2483 279.159 52.7502C277.5 51.4237 275.95 49.9673 275.098 47.9693C274.745 47.1422 274.521 46.2421 274.36 45.3529C274.174 44.3182 274.072 43.2591 274.016 42.2058C273.942 40.8014 273.854 39.3787 274.499 38.062C274.735 37.5762 275.07 37.1296 275.4 36.7011C275.605 36.4337 275.601 36.2302 275.424 35.9669C273.757 33.4508 273.024 30.6332 272.855 27.6589C272.744 25.7016 273.175 23.865 274.315 22.2085C275.279 20.8111 276.222 19.4017 277.53 18.2908C279.015 17.0294 280.71 16.4278 282.67 16.7956C283.824 17.0095 284.756 17.6645 285.615 18.4056C286.163 18.8814 286.62 19.4562 287.12 19.9871C287.898 20.8138 288.691 21.6251 289.448 22.4715C290.727 23.897 292.006 25.3269 293.251 26.7807C294.595 28.3552 296.085 29.7668 297.812 30.9165C298.992 31.7013 300.181 32.4839 301.405 33.1977C301.947 33.5128 302.573 33.7265 303.188 33.8675C304.152 34.0893 305.133 34.2732 306.116 34.3576C306.779 34.4141 307.457 34.263 308.129 34.2407C308.37 34.2345 308.614 34.3256 308.854 34.376C308.942 34.3945 309.024 34.431 309.112 34.436C309.656 34.464 309.894 34.6748 309.826 35.2176C309.735 35.9249 309.643 36.6525 309.414 37.3239C308.65 39.5709 307.895 41.8249 306.997 44.0203C306.117 46.1824 304.705 48.0455 303.28 49.8855C302.361 51.0717 301.187 51.9605 299.96 52.8117C299.04 53.4482 298.029 53.8898 297.058 54.4164C296.879 54.5149 296.706 54.6249 296.529 54.7303C296.54 54.7509 296.552 54.7695 296.563 54.7902L296.567 54.7948Z" fill="#304A40"/>
<path d="M-2.1822 -15.2506C-1.8858 -15.2983 -1.60654 -15.3407 -1.32823 -15.3874C-0.281664 -15.558 0.763004 -15.5652 1.80929 -15.3932C2.99984 -15.1973 3.93563 -14.5736 4.74781 -13.7295C5.48278 -12.9647 6.12205 -12.1289 6.63806 -11.2084C7.11564 -10.3578 7.21252 -9.43321 7.05248 -8.47572C6.91316 -7.64504 6.62818 -6.865 6.16253 -6.16255C5.48116 -5.13153 4.59595 -4.32382 3.42669 -3.8529C2.82669 -3.61102 2.21757 -3.40331 1.58516 -3.2523C1.17482 -3.15363 0.768608 -3.08454 0.349581 -3.05938C0.322422 -3.05788 0.296503 -3.03703 0.271259 -3.0269C0.431513 -2.69733 0.594536 -2.37592 0.744778 -2.05016C1.03674 -1.41637 1.21386 -0.749514 1.29472 -0.0552673C1.41652 0.98148 1.35683 2.00572 1.07963 3.01337C0.839153 3.89065 0.443258 4.68022 -0.316679 5.24736C-0.732119 5.55689 -1.19275 5.77991 -1.6863 5.93025C-2.12259 6.06336 -2.55938 6.20111 -3.00462 6.29395C-4.00749 6.50309 -4.9853 6.41242 -5.93612 6.03058C-6.4557 5.82306 -6.95355 5.58958 -7.39484 5.23943C-7.87644 4.859 -8.26829 4.4013 -8.60926 3.89759C-8.99176 3.33069 -9.27635 2.71638 -9.49604 2.07106C-9.60989 1.73722 -9.70691 1.39662 -9.81795 1.04103C-9.96664 1.09367 -10.1537 1.15935 -10.3422 1.22535C-10.4159 1.25079 -10.4873 1.28022 -10.562 1.30134C-10.7993 1.36762 -11.0343 1.45148 -11.2755 1.49299C-11.6992 1.56596 -12.1269 1.64133 -12.556 1.66268C-13.3101 1.69888 -14.0639 1.64747 -14.784 1.40303C-15.349 1.2116 -15.9178 1.0301 -16.4163 0.683603C-17.0611 0.23531 -17.5235 -0.340998 -17.7729 -1.08536C-18.0488 -1.90832 -18.1609 -2.75709 -18.1432 -3.6196C-18.1294 -4.27907 -17.971 -4.92083 -17.7176 -5.53389C-17.5795 -5.86786 -17.4269 -6.19899 -17.2424 -6.51005C-16.9671 -6.9756 -16.5679 -7.3449 -16.1582 -7.69393C-15.8375 -7.96886 -15.484 -8.20729 -15.1517 -8.47123C-15.1077 -8.50667 -15.0631 -8.60861 -15.0846 -8.65059C-15.386 -9.27174 -15.4707 -9.93497 -15.5162 -10.6145C-15.5991 -11.8816 -15.3406 -13.0979 -14.942 -14.2879C-14.6627 -15.121 -14.3161 -15.9329 -13.7671 -16.6312C-13.3667 -17.1396 -12.9256 -17.6223 -12.4632 -18.0782C-11.8829 -18.6491 -11.2154 -19.1096 -10.4739 -19.4644C-9.83886 -19.7684 -9.16569 -19.9285 -8.48238 -20.0773C-7.84305 -20.2177 -7.21627 -20.2015 -6.60552 -19.9962C-6.24396 -19.8743 -5.89105 -19.7157 -5.56038 -19.5266C-4.98471 -19.1972 -4.4065 -18.8564 -3.97099 -18.3465C-3.66792 -17.9928 -3.40163 -17.6053 -3.12675 -17.2273C-2.74591 -16.7022 -2.44179 -16.1375 -2.2869 -15.502C-2.2666 -15.4175 -2.21866 -15.3391 -2.18252 -15.2521L-2.1822 -15.2506ZM-6.42072 -9.21312C-7.21662 -8.97299 -7.7263 -8.79057 -8.42582 -8.15086C-6.6175 -7.80766 -6.58493 -7.58305 -8.04409 -7.7177C-8.36232 -7.01177 -8.40622 -7.08195 -8.30838 -6.32506C-8.25503 -5.91291 -8.13231 -5.97629 -8.09237 -5.56266C-8.05515 -5.16805 -8.24596 -4.95719 -8.0247 -4.64871C-7.66208 -4.14377 -6.61795 -5.05652 -6.09019 -4.70898C-5.48338 -4.30807 -6.24043 -4.10239 -5.55977 -4.40747C-4.9974 -4.66061 -4.96402 -3.29923 -4.53068 -3.71385C-4.22828 -4.00283 -3.96376 -4.33168 -3.67956 -4.64073C-3.2378 -5.1206 -2.89774 -5.64578 -2.76713 -6.30251C-2.68895 -6.70012 -2.71021 -7.08469 -2.75117 -7.47547C-2.78063 -7.7526 -2.78468 -8.04595 -2.88502 -8.29829C-3.21045 -9.11025 -3.74216 -9.73003 -4.62132 -10.0161C-5.35578 -10.2559 -6.09154 -10.3777 -6.97346 -10.1879L-6.42072 -9.21312Z" fill="#FDF6E9"/>
<path d="M45.9493 216.246C45.9654 215.946 45.9829 215.664 45.9961 215.382C46.0507 214.323 46.2646 213.301 46.6538 212.314C47.097 211.193 47.9044 210.409 48.9011 209.794C49.804 209.237 50.7561 208.789 51.7649 208.479C52.6972 208.192 53.6214 208.294 54.5233 208.652C55.3058 208.963 56.008 209.407 56.5962 210.011C57.4598 210.895 58.062 211.931 58.2752 213.173C58.3847 213.81 58.459 214.45 58.4728 215.1C58.4826 215.522 58.4642 215.933 58.4002 216.348C58.396 216.375 58.4108 216.405 58.4155 216.432C58.7714 216.345 59.12 216.253 59.4703 216.175C60.1513 216.024 60.8406 215.992 61.5362 216.06C62.5754 216.16 63.5638 216.434 64.4901 216.919C65.2968 217.339 65.9847 217.893 66.3783 218.755C66.5931 219.227 66.7136 219.724 66.7563 220.239C66.7942 220.693 66.8365 221.149 66.833 221.605C66.8255 222.629 66.5301 223.565 65.9558 224.414C65.6432 224.878 65.3098 225.315 64.8743 225.672C64.4006 226.063 63.8704 226.348 63.306 226.576C62.6711 226.83 62.0105 226.978 61.3332 227.056C60.983 227.096 60.6295 227.12 60.2585 227.153C60.2786 227.309 60.3031 227.507 60.3278 227.704C60.337 227.781 60.3508 227.858 60.3556 227.935C60.3703 228.181 60.4025 228.429 60.3921 228.673C60.3738 229.103 60.3571 229.537 60.2872 229.961C60.1631 230.705 59.9536 231.431 59.5624 232.083C59.2559 232.595 58.9583 233.112 58.5142 233.527C57.9398 234.062 57.2787 234.393 56.4984 234.478C55.6358 234.574 54.7825 234.504 53.9432 234.305C53.3015 234.151 52.7077 233.862 52.1621 233.484C51.865 233.278 51.5735 233.06 51.3086 232.813C50.9116 232.445 50.635 231.977 50.3806 231.503C50.1796 231.132 50.0214 230.736 49.8336 230.355C49.8084 230.305 49.718 230.239 49.6725 230.252C49.0017 230.415 48.3356 230.357 47.6618 230.259C46.4057 230.072 45.2717 229.561 44.1927 228.92C43.4375 228.472 42.7174 227.961 42.1508 227.276C41.7386 226.778 41.36 226.245 41.0122 225.696C40.5769 225.009 40.2678 224.259 40.0778 223.459C39.9149 222.774 39.9007 222.082 39.8999 221.382C39.8977 220.729 40.0461 220.12 40.3759 219.565C40.5715 219.238 40.8011 218.927 41.0559 218.644C41.4995 218.15 41.9549 217.657 42.5452 217.339C42.9551 217.118 43.39 216.939 43.8177 216.751C44.4114 216.489 45.0276 216.312 45.6815 216.294C45.7684 216.293 45.8565 216.263 45.9493 216.246ZM50.9543 221.665C51.0207 222.493 51.0913 223.029 51.5687 223.849C52.2864 222.154 52.5128 222.17 52.0728 223.567C52.6954 224.027 52.6176 224.056 53.3781 224.121C53.7922 224.155 53.7561 224.022 54.1688 224.07C54.5625 224.118 54.7281 224.348 55.0765 224.197C55.6466 223.949 54.9753 222.736 55.4265 222.294C55.9467 221.786 55.9877 222.568 55.8333 221.839C55.7048 221.235 57.0425 221.491 56.7289 220.98C56.5104 220.623 56.2448 220.295 56.0028 219.952C55.6273 219.418 55.1859 218.975 54.5715 218.709C54.1994 218.548 53.8191 218.488 53.4285 218.445C53.1513 218.416 52.8638 218.357 52.596 218.403C51.7335 218.548 51.0154 218.938 50.5498 219.737C50.1603 220.404 49.8856 221.097 49.8847 221.999L50.9543 221.665Z" fill="#FDF6E9"/>
<path d="M50.0633 220.134C49.3002 221.936 50.1425 224.016 51.9447 224.779C53.7469 225.542 55.8266 224.7 56.5898 222.898C57.353 221.095 56.5107 219.016 54.7084 218.252C52.9062 217.489 50.8265 218.332 50.0633 220.134Z" fill="#388596"/>
<path d="M42.9507 245.403C42.8126 245.137 42.685 244.885 42.5535 244.636C42.0639 243.695 41.73 242.705 41.5658 241.658C41.3791 240.465 41.6785 239.382 42.226 238.346C42.7222 237.408 43.3159 236.539 44.0286 235.761C44.687 235.042 45.5347 234.66 46.4942 234.512C47.3267 234.385 48.1568 234.411 48.9697 234.633C50.1622 234.958 51.2064 235.546 52.0197 236.509C52.4372 237.003 52.8252 237.517 53.1666 238.07C53.3888 238.428 53.5815 238.793 53.7366 239.183C53.7465 239.208 53.7745 239.226 53.7919 239.248C54.0548 238.992 54.3091 238.736 54.5714 238.491C55.082 238.016 55.6598 237.639 56.2938 237.345C57.2403 236.905 58.2318 236.641 59.2755 236.589C60.184 236.542 61.0579 236.671 61.8344 237.215C62.2585 237.513 62.6144 237.88 62.9117 238.302C63.1747 238.675 63.4423 239.047 63.6699 239.44C64.1824 240.328 64.4024 241.284 64.3373 242.307C64.303 242.866 64.2372 243.412 64.0427 243.94C63.8321 244.517 63.5201 245.031 63.1484 245.513C62.7298 246.054 62.2354 246.517 61.6914 246.927C61.41 247.14 61.1168 247.339 60.8139 247.556C60.9104 247.68 61.0313 247.837 61.153 247.996C61.2003 248.058 61.2506 248.117 61.294 248.181C61.4313 248.386 61.5844 248.582 61.6995 248.799C61.9014 249.178 62.1068 249.561 62.2614 249.962C62.5319 250.666 62.719 251.399 62.7123 252.159C62.7073 252.755 62.7131 253.352 62.54 253.934C62.3161 254.687 61.9136 255.306 61.2847 255.776C60.5895 256.296 59.8184 256.668 58.9937 256.922C58.3631 257.114 57.704 257.165 57.0424 257.117C56.682 257.089 56.3197 257.048 55.9666 256.971C55.4382 256.855 54.9626 256.591 54.5028 256.311C54.1412 256.093 53.8041 255.832 53.4495 255.599C53.402 255.568 53.2912 255.558 53.2581 255.592C52.7625 256.072 52.1591 256.36 51.528 256.616C50.3505 257.092 49.1145 257.227 47.8595 257.221C46.9808 257.217 46.1013 257.141 45.2662 256.838C44.658 256.617 44.0615 256.349 43.4838 256.053C42.7599 255.681 42.1134 255.191 41.5444 254.598C41.0569 254.09 40.6941 253.5 40.3389 252.899C40.0053 252.335 39.8246 251.735 39.8284 251.09C39.831 250.708 39.8711 250.324 39.9472 249.951C40.0797 249.301 40.2225 248.645 40.5704 248.072C40.8114 247.674 41.0961 247.299 41.3691 246.92C41.7485 246.393 42.1896 245.928 42.7448 245.582C42.8187 245.537 42.8781 245.467 42.9495 245.405L42.9507 245.403ZM50.0116 247.539C50.4889 248.22 50.8216 248.647 51.6481 249.111C51.4081 247.287 51.6112 247.185 51.9401 248.612C52.7101 248.693 52.6572 248.758 53.3454 248.428C53.7201 248.249 53.6216 248.151 54.0019 247.984C54.3651 247.825 54.6251 247.94 54.8488 247.634C55.2148 247.131 54.021 246.426 54.1858 245.815C54.3766 245.114 54.809 245.769 54.3062 245.217C53.8898 244.762 55.1723 244.304 54.6428 244.023C54.2737 243.826 53.8785 243.678 53.496 243.504C52.902 243.235 52.2968 243.077 51.6322 243.158C51.2301 243.209 50.8715 243.349 50.5132 243.511C50.2593 243.625 49.9819 243.721 49.7736 243.895C49.1044 244.458 48.6822 245.158 48.6856 246.081C48.6878 246.854 48.8026 247.591 49.2589 248.369L50.0116 247.539Z" fill="#FDF6E9"/>
<path d="M48.4669 246.67C48.7223 248.611 50.5023 249.977 52.4428 249.721C54.3832 249.466 55.7492 247.686 55.4939 245.745C55.2385 243.805 53.4585 242.439 51.518 242.694C49.5776 242.95 48.2116 244.73 48.4669 246.67Z" fill="#388596"/>
<path d="M69.0964 236.066C68.9581 235.8 68.8305 235.547 68.699 235.297C68.2094 234.357 67.8756 233.368 67.7115 232.32C67.5246 231.128 67.824 230.043 68.3715 229.008C68.8677 228.071 69.4614 227.202 70.1741 226.424C70.8325 225.703 71.6803 225.322 72.6397 225.175C73.4723 225.047 74.3023 225.073 75.1153 225.296C76.3077 225.62 77.352 226.208 78.1652 227.171C78.5829 227.665 78.9707 228.178 79.3121 228.732C79.5343 229.091 79.7272 229.454 79.8821 229.846C79.8921 229.87 79.92 229.888 79.9376 229.909C80.2004 229.653 80.4546 229.398 80.7169 229.154C81.2275 228.678 81.8053 228.301 82.4394 228.006C83.386 227.567 84.3773 227.302 85.4212 227.25C86.3297 227.205 87.2034 227.334 87.9799 227.877C88.404 228.175 88.76 228.543 89.0573 228.964C89.3203 229.336 89.5878 229.708 89.8154 230.102C90.328 230.989 90.5479 231.947 90.483 232.97C90.4485 233.528 90.3827 234.073 90.1882 234.603C89.9778 235.179 89.6656 235.694 89.294 236.176C88.8753 236.717 88.3809 237.179 87.8369 237.59C87.5555 237.802 87.2623 238.001 86.9594 238.218C87.056 238.343 87.1769 238.5 87.2985 238.657C87.3458 238.721 87.3961 238.778 87.4395 238.843C87.5768 239.047 87.7299 239.245 87.845 239.46C88.0469 239.841 88.2523 240.223 88.407 240.624C88.6774 241.328 88.8645 242.06 88.8579 242.822C88.8528 243.417 88.8586 244.014 88.6855 244.596C88.4616 245.349 88.0591 245.969 87.4302 246.438C86.735 246.959 85.964 247.331 85.1393 247.583C84.5086 247.777 83.8495 247.827 83.1879 247.779C82.8275 247.752 82.4653 247.711 82.1121 247.632C81.5838 247.517 81.1081 247.254 80.6483 246.974C80.2867 246.755 79.9498 246.495 79.595 246.261C79.5476 246.231 79.4367 246.22 79.4036 246.254C78.908 246.735 78.3046 247.023 77.6737 247.278C76.496 247.753 75.2601 247.889 74.005 247.884C73.1264 247.878 72.2469 247.804 71.4117 247.501C70.8035 247.28 70.207 247.012 69.6295 246.716C68.9054 246.344 68.259 245.854 67.6899 245.261C67.2024 244.751 66.8396 244.163 66.4845 243.56C66.151 242.997 65.9701 242.398 65.9739 241.752C65.9765 241.371 66.0166 240.987 66.0928 240.613C66.2254 239.963 66.3681 239.308 66.7159 238.734C66.957 238.335 67.2416 237.961 67.5146 237.581C67.8941 237.056 68.3353 236.59 68.8903 236.244C68.9643 236.198 69.0237 236.128 69.095 236.067L69.0964 236.066ZM76.1572 238.202C76.6344 238.882 76.9672 239.309 77.7938 239.773C77.5536 237.948 77.7567 237.848 78.0856 239.275C78.8557 239.356 78.8027 239.421 79.4909 239.09C79.8658 238.91 79.7671 238.814 80.1474 238.646C80.5106 238.487 80.7706 238.602 80.9943 238.296C81.3603 237.794 80.1666 237.087 80.3315 236.478C80.5223 235.775 80.9546 236.43 80.4517 235.879C80.0353 235.425 81.3178 234.967 80.7884 234.685C80.4192 234.488 80.0242 234.339 79.6416 234.166C79.0476 233.897 78.4423 233.738 77.7777 233.821C77.3756 233.87 77.0171 234.011 76.6587 234.172C76.4048 234.287 76.1274 234.383 75.9192 234.558C75.2499 235.12 74.8277 235.819 74.8313 236.744C74.8335 237.517 74.9481 238.254 75.4044 239.032L76.1572 238.202Z" fill="#FDF6E9"/>
<path d="M74.6127 237.333C74.8681 239.273 76.6481 240.639 78.5885 240.384C80.529 240.128 81.895 238.348 81.6396 236.408C81.3843 234.468 79.6042 233.102 77.6638 233.357C75.7234 233.612 74.3573 235.392 74.6127 237.333Z" fill="#388596"/>
<path d="M74.699 260.344C74.5609 260.077 74.4331 259.826 74.3016 259.576C73.8121 258.636 73.4783 257.645 73.3141 256.598C73.1274 255.407 73.4266 254.322 73.9742 253.286C74.4705 252.349 75.0641 251.48 75.7769 250.701C76.4351 249.982 77.283 249.601 78.2424 249.452C79.075 249.325 79.9049 249.352 80.7179 249.575C81.9104 249.899 82.9546 250.486 83.768 251.449C84.1855 251.944 84.5734 252.457 84.9149 253.01C85.137 253.37 85.3298 253.733 85.4849 254.123C85.4948 254.149 85.5226 254.167 85.5402 254.188C85.8031 253.932 86.0573 253.677 86.3197 253.431C86.8301 252.957 87.408 252.579 88.0421 252.285C88.9886 251.845 89.98 251.581 91.0238 251.529C91.9323 251.482 92.8061 251.611 93.5827 252.155C94.0066 252.453 94.3627 252.821 94.66 253.242C94.923 253.615 95.1905 253.987 95.418 254.381C95.9307 255.268 96.1507 256.225 96.0856 257.247C96.0512 257.806 95.9853 258.352 95.791 258.88C95.5804 259.457 95.2683 259.973 94.8967 260.453C94.478 260.994 93.9837 261.457 93.4396 261.869C93.1581 262.081 92.8651 262.279 92.5622 262.496C92.6587 262.621 92.7796 262.779 92.9013 262.936C92.9485 262.998 92.9988 263.057 93.0423 263.122C93.1795 263.326 93.3327 263.522 93.4476 263.739C93.6495 264.118 93.8551 264.501 94.0097 264.902C94.2801 265.607 94.4673 266.339 94.4605 267.099C94.4556 267.696 94.4612 268.293 94.2883 268.874C94.0643 269.628 93.6617 270.247 93.0328 270.717C92.3376 271.236 91.5667 271.608 90.7419 271.862C90.1112 272.056 89.4523 272.106 88.7907 272.057C88.4303 272.031 88.068 271.99 87.7149 271.911C87.1864 271.796 86.7107 271.533 86.2511 271.253C85.8895 271.033 85.5524 270.772 85.1978 270.54C85.1503 270.509 85.0395 270.499 85.0063 270.532C84.5108 271.012 83.9074 271.301 83.2763 271.557C82.0987 272.032 80.8627 272.168 79.6078 272.161C78.7291 272.157 77.8495 272.082 77.0143 271.78C76.4063 271.557 75.8097 271.29 75.2321 270.993C74.5081 270.621 73.8617 270.131 73.2927 269.538C72.8052 269.03 72.4424 268.442 72.0872 267.839C71.7536 267.275 71.5729 266.675 71.5767 266.031C71.5793 265.65 71.6194 265.264 71.6954 264.891C71.828 264.242 71.9708 263.586 72.3187 263.012C72.5597 262.614 72.8444 262.239 73.1174 261.86C73.4968 261.335 73.9379 260.868 74.493 260.522C74.567 260.477 74.6264 260.407 74.6978 260.345L74.699 260.344ZM81.7598 262.479C82.237 263.16 82.5699 263.587 83.3964 264.051C83.1562 262.227 83.3594 262.125 83.6884 263.554C84.4584 263.635 84.4055 263.698 85.0937 263.369C85.4684 263.189 85.3697 263.091 85.7502 262.924C86.1133 262.766 86.3732 262.881 86.5969 262.574C86.963 262.072 85.7693 261.366 85.9341 260.755C86.1249 260.054 86.5573 260.709 86.0545 260.158C85.6379 259.703 86.9204 259.246 86.3911 258.963C86.022 258.767 85.6268 258.618 85.2443 258.445C84.6503 258.175 84.045 258.017 83.3804 258.098C82.9783 258.149 82.6197 258.289 82.2615 258.451C82.0074 258.565 81.7302 258.661 81.5218 258.835C80.8525 259.398 80.4304 260.098 80.4339 261.022C80.4361 261.794 80.5507 262.531 81.0071 263.31L81.7598 262.479Z" fill="#FDF6E9"/>
<path d="M80.2152 261.61C80.4706 263.551 82.2506 264.917 84.191 264.661C86.1315 264.406 87.4975 262.626 87.2422 260.686C86.9868 258.745 85.2067 257.379 83.2663 257.634C81.3259 257.89 79.9599 259.67 80.2152 261.61Z" fill="#388596"/>
</g>
</g>
<defs>
<clipPath id="clip0_806_27664">
<rect width="280" height="281.373" fill="white" transform="translate(0.687988 0.859131)"/>
</clipPath>
</defs>
</svg>
