<svg width="80" height="80" viewBox="0 0 80 80" fill="none" xmlns="http://www.w3.org/2000/svg">
<g clip-path="url(#clip0_738_6620)">
<circle cx="40.2994" cy="39.7006" r="39.7006" fill="#E75F7A"/>
<circle cx="41.2487" cy="40.3394" r="5.99885" transform="rotate(-133.669 41.2487 40.3394)" fill="#EC8F9C"/>
<path d="M33.367 52.5853C32.8957 52.5757 32.4523 52.5627 32.0091 52.5566C30.3442 52.5259 28.7281 52.2433 27.1599 51.6834C25.3755 51.0461 24.105 49.8196 23.0874 48.2869C22.1669 46.8987 21.4141 45.4276 20.8757 43.8603C20.3769 42.4118 20.4871 40.9561 21.0036 39.5217C21.4524 38.2774 22.112 37.1524 23.0289 36.1979C24.3715 34.7965 25.9662 33.7974 27.9052 33.3985C28.9002 33.1935 29.8997 33.0438 30.9193 32.9883C31.581 32.9512 32.228 32.9586 32.8825 33.0375C32.9249 33.0429 32.9708 33.0179 33.0127 33.0094C32.8577 32.4551 32.6962 31.9127 32.5557 31.3671C32.2827 30.3058 32.1965 29.2257 32.2668 28.1303C32.37 26.4943 32.7502 24.9286 33.4618 23.4496C34.0799 22.1618 34.9136 21.0531 36.2472 20.3905C36.976 20.0291 37.7504 19.814 38.5553 19.7205C39.2668 19.6375 39.9804 19.5474 40.6944 19.5291C42.3027 19.4879 43.7879 19.9029 45.1497 20.7602C45.8941 21.2269 46.5977 21.7276 47.181 22.3926C47.8182 23.1158 48.2949 23.9331 48.6802 24.8072C49.1118 25.7907 49.3788 26.8198 49.5368 27.8786C49.6188 28.4264 49.673 28.9799 49.7446 29.5605C49.9891 29.521 50.2965 29.4721 50.6063 29.4231C50.7275 29.4046 50.846 29.3792 50.9674 29.3675C51.3527 29.3318 51.7392 29.2683 52.1237 29.272C52.7988 29.2784 53.4808 29.2822 54.1497 29.3698C55.3251 29.5259 56.4752 29.8172 57.5192 30.3973C58.3382 30.8519 59.1659 31.2922 59.8388 31.9677C60.709 32.8416 61.2616 33.8621 61.4375 35.0822C61.6325 36.4313 61.5671 37.7742 61.2973 39.1019C61.0904 40.1169 60.6653 41.0639 60.1015 41.9399C59.7942 42.417 59.4655 42.8858 59.093 43.3145C58.5367 43.9564 57.8162 44.4148 57.085 44.8389C56.5121 45.1735 55.8991 45.4425 55.3114 45.7569C55.2333 45.7992 55.1358 45.9442 55.1573 46.0152C55.4483 47.0596 55.3927 48.1081 55.272 49.1707C55.0438 51.1519 54.3027 52.9584 53.3523 54.685C52.6865 55.8937 51.9227 57.0505 50.8781 57.9751C50.1167 58.6481 49.2994 59.2699 48.4569 59.8441C47.3996 60.5632 46.2388 61.0872 44.9935 61.4269C43.9268 61.7181 42.8418 61.7761 41.7442 61.8139C40.7169 61.8512 39.7531 61.6499 38.8672 61.1609C38.3428 60.8709 37.8421 60.5267 37.3844 60.1416C36.5876 59.4709 35.79 58.7817 35.2605 57.8715C34.8916 57.2398 34.5891 56.5662 34.2707 55.9048C33.8299 54.9866 33.5188 54.0286 33.4581 53.0031C33.4505 52.8668 33.3985 52.7322 33.3671 52.5876L33.367 52.5853ZM41.613 44.4486C42.9102 44.3014 43.749 44.1628 45.0096 43.3711C42.3122 42.3325 42.325 41.9763 44.5416 42.5945C45.2317 41.5933 45.2798 41.7141 45.3415 40.5171C45.3749 39.8653 45.1674 39.9288 45.222 39.2785C45.2754 38.6583 45.6295 38.3862 45.3744 37.8473C44.9561 36.9653 43.0863 38.082 42.3685 37.3966C41.5437 36.6066 42.7712 36.5016 41.6338 36.7816C40.6937 37.0147 41.0249 34.9019 40.2388 35.4207C39.6903 35.7822 39.1892 36.2159 38.6632 36.6135C37.8458 37.2307 37.1727 37.9466 36.7863 38.9245C36.5537 39.5169 36.4784 40.117 36.4319 40.7323C36.3995 41.1688 36.3233 41.6231 36.4074 42.0412C36.6819 43.3872 37.3292 44.4943 38.6071 45.1835C39.6745 45.7604 40.777 46.1554 42.193 46.1101L41.613 44.4486Z" fill="#FDF6E9"/>
<circle cx="41.2544" cy="40.7326" r="5.56517" transform="rotate(21.0584 41.2544 40.7326)" fill="#EC8F9C"/>
</g>
<defs>
<clipPath id="clip0_738_6620">
<rect width="79.4012" height="79.4012" fill="white" transform="translate(0.598755)"/>
</clipPath>
</defs>
</svg>
