<svg width="80" height="80" viewBox="0 0 80 80" fill="none" xmlns="http://www.w3.org/2000/svg">
<g clip-path="url(#clip0_681_6125)">
<circle cx="40.2994" cy="39.7006" r="39.7006" fill="#E14A68"/>
<circle cx="41.2487" cy="40.3394" r="5.99885" transform="rotate(-133.669 41.2487 40.3394)" fill="#EC8F9C"/>
<path d="M33.367 52.5851C32.8957 52.5755 32.4523 52.5626 32.0091 52.5565C30.3442 52.5258 28.7281 52.2432 27.1599 51.6833C25.3755 51.046 24.105 49.8195 23.0874 48.2868C22.1669 46.8986 21.4141 45.4275 20.8757 43.8602C20.3769 42.4117 20.4871 40.956 21.0036 39.5216C21.4524 38.2773 22.112 37.1522 23.0289 36.1978C24.3715 34.7964 25.9662 33.7973 27.9052 33.3984C28.9002 33.1933 29.8997 33.0437 30.9193 32.9881C31.581 32.951 32.228 32.9585 32.8825 33.0374C32.9249 33.0427 32.9708 33.0178 33.0127 33.0093C32.8577 32.455 32.6962 31.9126 32.5557 31.367C32.2827 30.3057 32.1965 29.2256 32.2668 28.1302C32.37 26.4942 32.7502 24.9284 33.4618 23.4495C34.0799 22.1617 34.9136 21.053 36.2472 20.3904C36.976 20.029 37.7504 19.8139 38.5553 19.7203C39.2668 19.6373 39.9804 19.5473 40.6944 19.529C42.3027 19.4878 43.7879 19.9028 45.1497 20.7601C45.8941 21.2268 46.5977 21.7274 47.181 22.3925C47.8182 23.1157 48.2949 23.933 48.6802 24.8071C49.1118 25.7905 49.3788 26.8197 49.5368 27.8785C49.6188 28.4263 49.673 28.9798 49.7446 29.5604C49.9891 29.5209 50.2965 29.472 50.6063 29.423C50.7275 29.4044 50.846 29.379 50.9674 29.3674C51.3527 29.3317 51.7392 29.2682 52.1237 29.2719C52.7988 29.2782 53.4808 29.282 54.1497 29.3697C55.3251 29.5257 56.4752 29.8171 57.5192 30.3972C58.3382 30.8518 59.1659 31.2921 59.8388 31.9676C60.709 32.8415 61.2616 33.8619 61.4375 35.0821C61.6325 36.4312 61.5671 37.7741 61.2973 39.1017C61.0904 40.1167 60.6653 41.0638 60.1015 41.9398C59.7942 42.4169 59.4655 42.8857 59.093 43.3144C58.5367 43.9563 57.8162 44.4147 57.085 44.8387C56.5121 45.1734 55.8991 45.4424 55.3114 45.7568C55.2333 45.7991 55.1358 45.9441 55.1573 46.015C55.4483 47.0595 55.3927 48.108 55.272 49.1706C55.0438 51.1518 54.3027 52.9583 53.3523 54.6849C52.6865 55.8935 51.9227 57.0504 50.8781 57.975C50.1167 58.648 49.2994 59.2698 48.4569 59.844C47.3996 60.5631 46.2388 61.0871 44.9935 61.4268C43.9268 61.718 42.8418 61.776 41.7442 61.8137C40.7169 61.851 39.7531 61.6498 38.8672 61.1607C38.3428 60.8708 37.8421 60.5266 37.3844 60.1415C36.5876 59.4708 35.79 58.7815 35.2605 57.8713C34.8916 57.2397 34.5891 56.5661 34.2707 55.9047C33.8299 54.9865 33.5188 54.0285 33.4581 53.003C33.4505 52.8667 33.3985 52.7321 33.3671 52.5875L33.367 52.5851ZM41.613 44.4485C42.9102 44.3013 43.749 44.1627 45.0096 43.371C42.3122 42.3323 42.325 41.9762 44.5416 42.5944C45.2317 41.5932 45.2798 41.7139 45.3415 40.517C45.3749 39.8652 45.1674 39.9286 45.222 39.2783C45.2754 38.6582 45.6295 38.386 45.3744 37.8472C44.9561 36.9651 43.0863 38.0818 42.3685 37.3965C41.5437 36.6065 42.7712 36.5015 41.6338 36.7815C40.6937 37.0146 41.0249 34.9018 40.2388 35.4206C39.6903 35.782 39.1892 36.2157 38.6632 36.6134C37.8458 37.2306 37.1727 37.9464 36.7863 38.9244C36.5537 39.5167 36.4784 40.1169 36.4319 40.7322C36.3995 41.1686 36.3233 41.623 36.4074 42.0411C36.6819 43.3871 37.3292 44.4942 38.6071 45.1834C39.6745 45.7603 40.777 46.1553 42.193 46.11L41.613 44.4485Z" fill="#FDF6E9"/>
<circle cx="41.2544" cy="40.7326" r="5.56517" transform="rotate(21.0584 41.2544 40.7326)" fill="#EC8F9C"/>
</g>
<defs>
<clipPath id="clip0_681_6125">
<rect width="79.4012" height="79.4012" fill="white" transform="translate(0.598755)"/>
</clipPath>
</defs>
</svg>
