<svg width="281" height="283" viewBox="0 0 281 283" fill="none" xmlns="http://www.w3.org/2000/svg">
<g clip-path="url(#clip0_806_27727)">
<mask id="mask0_806_27727" style="mask-type:luminance" maskUnits="userSpaceOnUse" x="0" y="1" width="281" height="281">
<path d="M280.688 141.334C280.688 64.0144 218.008 1.33423 140.688 1.33423C63.3682 1.33423 0.68811 64.0144 0.68811 141.334C0.68811 218.654 63.3682 281.334 140.688 281.334C218.008 281.334 280.688 218.654 280.688 141.334Z" fill="white"/>
</mask>
<g mask="url(#mask0_806_27727)">
<path d="M280.688 141.334C280.688 64.0144 218.008 1.33423 140.688 1.33423C63.3682 1.33423 0.68811 64.0144 0.68811 141.334C0.68811 218.654 63.3682 281.334 140.688 281.334C218.008 281.334 280.688 218.654 280.688 141.334Z" fill="white"/>
<path d="M-159.9 34.2754C-159.9 16.0826 -145.152 1.33423 -126.959 1.33423H407.179C425.373 1.33423 440.121 16.0826 440.121 34.2754V281.334H-159.9V34.2754Z" fill="#D9D9D9"/>
<path d="M-159.9 -59.7034H440.121V286.874H-159.9V-59.7034Z" fill="#640E0E"/>
<path fill-rule="evenodd" clip-rule="evenodd" d="M340.159 46.6687C339.882 48.3321 341.006 49.9055 342.67 50.1827C364.261 53.7813 377.053 66.845 386.988 87.4305C396.294 106.714 398.007 130.939 396.202 153.585C394.42 175.947 386.845 197.077 374.555 214.127C362.27 231.174 345.892 243.291 327.688 248.942C309.497 254.59 290.275 253.537 272.59 245.908C254.853 238.258 237.25 223.793 227.675 200.226C227.041 198.663 225.259 197.91 223.697 198.546C222.134 199.18 221.383 200.962 222.017 202.524C232.291 227.813 251.214 243.339 270.172 251.517C289.18 259.715 309.901 260.858 329.5 254.774C349.086 248.693 366.526 235.716 379.51 217.698C392.493 199.685 400.424 177.472 402.289 154.07C404.131 130.953 402.473 105.468 392.488 84.7762C382.032 63.1086 367.885 48.1939 343.673 44.1587C342.01 43.8815 340.437 45.0052 340.159 46.6687Z" fill="#F7996E"/>
<path d="M46.214 289.927V178.472H226.374V289.927H46.214Z" fill="#E79595"/>
<path fill-rule="evenodd" clip-rule="evenodd" d="M-69.8627 45.9053C-69.5854 47.5688 -70.7091 49.142 -72.3727 49.4193C-93.9647 53.018 -106.757 66.0816 -116.691 86.6671C-125.997 105.95 -127.71 130.175 -125.905 152.821C-124.123 175.182 -116.548 196.313 -104.259 213.364C-91.9735 230.411 -75.5958 242.528 -57.3924 248.179C-39.2005 253.827 -19.9792 252.774 -2.29333 245.145C15.4165 237.507 37.4673 218.552 44.7984 192.159C45.2497 190.536 46.9328 189.585 48.5578 190.035C50.1826 190.486 51.134 192.169 50.6827 193.794C42.746 222.367 19.1103 242.564 0.125381 250.752C-18.8836 258.952 -39.6046 260.095 -59.2031 254.011C-78.7903 247.93 -96.2288 234.951 -109.214 216.935C-122.196 198.922 -130.128 176.709 -131.993 153.307C-133.835 130.189 -132.177 104.705 -122.191 84.0129C-111.735 62.3453 -97.5878 47.4305 -73.3767 43.3953C-71.7132 43.118 -70.1399 44.2418 -69.8627 45.9053Z" fill="#F7996E"/>
<path d="M-40.8119 69.3089C-59.2654 17.8223 -52.2627 -68.864 -52.2627 -68.864H335.538C335.538 -68.864 341.429 19.576 322.559 70.8355C304.393 120.187 286.578 143.009 247.748 178.472C211.72 211.378 175.99 244.887 142.401 245.651C108.812 246.414 69.1195 213.684 32.473 178.472C-4.31495 143.127 -23.6542 117.18 -40.8119 69.3089Z" fill="#F2ACAC"/>
<path d="M46.2142 67.7822C46.2142 85.9112 31.5176 100.608 13.3886 100.608C-4.7405 100.608 -19.437 85.9112 -19.437 67.7822C-19.437 49.653 -4.7405 34.9565 13.3886 34.9565C31.5176 34.9565 46.2142 49.653 46.2142 67.7822Z" fill="#E79595"/>
<path d="M292.024 63.2016C292.024 81.3308 277.328 96.0272 259.199 96.0272C241.069 96.0272 226.374 81.3308 226.374 63.2016C226.374 45.0725 241.069 30.376 259.199 30.376C277.328 30.376 292.024 45.0725 292.024 63.2016Z" fill="#E79595"/>
<path d="M140.873 -15.4269C139.862 -13.7424 114.732 60.8531 110.253 74.1601C109.84 75.3867 110.255 76.7134 111.274 77.5111L139.163 99.3359C142.424 101.888 146.992 101.935 150.306 99.45L179.549 77.5172C180.61 76.7206 181.048 75.3624 180.613 74.108C176.958 63.5625 160.195 15.2184 150.035 -13.9002C147.637 -20.7705 143.167 -19.2448 140.873 -15.4269Z" fill="#E79595"/>
<path d="M104.231 150.228C96.5974 154.877 88.2002 153.281 88.2002 153.281C88.2002 153.281 98.6259 168.073 105.758 174.656C115.682 183.817 120.784 191.859 134.003 194.504C140.434 195.791 144.353 195.72 150.798 194.504C167.453 191.364 172.173 180 184.387 167.786L198.891 153.281C198.891 153.281 192.02 154.808 184.387 148.701C171.857 138.677 165.791 119.317 150.798 125.036C147.167 126.421 142.401 130.38 142.401 130.38C142.401 130.38 137.677 126.307 134.003 125.036C120.403 120.332 116.522 142.742 104.231 150.228Z" fill="#E79595"/>
<path fill-rule="evenodd" clip-rule="evenodd" d="M160.321 125.619C157.638 124.528 154.647 124.384 151.07 125.749C149.349 126.406 147.313 127.694 145.677 128.851C144.867 129.424 144.167 129.954 143.671 130.341C143.424 130.535 143.226 130.692 143.091 130.801C143.024 130.855 142.973 130.897 142.939 130.925L142.901 130.957L142.891 130.965L142.888 130.966L142.391 131.38L141.901 130.958L141.9 130.956L141.89 130.948L141.852 130.915C141.818 130.887 141.767 130.844 141.701 130.788C141.568 130.677 141.373 130.516 141.127 130.319C140.635 129.923 139.94 129.383 139.134 128.804C137.504 127.634 135.48 126.354 133.754 125.757C130.581 124.66 128.03 125.143 125.749 126.581C123.418 128.051 121.346 130.536 119.249 133.502C118.418 134.677 117.573 135.945 116.708 137.242C115.441 139.142 114.132 141.105 112.767 142.929C110.44 146.039 107.824 148.934 104.628 150.88C100.673 153.289 96.5326 154.073 93.3983 154.259C91.9681 154.346 90.7406 154.307 89.8254 154.239C90.0394 154.535 90.2842 154.871 90.5567 155.245C91.6425 156.73 93.1644 158.779 94.9081 161.033C98.4055 165.553 102.761 170.851 106.276 174.095C108.468 176.119 110.414 178.072 112.251 179.914C118.845 186.529 124.029 191.73 134.153 193.756C140.479 195.021 144.298 194.953 150.656 193.754C158.8 192.219 164.012 188.686 168.72 184.007C170.965 181.773 173.091 179.285 175.377 176.61C175.499 176.466 175.624 176.32 175.747 176.176C178.168 173.343 180.771 170.322 183.847 167.246L196.879 154.214C196.184 154.217 195.346 154.173 194.393 154.037C191.601 153.638 187.843 152.445 183.91 149.298C180.713 146.739 177.943 143.599 175.37 140.454C174.59 139.502 173.832 138.552 173.084 137.617C171.347 135.442 169.674 133.348 167.954 131.482C165.502 128.822 163.039 126.723 160.321 125.619ZM198.726 152.535L201.285 151.967L184.927 168.325C181.896 171.356 179.328 174.336 176.908 177.167C176.779 177.318 176.652 177.468 176.524 177.617C174.251 180.277 172.088 182.81 169.796 185.088C164.926 189.929 159.451 193.649 150.94 195.255C144.408 196.486 140.389 196.56 133.853 195.253C123.237 193.129 117.672 187.537 111.017 180.851C109.212 179.038 107.327 177.144 105.24 175.217C101.623 171.877 97.1991 166.489 93.7006 161.968C91.9464 159.7 90.416 157.64 89.3241 156.145C88.7781 155.399 88.3415 154.793 88.0414 154.375C87.8912 154.165 87.7751 154.001 87.6964 153.891L87.6069 153.765L87.5766 153.721C87.5765 153.721 87.5759 153.721 88.1999 153.281L87.5766 153.721L86.4891 152.179L88.3418 152.531H88.3444L88.3584 152.534L88.4215 152.545C88.4789 152.555 88.5666 152.568 88.6825 152.585C88.9142 152.618 89.2578 152.66 89.6958 152.697C90.5725 152.771 91.8233 152.825 93.3073 152.736C96.2801 152.559 100.155 151.816 103.834 149.576C106.784 147.78 109.261 145.066 111.544 142.015C112.904 140.198 114.151 138.325 115.387 136.47C116.254 135.169 117.114 133.878 118.003 132.62C120.112 129.636 122.33 126.932 124.935 125.289C127.591 123.614 130.625 123.06 134.253 124.314C136.2 124.988 138.374 126.38 140.024 127.564C140.858 128.162 141.575 128.72 142.083 129.128C142.203 129.225 142.312 129.313 142.408 129.392C142.504 129.316 142.612 129.231 142.732 129.138C143.242 128.739 143.962 128.194 144.796 127.604C146.45 126.435 148.615 125.051 150.525 124.323C154.444 122.828 157.834 122.96 160.896 124.204C163.924 125.435 166.572 127.73 169.076 130.448C170.835 132.355 172.563 134.517 174.316 136.712C175.055 137.637 175.799 138.567 176.551 139.487C179.108 142.612 181.796 145.651 184.864 148.105C188.563 151.064 192.058 152.161 194.61 152.526C195.888 152.708 196.932 152.707 197.65 152.663C198.01 152.64 198.287 152.607 198.47 152.579C198.562 152.566 198.629 152.555 198.673 152.546C198.682 152.545 198.692 152.542 198.699 152.541C198.707 152.54 198.714 152.538 198.718 152.537L198.726 152.535Z" fill="#E79595"/>
<path d="M142.4 159.394C138.138 159.158 131.713 161.683 131.713 161.683C131.713 161.683 138.138 153.815 142.4 154.049C145.794 154.237 152.325 161.683 152.325 161.683C152.325 161.683 145.794 159.581 142.4 159.394Z" fill="white"/>
<path fill-rule="evenodd" clip-rule="evenodd" d="M130.531 160.717L131.713 161.683C131.713 161.683 132.934 161.203 134.665 160.682C136.904 160.006 139.996 159.261 142.401 159.393C144.321 159.5 147.246 160.219 149.424 160.824C151.095 161.287 152.325 161.683 152.325 161.683L153.472 160.677L157.115 164.829L151.857 163.137L151.841 163.132L151.788 163.115C151.743 163.1 151.673 163.078 151.582 163.051C151.401 162.994 151.139 162.912 150.812 162.814C150.157 162.617 149.251 162.353 148.241 162.084C146.18 161.534 143.838 161.001 142.316 160.918C140.452 160.815 137.986 161.325 135.872 161.92C134.839 162.211 133.933 162.508 133.286 162.735C132.963 162.847 132.706 162.941 132.531 163.007C132.444 163.038 132.377 163.064 132.333 163.081L132.284 163.1L132.274 163.104H132.272L126.838 165.24L130.531 160.717ZM150.225 159.463C151.472 160.712 152.325 161.683 152.325 161.683C153.472 160.677 153.473 160.677 153.472 160.677L153.467 160.669L153.45 160.651L153.39 160.584C153.339 160.526 153.263 160.443 153.167 160.337C152.977 160.126 152.701 159.826 152.359 159.465C151.678 158.749 150.73 157.785 149.667 156.811C148.61 155.843 147.411 154.836 146.229 154.051C145.105 153.303 143.768 152.596 142.485 152.526C140.971 152.442 139.451 153.069 138.16 153.826C136.833 154.604 135.543 155.642 134.434 156.646C133.318 157.658 132.346 158.672 131.655 159.43C131.309 159.809 131.031 160.127 130.838 160.352C130.742 160.465 130.667 160.554 130.615 160.616L130.554 160.688L130.538 160.709L130.533 160.714L130.531 160.717C130.53 160.719 130.531 160.717 131.713 161.683C131.713 161.683 132.56 160.646 133.843 159.336C136.093 157.039 139.686 153.9 142.401 154.049C144.568 154.169 148.016 157.252 150.225 159.463Z" fill="#E79595"/>
<path d="M242.662 123.566C242.957 123.147 243.227 122.704 243.552 122.309C244.014 121.752 244.501 121.219 244.999 120.696C245.403 120.271 245.872 119.927 246.41 119.683C247.05 119.39 247.669 119.46 248.286 119.762C248.628 119.929 248.944 120.122 249.125 120.471C249.347 120.896 249.452 121.358 249.48 121.834C249.527 122.609 249.411 123.363 249.239 124.117C249.001 125.142 248.673 126.137 248.267 127.106C247.5 128.947 246.539 130.678 245.313 132.254C245.279 132.297 245.257 132.345 245.216 132.405C245.668 132.491 246.096 132.572 246.527 132.656C248.529 133.042 250.515 133.503 252.401 134.298C253.163 134.619 253.899 134.997 254.541 135.53C255.15 136.037 255.514 136.662 255.522 137.473C255.528 137.981 255.299 138.379 254.99 138.756C254.695 139.119 254.304 139.345 253.903 139.562C253.314 139.878 252.695 140.111 252.032 140.181C251.399 140.244 250.76 140.29 250.126 140.258C249.383 140.222 248.647 140.11 247.912 139.999C247.437 139.929 246.97 139.795 246.499 139.691C245.949 139.566 245.397 139.447 244.85 139.316C244.53 139.238 244.217 139.139 243.87 139.045C243.894 139.1 243.905 139.138 243.929 139.17C244.15 139.488 244.387 139.795 244.589 140.126C245.102 140.955 245.51 141.832 245.754 142.779C245.976 143.644 246.092 144.522 246.027 145.412C245.953 146.458 245.618 147.402 244.873 148.171C244.327 148.735 243.668 149.103 242.891 149.222C242.217 149.328 241.639 149.059 241.124 148.647C240.592 148.22 240.208 147.668 239.863 147.092C239.545 146.557 239.233 146.013 238.938 145.464C238.731 145.076 238.57 144.668 238.374 144.271C238.182 143.89 237.968 143.516 237.771 143.138C237.626 142.856 237.486 142.568 237.325 142.248C237.288 142.321 237.258 142.368 237.236 142.421C236.64 143.919 235.777 145.25 234.713 146.456C234.126 147.122 233.492 147.751 232.731 148.209C231.997 148.651 231.249 149.093 230.364 149.206C229.495 149.315 228.739 149.077 228.089 148.5C227.683 148.14 227.328 147.73 227.168 147.203C226.968 146.55 226.773 145.88 226.965 145.194C227.144 144.555 227.348 143.923 227.572 143.298C228.275 141.344 229.275 139.551 230.546 137.909C230.69 137.721 230.839 137.539 231.027 137.306C230.671 137.355 230.368 137.4 230.067 137.439C228.852 137.597 227.634 137.708 226.408 137.662C225.506 137.628 224.629 137.507 223.821 137.07C223.425 136.857 223.066 136.601 222.782 136.239C222.548 135.946 222.511 135.592 222.434 135.251C222.272 134.528 222.61 134 223.128 133.548C223.906 132.871 224.836 132.516 225.819 132.282C227.046 131.994 228.301 131.916 229.552 131.84C229.621 131.836 229.687 131.828 229.805 131.819C229.598 131.661 229.417 131.539 229.257 131.394C228.725 130.916 228.176 130.453 227.68 129.941C227.277 129.525 226.898 129.069 226.577 128.588C226.029 127.773 225.632 126.878 225.429 125.913C225.314 125.358 225.226 124.794 225.182 124.23C225.13 123.581 225.396 123.004 225.796 122.518C226.118 122.122 226.595 122.016 227.102 122.038C228.192 122.084 229.165 122.5 230.132 122.96C231.175 123.461 232.097 124.133 232.936 124.921C233.339 125.3 233.724 125.704 234.083 126.125C234.69 126.84 235.272 127.579 235.865 128.308C235.879 128.325 235.898 128.338 235.96 128.392C235.891 128.058 235.833 127.778 235.778 127.497C235.534 126.298 235.371 125.091 235.338 123.865C235.312 122.957 235.375 122.052 235.552 121.163C235.826 119.78 236.34 118.493 237.188 117.354C237.538 116.883 237.94 116.466 238.44 116.155C239.258 115.646 240.1 115.679 240.951 116.078C241.369 116.274 241.767 116.512 242.015 116.9C242.243 117.256 242.428 117.654 242.56 118.056C242.865 118.983 242.888 119.948 242.835 120.912C242.788 121.723 242.703 122.532 242.636 123.342C242.629 123.416 242.625 123.49 242.62 123.562L242.658 123.562L242.662 123.566ZM239.42 137.842C239.642 137.652 239.862 137.458 240.087 137.272C240.722 136.749 241.09 136.069 241.171 135.257C241.229 134.677 241.244 134.086 241.208 133.504C241.172 132.892 240.975 132.325 240.531 131.863C239.922 131.236 239.217 130.784 238.351 130.614C237.807 130.508 237.254 130.41 236.743 130.678C236.153 130.988 235.581 131.334 235.022 131.699C234.577 131.991 234.341 132.438 234.234 132.961C234.098 133.626 234.226 134.266 234.402 134.9C234.822 136.41 235.689 137.539 237.199 138.097C237.976 138.383 238.733 138.417 239.42 137.842Z" fill="#E14A68"/>
<path d="M241.687 135.504C242.264 133.348 240.985 131.131 238.828 130.554C236.672 129.976 234.456 131.255 233.878 133.412C233.3 135.568 234.58 137.785 236.736 138.362C238.892 138.94 241.109 137.66 241.687 135.504Z" fill="#FDF6E9"/>
<path d="M-13.1175 226.025C-13.4962 226.246 -13.8543 226.45 -14.2088 226.66C-15.5445 227.445 -16.9639 228.005 -18.48 228.322C-20.205 228.683 -21.8086 228.326 -23.3601 227.604C-24.7645 226.951 -26.0758 226.149 -27.2641 225.167C-28.3631 224.259 -28.9825 223.052 -29.2692 221.663C-29.5172 220.458 -29.5402 219.244 -29.2761 218.042C-28.8914 216.278 -28.1112 214.712 -26.7665 213.453C-26.0767 212.808 -25.3564 212.204 -24.5744 211.665C-24.0674 211.314 -23.5505 211.006 -22.9928 210.751C-22.9567 210.734 -22.9323 210.692 -22.9033 210.666C-23.2953 210.301 -23.6869 209.949 -24.0633 209.584C-24.7951 208.875 -25.3879 208.059 -25.8641 207.156C-26.5764 205.808 -27.035 204.381 -27.1886 202.863C-27.3234 201.541 -27.2002 200.256 -26.464 199.083C-26.0612 198.443 -25.5513 197.896 -24.958 197.43C-24.4339 197.02 -23.9115 196.601 -23.3538 196.24C-22.0979 195.426 -20.7181 195.035 -19.2215 195.054C-18.4043 195.063 -17.603 195.119 -16.8172 195.363C-15.9606 195.627 -15.1855 196.044 -14.4554 196.55C-13.6356 197.121 -12.924 197.808 -12.2846 198.572C-11.9535 198.966 -11.6418 199.379 -11.3031 199.805C-11.1283 199.655 -10.9081 199.467 -10.6861 199.278C-10.599 199.204 -10.5173 199.127 -10.4267 199.058C-10.1383 198.843 -9.86248 198.605 -9.55569 198.421C-9.01697 198.099 -8.474 197.771 -7.90077 197.515C-6.89251 197.068 -5.8386 196.741 -4.72857 196.695C-3.85813 196.658 -2.9876 196.604 -2.12584 196.814C-1.01107 197.084 -0.0772324 197.627 0.654787 198.509C1.46449 199.484 2.06465 200.582 2.49519 201.766C2.82385 202.672 2.94639 203.629 2.92443 204.598C2.9123 205.126 2.87907 205.657 2.79174 206.179C2.66197 206.957 2.31292 207.671 1.93872 208.363C1.64665 208.906 1.29098 209.417 0.977283 209.952C0.93594 210.023 0.928963 210.185 0.98045 210.232C1.71843 210.92 2.18339 211.778 2.60355 212.679C3.38441 214.362 3.67355 216.156 3.75784 217.987C3.81648 219.269 3.77216 220.558 3.39232 221.799C3.11497 222.702 2.76849 223.592 2.37884 224.457C1.88919 225.54 1.22262 226.52 0.399601 227.394C-0.305326 228.142 -1.138 228.716 -1.99048 229.279C-2.78739 229.807 -3.64981 230.115 -4.59008 230.157C-5.14691 230.182 -5.71124 230.152 -6.26141 230.068C-7.21924 229.924 -8.18661 229.763 -9.04869 229.299C-9.64799 228.977 -10.215 228.59 -10.7888 228.219C-11.5844 227.705 -12.2963 227.095 -12.8424 226.311C-12.9146 226.207 -13.0212 226.126 -13.1164 226.026L-13.1175 226.025ZM-10.5259 215.566C-9.56822 214.819 -8.97002 214.302 -8.35429 213.061C-10.9987 213.547 -11.1615 213.259 -9.10266 212.672C-9.04122 211.543 -8.94444 211.616 -9.47669 210.636C-9.76662 210.102 -9.90041 210.254 -10.1728 209.71C-10.4316 209.193 -10.2828 208.805 -10.7468 208.501C-11.507 208.004 -12.4483 209.798 -13.3504 209.603C-14.3884 209.377 -13.4655 208.698 -14.232 209.472C-14.8646 210.114 -15.6277 208.276 -15.9995 209.069C-16.2591 209.623 -16.4462 210.21 -16.6705 210.781C-17.0192 211.668 -17.2057 212.563 -17.0375 213.526C-16.9344 214.108 -16.7027 214.621 -16.4408 215.132C-16.2547 215.494 -16.0945 215.891 -15.8248 216.182C-14.9535 217.117 -13.9024 217.681 -12.5539 217.608C-11.427 217.548 -10.3604 217.325 -9.25907 216.602L-10.5259 215.566Z" fill="#FDF6E9"/>
<path d="M26.0258 160.11C25.3279 160.097 24.6714 160.078 24.0153 160.068C21.5502 160.023 19.1575 159.604 16.8357 158.775C14.1936 157.832 12.3124 156.016 10.8059 153.747C9.44287 151.691 8.3284 149.513 7.53112 147.192C6.79264 145.048 6.95585 142.893 7.7205 140.768C8.38498 138.927 9.36159 137.261 10.7192 135.848C12.707 133.773 15.0682 132.294 17.939 131.703C19.4122 131.399 20.8921 131.178 22.4016 131.095C23.3815 131.041 24.3395 131.052 25.3085 131.168C25.3713 131.176 25.4392 131.139 25.5012 131.127C25.2717 130.306 25.0327 129.503 24.8246 128.695C24.4204 127.124 24.2929 125.525 24.3968 123.903C24.5497 121.48 25.1125 119.162 26.1661 116.973C27.0813 115.066 28.3157 113.424 30.2902 112.443C31.3693 111.908 32.5159 111.59 33.7076 111.451C34.761 111.328 35.8176 111.195 36.8747 111.168C39.256 111.107 41.4551 111.721 43.4712 112.991C44.5734 113.682 45.6151 114.423 46.4789 115.408C47.4222 116.478 48.1281 117.688 48.6984 118.983C49.3375 120.439 49.7328 121.962 49.9668 123.53C50.0883 124.341 50.1684 125.161 50.2744 126.02C50.6365 125.962 51.0916 125.89 51.5503 125.817C51.7297 125.789 51.9051 125.752 52.0849 125.735C52.6553 125.682 53.2277 125.588 53.7969 125.593C54.7965 125.603 55.8063 125.608 56.7966 125.738C58.5369 125.969 60.2396 126.4 61.7855 127.259C62.998 127.932 64.2237 128.584 65.2198 129.584C66.5083 130.878 67.3265 132.389 67.587 134.196C67.8757 136.193 67.7789 138.181 67.3794 140.147C67.073 141.65 66.4437 143.052 65.6089 144.349C65.1539 145.056 64.6672 145.749 64.1157 146.385C63.2919 147.335 62.2252 148.014 61.1426 148.641C60.2944 149.137 59.3869 149.535 58.5167 150C58.4011 150.063 58.2567 150.278 58.2886 150.383C58.7194 151.93 58.6371 153.482 58.4583 155.055C58.1204 157.989 57.0231 160.664 55.6159 163.219C54.6303 165.009 53.4993 166.722 51.9526 168.09C50.8253 169.087 49.6153 170.008 48.3678 170.859C46.8025 171.923 45.0838 172.698 43.2401 173.202C41.6607 173.633 40.0541 173.719 38.429 173.774C36.9081 173.83 35.481 173.531 34.1693 172.808C33.393 172.378 32.6517 171.869 31.9739 171.298C30.7942 170.306 29.6133 169.285 28.8293 167.938C28.2831 167.002 27.8353 166.006 27.3638 165.026C26.7111 163.667 26.2505 162.248 26.1608 160.729C26.1495 160.528 26.0724 160.329 26.026 160.115L26.0258 160.11ZM38.2348 148.064C40.1554 147.845 41.3973 147.641 43.2638 146.469C39.27 144.93 39.2889 144.403 42.5708 145.318C43.5927 143.836 43.6639 144.015 43.7552 142.243C43.8046 141.278 43.4976 141.371 43.5784 140.409C43.6575 139.491 44.1816 139.087 43.8039 138.29C43.1846 136.984 40.4162 138.637 39.3534 137.622C38.1321 136.453 39.9497 136.297 38.2655 136.712C36.8738 137.057 37.364 133.929 36.2001 134.697C35.3881 135.232 34.6461 135.874 33.8673 136.463C32.657 137.377 31.6606 138.437 31.0883 139.885C30.744 140.762 30.6325 141.65 30.5636 142.561C30.5157 143.208 30.4029 143.88 30.5274 144.499C30.9338 146.492 31.8922 148.131 33.7843 149.152C35.3647 150.006 36.997 150.59 39.0936 150.523L38.2348 148.064Z" fill="#FDF6E9"/>
<path d="M34.7432 150.252C38.9899 151.887 43.7582 149.77 45.3934 145.523C47.0285 141.276 44.9114 136.508 40.6646 134.873C36.4178 133.238 31.6495 135.355 30.0144 139.602C28.3792 143.849 30.4964 148.617 34.7432 150.252Z" fill="#DE6843"/>
<path d="M262.122 181.602C261.877 181.598 261.645 181.591 261.415 181.587C260.549 181.572 259.707 181.425 258.891 181.133C257.961 180.802 257.3 180.162 256.771 179.365C256.291 178.643 255.9 177.877 255.62 177.06C255.36 176.307 255.417 175.549 255.686 174.802C255.919 174.155 256.264 173.568 256.74 173.072C257.44 172.341 258.269 171.823 259.279 171.614C259.797 171.507 260.317 171.43 260.848 171.401C261.192 171.382 261.529 171.385 261.87 171.426C261.892 171.429 261.916 171.416 261.938 171.412C261.857 171.123 261.773 170.841 261.7 170.557C261.558 170.004 261.512 169.443 261.549 168.872C261.603 168.021 261.8 167.205 262.171 166.435C262.494 165.764 262.927 165.188 263.622 164.843C264.001 164.655 264.404 164.543 264.823 164.493C265.193 164.451 265.565 164.404 265.936 164.394C266.773 164.372 267.547 164.589 268.256 165.035C268.644 165.278 269.009 165.539 269.314 165.885C269.645 166.261 269.893 166.686 270.093 167.142C270.319 167.654 270.457 168.189 270.539 168.741C270.582 169.025 270.611 169.314 270.648 169.617C270.776 169.596 270.935 169.57 271.097 169.544C271.16 169.535 271.222 169.522 271.285 169.515C271.485 169.497 271.686 169.465 271.886 169.466C272.237 169.47 272.593 169.471 272.941 169.517C273.554 169.598 274.152 169.75 274.696 170.052C275.121 170.288 275.552 170.517 275.902 170.87C276.356 171.324 276.643 171.856 276.735 172.491C276.837 173.194 276.802 173.892 276.662 174.583C276.554 175.111 276.333 175.605 276.039 176.061C275.88 176.309 275.709 176.554 275.515 176.776C275.225 177.111 274.849 177.348 274.469 177.569C274.171 177.744 273.851 177.884 273.545 178.047C273.506 178.07 273.455 178.146 273.466 178.182C273.617 178.726 273.588 179.271 273.525 179.825C273.407 180.857 273.021 181.797 272.526 182.696C272.18 183.325 271.782 183.927 271.238 184.409C270.841 184.759 270.416 185.083 269.978 185.381C269.428 185.755 268.822 186.028 268.175 186.206C267.619 186.356 267.055 186.387 266.484 186.407C265.948 186.426 265.446 186.321 264.985 186.067C264.713 185.916 264.452 185.736 264.213 185.536C263.799 185.187 263.383 184.827 263.107 184.354C262.916 184.026 262.759 183.675 262.592 183.33C262.363 182.852 262.201 182.354 262.17 181.82C262.166 181.749 262.138 181.677 262.122 181.602ZM266.415 177.366C267.09 177.289 267.527 177.218 268.183 176.806C266.779 176.266 266.786 176.08 267.94 176.401C268.298 175.88 268.324 175.943 268.356 175.32C268.374 174.981 268.265 175.014 268.294 174.675C268.321 174.352 268.505 174.211 268.372 173.931C268.155 173.471 267.182 174.053 266.808 173.696C266.379 173.284 267.018 173.229 266.426 173.375C265.936 173.497 266.109 172.396 265.7 172.667C265.414 172.855 265.154 173.081 264.879 173.288C264.454 173.61 264.104 173.982 263.902 174.491C263.781 174.8 263.741 175.111 263.718 175.432C263.701 175.659 263.662 175.896 263.704 176.113C263.848 176.815 264.185 177.391 264.85 177.749C265.406 178.05 265.98 178.256 266.717 178.231L266.415 177.366Z" fill="#DE6843"/>
<path d="M265.187 178.136C266.68 178.711 268.357 177.966 268.932 176.473C269.507 174.98 268.762 173.304 267.269 172.729C265.776 172.154 264.1 172.898 263.525 174.391C262.95 175.885 263.694 177.561 265.187 178.136Z" fill="#FDF6E9"/>
<path d="M71.6419 110.436C71.4935 110.241 71.3554 110.055 71.2147 109.873C70.6892 109.183 70.2822 108.432 70.004 107.611C69.6874 106.677 69.7774 105.762 70.074 104.852C70.343 104.027 70.7002 103.245 71.1657 102.518C71.5958 101.847 72.2255 101.421 72.9778 101.169C73.6306 100.95 74.303 100.855 74.9888 100.921C75.9946 101.016 76.9177 101.344 77.7072 102.006C78.1123 102.346 78.4965 102.706 78.8487 103.104C79.0777 103.362 79.2837 103.628 79.4631 103.921C79.4746 103.94 79.4996 103.951 79.5166 103.965C79.6927 103.723 79.8619 103.481 80.0391 103.248C80.384 102.793 80.797 102.409 81.2667 102.084C81.9678 101.597 82.7296 101.246 83.5631 101.059C84.2885 100.895 85.0104 100.877 85.7117 101.207C86.0949 101.388 86.4329 101.634 86.7311 101.932C86.9951 102.196 87.2623 102.458 87.5006 102.744C88.0371 103.387 88.3478 104.127 88.438 104.96C88.4881 105.414 88.5112 105.863 88.4283 106.316C88.3391 106.81 88.1595 107.269 87.9273 107.708C87.6654 108.202 87.3318 108.644 86.9507 109.051C86.7536 109.261 86.5453 109.462 86.3314 109.679C86.4266 109.766 86.5458 109.876 86.6659 109.986C86.7127 110.03 86.7613 110.07 86.8054 110.116C86.9444 110.261 87.0953 110.399 87.218 110.557C87.4336 110.834 87.6525 111.114 87.8329 111.415C88.149 111.945 88.4018 112.509 88.5024 113.122C88.5816 113.603 88.6694 114.084 88.6112 114.576C88.5357 115.214 88.2979 115.769 87.8568 116.235C87.3692 116.751 86.8 117.158 86.171 117.477C85.6899 117.721 85.166 117.853 84.6263 117.907C84.3323 117.935 84.0348 117.953 83.7394 117.939C83.2976 117.92 82.8777 117.774 82.4684 117.612C82.1467 117.487 81.8387 117.323 81.5205 117.185C81.478 117.167 81.3872 117.174 81.3653 117.206C81.0331 117.662 80.5872 117.978 80.1145 118.272C79.2322 118.819 78.2555 119.101 77.2437 119.271C76.5353 119.39 75.8162 119.452 75.1012 119.324C74.5806 119.231 74.0626 119.099 73.556 118.94C72.921 118.741 72.332 118.437 71.7909 118.038C71.3273 117.697 70.953 117.273 70.5828 116.837C70.2357 116.43 70.0063 115.972 69.9196 115.452C69.8684 115.144 69.8471 114.829 69.8563 114.518C69.8725 113.976 69.8961 113.427 70.0964 112.917C70.235 112.563 70.4122 112.221 70.5791 111.878C70.8115 111.401 71.1019 110.964 71.5008 110.608C71.554 110.561 71.593 110.496 71.6419 110.436ZM77.6274 111.172C78.1067 111.654 78.4343 111.951 79.1649 112.21C78.7171 110.773 78.8666 110.663 79.3306 111.768C79.9623 111.726 79.9285 111.785 80.4369 111.423C80.7137 111.226 80.6208 111.162 80.9038 110.974C81.1742 110.795 81.3997 110.852 81.5371 110.574C81.7619 110.118 80.7019 109.716 80.7497 109.201C80.8056 108.609 81.245 109.076 80.7631 108.702C80.3643 108.394 81.3336 107.847 80.8677 107.693C80.543 107.586 80.2041 107.522 79.8718 107.436C79.3557 107.302 78.8461 107.258 78.3221 107.417C78.0051 107.513 77.7359 107.677 77.4697 107.856C77.2811 107.984 77.0711 108.1 76.9277 108.269C76.4671 108.816 76.2244 109.438 76.3562 110.183C76.4656 110.805 76.6607 111.382 77.1369 111.945L77.6274 111.172Z" fill="#DE6843"/>
<path d="M76.262 110.687C76.7383 112.214 78.3626 113.067 79.8901 112.59C81.4176 112.114 82.2698 110.49 81.7936 108.962C81.3173 107.435 79.693 106.583 78.1655 107.059C76.638 107.535 75.7858 109.159 76.262 110.687Z" fill="#FDF6E9"/>
<path d="M-293.626 30.8061C-293.626 9.98108 -276.744 -6.90088 -255.918 -6.90088H286.118C306.944 -6.90088 323.826 9.9811 323.826 30.8061V281.233H-293.626V30.8061Z" fill="#386159"/>
<path d="M222.344 297.63H32.038C32.038 297.63 5.43612 255.525 -3.42813 225.589C-17.1868 179.126 -3.42813 101.471 -3.42813 101.471H226.669L249.159 183.927L222.344 297.63Z" fill="#C64D27"/>
<path d="M189.284 181.507C207.372 185.247 225.225 172.856 229.16 153.831C233.094 134.805 221.62 116.349 203.532 112.609C185.444 108.868 167.591 121.259 163.656 140.285C159.722 159.31 171.196 177.766 189.284 181.507Z" fill="#EEA697"/>
<path d="M7.34036 181.507C25.4286 185.247 43.2815 172.856 47.2159 153.831C51.1503 134.805 39.6763 116.349 21.5881 112.609C3.49984 108.868 -14.353 121.259 -18.2874 140.285C-22.2218 159.31 -10.7479 177.766 7.34036 181.507Z" fill="#EEA697"/>
<path d="M74.3219 245.957C74.3219 245.957 77.7791 285.706 76.0505 296.939C71.3286 327.623 159.922 302.123 158.161 297.802C148.653 274.473 153.838 240.772 153.838 240.772L114.945 255.461L74.3219 245.957Z" fill="#EEA697"/>
<path d="M18.6842 190.024C5.65594 159.007 8.55848 112.152 9.18102 104.315C9.80354 96.4777 9.89769 81.222 14.9569 67.6543C28.8399 30.4226 57.3067 9.95296 96.7069 7.83135C137.506 5.63442 168.877 25.1423 186.25 62.4367C192.392 75.6222 192.933 84.2515 195.107 98.6514C200.141 131.977 197.064 162.873 189.978 184.807C182.891 206.74 151.436 277.192 118.701 277.321C85.9644 277.448 38.8289 237.985 18.6842 190.024Z" fill="#F2B5AC"/>
<path d="M27.3701 129.319C27.3701 129.319 22.0284 118.805 21.2974 117.936C20.5664 117.067 30.5989 113.118 36.1423 112.105C41.1657 111.187 44.1894 111.547 49.2279 112.394C58.8463 114.01 64.3463 116.831 71.6838 123.126C76.9662 127.658 81.9922 136.149 81.9922 136.149L81.5547 137.502L80.2058 138.003C80.2058 138.003 73.4028 128.931 68.1379 125.607C59.7106 120.286 52.7432 118.763 42.9331 120.786C36.0689 122.201 27.3701 129.319 27.3701 129.319Z" fill="black"/>
<path d="M55.4552 120.747C36.8528 117.837 28.1149 129.309 28.1149 129.309C28.1149 129.309 36.2097 146.985 54.0193 147.377C71.8288 147.771 80.5483 137.131 80.5483 137.131C80.5483 137.131 72.2324 123.371 55.4552 120.747Z" fill="#FDF6E9" stroke="black" stroke-width="1.03562"/>
<g opacity="0.8">
<path d="M73.6118 129.327C73.4386 137.176 65.9814 143.376 56.9557 143.177C47.9299 142.978 40.7536 136.455 40.9267 128.606C41.0999 120.758 47.4107 116.367 56.4365 116.566C65.4622 116.765 73.651 127.551 73.6118 129.327Z" fill="#613F38"/>
</g>
<path d="M177.869 120.41C177.869 120.41 182.04 109.38 182.673 108.437C183.304 107.493 172.903 104.655 167.283 104.248C162.19 103.879 159.223 104.565 154.306 105.953C144.92 108.601 139.757 112.002 133.145 119.054C128.384 124.131 124.308 133.118 124.308 133.118L124.889 134.415L126.284 134.767C126.284 134.767 132.065 125.011 136.938 121.136C144.74 114.934 151.501 112.665 161.473 113.613C168.449 114.276 177.869 120.41 177.869 120.41Z" fill="black"/>
<path d="M149.021 114.931C167.199 110.023 177.128 120.481 177.128 120.481C177.128 120.481 170.995 138.931 153.333 141.25C135.671 143.57 125.85 133.938 125.85 133.938C125.85 133.938 132.626 119.358 149.021 114.931Z" fill="#FDF6E9" stroke="black" stroke-width="1.03562"/>
<g opacity="0.8">
<path d="M131.9 125.428C132.922 133.211 141.006 138.568 149.958 137.392C158.909 136.217 165.336 128.954 164.315 121.17C163.293 113.387 156.542 109.706 147.592 110.881C138.64 112.057 131.668 123.666 131.9 125.428Z" fill="#613F38"/>
</g>
<path d="M58.1797 193.026C60.1372 192.885 61.6035 191.1 61.4549 189.039C61.3062 186.979 59.5988 185.423 57.6413 185.564C55.6838 185.705 54.2174 187.49 54.3661 189.551C54.5148 191.611 56.2221 193.167 58.1797 193.026Z" fill="#DE6843" fill-opacity="0.2"/>
<path d="M161.252 180.29C163.192 179.993 164.511 178.097 164.199 176.055C163.887 174.013 162.061 172.598 160.121 172.894C158.181 173.191 156.861 175.087 157.173 177.129C157.486 179.171 159.311 180.586 161.252 180.29Z" fill="#DE6843" fill-opacity="0.2"/>
<path d="M77.6855 181.07C79.643 180.928 81.1094 179.144 80.9607 177.083C80.8121 175.023 79.1047 173.467 77.1472 173.608C75.1897 173.749 73.7233 175.534 73.872 177.594C74.0206 179.655 75.728 181.211 77.6855 181.07Z" fill="#DE6843" fill-opacity="0.2"/>
<path d="M179.744 166.817C181.684 166.52 183.003 164.624 182.691 162.582C182.379 160.54 180.553 159.125 178.613 159.421C176.673 159.718 175.353 161.614 175.666 163.656C175.978 165.698 177.804 167.113 179.744 166.817Z" fill="#DE6843" fill-opacity="0.2"/>
<path d="M36.6129 186.586C38.5704 186.445 40.0368 184.66 39.8881 182.599C39.7394 180.539 38.032 178.983 36.0745 179.124C34.117 179.265 32.6507 181.05 32.7993 183.111C32.948 185.171 34.6554 186.727 36.6129 186.586Z" fill="#DE6843" fill-opacity="0.2"/>
<path d="M139.24 175.587C141.18 175.291 142.5 173.395 142.187 171.353C141.875 169.311 140.049 167.896 138.109 168.192C136.169 168.489 134.85 170.385 135.162 172.427C135.474 174.469 137.3 175.884 139.24 175.587Z" fill="#DE6843" fill-opacity="0.2"/>
<path d="M126.316 185.755C124.296 178.073 109.169 148.009 104.193 138.221C103.615 137.084 101.969 137.24 101.602 138.463C98.2766 149.534 87.9132 184.69 88.4445 191.093C89.077 198.713 110.447 206.891 110.447 206.891C110.447 206.891 128.738 194.969 126.316 185.755Z" fill="#EEA697"/>
<path d="M92.1617 229.762C88.3848 232.703 83.8196 232.368 83.8196 232.368C83.8196 232.368 90.2719 239.599 94.4695 242.665C100.31 246.931 103.517 250.898 110.712 251.496C114.212 251.787 116.292 251.509 119.647 250.468C128.316 247.777 130.131 241.442 135.882 234.197L142.71 225.592C142.71 225.592 139.148 226.825 134.713 224.042C127.434 219.477 123.021 209.548 115.394 213.508C113.547 214.468 111.254 216.865 111.254 216.865C111.254 216.865 108.491 214.988 106.459 214.536C98.9357 212.867 98.2423 225.028 92.1617 229.762Z" fill="#E14A68"/>
<path d="M113.179 235.188C115.332 234.916 123.129 230.212 123.129 230.212C123.129 230.212 116.913 226.797 112.644 227.322C107.181 227.991 103.229 233.055 103.229 233.055C103.229 233.055 111.775 235.365 113.179 235.188Z" fill="#FDF6E9"/>
<path fill-rule="evenodd" clip-rule="evenodd" d="M-70.5617 306.224C-70.5617 306.224 -72.6977 272.863 -72.9445 250.483C-73.1289 233.756 -66.7191 222.68 -59.8425 210.797C-55.0873 202.581 -50.109 193.978 -46.9334 182.855C-41.2869 163.075 -41.541 145.415 -41.785 128.457C-42.0881 107.396 -42.3756 87.4182 -31.3269 65.8051C-28.0537 59.4026 -25.1271 53.2423 -22.3571 47.4118C-8.2468 17.7118 1.79695 -3.42875 32.8336 -4.42462C42.0709 -4.72099 56.2435 -0.95647 56.2435 -0.95647C56.2435 -0.95647 72.2482 -15.7454 84.8557 -20.8983C101.541 -27.7178 113.503 -30.2751 130.809 -25.2335C144.791 -21.1603 151.736 -13.79 160.766 -4.20831C162.528 -2.33883 164.369 -0.385166 166.358 1.64463C178.915 14.4655 184.369 26.5624 190.325 39.7683C193.986 47.8862 197.834 56.4233 203.639 65.8051C210.692 77.2044 217.252 86.0683 223.553 94.5846C232.527 106.712 240.978 118.134 249.592 135.168C262.988 161.656 270.673 177.153 276.47 206.265C276.791 207.875 277.106 209.434 277.41 210.95C280.96 228.549 283.318 240.239 280.805 259.154C278.31 277.941 265.199 305.107 265.199 305.107H149.879L-70.5617 306.224ZM-6.18744 150.774C-4.10225 132.768 -0.118202 126.498 18.9566 111.758C26.6444 105.818 35.6045 99.5974 44.0715 93.7192C56.6128 85.0128 68.072 77.0574 72.7126 71.8748C80.4862 63.1932 85.8268 49.1145 82.6184 36.281C79.4101 23.4477 72.7126 18.1186 72.7126 18.1186C72.7126 18.1186 83.1175 13.7382 95.2559 13.7382C107.394 13.7382 114.467 15.0005 119.533 18.9404C127.336 25.0097 129.07 36.281 129.07 36.281C129.07 36.281 131.896 56.1695 142.942 67.5396C148.955 73.7275 156.175 74.4769 163.467 75.2338C170.478 75.9616 177.558 76.6963 183.693 82.2791C187.957 86.1597 191.649 100.789 192.365 106.511C194.098 120.383 194.098 129.054 194.098 129.054C194.098 129.054 226.895 97.3077 223.342 154.876C222.595 166.953 213.061 186.441 204.502 194.994C154.213 245.236 167.221 305.061 167.221 305.061H70.9795C70.9795 305.061 68.3395 267.779 8.55318 201.018C-2.02731 189.203 -8.01184 166.53 -6.18744 150.774Z" fill="#DE6843"/>
<path d="M120.997 110.101C117.443 110.101 116.733 105.126 120.286 100.861C123.84 96.5971 150.848 78.829 168.615 89.4899C173.709 92.5459 180.698 97.3078 180.698 97.3078C180.698 97.3078 173.344 95.5325 168.615 94.465C146.583 89.4899 124.551 110.101 120.997 110.101Z" fill="#613F38"/>
<path d="M180.698 97.3077L180.53 97.9985C180.864 98.0791 181.208 97.9097 181.347 97.5958C181.486 97.2821 181.381 96.9137 181.097 96.7204L180.698 97.3077ZM119.74 100.406C117.871 102.649 117.068 105.143 117.269 107.151C117.37 108.158 117.729 109.075 118.374 109.748C119.029 110.432 119.93 110.811 120.997 110.811V109.39C120.287 109.39 119.767 109.147 119.4 108.765C119.023 108.372 118.761 107.779 118.684 107.009C118.529 105.464 119.148 103.337 120.832 101.316L119.74 100.406ZM120.997 110.811C121.363 110.811 121.764 110.686 122.147 110.527C122.547 110.362 123.004 110.127 123.508 109.844C124.514 109.279 125.771 108.481 127.22 107.557C130.132 105.701 133.883 103.297 138.205 101.048C146.867 96.5396 157.693 92.7273 168.459 95.158L168.772 93.7716C157.505 91.2275 146.299 95.233 137.548 99.7867C133.164 102.069 129.363 104.506 126.456 106.359C124.996 107.289 123.776 108.063 122.811 108.605C122.329 108.876 121.928 109.08 121.603 109.214C121.263 109.355 121.075 109.39 120.997 109.39V110.811ZM168.459 95.158C170.818 95.691 173.836 96.401 176.265 96.9782C177.479 97.2666 178.546 97.5217 179.309 97.7048C179.69 97.7962 179.995 97.8698 180.205 97.9203C180.311 97.9457 180.392 97.9652 180.447 97.9785C180.474 97.9851 180.495 97.9902 180.51 97.9935C180.517 97.9952 180.522 97.9965 180.525 97.9973C180.528 97.9977 180.528 97.9981 180.529 97.9983C180.529 97.9984 180.53 97.9985 180.53 97.9985C180.53 97.9985 180.53 97.9985 180.698 97.3077C180.864 96.6168 180.864 96.6168 180.864 96.6168C180.864 96.6166 180.863 96.6166 180.863 96.6165C180.861 96.6162 180.86 96.616 180.858 96.6156C180.856 96.6147 180.85 96.6134 180.843 96.6117C180.828 96.6083 180.808 96.6032 180.78 96.5966C180.725 96.5833 180.643 96.5637 180.539 96.5384C180.327 96.4878 180.023 96.4142 179.64 96.3225C178.876 96.1394 177.809 95.884 176.594 95.5952C174.163 95.0178 171.139 94.3064 168.772 93.7716L168.459 95.158ZM180.698 97.3077C181.097 96.7204 181.097 96.7205 181.097 96.7204C181.097 96.7203 181.096 96.7197 181.096 96.7195C181.096 96.7189 181.095 96.7179 181.092 96.7169C181.089 96.7145 181.084 96.7109 181.077 96.7064C181.063 96.6972 181.044 96.6835 181.016 96.6657C180.964 96.6298 180.886 96.577 180.786 96.5088C180.584 96.3721 180.29 96.1737 179.922 95.9261C179.187 95.431 178.152 94.7391 176.958 93.9516C174.571 92.3775 171.54 90.4163 168.98 88.8804L168.249 90.0992C170.783 91.6193 173.793 93.5671 176.175 95.138C177.365 95.9228 178.396 96.6124 179.129 97.1057C179.496 97.3523 179.788 97.5498 179.988 97.6856C180.088 97.7535 180.165 97.806 180.217 97.8414C180.244 97.8591 180.264 97.8725 180.278 97.8816C180.283 97.8861 180.289 97.8894 180.292 97.8917C180.294 97.8928 180.296 97.8937 180.296 97.8942C180.296 97.8945 180.297 97.8948 180.297 97.8949C180.297 97.8949 180.297 97.895 180.698 97.3077ZM168.98 88.8804C159.806 83.3755 148.339 85.2508 138.864 88.9158C134.106 90.7561 129.8 93.0663 126.457 95.1862C123.139 97.291 120.704 99.2499 119.74 100.406L120.832 101.316C121.645 100.341 123.919 98.4795 127.219 96.3866C130.495 94.3088 134.717 92.0436 139.376 90.2416C148.735 86.6216 159.657 84.9433 168.249 90.0992L168.98 88.8804Z" fill="#613F38"/>
<path d="M84.0393 117.01C87.5929 117.01 88.3035 112.035 84.75 107.771C81.1966 103.507 54.1891 85.7387 36.4211 96.3995C31.3276 99.4555 24.3389 104.217 24.3389 104.217C24.3389 104.217 31.6928 102.442 36.4211 101.374C58.4534 96.3995 80.4857 117.01 84.0393 117.01Z" fill="#613F38"/>
<path d="M24.3389 104.217L24.5057 104.908C24.172 104.989 23.8283 104.819 23.6892 104.506C23.55 104.192 23.655 103.823 23.9387 103.63L24.3389 104.217ZM85.296 107.316C87.1653 109.559 87.9678 112.052 87.767 114.061C87.6663 115.068 87.3075 115.985 86.6624 116.658C86.0073 117.342 85.1061 117.721 84.0393 117.721V116.3C84.7495 116.3 85.2697 116.057 85.6361 115.675C86.0126 115.282 86.2757 114.688 86.3526 113.919C86.5072 112.374 85.8883 110.247 84.204 108.226L85.296 107.316ZM84.0393 117.721C83.6728 117.721 83.2725 117.595 82.8894 117.437C82.4896 117.271 82.032 117.037 81.5285 116.754C80.5222 116.189 79.2657 115.391 77.8162 114.467C74.904 112.611 71.1533 110.206 66.8317 107.957C58.1694 103.449 47.343 99.637 36.5777 102.068L36.2646 100.681C47.5316 98.137 58.7376 102.143 67.4879 106.696C71.8726 108.978 75.6732 111.415 78.5801 113.268C80.0401 114.199 81.2602 114.973 82.2248 115.515C82.707 115.786 83.1086 115.989 83.4328 116.123C83.7736 116.264 83.9616 116.3 84.0393 116.3V117.721ZM36.5777 102.068C34.2177 102.601 31.2003 103.311 28.7712 103.888C27.557 104.176 26.4905 104.431 25.7277 104.614C25.3461 104.706 25.0406 104.779 24.8304 104.83C24.7254 104.855 24.6442 104.875 24.5891 104.888C24.5617 104.895 24.5408 104.9 24.5268 104.903C24.5198 104.905 24.5145 104.906 24.5109 104.907C24.5093 104.907 24.5066 104.908 24.5057 104.908C24.5057 104.908 24.5057 104.908 24.3389 104.217C24.1722 103.526 24.1722 103.526 24.1722 103.526C24.172 103.526 24.1723 103.526 24.1722 103.526C24.1724 103.526 24.173 103.526 24.1735 103.526C24.1744 103.526 24.1757 103.526 24.1775 103.525C24.1811 103.524 24.1864 103.523 24.1934 103.521C24.2076 103.518 24.2286 103.513 24.256 103.506C24.3112 103.493 24.3926 103.473 24.4977 103.448C24.7083 103.397 25.0142 103.324 25.3961 103.232C26.1597 103.049 27.2273 102.794 28.4426 102.505C30.8727 101.927 33.8964 101.216 36.2646 100.681L36.5777 102.068ZM24.3389 104.217C23.9387 103.63 23.9385 103.63 23.9387 103.63C23.9388 103.63 23.9396 103.629 23.9401 103.629C23.9409 103.628 23.9423 103.628 23.944 103.626C23.9475 103.624 23.9526 103.621 23.9593 103.616C23.9727 103.607 23.9929 103.593 24.0193 103.575C24.072 103.54 24.1498 103.487 24.2505 103.418C24.4522 103.282 24.7457 103.083 25.1139 102.836C25.85 102.341 26.8846 101.649 28.0787 100.861C30.4647 99.2872 33.4955 97.326 36.0554 95.79L36.7868 97.0089C34.2534 98.5289 31.243 100.477 28.8613 102.048C27.6715 102.833 26.6406 103.522 25.9071 104.015C25.5405 104.262 25.2482 104.46 25.0477 104.595C24.9475 104.663 24.8702 104.716 24.8181 104.751C24.792 104.769 24.7721 104.782 24.7589 104.791C24.7523 104.796 24.7473 104.799 24.744 104.801C24.7423 104.803 24.7411 104.803 24.7403 104.804C24.7398 104.804 24.7405 104.804 24.7403 104.804C24.7403 104.804 24.739 104.805 24.3389 104.217ZM36.0554 95.79C45.2301 90.2852 56.6973 92.1605 66.1724 95.8255C70.9305 97.6658 75.2363 99.9758 78.5789 102.096C81.8975 104.201 84.3325 106.16 85.296 107.316L84.204 108.226C83.3911 107.25 81.1174 105.389 77.8176 103.296C74.5416 101.219 70.3186 98.9533 65.6596 97.1511C56.3008 93.5312 45.3801 91.853 36.7868 97.0089L36.0554 95.79Z" fill="#613F38"/>
<path d="M38.7862 221.665C38.6624 221.857 38.5443 222.037 38.4292 222.218C37.9931 222.898 37.4657 223.492 36.8358 223.997C36.1192 224.571 35.29 224.784 34.399 224.814C33.5921 224.841 32.7938 224.778 32.0101 224.601C31.2856 224.439 30.713 224.023 30.2525 223.445C29.8532 222.943 29.5568 222.386 29.396 221.764C29.1591 220.854 29.1524 219.943 29.4809 219.041C29.6493 218.578 29.8416 218.128 30.0779 217.693C30.2308 217.41 30.3984 217.145 30.5974 216.896C30.6103 216.879 30.6118 216.855 30.6188 216.834C30.3508 216.757 30.0859 216.686 29.8251 216.606C29.3178 216.448 28.8502 216.209 28.416 215.902C27.7672 215.444 27.2179 214.888 26.7886 214.218C26.4144 213.636 26.1689 213.01 26.2346 212.291C26.2707 211.898 26.3789 211.525 26.545 211.168C26.6917 210.854 26.836 210.537 27.01 210.237C27.4019 209.564 27.9507 209.056 28.6507 208.713C29.0326 208.523 29.418 208.361 29.8407 208.288C30.3011 208.21 30.7597 208.221 31.2182 208.284C31.7338 208.356 32.2262 208.508 32.7033 208.711C32.9502 208.817 33.1924 208.936 33.4501 209.054C33.496 208.943 33.554 208.803 33.6125 208.663C33.6357 208.608 33.6553 208.553 33.6814 208.5C33.7646 208.332 33.8368 208.157 33.936 207.999C34.1103 207.722 34.2852 207.442 34.4915 207.188C34.8547 206.743 35.2674 206.342 35.7722 206.058C36.1679 205.836 36.5602 205.606 37.01 205.501C37.5918 205.364 38.1533 205.395 38.7015 205.633C39.3078 205.896 39.8452 206.264 40.3244 206.713C40.6906 207.056 40.9732 207.473 41.1913 207.927C41.3102 208.176 41.42 208.431 41.5022 208.693C41.6254 209.086 41.6315 209.5 41.6205 209.909C41.613 210.231 41.5681 210.553 41.5483 210.874C41.546 210.918 41.581 210.995 41.6157 211.005C42.1207 211.15 42.5392 211.44 42.9469 211.76C43.7064 212.357 44.2633 213.123 44.734 213.953C45.0635 214.535 45.3466 215.144 45.4625 215.811C45.5465 216.296 45.5954 216.791 45.618 217.286C45.6459 217.905 45.567 218.517 45.3905 219.116C45.2395 219.631 44.9875 220.094 44.724 220.555C44.4781 220.989 44.1501 221.336 43.7231 221.576C43.4701 221.719 43.2007 221.838 42.9255 221.929C42.4461 222.088 41.959 222.242 41.4488 222.228C41.0944 222.22 40.7395 222.173 40.3856 222.136C39.8947 222.085 39.4203 221.97 38.9818 221.734C38.9236 221.702 38.8548 221.69 38.7871 221.667L38.7862 221.665ZM37.5256 216.194C37.7947 215.622 37.9507 215.24 37.9445 214.518C36.8302 215.368 36.6865 215.272 37.5052 214.514C37.2676 213.975 37.3296 213.986 36.8514 213.656C36.5909 213.477 36.5644 213.578 36.31 213.39C36.0676 213.21 36.0453 212.996 35.7582 212.963C35.2878 212.913 35.2732 213.968 34.808 214.09C34.2723 214.229 34.541 213.696 34.3674 214.237C34.2245 214.683 33.437 214.009 33.4511 214.466C33.4608 214.785 33.5123 215.102 33.5426 215.419C33.5896 215.913 33.7138 216.373 34.0191 216.782C34.2043 217.027 34.4327 217.211 34.6749 217.387C34.8467 217.512 35.0148 217.659 35.2086 217.73C35.8338 217.959 36.4552 217.973 37.0645 217.622C37.574 217.328 38.0173 216.974 38.3586 216.377L37.5256 216.194Z" fill="#FDF6E9"/>
<path d="M37.5351 217.542C38.7201 216.64 38.9489 214.947 38.0462 213.762C37.1436 212.577 35.4512 212.349 34.2662 213.251C33.0812 214.154 32.8524 215.846 33.7551 217.031C34.6577 218.216 36.3501 218.445 37.5351 217.542Z" fill="#E14A68"/>
<path d="M172.117 245.018C171.922 245.137 171.738 245.248 171.555 245.361C170.868 245.784 170.133 246.091 169.348 246.272C168.453 246.478 167.613 246.311 166.798 245.951C166.06 245.624 165.368 245.221 164.738 244.723C164.156 244.261 163.82 243.638 163.656 242.918C163.514 242.293 163.489 241.662 163.614 241.032C163.795 240.109 164.185 239.285 164.872 238.615C165.225 238.272 165.593 237.949 165.995 237.659C166.256 237.471 166.521 237.305 166.809 237.167C166.828 237.157 166.841 237.135 166.854 237.121C166.647 236.935 166.438 236.756 166.239 236.57C165.85 236.209 165.533 235.79 165.275 235.325C164.889 234.63 164.635 233.892 164.539 233.103C164.455 232.415 164.505 231.745 164.876 231.126C165.08 230.787 165.339 230.497 165.644 230.249C165.911 230.028 166.179 229.806 166.466 229.611C167.112 229.174 167.826 228.955 168.606 228.949C169.033 228.945 169.45 228.966 169.862 229.084C170.31 229.213 170.719 229.421 171.105 229.678C171.539 229.966 171.916 230.316 172.258 230.707C172.434 230.909 172.601 231.122 172.782 231.34C172.872 231.259 172.984 231.159 173.098 231.059C173.142 231.019 173.185 230.978 173.231 230.941C173.378 230.825 173.519 230.699 173.677 230.6C173.955 230.426 174.235 230.249 174.53 230.11C175.05 229.866 175.596 229.685 176.174 229.649C176.627 229.62 177.08 229.583 177.531 229.684C178.115 229.813 178.606 230.084 178.997 230.537C179.43 231.037 179.754 231.601 179.991 232.213C180.172 232.683 180.246 233.179 180.245 233.685C180.244 233.959 180.233 234.236 180.193 234.509C180.134 234.917 179.959 235.292 179.771 235.657C179.625 235.942 179.445 236.213 179.288 236.494C179.266 236.533 179.265 236.616 179.292 236.64C179.684 236.991 179.936 237.433 180.164 237.898C180.588 238.766 180.758 239.698 180.821 240.65C180.867 241.317 180.857 241.99 180.672 242.64C180.537 243.114 180.367 243.581 180.172 244.036C179.929 244.606 179.593 245.123 179.173 245.587C178.813 245.985 178.386 246.291 177.947 246.595C177.538 246.877 177.092 247.048 176.604 247.079C176.314 247.098 176.019 247.089 175.732 247.052C175.231 246.986 174.726 246.913 174.272 246.68C173.956 246.519 173.657 246.323 173.353 246.136C172.933 245.877 172.556 245.567 172.264 245.165C172.224 245.111 172.167 245.07 172.117 245.019V245.018ZM173.355 239.541C173.846 239.142 174.152 238.866 174.46 238.214C173.087 238.495 172.999 238.346 174.066 238.019C174.085 237.43 174.137 237.467 173.849 236.962C173.692 236.688 173.624 236.767 173.477 236.489C173.336 236.221 173.41 236.018 173.164 235.864C172.763 235.613 172.292 236.557 171.82 236.465C171.277 236.36 171.75 235.996 171.359 236.406C171.036 236.748 170.619 235.8 170.434 236.215C170.305 236.506 170.214 236.815 170.103 237.115C169.93 237.58 169.844 238.048 169.941 238.549C170.002 238.851 170.128 239.116 170.269 239.379C170.369 239.566 170.457 239.77 170.601 239.92C171.065 240.398 171.618 240.68 172.32 240.627C172.907 240.583 173.46 240.457 174.026 240.068L173.355 239.541Z" fill="#FDF6E9"/>
<path d="M172.779 240.76C174.238 240.461 175.179 239.036 174.88 237.576C174.581 236.117 173.155 235.177 171.696 235.476C170.237 235.775 169.296 237.2 169.595 238.659C169.894 240.119 171.32 241.059 172.779 240.76Z" fill="#E14A68"/>
<path d="M235.308 194.401C234.982 193.679 234.608 192.969 234.337 192.225C233.958 191.177 233.63 190.113 233.324 189.042C233.074 188.175 232.982 187.291 233.073 186.398C233.179 185.334 233.746 184.594 234.616 184.046C235.098 183.743 235.594 183.495 236.191 183.545C236.922 183.609 237.608 183.852 238.257 184.203C239.314 184.777 240.216 185.544 241.076 186.383C242.244 187.526 243.3 188.762 244.265 190.079C246.098 192.574 247.64 195.226 248.774 198.096C248.804 198.173 248.849 198.241 248.899 198.343C249.357 197.831 249.792 197.346 250.233 196.861C252.276 194.599 254.405 192.418 256.898 190.639C257.904 189.921 258.965 189.283 260.16 188.892C261.294 188.522 262.395 188.565 263.468 189.218C264.141 189.627 264.489 190.246 264.75 190.953C264.998 191.63 264.997 192.319 264.977 193.013C264.941 194.029 264.772 195.017 264.355 195.927C263.954 196.793 263.523 197.654 262.996 198.446C262.378 199.371 261.666 200.229 260.956 201.085C260.499 201.638 259.968 202.131 259.468 202.651C258.882 203.257 258.302 203.872 257.71 204.47C257.363 204.817 256.992 205.141 256.603 205.509C256.692 205.523 256.752 205.539 256.811 205.535C257.4 205.51 257.986 205.458 258.575 205.468C260.06 205.486 261.526 205.678 262.96 206.138C264.268 206.558 265.513 207.13 266.635 207.94C267.952 208.891 268.938 210.095 269.38 211.683C269.702 212.849 269.682 214 269.244 215.096C268.865 216.05 268.069 216.576 267.131 216.9C266.161 217.236 265.141 217.28 264.117 217.252C263.17 217.224 262.216 217.182 261.267 217.111C260.598 217.06 259.937 216.934 259.265 216.863C258.615 216.798 257.96 216.768 257.312 216.712C256.828 216.668 256.343 216.613 255.798 216.557C255.866 216.665 255.904 216.743 255.959 216.815C257.47 218.806 258.561 221.008 259.334 223.364C259.759 224.666 260.1 225.996 260.119 227.349C260.138 228.657 260.147 229.983 259.615 231.214C259.094 232.423 258.199 233.2 256.943 233.567C256.159 233.796 255.345 233.917 254.53 233.692C253.516 233.414 252.486 233.116 251.731 232.309C251.029 231.556 250.351 230.776 249.701 229.977C247.669 227.471 246.078 224.718 244.891 221.738C244.755 221.398 244.628 221.057 244.465 220.626C244.258 221.123 244.084 221.55 243.905 221.97C243.182 223.662 242.393 225.323 241.393 226.864C240.656 227.998 239.825 229.029 238.63 229.711C238.047 230.046 237.434 230.3 236.74 230.37C236.175 230.43 235.682 230.189 235.174 230.008C234.097 229.626 233.663 228.76 233.466 227.724C233.17 226.166 233.416 224.678 233.864 223.222C234.425 221.404 235.283 219.726 236.142 218.051C236.191 217.959 236.231 217.867 236.309 217.71C235.943 217.848 235.642 217.98 235.329 218.068C234.292 218.362 233.262 218.69 232.208 218.909C231.352 219.089 230.461 219.203 229.581 219.223C228.091 219.262 226.608 219.041 225.184 218.512C224.363 218.208 223.556 217.859 222.779 217.454C221.885 216.99 221.331 216.175 220.996 215.264C220.723 214.524 220.949 213.822 221.368 213.187C222.263 211.823 223.557 210.909 224.902 210.041C226.363 209.106 227.953 208.471 229.633 208.034C230.442 207.824 231.267 207.661 232.097 207.542C233.503 207.347 234.923 207.2 236.336 207.033C236.37 207.031 236.401 207.016 236.519 206.982C236.027 206.795 235.615 206.64 235.202 206.482C233.438 205.814 231.724 205.037 230.086 204.077C228.872 203.368 227.728 202.547 226.695 201.59C225.085 200.105 223.785 198.392 222.937 196.366C222.585 195.532 222.345 194.673 222.319 193.775C222.277 192.305 222.967 191.247 224.143 190.477C224.722 190.099 225.341 189.782 226.041 189.78C226.684 189.777 227.349 189.866 227.981 190.024C229.433 190.39 230.72 191.149 231.949 192.006C232.98 192.729 233.979 193.502 234.993 194.253C235.085 194.321 235.18 194.386 235.272 194.45L235.299 194.402L235.308 194.401ZM251.608 210.255C251.528 209.815 251.44 209.373 251.369 208.931C251.167 207.683 250.555 206.654 249.548 205.886C248.83 205.337 248.063 204.834 247.271 204.404C246.438 203.948 245.54 203.738 244.591 203.933C243.3 204.205 242.165 204.743 241.277 205.719C240.721 206.331 240.166 206.965 240.128 207.842C240.084 208.854 240.099 209.875 240.153 210.893C240.194 211.705 240.603 212.374 241.208 212.94C241.979 213.659 242.918 214.017 243.889 214.311C246.199 215.004 248.347 214.811 250.239 213.324C251.211 212.557 251.837 211.61 251.608 210.255Z" fill="#FDF6E9"/>
<path d="M250.27 205.425C247.875 202.916 243.978 202.751 241.564 205.055C239.15 207.359 239.135 211.26 241.529 213.768C243.923 216.277 247.821 216.442 250.235 214.138C252.648 211.834 252.664 207.933 250.27 205.425Z" fill="#E14A68"/>
</g>
</g>
<defs>
<clipPath id="clip0_806_27727">
<rect width="280" height="281.373" fill="white" transform="translate(0.68811 0.859131)"/>
</clipPath>
</defs>
</svg>
