<svg width="393" height="183" viewBox="0 0 393 183" fill="none" xmlns="http://www.w3.org/2000/svg">
<g clip-path="url(#clip0_914_5908)">
<path d="M0 0H393V183H0V0Z" fill="#D9D9D9"/>
<path d="M0 -39.8926H393V186.62H0V-39.8926Z" fill="#640E0E"/>
<path fill-rule="evenodd" clip-rule="evenodd" d="M327.527 29.6294C327.346 30.7166 328.082 31.7448 329.171 31.926C343.314 34.278 351.692 42.8161 358.199 56.2701C364.294 68.8731 365.416 84.7058 364.234 99.5067C363.067 114.121 358.105 127.932 350.056 139.076C342.009 150.217 331.282 158.136 319.36 161.829C307.444 165.52 294.855 164.832 283.271 159.847C271.654 154.847 260.124 145.393 253.853 129.99C253.437 128.968 252.271 128.477 251.247 128.892C250.224 129.307 249.731 130.471 250.147 131.492C256.876 148.02 269.27 158.168 281.687 163.512C294.137 168.87 307.709 169.618 320.546 165.641C333.375 161.667 344.797 153.185 353.301 141.409C361.805 129.636 367 115.119 368.221 99.8238C369.428 84.7149 368.341 68.0589 361.801 54.5354C354.952 40.374 345.687 30.6262 329.829 27.9889C328.739 27.8077 327.709 28.5422 327.527 29.6294Z" fill="#F7996E"/>
<path d="M341.049 38.2445C331.607 42.1777 321.367 42.1571 312.521 38.187L317.794 -18.0293L348.114 -35.1916C356.755 -30.7998 363.156 -22.863 365.945 -13.081C368.734 -3.29894 367.691 7.55048 363.037 17.1437C358.384 26.737 350.491 34.3113 341.049 38.2445Z" fill="#E79595"/>
<path fill-rule="evenodd" clip-rule="evenodd" d="M312.521 38.187L317.794 -18.0293L348.114 -35.1916C356.755 -30.7998 363.156 -22.863 365.945 -13.081C368.734 -3.29894 367.691 7.55048 363.037 17.1437C358.384 26.737 350.491 34.3113 341.049 38.2445C331.607 42.1777 321.367 42.1571 312.521 38.187ZM320.636 -16.1959L315.715 36.258C323.298 39.0511 331.871 38.824 339.894 35.482C348.628 31.8437 355.988 24.8064 360.337 15.8396C364.686 6.87279 365.637 -3.22239 363.06 -12.2617C360.64 -20.7462 355.303 -27.654 348.147 -31.769L320.636 -16.1959Z" fill="#E79595"/>
<path fill-rule="evenodd" clip-rule="evenodd" d="M338.828 -13.6996C338.828 -13.6994 338.827 -13.6991 339.125 -12.7467L338.827 -13.6991C338.3 -13.5347 338.006 -12.975 338.171 -12.449C338.335 -11.9247 338.893 -11.6317 339.419 -11.7928C339.419 -11.7928 339.419 -11.7928 339.419 -11.7928C339.419 -11.793 339.421 -11.7935 339.423 -11.7941C339.43 -11.7962 339.445 -11.8002 339.466 -11.8055C339.507 -11.8163 339.575 -11.8327 339.666 -11.8506C339.849 -11.8865 340.121 -11.9283 340.456 -11.945C341.13 -11.9786 342.036 -11.9107 342.99 -11.5139C344.825 -10.751 347.174 -8.62135 348.138 -2.61049C348.588 0.197799 347.782 3.87019 346.791 6.95325C346.335 8.36967 345.853 9.62508 345.468 10.5615C344.941 9.8502 344.202 9.00305 343.23 8.21646C340.922 6.34829 337.344 4.86703 332.358 6.24892C329.862 6.94055 328.236 8.3191 327.257 10.0284C326.296 11.7063 326 13.6286 326 15.3802C326 17.1383 326.298 18.7962 326.591 20.0036C326.737 20.6103 326.885 21.1103 326.996 21.4612C327.052 21.6367 327.099 21.7754 327.132 21.8718C327.149 21.92 327.163 21.9577 327.172 21.9842L327.184 22.0156L327.187 22.0248L327.189 22.0289C327.189 22.0293 327.189 22.0297 328.125 21.6793L327.189 22.0289C327.382 22.5449 327.959 22.8071 328.476 22.6136C328.993 22.4202 329.255 21.8454 329.062 21.3296M329.062 21.3296L329.06 21.3256L329.053 21.3054C329.046 21.2865 329.035 21.2566 329.021 21.2165C328.993 21.1363 328.952 21.0153 328.903 20.8586C328.803 20.5448 328.669 20.0898 328.535 19.5349C328.264 18.4192 328 16.9275 328 15.3802C328 13.8264 328.267 12.2873 328.993 11.0185C329.702 9.78104 330.888 8.72739 332.893 8.17184C337.173 6.98553 340.095 8.24837 341.97 9.76635C342.924 10.5385 343.618 11.3882 344.074 12.0468C344.301 12.3749 344.466 12.652 344.573 12.843C344.626 12.9384 344.665 13.012 344.689 13.0593C344.701 13.0829 344.709 13.0999 344.714 13.1098L344.717 13.1174L344.718 13.1189L345.61 15.0436L346.527 13.129L345.625 12.6986C346.527 13.129 346.527 13.1292 346.527 13.129L346.532 13.1197L346.543 13.097C346.552 13.0775 346.565 13.0491 346.582 13.0124C346.616 12.9389 346.666 12.8317 346.728 12.6939C346.852 12.4185 347.027 12.0205 347.233 11.5245C347.646 10.5336 348.186 9.14683 348.695 7.56298C349.699 4.44128 350.643 0.380295 350.113 -2.92584C349.076 -9.38843 346.425 -12.248 343.76 -13.3561C342.464 -13.8948 341.246 -13.9826 340.356 -13.9382C339.911 -13.916 339.542 -13.8603 339.279 -13.8085C339.148 -13.7826 339.042 -13.7575 338.965 -13.7378C338.927 -13.728 338.896 -13.7195 338.873 -13.7128L338.844 -13.7044L338.834 -13.7013L338.83 -13.7001L338.828 -13.6996" fill="#640E0E"/>
<path d="M135 188.616V115.773H253V188.616H135Z" fill="#E79595"/>
<path d="M49.245 39.3319C58.687 43.2651 68.9275 43.2445 77.7732 39.2744L72.5 -16.9419L42.1807 -34.1042C33.5395 -29.7124 27.1389 -21.7756 24.3495 -11.9936C21.5601 -2.21154 22.6037 8.63788 27.257 18.2311C31.9102 27.8244 39.803 35.3987 49.245 39.3319Z" fill="#E79595"/>
<path fill-rule="evenodd" clip-rule="evenodd" d="M77.7732 39.2744L72.5 -16.9419L42.1807 -34.1042C33.5395 -29.7124 27.1389 -21.7756 24.3495 -11.9936C21.5601 -2.21154 22.6037 8.63788 27.257 18.2311C31.9102 27.8244 39.803 35.3987 49.245 39.3319C58.687 43.2651 68.9275 43.2445 77.7732 39.2744ZM69.6589 -15.1085L74.5792 37.3454C66.9969 40.1385 58.4234 39.9114 50.4007 36.5694C41.6666 32.9311 34.3067 25.8938 29.9573 16.927C25.6079 7.9602 24.6573 -2.13498 27.2349 -11.1743C29.6543 -19.6588 34.9914 -26.5666 42.147 -30.6816L69.6589 -15.1085Z" fill="#E79595"/>
<path fill-rule="evenodd" clip-rule="evenodd" d="M58.9727 29.1303C59.1543 30.2175 58.4182 31.2458 57.3287 31.427C43.1864 33.779 34.8079 42.317 28.3012 55.7711C22.2062 68.3741 21.0843 84.2068 22.2663 99.0077C23.4334 113.622 28.3949 127.433 36.4436 138.577C44.4906 149.718 55.2176 157.637 67.1404 161.33C79.0557 165.021 91.6452 164.333 103.229 159.348C114.829 154.355 129.271 141.967 134.073 124.718C134.369 123.656 135.471 123.035 136.535 123.33C137.6 123.625 138.223 124.725 137.927 125.787C132.729 144.46 117.248 157.661 104.813 163.013C92.3627 168.371 78.791 169.119 65.9544 165.142C53.1253 161.168 41.7035 152.686 33.1986 140.91C24.6955 129.137 19.5003 114.62 18.2789 99.3247C17.0723 84.2159 18.1585 67.5599 24.6988 54.0363C31.5475 39.875 40.8134 30.1272 56.6711 27.4899C57.7606 27.3087 58.7911 28.0431 58.9727 29.1303Z" fill="#F7996E"/>
<path d="M77.9999 44.4262C65.9133 10.7761 70.4999 -45.8796 70.4999 -45.8796H324.5C324.5 -45.8796 328.358 11.9223 316 45.424C304.101 77.6786 292.433 92.5939 267 115.773C243.402 137.279 220 159.179 198 159.678C176 160.177 150.003 138.785 126 115.773C101.905 92.6713 89.2378 75.7133 77.9999 44.4262Z" fill="#F2ACAC"/>
<path d="M135 43.4282C135 55.2769 125.374 64.8821 113.5 64.8821C101.626 64.8821 92 55.2769 92 43.4282C92 31.5796 101.626 21.9744 113.5 21.9744C125.374 21.9744 135 31.5796 135 43.4282Z" fill="#E79595"/>
<path d="M296 40.4348C296 52.2835 286.374 61.8887 274.5 61.8887C262.626 61.8887 253 52.2835 253 40.4348C253 28.5862 262.626 18.981 274.5 18.981C286.374 18.981 296 28.5862 296 40.4348Z" fill="#E79595"/>
<path d="M197 -10.9548C196.338 -9.85379 179.878 38.8997 176.944 47.5967C176.673 48.3984 176.945 49.2655 177.613 49.7869L195.88 64.0509C198.016 65.7188 201.008 65.7494 203.178 64.1255L222.331 49.7908C223.027 49.2702 223.313 48.3825 223.028 47.5627C220.634 40.6705 209.655 9.07412 203 -9.95698C201.43 -14.4472 198.502 -13.45 197 -10.9548Z" fill="#E79595"/>
<path d="M173 97.3125C168 100.351 162.5 99.3082 162.5 99.3082C162.5 99.3082 169.329 108.975 174 113.278C180.5 119.265 183.842 124.522 192.5 126.25C196.712 127.091 199.279 127.045 203.5 126.25C214.409 124.198 217.5 116.771 225.5 108.788L235 99.3082C235 99.3082 230.5 100.306 225.5 96.3146C217.293 89.7633 213.32 77.1102 203.5 80.8479C201.121 81.7533 198 84.3404 198 84.3404C198 84.3404 194.906 81.6783 192.5 80.8479C183.592 77.7737 181.05 92.4205 173 97.3125Z" fill="#E79595"/>
<path fill-rule="evenodd" clip-rule="evenodd" d="M209.738 81.2286C207.98 80.5157 206.021 80.422 203.678 81.314C202.551 81.7431 201.218 82.5852 200.146 83.341C199.615 83.7155 199.157 84.0623 198.832 84.3153C198.67 84.4418 198.541 84.5446 198.453 84.6155C198.409 84.651 198.375 84.6785 198.352 84.6969L198.327 84.7177L198.321 84.7227L198.32 84.7239L197.994 84.9939L197.673 84.7182L197.672 84.7168L197.666 84.7117L197.641 84.6905C197.619 84.6716 197.585 84.6435 197.542 84.6072C197.455 84.5347 197.327 84.4295 197.166 84.3004C196.843 84.042 196.389 83.689 195.861 83.3108C194.793 82.5461 193.467 81.7095 192.336 81.3193C190.259 80.6023 188.588 80.9178 187.094 81.8576C185.567 82.8184 184.21 84.4423 182.837 86.3808C182.292 87.1492 181.738 87.9778 181.172 88.8252C180.342 90.0672 179.485 91.3497 178.591 92.5426C177.067 94.5747 175.353 96.4666 173.26 97.7385C170.669 99.3129 167.958 99.8255 165.905 99.9477C164.968 100.004 164.164 99.9783 163.565 99.9341C163.705 100.128 163.865 100.348 164.044 100.591C164.755 101.562 165.752 102.901 166.894 104.374C169.184 107.328 172.037 110.791 174.339 112.911C175.775 114.234 177.05 115.51 178.253 116.714C182.571 121.038 185.967 124.437 192.598 125.761C196.742 126.588 199.243 126.543 203.407 125.76C208.741 124.756 212.155 122.447 215.238 119.389C216.709 117.929 218.102 116.303 219.598 114.555C219.679 114.461 219.76 114.366 219.841 114.271C221.427 112.42 223.131 110.446 225.146 108.435L233.682 99.9179C233.227 99.9193 232.678 99.891 232.054 99.802C230.225 99.5413 227.764 98.7612 225.188 96.7041C223.093 95.0324 221.279 92.9798 219.594 90.9243C219.084 90.3018 218.587 89.6813 218.098 89.0704C216.959 87.6491 215.863 86.2802 214.737 85.0609C213.131 83.3223 211.518 81.9503 209.738 81.2286ZM234.892 98.8209L236.568 98.4494L225.853 109.141C223.869 111.121 222.187 113.069 220.602 114.92C220.517 115.018 220.433 115.116 220.35 115.214C218.861 116.952 217.444 118.607 215.943 120.097C212.754 123.261 209.167 125.691 203.593 126.74C199.314 127.545 196.683 127.594 192.402 126.739C185.448 125.351 181.803 121.697 177.445 117.327C176.263 116.142 175.028 114.904 173.661 113.645C171.291 111.462 168.394 107.94 166.103 104.985C164.954 103.503 163.951 102.156 163.236 101.18C162.879 100.692 162.593 100.296 162.396 100.023C162.298 99.8856 162.222 99.7791 162.17 99.7067L162.111 99.6242L162.092 99.5961C162.092 99.596 162.091 99.5956 162.5 99.3081L162.092 99.5961L161.379 98.5878L162.593 98.8179L162.595 98.8182L162.604 98.8198L162.645 98.8269C162.683 98.8332 162.74 98.8423 162.816 98.853C162.968 98.8744 163.193 98.9021 163.48 98.9264C164.054 98.9751 164.873 99.0096 165.845 98.9517C167.792 98.8357 170.331 98.3504 172.74 96.8863C174.672 95.7122 176.295 93.9388 177.79 91.9448C178.68 90.7575 179.498 89.5331 180.307 88.3205C180.874 87.4706 181.438 86.6264 182.02 85.8048C183.402 83.8543 184.854 82.0872 186.561 81.0135C188.3 79.9188 190.287 79.5562 192.663 80.3763C193.939 80.8165 195.363 81.7261 196.444 82.5001C196.99 82.8912 197.459 83.2556 197.792 83.5223C197.871 83.5856 197.942 83.6435 198.005 83.6949C198.068 83.6453 198.139 83.5895 198.217 83.5285C198.552 83.2682 199.023 82.9116 199.569 82.5261C200.653 81.7621 202.07 80.8579 203.322 80.3816C205.888 79.4047 208.109 79.491 210.114 80.3041C212.098 81.1084 213.832 82.6083 215.472 84.3847C216.624 85.631 217.755 87.0443 218.904 88.4787C219.388 89.0832 219.875 89.6914 220.368 90.2925C222.043 92.3352 223.803 94.321 225.812 95.9249C228.235 97.8593 230.525 98.576 232.196 98.8142C233.033 98.9335 233.717 98.933 234.187 98.9037C234.423 98.889 234.604 98.8672 234.724 98.8496C234.784 98.8408 234.829 98.833 234.857 98.8278C234.864 98.8266 234.869 98.8255 234.874 98.8245C234.88 98.8235 234.884 98.8226 234.887 98.822L234.892 98.8209Z" fill="#E79595"/>
<path d="M198 103.303C195.209 103.149 191 104.8 191 104.8C191 104.8 195.209 99.6567 198 99.8105C200.223 99.933 204.5 104.8 204.5 104.8C204.5 104.8 200.223 103.425 198 103.303Z" fill="white"/>
<path fill-rule="evenodd" clip-rule="evenodd" d="M190.225 104.169L191 104.8C191 104.8 191.8 104.486 192.933 104.145C194.4 103.704 196.425 103.216 198 103.303C199.258 103.372 201.174 103.843 202.6 104.238C203.694 104.541 204.5 104.8 204.5 104.8L205.252 104.142L207.637 106.856L204.193 105.75L204.183 105.746L204.149 105.735C204.118 105.726 204.073 105.711 204.013 105.693C203.895 105.656 203.723 105.603 203.509 105.539C203.08 105.41 202.487 105.237 201.826 105.061C200.475 104.702 198.941 104.354 197.945 104.299C196.724 104.232 195.108 104.566 193.724 104.954C193.047 105.144 192.454 105.339 192.03 105.487C191.818 105.56 191.65 105.622 191.535 105.664C191.478 105.685 191.434 105.702 191.406 105.713L191.374 105.725L191.367 105.728L191.366 105.728L187.807 107.124L190.225 104.169ZM203.124 103.348C203.942 104.165 204.5 104.8 204.5 104.8C205.252 104.142 205.252 104.142 205.252 104.142L205.247 104.137L205.237 104.125L205.198 104.081C205.164 104.043 205.115 103.989 205.052 103.92C204.927 103.782 204.746 103.586 204.522 103.351C204.076 102.881 203.455 102.252 202.759 101.615C202.067 100.983 201.281 100.325 200.507 99.8109C199.771 99.3226 198.896 98.8605 198.055 98.8142C197.063 98.7596 196.069 99.1695 195.223 99.6644C194.353 100.173 193.508 100.851 192.782 101.508C192.051 102.169 191.414 102.831 190.962 103.326C190.735 103.575 190.553 103.783 190.427 103.93C190.364 104.003 190.314 104.062 190.28 104.102L190.241 104.15L190.23 104.163L190.227 104.167L190.225 104.169C190.225 104.169 190.225 104.169 191 104.8C191 104.8 191.554 104.122 192.395 103.266C193.869 101.764 196.222 99.7126 198 99.8106C199.42 99.8888 201.678 101.903 203.124 103.348Z" fill="#E79595"/>
<path fill-rule="evenodd" clip-rule="evenodd" d="M54.7967 -12.9052C54.7974 -12.9049 54.7982 -12.9047 54.4998 -11.9523L54.7982 -12.9047C55.3253 -12.7403 55.6191 -12.1806 55.4543 -11.6546C55.2901 -11.1302 54.7321 -10.8373 54.2064 -10.9983C54.2064 -10.9983 54.2064 -10.9983 54.2064 -10.9983C54.2056 -10.9986 54.204 -10.999 54.2017 -10.9997C54.1945 -11.0018 54.1803 -11.0057 54.1594 -11.0111C54.1176 -11.0219 54.0496 -11.0382 53.9585 -11.0562C53.776 -11.0921 53.5041 -11.1339 53.1687 -11.1506C52.4954 -11.1842 51.5889 -11.1162 50.6346 -10.7194C48.7997 -9.95658 46.4512 -7.82691 45.4873 -1.81606C45.0369 0.992232 45.843 4.66462 46.8343 7.74769C47.2898 9.1641 47.7719 10.4195 48.1569 11.3559C48.6844 10.6446 49.423 9.79749 50.3948 9.01089C52.7028 7.14272 56.2812 5.66146 61.2674 7.04335C63.763 7.73498 65.3894 9.11354 66.3682 10.8228C67.3291 12.5008 67.625 14.4231 67.625 16.1747C67.6249 17.9328 67.3268 19.5906 67.0344 20.7981C66.8875 21.4047 66.7403 21.9047 66.629 22.2556C66.5732 22.4312 66.5263 22.5698 66.4927 22.6662C66.4759 22.7145 66.4625 22.7522 66.4528 22.7787L66.4414 22.81L66.438 22.8192L66.4365 22.8233C66.4363 22.8237 66.4362 22.8241 65.4998 22.4737L66.4365 22.8233C66.2425 23.3393 65.6658 23.6015 65.1487 23.408C64.6318 23.2146 64.3698 22.6398 64.5633 22.124M64.5633 22.124L64.5647 22.12L64.5721 22.0999C64.579 22.0809 64.5897 22.0511 64.6036 22.011C64.6316 21.9308 64.6726 21.8097 64.7223 21.653C64.8219 21.3392 64.956 20.8843 65.0904 20.3293C65.3605 19.2136 65.6249 17.722 65.625 16.1746C65.625 14.6208 65.3583 13.0818 64.6317 11.813C63.9231 10.5755 62.7368 9.52182 60.7322 8.96627C56.4517 7.77996 53.5301 9.0428 51.6548 10.5608C50.7008 11.3329 50.0065 12.1826 49.5509 12.8412C49.3239 13.1693 49.1586 13.4464 49.0519 13.6375C48.9987 13.7328 48.9603 13.8064 48.9363 13.8537C48.9243 13.8773 48.9159 13.8944 48.9112 13.9043L48.9075 13.9118L48.9068 13.9133L48.0149 15.838L47.0976 13.9234L47.9998 13.493C47.0976 13.9234 47.0977 13.9236 47.0976 13.9234L47.0932 13.9142L47.0825 13.8915C47.0732 13.8719 47.0599 13.8436 47.0428 13.8068C47.0086 13.7333 46.9592 13.6261 46.8972 13.4884C46.7731 13.2129 46.598 12.8149 46.3916 12.3189C45.9791 11.328 45.4392 9.94126 44.9299 8.35741C43.9262 5.23571 42.9822 1.17473 43.5124 -2.1314C44.5488 -8.594 47.2003 -11.4536 49.8653 -12.5616C51.161 -13.1003 52.3794 -13.1882 53.2686 -13.1438C53.7144 -13.1216 54.0831 -13.0658 54.3459 -13.0141C54.4775 -12.9881 54.5832 -12.9631 54.6596 -12.9434C54.6978 -12.9335 54.7288 -12.925 54.752 -12.9184L54.781 -12.9099L54.7911 -12.9069L54.795 -12.9057L54.7967 -12.9052" fill="#640E0E"/>
<path fill-rule="evenodd" clip-rule="evenodd" d="M21.7769 -40.1081C22.5816 -40.3043 23.3934 -39.8123 23.59 -39.0093C25.9166 -29.5045 31.969 -20.8914 40.4775 -15.0426C48.986 -9.19368 59.2339 -6.60198 69.0097 -7.79131C78.6809 -8.9679 89.0953 -15.9478 94.4933 -24.1882C94.9465 -24.8801 95.8761 -25.0744 96.5695 -24.6221C97.2629 -24.1698 97.4576 -23.2422 97.0044 -22.5503C91.176 -13.6529 80.0147 -6.11444 69.3728 -4.81975C58.8356 -3.5378 47.8584 -6.33367 38.7755 -12.5773C29.6926 -18.8211 23.1859 -28.044 20.6756 -38.2989C20.4791 -39.102 20.9721 -39.912 21.7769 -40.1081Z" fill="#640E0E"/>
<path fill-rule="evenodd" clip-rule="evenodd" d="M24.2135 -19.6943C24.671 -20.003 25.2927 -19.8831 25.602 -19.4265C31.166 -11.2143 39.9471 -5.1677 50.0749 -2.60528C60.2027 -0.0428605 70.8403 -1.17652 79.7063 -5.74009C88.5098 -10.2715 95.9287 -20.5582 98.1496 -30.2844C98.2723 -30.8217 98.8083 -31.158 99.3468 -31.0356C99.8853 -30.9132 100.222 -30.3783 100.1 -29.841C97.7622 -19.6046 90.0061 -8.7961 80.6232 -3.96645C71.3028 0.83104 60.1619 2.00566 49.5833 -0.670789C39.0048 -3.34724 29.798 -9.67008 23.9451 -18.3088C23.6358 -18.7653 23.7559 -19.3857 24.2135 -19.6943Z" fill="#640E0E"/>
<path d="M45.0608 80.7539C45.6985 80.998 46.3575 81.2015 46.9751 81.497C47.8452 81.9133 48.6945 82.3756 49.5354 82.8553C50.2179 83.2432 50.8176 83.7474 51.3151 84.3812C51.9092 85.1333 52.032 85.9874 51.8576 86.9219C51.7605 87.4393 51.6216 87.932 51.2377 88.3002C50.7695 88.7496 50.2148 89.0548 49.6157 89.2651C48.6394 89.6064 47.6348 89.7203 46.6114 89.7604C45.218 89.8112 43.8328 89.7278 42.4531 89.5324C39.8338 89.1649 37.2899 88.5 34.8523 87.4226C34.7866 87.3927 34.7176 87.3796 34.6257 87.3475C34.6718 87.983 34.7142 88.5862 34.7544 89.1925C34.947 92.0131 35.0388 94.838 34.6671 97.6499C34.518 98.785 34.2869 99.9058 33.8247 100.958C33.3848 101.955 32.7101 102.666 31.6749 102.969C31.0267 103.158 30.4396 102.994 29.8501 102.717C29.2852 102.45 28.8613 102.009 28.4458 101.549C27.8398 100.875 27.3295 100.129 27.0136 99.2659C26.7152 98.4418 26.4382 97.6014 26.2601 96.7405C26.0525 95.7339 25.9439 94.7069 25.833 93.6828C25.7605 93.0208 25.77 92.3486 25.7436 91.6808C25.7147 90.8992 25.6778 90.1159 25.6569 89.3361C25.6468 88.8809 25.6652 88.4249 25.6685 87.9274C25.6068 87.9785 25.5609 88.0086 25.5294 88.0506C25.1969 88.4614 24.8846 88.8887 24.5315 89.2775C23.6464 90.2623 22.6641 91.1232 21.5353 91.7904C20.5063 92.3991 19.4199 92.8682 18.2602 93.1018C16.8974 93.377 15.5741 93.267 14.3346 92.5461C13.4256 92.0151 12.728 91.265 12.3087 90.2683C11.9433 89.4036 12.0885 88.5325 12.4401 87.6955C12.804 86.8299 13.3774 86.1175 13.9972 85.4483C14.5735 84.8306 15.1607 84.2171 15.7634 83.626C16.1886 83.2092 16.6563 82.8468 17.0958 82.4418C17.5183 82.047 17.9224 81.6273 18.3391 81.2278C18.6507 80.931 18.9709 80.6413 19.3255 80.312C19.2189 80.2872 19.1487 80.2634 19.0723 80.2538C16.9531 79.9927 14.9528 79.3146 13.0442 78.3237C11.9904 77.7753 10.9697 77.1522 10.1227 76.2984C9.305 75.4735 8.48258 74.6302 8.03605 73.4848C7.59707 72.3603 7.64392 71.2623 8.15777 70.1851C8.47864 69.5123 8.88298 68.8888 9.50183 68.4859C10.2703 67.983 11.0598 67.4829 12.0033 67.4934C12.8818 67.5038 13.7618 67.5494 14.6374 67.6254C17.3799 67.8662 20.0157 68.5632 22.5532 69.6744C22.8427 69.8014 23.1277 69.9344 23.4893 70.1015C23.305 69.6435 23.144 69.2532 22.9909 68.8647C22.3717 67.2953 21.8121 65.7021 21.4502 64.0436C21.1847 62.8241 21.0389 61.6061 21.3215 60.3674C21.4579 59.761 21.6627 59.1867 22.028 58.6768C22.3234 58.2598 22.7628 58.083 23.1734 57.8581C24.0434 57.3806 24.8338 57.6437 25.5896 58.1747C26.7237 58.9739 27.4969 60.0923 28.1325 61.3256C28.9223 62.8657 29.4521 64.5169 29.9791 66.1658C30.0076 66.2573 30.0407 66.3429 30.0919 66.4968C30.2227 66.1627 30.3175 65.8765 30.4482 65.6104C30.8775 64.7257 31.2816 63.8252 31.7669 62.9771C32.1611 62.2869 32.6146 61.6166 33.1199 61.0132C33.9746 59.9888 34.9836 59.1354 36.1492 58.5179C36.8202 58.1629 37.5108 57.8435 38.2183 57.5818C39.0303 57.2799 39.8598 57.4296 40.6196 57.7889C41.2365 58.0791 41.5357 58.6804 41.6812 59.3687C41.9963 60.8428 41.7977 62.2965 41.5399 63.7548C41.2568 65.3331 40.7127 66.808 39.9923 68.2151C39.6458 68.8911 39.2611 69.5502 38.8448 70.1833C38.1379 71.2518 37.3921 72.298 36.6629 73.353C36.6449 73.377 36.6354 73.4081 36.5872 73.5091C36.9916 73.2986 37.3297 73.1208 37.6706 72.9453C39.1216 72.1892 40.6103 71.537 42.1674 71.053C43.3206 70.6924 44.5002 70.4508 45.6981 70.37C47.5629 70.2417 49.3847 70.4664 51.1337 71.1947C51.8555 71.4935 52.5278 71.8828 53.0971 72.4396C54.0287 73.3536 54.2748 74.494 54.0568 75.7762C53.9491 76.4063 53.7804 77.0249 53.3693 77.4971C52.9926 77.9297 52.5462 78.3193 52.0765 78.6411C50.9949 79.3813 49.7684 79.7591 48.5173 80.034C47.4634 80.2627 46.3982 80.4384 45.3384 80.638C45.2418 80.6554 45.1457 80.6782 45.0519 80.698L45.0654 80.7479L45.0608 80.7539ZM25.6812 81.5359C26.0005 81.7652 26.3243 81.9885 26.6391 82.2238C27.5269 82.8879 28.5233 83.1363 29.59 82.9522C30.3514 82.8224 31.1135 82.6299 31.845 82.3734C32.6168 82.1064 33.2751 81.6388 33.7132 80.8781C34.3064 79.8372 34.643 78.7304 34.5643 77.5095C34.5139 76.7442 34.4491 75.9671 33.9309 75.3794C33.3322 74.7012 32.6934 74.0579 32.0343 73.4415C31.5087 72.9498 30.8552 72.7946 30.1489 72.8389C29.2521 72.8959 28.4772 73.2964 27.725 73.7593C25.9372 74.8643 24.7908 76.4302 24.5937 78.6526C24.4948 79.7951 24.7099 80.8225 25.6812 81.5359Z" fill="#E14A68"/>
<ellipse cx="29.4498" cy="78.1269" rx="5.35483" ry="5.60446" fill="#FDF6E9"/>
<path d="M263.669 45.9602C263.862 45.6861 264.039 45.3968 264.253 45.1386C264.554 44.7748 264.874 44.4264 265.2 44.0842C265.465 43.8063 265.771 43.5821 266.124 43.4223C266.543 43.231 266.949 43.2766 267.353 43.4738C267.577 43.5832 267.784 43.7094 267.903 43.9373C268.048 44.2153 268.116 44.5168 268.135 44.828C268.166 45.3348 268.09 45.8275 267.977 46.3201C267.822 46.9902 267.606 47.6402 267.341 48.2738C266.838 49.4772 266.209 50.6084 265.405 51.6385C265.383 51.6662 265.369 51.6974 265.342 51.7373C265.638 51.7929 265.919 51.8463 266.201 51.9011C267.512 52.1534 268.813 52.4543 270.048 52.9745C270.547 53.184 271.029 53.4309 271.45 53.7795C271.849 54.1108 272.087 54.5191 272.092 55.0493C272.096 55.3813 271.946 55.6411 271.744 55.8882C271.55 56.1249 271.294 56.273 271.032 56.4149C270.646 56.6214 270.24 56.7735 269.806 56.8188C269.392 56.8605 268.973 56.89 268.558 56.8698C268.072 56.8459 267.589 56.7724 267.108 56.7003C266.796 56.654 266.491 56.5675 266.183 56.4986C265.823 56.4171 265.46 56.3391 265.102 56.2539C264.893 56.2032 264.687 56.1388 264.461 56.0765C264.476 56.1121 264.484 56.1377 264.499 56.1579C264.644 56.3664 264.799 56.5674 264.931 56.7831C265.267 57.325 265.534 57.8981 265.694 58.5174C265.84 59.082 265.915 59.657 265.874 60.2382C265.825 60.9211 265.605 61.5383 265.118 62.041C264.759 62.4094 264.328 62.6504 263.819 62.7286C263.378 62.7972 262.999 62.6217 262.662 62.352C262.314 62.073 262.062 61.7129 261.836 61.3359C261.628 60.9859 261.423 60.6312 261.23 60.2719C261.095 60.0184 260.989 59.7513 260.861 59.4925C260.734 59.243 260.595 58.9992 260.466 58.7519C260.37 58.5672 260.279 58.3793 260.174 58.1701C260.149 58.2179 260.129 58.2484 260.115 58.2837C259.725 59.2617 259.159 60.1322 258.463 60.9208C258.078 61.3561 257.663 61.7665 257.165 62.0659C256.684 62.355 256.194 62.644 255.614 62.717C255.045 62.789 254.55 62.6328 254.124 62.2565C253.858 62.0215 253.626 61.7527 253.521 61.4087C253.39 60.9811 253.263 60.5439 253.388 60.0956C253.505 59.6782 253.639 59.2644 253.785 58.8564C254.246 57.5789 254.901 56.4078 255.733 55.3342C255.828 55.2117 255.925 55.0921 256.048 54.9402C255.815 54.9722 255.617 55.0013 255.42 55.0268C254.624 55.1304 253.826 55.2027 253.023 55.1729C252.432 55.1506 251.858 55.0715 251.329 54.7857C251.07 54.6467 250.834 54.479 250.648 54.2428C250.495 54.0511 250.471 53.8202 250.421 53.5971C250.314 53.1242 250.536 52.7797 250.875 52.4843C251.384 52.0413 251.994 51.8093 252.638 51.6569C253.442 51.4684 254.263 51.4174 255.083 51.3674C255.128 51.365 255.171 51.3597 255.248 51.3541C255.112 51.251 254.994 51.1709 254.889 51.0761C254.54 50.7636 254.181 50.4612 253.856 50.1265C253.592 49.8544 253.344 49.5565 253.133 49.2421C252.775 48.7098 252.515 48.1249 252.382 47.4941C252.306 47.131 252.249 46.763 252.22 46.3939C252.186 45.9701 252.361 45.5931 252.622 45.2749C252.833 45.0163 253.146 44.947 253.479 44.9617C254.191 44.9914 254.829 45.2634 255.462 45.5641C256.146 45.8916 256.749 46.3308 257.299 46.8458C257.563 47.0934 257.815 47.3571 258.05 47.6327C258.447 48.0999 258.829 48.583 259.217 49.0592C259.226 49.0707 259.239 49.079 259.279 49.1143C259.235 48.8959 259.197 48.7131 259.16 48.5292C259.001 47.7456 258.894 46.9566 258.872 46.1555C258.855 45.562 258.896 44.9703 259.012 44.3896C259.192 43.4853 259.528 42.6446 260.084 41.9C260.313 41.5925 260.577 41.3196 260.903 41.1162C261.44 40.7838 261.992 40.8056 262.549 41.066C262.822 41.1942 263.083 41.35 263.246 41.6035C263.395 41.8358 263.516 42.0961 263.603 42.3592C263.802 42.9649 263.817 43.5955 263.783 44.2252C263.752 44.7553 263.696 45.2843 263.651 45.8137C263.647 45.8619 263.645 45.9105 263.642 45.9576L263.667 45.9573L263.669 45.9602ZM261.546 55.2907C261.691 55.1665 261.835 55.0395 261.982 54.9181C262.399 54.5761 262.64 54.1316 262.692 53.6008C262.73 53.2221 262.74 52.8355 262.717 52.4556C262.694 52.0552 262.565 51.6845 262.273 51.3829C261.874 50.9732 261.412 50.6778 260.845 50.5663C260.49 50.497 260.127 50.433 259.792 50.6083C259.406 50.8109 259.031 51.0368 258.665 51.2757C258.374 51.4662 258.219 51.7587 258.149 52.1006C258.06 52.535 258.144 52.9531 258.259 53.368C258.534 54.3548 259.102 55.0921 260.091 55.4572C260.6 55.6437 261.096 55.6665 261.546 55.2907Z" fill="#E14A68"/>
<ellipse cx="2.64218" cy="2.6471" rx="2.64218" ry="2.6471" transform="matrix(0.259338 -0.965787 0.966065 0.258301 257.23 54.9468)" fill="#FDF6E9"/>
<path d="M96.1391 112.924C95.8911 113.068 95.6565 113.202 95.4243 113.34C94.5494 113.852 93.6197 114.218 92.6268 114.426C91.4968 114.661 90.4466 114.429 89.4304 113.957C88.5106 113.529 87.6516 113.005 86.8734 112.363C86.1536 111.77 85.7479 110.981 85.5601 110.073C85.3976 109.285 85.3826 108.493 85.5556 107.707C85.8075 106.554 86.3185 105.53 87.1993 104.708C87.6511 104.286 88.1229 103.891 88.635 103.539C88.9671 103.309 89.3057 103.108 89.6709 102.941C89.6946 102.931 89.7106 102.903 89.7296 102.885C89.4728 102.647 89.2164 102.417 88.9698 102.179C88.4905 101.715 88.1022 101.182 87.7904 100.592C87.3238 99.711 87.0234 98.7785 86.9228 97.7858C86.8345 96.9219 86.9152 96.0825 87.3974 95.3157C87.6613 94.897 87.9953 94.5397 88.3837 94.2358C88.7271 93.967 89.0693 93.6939 89.4345 93.4578C90.2571 92.9261 91.1609 92.67 92.1411 92.6824C92.6764 92.6882 93.2012 92.7245 93.7158 92.8842C94.2769 93.057 94.7846 93.3296 95.2627 93.6606C95.7998 94.0335 96.2658 94.4825 96.6846 94.9813C96.9014 95.2394 97.1056 95.5092 97.3275 95.7875C97.442 95.6894 97.5862 95.5665 97.7316 95.4428C97.7886 95.3948 97.8421 95.344 97.9015 95.2994C98.0904 95.1586 98.271 95.003 98.472 94.883C98.8248 94.672 99.1805 94.4576 99.5559 94.2907C100.216 93.9987 100.907 93.7848 101.634 93.7543C102.204 93.7301 102.774 93.6958 103.338 93.8326C104.068 94.0095 104.68 94.3633 105.16 94.9402C105.69 95.5778 106.083 96.2949 106.365 97.069C106.58 97.6609 106.661 98.2869 106.646 98.92C106.638 99.265 106.616 99.6123 106.559 99.9528C106.474 100.462 106.246 100.929 106.001 101.38C105.809 101.736 105.576 102.07 105.371 102.419C105.344 102.466 105.339 102.572 105.373 102.602C105.856 103.051 106.161 103.613 106.436 104.202C106.947 105.302 107.137 106.474 107.192 107.67C107.23 108.508 107.201 109.351 106.953 110.162C106.771 110.752 106.544 111.334 106.289 111.899C105.968 112.607 105.532 113.248 104.992 113.819C104.531 114.308 103.985 114.683 103.427 115.051C102.905 115.396 102.34 115.597 101.724 115.625C101.36 115.641 100.99 115.621 100.63 115.567C100.002 115.472 99.3687 115.368 98.804 115.064C98.4115 114.853 98.0401 114.6 97.6643 114.358C97.1432 114.022 96.6769 113.624 96.3193 113.111C96.272 113.043 96.2021 112.99 96.1398 112.925L96.1391 112.924ZM97.8365 106.088C98.4638 105.6 98.8556 105.262 99.2589 104.451C97.5268 104.769 97.4202 104.58 98.7687 104.197C98.8089 103.459 98.8723 103.506 98.5237 102.866C98.3338 102.517 98.2462 102.616 98.0677 102.262C97.8983 101.923 97.9957 101.67 97.6918 101.471C97.1939 101.147 96.5774 102.319 95.9865 102.191C95.3066 102.043 95.9111 101.6 95.4091 102.106C94.9947 102.525 94.4949 101.324 94.2514 101.843C94.0814 102.204 93.9589 102.588 93.812 102.961C93.5835 103.541 93.4614 104.125 93.5716 104.755C93.6391 105.136 93.7909 105.471 93.9623 105.805C94.0843 106.042 94.1892 106.301 94.3658 106.491C94.9365 107.102 95.625 107.471 96.5082 107.423C97.2463 107.383 97.9449 107.238 98.6662 106.765L97.8365 106.088Z" fill="#FDF6E9"/>
<ellipse cx="3.39023" cy="3.38343" rx="3.39023" ry="3.38343" transform="matrix(0.983617 -0.18027 0.181021 0.983479 92.5217 101.558)" fill="#DE6843"/>
<path d="M121.778 69.8449C121.321 69.8356 120.891 69.8231 120.461 69.8172C118.846 69.7875 117.279 69.514 115.758 68.9722C114.028 68.3556 112.796 67.1686 111.809 65.6855C110.916 64.3422 110.186 62.9186 109.664 61.402C109.18 60.0003 109.287 58.5916 109.788 57.2036C110.223 55.9996 110.863 54.9109 111.752 53.9873C113.054 52.6311 114.601 51.6644 116.481 51.2784C117.446 51.0799 118.415 50.9351 119.404 50.8814C120.046 50.8455 120.673 50.8527 121.308 50.929C121.349 50.9342 121.393 50.9101 121.434 50.9018C121.284 50.3654 121.127 49.8406 120.991 49.3126C120.726 48.2856 120.643 47.2404 120.711 46.1805C120.811 44.5973 121.179 43.0822 121.869 41.651C122.469 40.4048 123.277 39.332 124.571 38.6908C125.278 38.341 126.028 38.1329 126.809 38.0424C127.499 37.9621 128.191 37.875 128.883 37.8573C130.443 37.8174 131.883 38.219 133.204 39.0485C133.926 39.5001 134.608 39.9846 135.174 40.6282C135.792 41.328 136.254 42.1189 136.628 42.9647C137.046 43.9164 137.305 44.9123 137.458 45.9369C137.538 46.4669 137.59 47.0026 137.66 47.5644C137.897 47.5262 138.195 47.4789 138.496 47.4315C138.613 47.4135 138.728 47.3889 138.846 47.3777C139.219 47.3431 139.594 47.2816 139.967 47.2852C140.622 47.2914 141.283 47.295 141.932 47.3798C143.072 47.5309 144.187 47.8128 145.199 48.3742C145.994 48.814 146.796 49.2401 147.449 49.8938C148.293 50.7395 148.829 51.7269 148.999 52.9076C149.188 54.2131 149.125 55.5126 148.863 56.7973C148.663 57.7795 148.25 58.696 147.704 59.5436C147.406 60.0054 147.087 60.459 146.726 60.8738C146.186 61.495 145.487 61.9385 144.778 62.3489C144.223 62.6727 143.628 62.9331 143.058 63.2373C142.983 63.2782 142.888 63.4185 142.909 63.4872C143.191 64.4978 143.137 65.5125 143.02 66.5407C142.799 68.4579 142.08 70.206 141.158 71.8768C140.513 73.0464 139.772 74.1659 138.759 75.0606C138.021 75.7118 137.228 76.3135 136.411 76.8692C135.386 77.565 134.26 78.0721 133.053 78.4008C132.018 78.6826 130.966 78.7387 129.901 78.7752C128.905 78.8113 127.971 78.6166 127.111 78.1433C126.603 77.8627 126.117 77.5297 125.673 77.157C124.901 76.508 124.127 75.8411 123.614 74.9603C123.256 74.349 122.963 73.6972 122.654 73.0572C122.227 72.1686 121.925 71.2416 121.866 70.2492C121.859 70.1174 121.808 69.9871 121.778 69.8472L121.778 69.8449ZM129.774 61.9713C131.032 61.8288 131.846 61.6947 133.068 60.9286C130.452 59.9235 130.465 59.5789 132.614 60.1771C133.284 59.2082 133.33 59.3251 133.39 58.1669C133.422 57.5361 133.221 57.5975 133.274 56.9682C133.326 56.3681 133.669 56.1048 133.422 55.5834C133.016 54.7298 131.203 55.8104 130.507 55.1472C129.707 54.3827 130.897 54.2812 129.794 54.5521C128.883 54.7776 129.204 52.7331 128.442 53.2352C127.91 53.5849 127.424 54.0046 126.914 54.3894C126.121 54.9867 125.468 55.6794 125.093 56.6257C124.868 57.1989 124.795 57.7797 124.75 58.3751C124.718 58.7974 124.644 59.2371 124.726 59.6417C124.992 60.9442 125.62 62.0155 126.859 62.6824C127.894 63.2407 128.964 63.6229 130.337 63.579L129.774 61.9713Z" fill="#FDF6E9"/>
<ellipse cx="5.39537" cy="5.38678" rx="5.39537" ry="5.38678" transform="matrix(0.933473 0.358647 -0.359991 0.932956 126.329 51.4146)" fill="#DE6843"/>
<path d="M276.415 83.891C276.254 83.8877 276.103 83.8833 275.952 83.8812C275.384 83.8708 274.833 83.7746 274.299 83.5841C273.69 83.3673 273.257 82.95 272.91 82.4285C272.596 81.9562 272.339 81.4557 272.156 80.9225C271.986 80.4296 272.023 79.9343 272.199 79.4463C272.352 79.023 272.577 78.6402 272.89 78.3155C273.348 77.8387 273.892 77.4987 274.553 77.363C274.892 77.2932 275.233 77.2423 275.58 77.2234C275.806 77.2108 276.027 77.2133 276.25 77.2402C276.264 77.242 276.28 77.2335 276.294 77.2306C276.241 77.042 276.186 76.8575 276.138 76.6719C276.045 76.3108 276.016 75.9433 276.04 75.5706C276.075 75.014 276.205 74.4813 276.447 73.9781C276.658 73.5399 276.942 73.1627 277.397 72.9373C277.646 72.8143 277.91 72.7411 278.184 72.7093C278.427 72.681 278.67 72.6504 278.913 72.6442C279.462 72.6302 279.968 72.7714 280.432 73.063C280.686 73.2218 280.926 73.3922 281.125 73.6184C281.342 73.8645 281.505 74.1426 281.636 74.44C281.783 74.7746 281.874 75.1247 281.928 75.485C281.956 75.6713 281.975 75.8597 281.999 76.0572C282.083 76.0438 282.187 76.0271 282.293 76.0105C282.334 76.0041 282.375 75.9955 282.416 75.9915C282.547 75.9794 282.679 75.9578 282.81 75.959C283.041 75.9612 283.273 75.9625 283.501 75.9923C283.902 76.0454 284.294 76.1445 284.65 76.3419C284.929 76.4966 285.211 76.6464 285.441 76.8762C285.738 77.1735 285.926 77.5207 285.986 77.9359C286.053 78.3949 286.03 78.8518 285.938 79.3035C285.868 79.6488 285.723 79.971 285.531 80.2691C285.426 80.4314 285.314 80.5909 285.187 80.7368C284.997 80.9552 284.751 81.1111 284.502 81.2554C284.307 81.3692 284.098 81.4608 283.897 81.5677C283.871 81.5822 283.837 81.6315 283.845 81.6556C283.944 82.011 283.925 82.3677 283.884 82.7292C283.806 83.4033 283.553 84.0179 283.229 84.6054C283.002 85.0166 282.742 85.4102 282.386 85.7248C282.126 85.9538 281.847 86.1653 281.56 86.3607C281.2 86.6053 280.804 86.7836 280.379 86.8992C280.015 86.9983 279.646 87.018 279.271 87.0309C278.921 87.0435 278.592 86.9751 278.29 86.8087C278.112 86.71 277.941 86.5929 277.785 86.4619C277.513 86.2337 277.241 85.9992 277.061 85.6895C276.935 85.4746 276.832 85.2454 276.723 85.0204C276.573 84.708 276.467 84.3821 276.446 84.0331C276.443 83.9868 276.426 83.941 276.415 83.8918L276.415 83.891ZM279.227 81.1226C279.669 81.0725 279.955 81.0254 280.385 80.756C279.465 80.4026 279.469 80.2815 280.225 80.4918C280.46 80.1511 280.477 80.1922 280.498 79.785C280.509 79.5632 280.439 79.5848 280.457 79.3636C280.475 79.1526 280.596 79.06 280.509 78.8766C280.366 78.5765 279.729 78.9565 279.484 78.7233C279.203 78.4545 279.621 78.4188 279.234 78.5141C278.913 78.5934 279.026 77.8745 278.758 78.051C278.571 78.174 278.4 78.3216 278.221 78.4569C277.942 78.6669 277.713 78.9104 277.581 79.2431C277.502 79.4447 277.476 79.6489 277.46 79.8582C277.449 80.0067 277.423 80.1613 277.452 80.3035C277.545 80.7615 277.766 81.1382 278.202 81.3727C278.566 81.5689 278.942 81.7033 279.424 81.6879L279.227 81.1226Z" fill="#DE6843"/>
<ellipse cx="1.897" cy="1.89398" rx="1.897" ry="1.89398" transform="matrix(0.933473 0.358647 -0.359991 0.932956 278.015 77.4109)" fill="#FDF6E9"/>
<path d="M353.566 85.068C353.414 85.1211 353.271 85.1698 353.129 85.2206C352.594 85.4092 352.044 85.5117 351.476 85.5201C350.83 85.5296 350.278 85.2901 349.77 84.9229C349.31 84.5901 348.894 84.211 348.535 83.7756C348.203 83.3734 348.064 82.8964 348.058 82.3777C348.052 81.9277 348.129 81.4906 348.308 81.0772C348.569 80.4706 348.959 79.9622 349.531 79.6041C349.824 79.4202 350.125 79.2534 350.444 79.1142C350.651 79.0236 350.859 78.9488 351.077 78.896C351.092 78.8927 351.103 78.8792 351.116 78.8715C351 78.7134 350.884 78.5597 350.774 78.4026C350.56 78.0969 350.403 77.763 350.295 77.4055C350.132 76.8718 350.067 76.3275 350.118 75.7714C350.161 75.2873 350.295 74.8347 350.642 74.4647C350.832 74.2626 351.053 74.1018 351.299 73.9761C351.516 73.8649 351.734 73.7512 351.959 73.6603C352.468 73.4556 352.992 73.4109 353.529 73.5218C353.823 73.5819 354.107 73.6576 354.373 73.8001C354.663 73.9546 354.913 74.1583 355.14 74.391C355.395 74.6529 355.603 74.9491 355.78 75.2677C355.872 75.4325 355.955 75.6025 356.048 75.779C356.121 75.7373 356.213 75.685 356.306 75.6325C356.343 75.6122 356.378 75.59 356.415 75.5718C356.534 75.5145 356.65 75.4482 356.773 75.4036C356.989 75.3252 357.208 75.2451 357.432 75.1934C357.826 75.1031 358.228 75.0589 358.631 75.1194C358.946 75.1667 359.263 75.2084 359.559 75.3435C359.941 75.5183 360.239 75.7777 360.441 76.1456C360.665 76.5523 360.804 76.9881 360.876 77.4433C360.932 77.7914 360.909 78.1439 360.833 78.4902C360.792 78.6789 360.743 78.8675 360.675 79.0485C360.574 79.3193 360.399 79.5513 360.216 79.7735C360.073 79.9484 359.909 80.1072 359.759 80.2774C359.739 80.3002 359.726 80.358 359.741 80.3781C359.959 80.6762 360.066 81.017 360.154 81.37C360.318 82.0286 360.297 82.6926 360.2 83.3561C360.131 83.8206 360.025 84.2803 359.802 84.6994C359.639 85.0046 359.453 85.3002 359.252 85.5835C359 85.9386 358.692 86.2439 358.335 86.5006C358.029 86.7204 357.689 86.8682 357.343 87.011C357.02 87.1453 356.688 87.196 356.347 87.1457C356.144 87.1157 355.943 87.0657 355.751 86.9975C355.417 86.8787 355.08 86.7541 354.802 86.5271C354.609 86.3697 354.432 86.1911 354.251 86.0182C354.001 85.7781 353.787 85.5099 353.645 85.1903C353.626 85.1478 353.594 85.1111 353.566 85.0687L353.566 85.068ZM355.228 81.4925C355.625 81.291 355.876 81.1469 356.184 80.7444C355.199 80.7348 355.16 80.6197 355.942 80.5527C356.043 80.1514 356.073 80.1841 355.949 79.7953C355.882 79.5836 355.824 79.6286 355.763 79.4148C355.706 79.2108 355.787 79.0819 355.641 78.9406C355.402 78.7093 354.938 79.288 354.627 79.1551C354.27 79.0016 354.649 78.8219 354.319 79.0466C354.047 79.2329 353.9 78.5201 353.711 78.7791C353.579 78.9596 353.471 79.1575 353.351 79.3469C353.163 79.641 353.034 79.9493 353.027 80.307C353.023 80.5235 353.071 80.7238 353.13 80.9254C353.171 81.0684 353.201 81.2222 353.278 81.3455C353.526 81.7417 353.865 82.0174 354.356 82.0848C354.766 82.1415 355.165 82.136 355.612 81.9529L355.228 81.4925Z" fill="#DE6843"/>
<ellipse cx="1.89753" cy="1.89345" rx="1.89753" ry="1.89345" transform="matrix(0.999952 0.00976214 -0.00980417 0.999952 352.791 78.439)" fill="#FDF6E9"/>
<path d="M373.631 69.6536C373.718 69.7884 373.799 69.9159 373.882 70.042C374.191 70.5174 374.419 71.027 374.56 71.5758C374.72 72.2003 374.616 72.7921 374.376 73.3708C374.16 73.8946 373.887 74.3868 373.547 74.837C373.233 75.2533 372.8 75.4993 372.297 75.6266C371.859 75.7368 371.415 75.7649 370.971 75.6879C370.319 75.576 369.732 75.3163 369.25 74.8454C369.002 74.6038 368.769 74.3504 368.559 74.0734C368.422 73.8939 368.301 73.71 368.198 73.5103C368.192 73.4974 368.176 73.4892 368.166 73.479C368.038 73.6282 367.916 73.777 367.789 73.9204C367.541 74.1994 367.252 74.4292 366.929 74.6179C366.447 74.9001 365.932 75.0909 365.378 75.1717C364.896 75.2424 364.424 75.2183 363.982 74.9683C363.741 74.8315 363.532 74.654 363.353 74.4448C363.193 74.26 363.032 74.0758 362.89 73.878C362.572 73.4322 362.406 72.9343 362.389 72.3871C362.379 72.0884 362.386 71.7947 362.463 71.5036C362.546 71.1863 362.686 70.8962 362.859 70.6213C363.055 70.3124 363.295 70.0412 363.564 69.7952C363.703 69.6678 363.849 69.5471 364 69.4165C363.942 69.355 363.869 69.2776 363.796 69.1996C363.768 69.1689 363.738 69.1403 363.712 69.1083C363.628 69.0065 363.537 68.9095 363.464 68.8004C363.337 68.6088 363.208 68.4157 363.106 68.2104C362.926 67.8492 362.789 67.4694 362.753 67.0645C362.726 66.747 362.692 66.4298 362.755 66.1115C362.836 65.6997 363.019 65.3497 363.33 65.0679C363.674 64.7561 364.066 64.519 364.493 64.3424C364.819 64.2076 365.168 64.1473 365.523 64.1396C365.717 64.1354 365.912 64.1389 366.104 64.1624C366.392 64.1972 366.659 64.3131 366.918 64.4386C367.122 64.5365 367.315 64.6582 367.516 64.7641C367.543 64.7781 367.602 64.778 367.618 64.7584C367.858 64.4776 368.165 64.2937 368.488 64.1256C369.092 63.8129 369.743 63.6781 370.413 63.6176C370.881 63.5753 371.354 63.5706 371.815 63.6892C372.15 63.7759 372.482 63.888 372.805 64.0164C373.209 64.1777 373.579 64.4054 373.912 64.6919C374.198 64.9373 374.421 65.2323 374.641 65.5347C374.848 65.8173 374.975 66.1274 375.006 66.4704C375.024 66.6734 375.022 66.8801 375 67.0825C374.963 67.4349 374.92 67.791 374.764 68.1136C374.656 68.3378 374.523 68.5513 374.397 68.767C374.221 69.066 374.01 69.3361 373.732 69.5484C373.694 69.5765 373.666 69.6168 373.631 69.6531L373.631 69.6536ZM369.758 68.8765C369.469 68.5386 369.27 68.3284 368.806 68.1236C369.027 69.082 368.924 69.1462 368.676 68.4034C368.261 68.3993 368.286 68.3627 367.936 68.5731C367.746 68.6877 367.803 68.7342 367.609 68.8425C367.423 68.9455 367.279 68.8974 367.175 69.0719C367.006 69.3578 367.678 69.6726 367.621 70.0054C367.555 70.3884 367.291 70.0622 367.588 70.3297C367.833 70.5505 367.172 70.8592 367.469 70.9821C367.676 71.068 367.894 71.1268 368.107 71.1995C368.437 71.3126 368.768 71.3662 369.118 71.289C369.329 71.2419 369.513 71.1489 369.696 71.0449C369.826 70.971 369.969 70.906 370.071 70.8028C370.399 70.4692 370.588 70.0759 370.539 69.5844C370.499 69.1735 370.4 68.7874 370.117 68.3967L369.758 68.8765Z" fill="#DE6843"/>
<ellipse cx="1.89366" cy="1.89732" rx="1.89366" ry="1.89732" transform="matrix(-0.224601 -0.974451 0.974661 -0.223687 367.353 71.9546)" fill="#FDF6E9"/>
<path d="M367.235 55.8687C367.255 56.0279 367.272 56.1778 367.292 56.3273C367.364 56.8893 367.348 57.4473 367.236 58.0027C367.109 58.6348 366.757 59.1227 366.29 59.5405C365.867 59.9186 365.408 60.2442 364.905 60.5024C364.441 60.7414 363.945 60.7757 363.435 60.6722C362.993 60.5822 362.581 60.4153 362.214 60.1535C361.675 59.7702 361.26 59.2823 361.03 58.6491C360.912 58.3242 360.812 57.995 360.743 57.6545C360.698 57.4335 360.669 57.2153 360.663 56.9911C360.663 56.9765 360.652 56.9623 360.647 56.9486C360.468 57.028 360.293 57.109 360.116 57.1831C359.771 57.3271 359.411 57.4091 359.038 57.4392C358.481 57.4847 357.934 57.4336 357.4 57.2666C356.935 57.1216 356.52 56.8954 356.231 56.4789C356.073 56.2513 355.962 56.0011 355.891 55.7347C355.828 55.4992 355.763 55.2634 355.721 55.0239C355.628 54.4845 355.695 53.9641 355.918 53.4635C356.039 53.19 356.173 52.9285 356.369 52.6995C356.581 52.4495 356.834 52.2489 357.11 52.0763C357.42 51.8827 357.754 51.7423 358.104 51.6372C358.285 51.5827 358.469 51.5373 358.661 51.4847C358.636 51.4043 358.604 51.3032 358.572 51.2013C358.56 51.1614 358.546 51.1228 358.536 51.0824C358.505 50.9545 358.464 50.8275 358.447 50.6979C358.416 50.4702 358.383 50.2404 358.38 50.0109C358.375 49.6076 358.417 49.2061 358.561 48.8261C358.674 48.528 358.782 48.2277 358.977 47.9681C359.229 47.6322 359.546 47.3961 359.949 47.277C360.395 47.1451 360.851 47.1012 361.312 47.1269C361.665 47.1468 362.005 47.2434 362.328 47.3902C362.505 47.4703 362.679 47.558 362.842 47.6623C363.086 47.8181 363.276 48.0382 363.455 48.2636C363.596 48.44 363.717 48.6332 363.852 48.8157C363.87 48.8398 363.924 48.8656 363.947 48.8548C364.285 48.7056 364.641 48.6729 365.006 48.6614C365.685 48.641 366.331 48.8019 366.961 49.0371C367.401 49.2019 367.829 49.4023 368.192 49.7086C368.457 49.932 368.707 50.1766 368.942 50.4321C369.237 50.7527 369.47 51.1179 369.646 51.5204C369.797 51.8653 369.87 52.2277 369.937 52.5954C370 52.9394 369.979 53.2738 369.858 53.5961C369.786 53.7869 369.694 53.9723 369.587 54.1453C369.4 54.4465 369.206 54.7488 368.925 54.9718C368.73 55.127 368.518 55.2619 368.311 55.4015C368.022 55.595 367.714 55.7468 367.371 55.8175C367.326 55.8268 367.283 55.8509 367.236 55.8685L367.235 55.8687ZM364.084 53.4918C363.971 53.0622 363.883 52.7867 363.554 52.4011C363.336 53.3602 363.215 53.3734 363.315 52.5968C362.943 52.4135 362.981 52.3914 362.574 52.4294C362.353 52.4501 362.384 52.5169 362.162 52.5304C361.95 52.5429 361.841 52.437 361.672 52.5493C361.395 52.7335 361.864 53.3082 361.668 53.5835C361.442 53.8999 361.346 53.4918 361.496 53.861C361.621 54.1661 360.892 54.1583 361.106 54.3975C361.255 54.5644 361.426 54.7118 361.586 54.8694C361.834 55.1143 362.109 55.3058 362.458 55.3879C362.669 55.4371 362.875 55.433 363.085 55.4185C363.234 55.408 363.391 55.4113 363.528 55.3625C363.969 55.204 364.31 54.9318 364.48 54.4677C364.622 54.08 364.701 53.6895 364.616 53.215L364.084 53.4918Z" fill="#DE6843"/>
<ellipse cx="1.89365" cy="1.89733" rx="1.89365" ry="1.89733" transform="matrix(0.221411 -0.975181 0.975385 0.220508 360.578 55.2231)" fill="#FDF6E9"/>
<path d="M138.917 68.9776C138.82 68.8498 138.73 68.7288 138.638 68.6093C138.293 68.1588 138.027 67.668 137.845 67.1315C137.637 66.5209 137.696 65.9229 137.89 65.3278C138.067 64.789 138.301 64.2775 138.606 63.8029C138.887 63.3639 139.3 63.0858 139.792 62.9206C140.22 62.7775 140.66 62.7158 141.11 62.7588C141.768 62.8209 142.373 63.0352 142.89 63.4682C143.155 63.6903 143.407 63.9252 143.638 64.1855C143.788 64.3541 143.923 64.5283 144.04 64.7195C144.048 64.732 144.064 64.7389 144.075 64.7483C144.191 64.5899 144.301 64.4322 144.417 64.2795C144.643 63.9826 144.914 63.7314 145.221 63.5188C145.681 63.2008 146.18 62.9715 146.726 62.8489C147.201 62.7418 147.673 62.73 148.133 62.9457C148.384 63.0638 148.605 63.2249 148.801 63.4198C148.973 63.5921 149.148 63.7634 149.304 63.95C149.656 64.3703 149.859 64.8541 149.918 65.3984C149.951 65.6955 149.966 65.9889 149.912 66.285C149.854 66.6077 149.736 66.9075 149.584 67.1949C149.412 67.5177 149.194 67.8063 148.944 68.0721C148.815 68.2097 148.679 68.341 148.539 68.4828C148.601 68.5397 148.679 68.6113 148.758 68.6836C148.788 68.712 148.82 68.7382 148.849 68.7682C148.94 68.8634 149.039 68.9531 149.119 69.0564C149.261 69.2378 149.404 69.4206 149.522 69.6175C149.729 69.9639 149.895 70.3322 149.961 70.7333C150.013 71.0477 150.07 71.3615 150.032 71.6837C149.983 72.1004 149.827 72.4633 149.538 72.7679C149.218 73.1049 148.846 73.3711 148.434 73.5795C148.119 73.7387 147.775 73.8254 147.422 73.86C147.229 73.8789 147.034 73.8902 146.841 73.8814C146.552 73.8686 146.277 73.7732 146.008 73.6677C145.798 73.5856 145.596 73.4789 145.388 73.3886C145.36 73.3767 145.3 73.3813 145.286 73.402C145.068 73.7002 144.776 73.9069 144.467 74.0991C143.889 74.4567 143.249 74.6406 142.586 74.7518C142.122 74.8295 141.652 74.8701 141.183 74.7868C140.842 74.7258 140.503 74.6392 140.171 74.5357C139.755 74.4056 139.369 74.2066 139.015 73.9462C138.711 73.7232 138.466 73.4461 138.224 73.1613C137.996 72.8951 137.846 72.5955 137.789 72.256C137.756 72.0548 137.742 71.8486 137.748 71.6452C137.759 71.291 137.774 70.9327 137.905 70.5992C137.996 70.3674 138.112 70.1444 138.221 69.9198C138.374 69.6082 138.564 69.3229 138.825 69.0901C138.86 69.0593 138.885 69.017 138.917 68.9781L138.917 68.9776ZM142.838 69.4584C143.152 69.7733 143.366 69.9678 143.845 70.1368C143.551 69.198 143.649 69.1261 143.953 69.848C144.367 69.8206 144.345 69.8589 144.678 69.6225C144.859 69.4938 144.798 69.4519 144.984 69.3291C145.161 69.2123 145.309 69.2493 145.399 69.0674C145.546 68.7695 144.852 68.5067 144.883 68.1705C144.919 67.7836 145.207 68.0888 144.892 67.8446C144.63 67.6431 145.265 67.2851 144.96 67.185C144.747 67.1151 144.525 67.073 144.308 67.0167C143.97 66.9291 143.636 66.9007 143.293 67.0042C143.085 67.0673 142.909 67.174 142.735 67.2915C142.611 67.3751 142.473 67.4507 142.379 67.5615C142.078 67.919 141.919 68.3255 142.005 68.8119C142.077 69.2185 142.205 69.596 142.516 69.9641L142.838 69.4584Z" fill="#DE6843"/>
<ellipse cx="1.89382" cy="1.89717" rx="1.89382" ry="1.89717" transform="matrix(0.29823 0.954494 -0.954857 0.297064 145.002 66.2068)" fill="#FDF6E9"/>
<path d="M310.536 86.4153C310.294 85.8616 310.013 85.3179 309.815 84.7469C309.536 83.9425 309.298 83.1243 309.076 82.3014C308.895 81.6343 308.836 80.9523 308.92 80.2599C309.018 79.436 309.469 78.8555 310.152 78.4191C310.531 78.1778 310.92 77.978 311.383 78.0089C311.949 78.0465 312.478 78.2243 312.977 78.4865C313.789 78.9145 314.477 79.4944 315.132 80.1295C316.022 80.9966 316.823 81.9372 317.552 82.9401C318.939 84.8419 320.096 86.8697 320.933 89.0713C320.955 89.1311 320.989 89.1833 321.026 89.2612C321.389 88.8585 321.735 88.477 322.084 88.0952C323.704 86.3153 325.388 84.5977 327.35 83.1861C328.142 82.6156 328.975 82.1063 329.908 81.7864C330.793 81.484 331.647 81.5006 332.471 81.9894C332.987 82.2956 333.247 82.7695 333.44 83.3117C333.623 83.832 333.612 84.3642 333.585 84.9012C333.542 85.6874 333.396 86.4539 333.059 87.1638C332.735 87.8398 332.388 88.5115 331.967 89.1315C331.474 89.8561 330.908 90.529 330.345 91.2016C329.982 91.6369 329.561 92.0255 329.166 92.4345C328.702 92.912 328.242 93.3956 327.774 93.8669C327.5 94.1406 327.208 94.3965 326.899 94.6865C326.968 94.6962 327.015 94.708 327.061 94.7037C327.518 94.6766 327.974 94.6268 328.431 94.6257C329.583 94.6173 330.719 94.7442 331.825 95.079C332.834 95.384 333.792 95.8079 334.65 96.4173C335.659 97.1329 336.406 98.0494 336.725 99.2704C336.958 100.167 336.925 101.057 336.569 101.912C336.261 102.655 335.634 103.073 334.902 103.338C334.144 103.612 333.352 103.661 332.558 103.655C331.823 103.646 331.083 103.629 330.347 103.588C329.829 103.559 329.317 103.47 328.797 103.425C328.293 103.385 327.786 103.371 327.283 103.338C326.908 103.311 326.533 103.275 326.111 103.24C326.162 103.324 326.19 103.383 326.231 103.438C327.375 104.955 328.189 106.641 328.754 108.451C329.065 109.451 329.309 110.474 329.304 111.521C329.3 112.531 329.286 113.556 328.855 114.516C328.433 115.458 327.727 116.073 326.747 116.375C326.134 116.563 325.501 116.669 324.872 116.507C324.088 116.308 323.294 116.093 322.72 115.48C322.185 114.908 321.671 114.315 321.179 113.706C319.639 111.8 318.445 109.694 317.567 107.408C317.467 107.147 317.374 106.886 317.254 106.555C317.085 106.942 316.944 107.275 316.799 107.602C316.213 108.922 315.575 110.217 314.776 111.424C314.188 112.311 313.527 113.12 312.589 113.665C312.132 113.933 311.652 114.139 311.112 114.203C310.673 114.258 310.294 114.079 309.902 113.946C309.072 113.667 308.748 113.003 308.61 112.205C308.404 111.006 308.617 109.852 308.986 108.718C309.449 107.306 310.14 105.995 310.832 104.688C310.871 104.616 310.903 104.544 310.967 104.421C310.68 104.533 310.445 104.64 310.201 104.712C309.391 104.955 308.587 105.224 307.766 105.409C307.098 105.561 306.405 105.662 305.722 105.691C304.564 105.743 303.417 105.594 302.319 105.206C301.687 104.983 301.065 104.726 300.468 104.424C299.781 104.079 299.363 103.457 299.117 102.757C298.915 102.189 299.102 101.644 299.436 101.146C300.151 100.078 301.169 99.3522 302.227 98.662C303.374 97.9176 304.618 97.4019 305.929 97.0395C306.559 96.8656 307.202 96.7264 307.849 96.6226C308.943 96.4503 310.047 96.3161 311.146 96.1661C311.172 96.1637 311.197 96.1515 311.289 96.1232C310.91 95.9865 310.592 95.8733 310.274 95.7568C308.915 95.2668 307.596 94.6914 306.339 93.9733C305.406 93.4427 304.531 92.8252 303.744 92.1016C302.516 90.9765 301.533 89.6719 300.905 88.1185C300.644 87.4785 300.47 86.8172 300.463 86.1238C300.453 84.9875 301.004 84.1596 301.928 83.5471C302.383 83.2465 302.868 82.9919 303.412 82.9793C303.911 82.9678 304.426 83.0265 304.914 83.1398C306.036 83.4015 307.024 83.9692 307.964 84.6131C308.754 85.1573 309.518 85.7397 310.294 86.3048C310.364 86.3567 310.437 86.4052 310.507 86.4539L310.53 86.416L310.536 86.4153ZM322.952 98.4308C322.897 98.0906 322.835 97.7511 322.786 97.4103C322.649 96.449 322.188 95.6618 321.418 95.0832C320.869 94.6693 320.281 94.2917 319.672 93.9715C319.032 93.6314 318.339 93.4822 317.6 93.6469C316.593 93.8761 315.704 94.3092 315 95.0767C314.559 95.5585 314.12 96.0564 314.077 96.735C314.028 97.5185 314.025 98.3074 314.051 99.0936C314.071 99.7205 314.378 100.232 314.84 100.661C315.428 101.205 316.152 101.468 316.9 101.681C318.682 102.183 320.353 102.001 321.844 100.824C322.609 100.217 323.11 99.4749 322.952 98.4308Z" fill="#FDF6E9"/>
<ellipse cx="4.77013" cy="4.77061" rx="4.77013" ry="4.77061" transform="matrix(-0.691273 -0.722594 0.724075 -0.689721 318.374 104.743)" fill="#E14A68"/>
</g>
<defs>
<clipPath id="clip0_914_5908">
<rect width="393" height="183" fill="white"/>
</clipPath>
</defs>
</svg>
