<svg width="394" height="217" viewBox="0 0 394 217" fill="none" xmlns="http://www.w3.org/2000/svg">
<g clip-path="url(#clip0_921_6596)">
<path fill-rule="evenodd" clip-rule="evenodd" d="M350.003 70.2264C347.148 69.2213 342.601 68.0889 338.23 67.3002C336.067 66.9099 334.051 66.6229 332.403 66.4756C331.579 66.402 330.899 66.368 330.371 66.3663C329.884 66.3647 329.654 66.3915 329.615 66.396C329.609 66.3968 329.608 66.3969 329.611 66.3963C302.668 71.4665 275.094 82.6523 250.632 106.644L250.631 106.645C226.804 130.006 216.901 161.246 209.589 199.285C201.159 243.263 198.876 278.041 198.876 322.813V322.842C198.876 352.215 200.357 385.174 202.864 413.428C243.738 395.349 344.388 342.663 383.608 237.941L383.609 237.94C398.436 198.355 400.434 162.153 398.731 134.798C394.968 104.385 376.4 79.4425 350.017 70.2315L350.003 70.2264Z" fill="#E14A68"/>
<path fill-rule="evenodd" clip-rule="evenodd" d="M190.294 242.703C187.354 268.718 186.405 293.721 186.405 322.718V322.746C186.405 351.947 187.849 384.628 190.31 412.913C190.298 413.053 190.285 413.193 190.273 413.333C149.399 395.254 48.7495 342.568 9.52883 237.845L9.52873 237.845C-5.29882 198.26 -7.29684 162.058 -5.59394 134.702C-1.83069 104.29 16.7374 79.3471 43.1201 70.1361L43.1345 70.131C45.9894 69.1259 50.5368 67.9935 54.9077 67.2048C57.0707 66.8145 59.0861 66.5275 60.7344 66.3802C61.5582 66.3066 62.2378 66.2726 62.7661 66.2709C63.2531 66.2693 63.4828 66.2961 63.5218 66.3006C63.5281 66.3014 63.5294 66.3015 63.526 66.3009C90.4692 71.3711 118.043 82.5569 142.505 106.549L142.506 106.549C166.333 129.911 176.236 161.151 183.548 199.19C186.492 214.543 188.686 228.776 190.294 242.703Z" fill="#E14A68"/>
<path fill-rule="evenodd" clip-rule="evenodd" d="M207.499 11.3292C228.778 -1.15226 255.202 0.814148 285.867 11.0257C326.3 24.4968 337.925 46.6402 337.821 55.2952C336.054 55.0092 334.332 54.7811 332.767 54.6412C330.839 54.4689 328.589 54.3717 326.748 54.7181L326.747 54.7182C308.326 58.1846 289.427 64.3873 271.252 75.2477C261.494 56.823 249.894 41.17 235.512 30.9186C230.973 27.1341 225.413 23.1568 219.899 19.6592C215.868 16.7082 211.738 13.9375 207.499 11.3292Z" fill="#E14A68"/>
<path fill-rule="evenodd" clip-rule="evenodd" d="M276.083 115.207L276.084 115.209C287.228 144.638 283.511 175.634 274.23 213.016C263.531 256.014 251.148 288.177 232.463 328.571L232.451 328.597C223.951 346.971 214.087 366.608 204.155 385.066C205.371 364.346 206.048 342.732 206.048 322.747V322.718C206.048 293.719 205.098 268.715 202.157 242.699C203.766 228.773 205.96 214.542 208.903 199.19C216.215 161.151 226.118 129.911 249.945 106.55L249.946 106.549C255.358 101.241 260.922 96.5601 266.598 92.4334C269.921 99.622 273.07 107.247 276.083 115.207ZM196.226 202.854C196.581 200.91 196.948 198.949 197.328 196.971L197.328 196.968C204.724 158.497 215.151 124.158 241.693 98.1343C248.064 91.8865 254.631 86.4445 261.331 81.7069C252.031 63.9282 241.378 49.5729 228.672 40.5157L228.308 40.2565L227.965 39.9706C222.645 35.5347 215.58 30.6625 209.057 26.8493C205.806 24.949 202.861 23.4118 200.474 22.3513C199.607 21.966 198.916 21.6905 198.387 21.4951C197 22.1984 195.067 23.3737 192.623 25.0901C187.696 28.5513 181.54 33.6125 174.989 39.6731C161.88 51.8005 148.299 66.8987 140.458 79.456C139.308 81.5884 138.155 83.7968 137.007 86.0802C141.674 89.721 146.265 93.7272 150.759 98.1343C177.301 124.158 187.729 158.497 195.124 196.968L195.125 196.971C195.504 198.949 195.871 200.91 196.226 202.854ZM190.295 242.699C188.686 228.773 186.492 214.542 183.549 199.19C176.237 161.151 166.334 129.911 142.507 106.55L142.506 106.549C139.008 103.118 135.446 99.9486 131.831 97.0218C122.325 118.433 114.034 145.222 111.658 176.897L111.658 176.898C104.434 273.136 156.434 353.363 188.842 393.748C187.285 370.458 186.404 345.542 186.404 322.747V322.718C186.404 293.719 187.354 268.715 190.295 242.699Z" fill="#E14A68"/>
<path fill-rule="evenodd" clip-rule="evenodd" d="M192.297 11.2698C171.018 -1.21171 144.594 0.7547 113.929 10.9663C74.6003 24.0696 62.527 45.3782 61.9929 54.4972C63.2709 54.4594 64.5653 54.504 65.7038 54.7181L65.7044 54.7182C85.988 58.5351 106.852 65.6696 126.688 78.6868C127.392 77.8892 128.089 77.0967 128.78 76.3091C129.274 75.3718 129.767 74.4478 130.26 73.5374C144.822 50.0253 176.445 20.2299 191.726 11.694C191.916 11.5523 192.106 11.4109 192.297 11.2698Z" fill="#E14A68"/>
</g>
<defs>
<clipPath id="clip0_921_6596">
<rect width="393" height="216" fill="white" transform="translate(0.0678711 0.14502)"/>
</clipPath>
</defs>
</svg>
