<svg width="394" height="217" viewBox="0 0 394 217" fill="none" xmlns="http://www.w3.org/2000/svg">
<g clip-path="url(#clip0_921_6598)">
<path fill-rule="evenodd" clip-rule="evenodd" d="M350.057 70.2264C347.202 69.2213 342.655 68.0889 338.284 67.3002C336.121 66.9099 334.105 66.6229 332.457 66.4756C331.633 66.402 330.954 66.368 330.426 66.3663C329.938 66.3647 329.709 66.3915 329.67 66.396C329.663 66.3968 329.662 66.3969 329.666 66.3963C302.722 71.4665 275.149 82.6523 250.686 106.644L250.685 106.645C226.859 130.006 216.956 161.246 209.643 199.285C201.213 243.263 198.931 278.041 198.931 322.813V322.842C198.931 352.215 200.411 385.174 202.919 413.428C243.792 395.349 344.442 342.663 383.663 237.941L383.663 237.94C398.49 198.355 400.488 162.153 398.786 134.798C395.022 104.385 376.454 79.4425 350.072 70.2315L350.057 70.2264Z" fill="#E75F7A"/>
<path fill-rule="evenodd" clip-rule="evenodd" d="M190.349 242.703C187.408 268.718 186.459 293.721 186.459 322.718V322.746C186.459 351.947 187.903 384.628 190.364 412.913C190.352 413.053 190.34 413.193 190.327 413.333C149.453 395.254 48.8037 342.568 9.58303 237.845L9.58293 237.845C-5.24462 198.26 -7.24264 162.058 -5.53974 134.702C-1.7765 104.29 16.7916 79.3471 43.1743 70.1361L43.1887 70.131C46.0436 69.1259 50.591 67.9935 54.9619 67.2048C57.1249 66.8145 59.1403 66.5275 60.7886 66.3802C61.6124 66.3066 62.292 66.2726 62.8203 66.2709C63.3073 66.2693 63.537 66.2961 63.576 66.3006C63.5823 66.3014 63.5836 66.3015 63.5802 66.3009C90.5234 71.3711 118.097 82.5569 142.56 106.549L142.56 106.549C166.387 129.911 176.29 161.151 183.603 199.19C186.546 214.543 188.74 228.776 190.349 242.703Z" fill="#E75F7A"/>
<path fill-rule="evenodd" clip-rule="evenodd" d="M207.553 11.3292C228.833 -1.15226 255.257 0.814149 285.922 11.0257C326.354 24.4968 337.98 46.6402 337.875 55.2952C336.108 55.0092 334.387 54.7811 332.821 54.6412C330.893 54.4689 328.643 54.3717 326.802 54.7181L326.801 54.7182C308.38 58.1846 289.481 64.3873 271.307 75.2477C261.549 56.823 249.948 41.17 235.566 30.9186C231.027 27.1341 225.467 23.1568 219.953 19.6592C215.922 16.7082 211.792 13.9375 207.553 11.3292Z" fill="#E75F7A"/>
<path fill-rule="evenodd" clip-rule="evenodd" d="M276.137 115.207L276.138 115.209C287.282 144.638 283.566 175.634 274.285 213.016C263.585 256.014 251.202 288.177 232.517 328.571L232.505 328.597C224.005 346.971 214.141 366.608 204.21 385.066C205.426 364.346 206.102 342.732 206.102 322.747V322.718C206.102 293.719 205.153 268.715 202.212 242.699C203.821 228.773 206.014 214.542 208.957 199.19C216.27 161.151 226.173 129.911 249.999 106.55L250 106.549C255.412 101.241 260.976 96.5601 266.652 92.4334C269.975 99.622 273.124 107.247 276.137 115.207ZM196.28 202.854C196.636 200.91 197.003 198.949 197.382 196.971L197.382 196.968C204.778 158.497 215.205 124.158 241.747 98.1343C248.118 91.8865 254.685 86.4445 261.385 81.7069C252.086 63.9282 241.432 49.5729 228.726 40.5157L228.362 40.2565L228.019 39.9706C222.699 35.5347 215.634 30.6625 209.111 26.8493C205.861 24.949 202.915 23.4118 200.528 22.3513C199.661 21.966 198.97 21.6905 198.442 21.4951C197.054 22.1984 195.121 23.3737 192.677 25.0901C187.75 28.5513 181.594 33.6125 175.043 39.6731C161.934 51.8005 148.353 66.8987 140.512 79.456C139.362 81.5884 138.209 83.7968 137.061 86.0802C141.728 89.721 146.32 93.7272 150.813 98.1343C177.356 124.158 187.783 158.497 195.178 196.968L195.179 196.971C195.558 198.949 195.925 200.91 196.28 202.854ZM190.349 242.699C188.74 228.773 186.546 214.542 183.604 199.19C176.291 161.151 166.388 129.911 142.561 106.55L142.561 106.549C139.062 103.118 135.5 99.9486 131.885 97.0218C122.38 118.433 114.088 145.222 111.712 176.897L111.712 176.898C104.488 273.136 156.488 353.363 188.896 393.748C187.339 370.458 186.459 345.542 186.459 322.747V322.718C186.459 293.719 187.408 268.715 190.349 242.699Z" fill="#E75F7A"/>
<path fill-rule="evenodd" clip-rule="evenodd" d="M192.351 11.2698C171.072 -1.21171 144.648 0.7547 113.983 10.9663C74.6546 24.0696 62.5813 45.3782 62.0473 54.4972C63.3252 54.4594 64.6196 54.504 65.7581 54.7181L65.7587 54.7182C86.0424 58.5351 106.906 65.6696 126.742 78.6868C127.446 77.8892 128.143 77.0967 128.835 76.3091C129.328 75.3718 129.821 74.4478 130.314 73.5374C144.876 50.0253 176.499 20.2299 191.78 11.694C191.97 11.5523 192.161 11.4109 192.351 11.2698Z" fill="#E75F7A"/>
</g>
<defs>
<clipPath id="clip0_921_6598">
<rect width="393" height="216" fill="white" transform="translate(0.12207 0.14502)"/>
</clipPath>
</defs>
</svg>
