<svg width="393" height="183" viewBox="0 0 393 183" fill="none" xmlns="http://www.w3.org/2000/svg">
<g clip-path="url(#clip0_902_11030)">
<path d="M0 0H393V183H0V0Z" fill="#386159"/>
<path d="M0 0H393V183.394H0V0Z" fill="#386159"/>
<path d="M342.299 194.929H208.416C208.416 194.929 189.702 165.307 183.466 144.248C173.786 111.56 183.466 56.9292 183.466 56.9292H345.341L361.164 114.938L342.299 194.929Z" fill="#C64D27"/>
<ellipse cx="324.053" cy="89" rx="23.5287" ry="24.748" transform="rotate(11.6838 324.053 89)" fill="#EEA697"/>
<ellipse cx="196.053" cy="89" rx="23.5287" ry="24.748" transform="rotate(11.6838 196.053 89)" fill="#EEA697"/>
<path d="M238.164 158.577C238.164 158.577 240.596 186.54 239.38 194.443C236.058 216.029 298.384 198.09 297.145 195.051C290.457 178.637 294.105 154.929 294.105 154.929L266.742 165.263L238.164 158.577Z" fill="#EEA697"/>
<path d="M199.022 119.227C189.856 97.4059 191.898 64.4428 192.336 58.9294C192.774 53.416 192.84 42.6835 196.4 33.1383C206.166 6.9455 226.193 -7.45519 253.912 -8.94776C282.615 -10.4933 304.684 3.23073 316.907 29.4677C321.228 38.7439 321.608 44.8148 323.138 54.9452C326.679 78.3902 324.514 100.126 319.529 115.556C314.544 130.987 292.415 180.55 269.385 180.641C246.354 180.731 213.194 152.967 199.022 119.227Z" fill="#F2B5AC"/>
<path d="M205.133 76.5202C205.133 76.5202 201.375 69.1239 200.86 68.5123C200.346 67.9008 207.404 65.123 211.304 64.4102C214.838 63.7643 216.965 64.0178 220.51 64.6133C227.277 65.7501 231.146 67.7352 236.308 72.1636C240.024 75.3516 243.56 81.3257 243.56 81.3257L243.252 82.2775L242.303 82.6298C242.303 82.6298 237.517 76.2474 233.813 73.909C227.885 70.1659 222.983 69.0944 216.081 70.5171C211.252 71.5125 205.133 76.5202 205.133 76.5202Z" fill="black"/>
<path d="M224.891 70.4897C211.804 68.4424 205.657 76.5132 205.657 76.5132C205.657 76.5132 211.351 88.9485 223.881 89.2249C236.41 89.5014 242.544 82.0164 242.544 82.0164C242.544 82.0164 236.694 72.3361 224.891 70.4897Z" fill="#FDF6E9" stroke="black"/>
<g style="mix-blend-mode:plus-darker" opacity="0.8">
<path d="M237.664 76.5261C237.542 82.0476 232.296 86.4101 225.946 86.2701C219.597 86.13 214.548 81.5404 214.67 76.0189C214.792 70.4974 219.231 67.4086 225.581 67.5487C231.931 67.6888 237.692 75.2764 237.664 76.5261Z" fill="#613F38"/>
</g>
<path d="M311.01 70.2527C311.01 70.2527 313.945 62.4929 314.39 61.8292C314.835 61.1656 307.517 59.1687 303.563 58.8825C299.98 58.6232 297.893 59.1057 294.434 60.0816C287.83 61.9447 284.198 64.3374 279.546 69.2988C276.197 72.8707 273.33 79.1926 273.33 79.1926L273.739 80.1055L274.72 80.3529C274.72 80.3529 278.787 73.4896 282.215 70.7637C287.704 66.4004 292.461 64.8043 299.475 65.4709C304.384 65.9374 311.01 70.2527 311.01 70.2527Z" fill="black"/>
<path d="M290.715 66.3983C303.503 62.9454 310.488 70.3028 310.488 70.3028C310.488 70.3028 306.174 83.2818 293.749 84.9139C281.323 86.546 274.414 79.7694 274.414 79.7694C274.414 79.7694 279.181 69.5124 290.715 66.3983Z" fill="#FDF6E9" stroke="black"/>
<g style="mix-blend-mode:plus-darker" opacity="0.8">
<path d="M278.671 73.7828C279.39 79.2586 285.078 83.0272 291.375 82.2001C297.672 81.373 302.194 76.2635 301.475 70.7876C300.755 65.3118 296.007 62.7222 289.71 63.5493C283.413 64.3764 278.508 72.5435 278.671 73.7828Z" fill="#613F38"/>
</g>
<ellipse cx="226.618" cy="118.714" rx="2.5" ry="2.63158" transform="rotate(-4.12651 226.618 118.714)" fill="#DE6843" fill-opacity="0.2"/>
<ellipse cx="298.922" cy="109.777" rx="2.5" ry="2.63158" transform="rotate(-8.69289 298.922 109.777)" fill="#DE6843" fill-opacity="0.2"/>
<ellipse cx="240.341" cy="110.302" rx="2.5" ry="2.63158" transform="rotate(-4.12651 240.341 110.302)" fill="#DE6843" fill-opacity="0.2"/>
<ellipse cx="311.931" cy="100.3" rx="2.5" ry="2.63158" transform="rotate(-8.69289 311.931 100.3)" fill="#DE6843" fill-opacity="0.2"/>
<ellipse cx="211.446" cy="114.184" rx="2.5" ry="2.63158" transform="rotate(-4.12651 211.446 114.184)" fill="#DE6843" fill-opacity="0.2"/>
<ellipse cx="283.437" cy="106.469" rx="2.5" ry="2.63158" transform="rotate(-8.69289 283.437 106.469)" fill="#DE6843" fill-opacity="0.2"/>
<path d="M274.742 116.224C273.321 110.82 262.679 89.669 259.178 82.7829C258.772 81.9829 257.613 82.0931 257.355 82.9527C255.016 90.7414 247.725 115.475 248.099 119.979C248.544 125.341 263.578 131.094 263.578 131.094C263.578 131.094 276.446 122.706 274.742 116.224Z" fill="#EEA697"/>
<path d="M250.714 147.183C248.057 149.252 244.845 149.016 244.845 149.016C244.845 149.016 249.385 154.104 252.338 156.261C256.447 159.262 258.702 162.052 263.764 162.473C266.227 162.678 267.69 162.482 270.05 161.75C276.149 159.857 277.426 155.4 281.472 150.303L286.276 144.249C286.276 144.249 283.77 145.117 280.65 143.16C275.528 139.947 272.424 132.962 267.058 135.749C265.759 136.424 264.146 138.11 264.146 138.11C264.146 138.11 262.202 136.789 260.772 136.472C255.48 135.297 254.992 143.852 250.714 147.183Z" fill="#E14A68"/>
<path d="M265.5 151C267.015 150.809 272.5 147.5 272.5 147.5C272.5 147.5 268.127 145.097 265.124 145.466C261.281 145.937 258.5 149.5 258.5 149.5C258.5 149.5 264.512 151.125 265.5 151Z" fill="#FDF6E9"/>
<path fill-rule="evenodd" clip-rule="evenodd" d="M136.236 200.975C136.236 200.975 134.733 177.505 134.56 161.761C134.43 149.993 138.939 142.201 143.777 133.841C147.123 128.061 150.625 122.009 152.859 114.183C156.831 100.268 156.653 87.844 156.481 75.9136C156.268 61.0975 156.065 47.0426 163.838 31.8375C166.141 27.3333 168.2 22.9994 170.149 18.8977C180.075 -1.99666 187.141 -16.8693 208.976 -17.5699C215.474 -17.7784 225.445 -15.13 225.445 -15.13C225.445 -15.13 236.705 -25.5342 245.574 -29.1593C257.313 -33.957 265.728 -35.756 277.902 -32.2092C287.739 -29.3436 292.625 -24.1586 298.978 -17.4178C300.217 -16.1025 301.512 -14.7281 302.911 -13.3001C311.746 -4.28048 315.584 4.22983 319.773 13.5203C322.348 19.2314 325.056 25.2373 329.14 31.8375C334.102 39.857 338.716 46.0929 343.149 52.0842C349.462 60.6158 355.408 68.6514 361.468 80.635C370.892 99.27 376.298 110.172 380.377 130.652C380.603 131.786 380.824 132.883 381.039 133.948C383.536 146.329 385.195 154.554 383.427 167.861C381.671 181.078 372.448 200.189 372.448 200.189H291.319L136.236 200.975ZM181.524 91.6147C182.991 78.9469 185.794 74.5356 199.213 64.1661C204.622 59.9869 210.925 55.6107 216.882 51.4754C225.705 45.3503 233.767 39.7536 237.031 36.1076C242.5 30 246.257 20.0955 244 11.067C241.743 2.03854 237.031 -1.71047 237.031 -1.71047C237.031 -1.71047 244.351 -4.79218 252.891 -4.79218C261.43 -4.79218 266.406 -3.90418 269.97 -1.13237C275.46 3.13741 276.68 11.067 276.68 11.067C276.68 11.067 278.667 25.0588 286.439 33.0577C290.668 37.411 295.748 37.9382 300.878 38.4707C305.811 38.9827 310.791 39.4996 315.107 43.4272C318.108 46.1572 320.704 56.4492 321.208 60.4745C322.428 70.234 322.428 76.3336 322.428 76.3336C322.428 76.3336 345.5 54 343 94.5C342.476 102.996 335.768 116.707 329.746 122.723C294.368 158.069 303.519 200.157 303.519 200.157H235.812C235.812 200.157 233.955 173.929 191.894 126.961C184.451 118.649 180.241 102.698 181.524 91.6147Z" fill="#DE6843"/>
<path d="M271 62.9999C268.5 62.9999 268 59.4999 270.5 56.4999C273 53.5 292 40.9999 304.5 48.4999C308.083 50.6499 313 53.9999 313 53.9999C313 53.9999 307.826 52.751 304.5 51.9999C289 48.4999 273.5 63 271 62.9999Z" fill="#613F38"/>
<path d="M270.5 56.4999L270.116 56.1799H270.116L270.5 56.4999ZM304.5 51.9999L304.39 52.4877L304.5 51.9999ZM313 53.9999L312.883 54.486C313.117 54.5426 313.359 54.4234 313.457 54.2027C313.555 53.9819 313.481 53.7227 313.282 53.5867L313 53.9999ZM304.5 48.4999L304.243 48.9287L304.5 48.4999ZM270.116 56.1799C268.801 57.7579 268.236 59.5119 268.378 60.9247C268.448 61.6334 268.701 62.2785 269.155 62.7521C269.616 63.2331 270.25 63.4999 271 63.4999L271 62.4999C270.5 62.4999 270.134 62.3292 269.877 62.0602C269.612 61.7838 269.427 61.3664 269.373 60.8252C269.264 59.7379 269.699 58.242 270.884 56.82L270.116 56.1799ZM271 63.4999C271.258 63.4999 271.54 63.4115 271.809 63.3C272.09 63.1836 272.412 63.0187 272.766 62.8196C273.474 62.4217 274.358 61.8606 275.378 61.2106C277.427 59.9048 280.066 58.2132 283.106 56.631C289.2 53.4596 296.816 50.7775 304.39 52.4877L304.61 51.5122C296.684 49.7224 288.8 52.5403 282.644 55.7439C279.559 57.3492 276.886 59.0639 274.841 60.3674C273.814 61.0221 272.955 61.5664 272.277 61.9478C271.937 62.1384 271.655 62.2816 271.427 62.3759C271.187 62.4751 271.055 62.4999 271 62.4999L271 63.4999ZM304.39 52.4877C306.05 52.8626 308.173 53.362 309.882 53.7681C310.736 53.971 311.486 54.1505 312.023 54.2793C312.291 54.3436 312.506 54.3953 312.654 54.4309C312.728 54.4487 312.785 54.4625 312.824 54.4718C312.843 54.4765 312.858 54.48 312.868 54.4824C312.873 54.4836 312.876 54.4845 312.879 54.4851C312.88 54.4854 312.881 54.4856 312.882 54.4858C312.882 54.4858 312.882 54.4859 312.882 54.4859C312.883 54.4859 312.883 54.486 312.883 54.486C312.883 54.486 312.883 54.486 313 53.9999C313.117 53.5139 313.117 53.5139 313.117 53.5139C313.117 53.5139 313.117 53.5139 313.117 53.5138C313.117 53.5138 313.117 53.5137 313.116 53.5137C313.116 53.5135 313.115 53.5133 313.114 53.513C313.111 53.5124 313.107 53.5115 313.102 53.5103C313.092 53.5079 313.078 53.5043 313.058 53.4997C313.02 53.4903 312.962 53.4765 312.888 53.4587C312.74 53.423 312.525 53.3713 312.256 53.3069C311.719 53.178 310.968 52.9983 310.113 52.7951C308.403 52.389 306.276 51.8884 304.61 51.5122L304.39 52.4877ZM313 53.9999C313.282 53.5867 313.282 53.5867 313.281 53.5867C313.281 53.5867 313.281 53.5866 313.281 53.5866C313.281 53.5864 313.281 53.5863 313.281 53.5861C313.28 53.5857 313.279 53.585 313.278 53.5842C313.275 53.5826 313.272 53.5801 313.267 53.5769C313.258 53.5704 313.243 53.5608 313.225 53.5482C313.188 53.523 313.133 53.4859 313.062 53.4378C312.92 53.3417 312.714 53.2022 312.455 53.028C311.937 52.6797 311.209 52.1929 310.369 51.6388C308.69 50.5315 306.558 49.1518 304.757 48.0712L304.243 48.9287C306.025 49.9981 308.143 51.3683 309.818 52.4736C310.655 53.0257 311.381 53.5108 311.897 53.8578C312.155 54.0313 312.36 54.1702 312.501 54.2658C312.572 54.3135 312.626 54.3504 312.663 54.3754C312.681 54.3878 312.695 54.3973 312.705 54.4036C312.709 54.4068 312.713 54.4092 312.715 54.4108C312.716 54.4116 312.717 54.4122 312.718 54.4126C312.718 54.4128 312.718 54.4129 312.718 54.413C312.718 54.4131 312.718 54.4131 312.718 54.4131C312.718 54.4131 312.718 54.4131 313 53.9999ZM304.757 48.0712C298.303 44.1985 290.236 45.5178 283.57 48.0961C280.222 49.3908 277.193 51.016 274.842 52.5074C272.507 53.9881 270.794 55.3663 270.116 56.1799L270.884 56.82C271.456 56.1336 273.056 54.8243 275.377 53.3519C277.682 51.8902 280.653 50.2966 283.93 49.0288C290.514 46.4821 298.197 45.3014 304.243 48.9287L304.757 48.0712Z" fill="#613F38"/>
<path d="M245 67.861C247.5 67.861 248 64.361 245.5 61.361C243 58.3611 224 45.861 211.5 53.361C207.917 55.511 203 58.861 203 58.861C203 58.861 208.174 57.6121 211.5 56.861C227 53.361 242.5 67.8611 245 67.861Z" fill="#613F38"/>
<path d="M245.5 61.361L245.884 61.0409H245.884L245.5 61.361ZM211.5 56.861L211.61 57.3487L211.5 56.861ZM203 58.861L203.117 59.3471C202.883 59.4037 202.641 59.2845 202.543 59.0638C202.445 58.843 202.519 58.5838 202.718 58.4478L203 58.861ZM211.5 53.361L211.757 53.7898L211.5 53.361ZM245.884 61.0409C247.199 62.619 247.764 64.373 247.622 65.7857C247.552 66.4945 247.299 67.1396 246.845 67.6132C246.384 68.0942 245.75 68.361 245 68.361L245 67.361C245.5 67.361 245.866 67.1903 246.123 66.9213C246.388 66.6449 246.573 66.2275 246.627 65.6863C246.736 64.599 246.301 63.103 245.116 61.6811L245.884 61.0409ZM245 68.361C244.742 68.361 244.46 68.2725 244.191 68.1611C243.91 68.0447 243.588 67.8797 243.234 67.6807C242.526 67.2828 241.642 66.7217 240.622 66.0717C238.573 64.7659 235.934 63.0743 232.894 61.4921C226.8 58.3207 219.184 55.6386 211.61 57.3487L211.39 56.3733C219.316 54.5834 227.2 57.4014 233.356 60.605C236.441 62.2103 239.114 63.9249 241.159 65.2285C242.186 65.8831 243.045 66.4275 243.723 66.8089C244.063 66.9995 244.345 67.1427 244.573 67.237C244.813 67.3362 244.945 67.361 245 67.361L245 68.361ZM211.61 57.3487C209.95 57.7236 207.827 58.2231 206.118 58.6291C205.264 58.8321 204.514 59.0116 203.977 59.1404C203.709 59.2047 203.494 59.2564 203.346 59.292C203.272 59.3098 203.215 59.3236 203.176 59.3329C203.157 59.3375 203.142 59.3411 203.132 59.3435C203.127 59.3447 203.124 59.3456 203.121 59.3462C203.12 59.3465 203.119 59.3467 203.118 59.3468C203.118 59.3469 203.118 59.347 203.118 59.347C203.117 59.347 203.117 59.347 203.117 59.347C203.117 59.3471 203.117 59.3471 203 58.861C202.883 58.375 202.883 58.375 202.883 58.375C202.883 58.375 202.883 58.3749 202.883 58.3749C202.883 58.3749 202.883 58.3748 202.884 58.3747C202.884 58.3746 202.885 58.3744 202.886 58.3741C202.889 58.3735 202.893 58.3726 202.898 58.3714C202.908 58.369 202.922 58.3654 202.942 58.3607C202.98 58.3514 203.038 58.3376 203.112 58.3198C203.26 58.2841 203.475 58.2324 203.744 58.1679C204.281 58.0391 205.032 57.8594 205.887 57.6562C207.597 57.25 209.724 56.7495 211.39 56.3733L211.61 57.3487ZM203 58.861C202.718 58.4478 202.718 58.4478 202.719 58.4478C202.719 58.4477 202.719 58.4477 202.719 58.4476C202.719 58.4475 202.719 58.4474 202.719 58.4472C202.72 58.4467 202.721 58.4461 202.722 58.4453C202.725 58.4436 202.728 58.4412 202.733 58.438C202.742 58.4315 202.757 58.4219 202.775 58.4093C202.812 58.3841 202.867 58.3469 202.938 58.2989C203.08 58.2028 203.286 58.0633 203.545 57.8891C204.063 57.5408 204.791 57.054 205.631 56.4999C207.31 55.3926 209.442 54.0129 211.243 52.9323L211.757 53.7898C209.975 54.8591 207.857 56.2294 206.182 57.3346C205.345 57.8868 204.619 58.3719 204.103 58.7189C203.845 58.8924 203.64 59.0313 203.499 59.1269C203.428 59.1746 203.374 59.2115 203.337 59.2364C203.319 59.2489 203.305 59.2584 203.295 59.2647C203.291 59.2679 203.287 59.2703 203.285 59.2719C203.284 59.2727 203.283 59.2733 203.282 59.2737C203.282 59.2739 203.282 59.274 203.282 59.2741C203.282 59.2741 203.282 59.2742 203.282 59.2742C203.282 59.2742 203.282 59.2742 203 58.861ZM211.243 52.9323C217.697 49.0596 225.764 50.3789 232.43 52.9572C235.778 54.2519 238.807 55.8771 241.158 57.3685C243.493 58.8492 245.206 60.2274 245.884 61.0409L245.116 61.6811C244.544 60.9947 242.944 59.6853 240.623 58.213C238.318 56.7513 235.347 55.1576 232.07 53.8899C225.486 51.3432 217.803 50.1624 211.757 53.7898L211.243 52.9323Z" fill="#613F38"/>
<path d="M213.164 141.487C213.077 141.622 212.994 141.749 212.913 141.876C212.606 142.354 212.235 142.773 211.792 143.128C211.288 143.532 210.704 143.681 210.077 143.702C209.51 143.721 208.948 143.677 208.397 143.552C207.887 143.438 207.484 143.146 207.16 142.739C206.879 142.386 206.671 141.994 206.558 141.557C206.391 140.916 206.386 140.275 206.617 139.641C206.736 139.315 206.871 138.998 207.038 138.692C207.145 138.494 207.263 138.307 207.403 138.131C207.412 138.12 207.413 138.102 207.418 138.088C207.23 138.034 207.043 137.984 206.86 137.927C206.503 137.817 206.174 137.649 205.868 137.432C205.412 137.11 205.026 136.719 204.723 136.248C204.46 135.838 204.288 135.398 204.334 134.892C204.359 134.616 204.435 134.353 204.552 134.102C204.655 133.881 204.757 133.658 204.879 133.447C205.155 132.973 205.541 132.616 206.033 132.374C206.302 132.242 206.573 132.127 206.871 132.077C207.195 132.021 207.517 132.029 207.84 132.073C208.202 132.124 208.549 132.231 208.885 132.374C209.058 132.448 209.229 132.532 209.41 132.615C209.442 132.537 209.483 132.439 209.524 132.34C209.54 132.301 209.554 132.262 209.573 132.225C209.631 132.107 209.682 131.983 209.752 131.872C209.874 131.678 209.997 131.48 210.143 131.302C210.398 130.989 210.688 130.707 211.044 130.508C211.322 130.351 211.598 130.19 211.914 130.115C212.324 130.019 212.719 130.041 213.104 130.208C213.531 130.393 213.909 130.652 214.246 130.968C214.504 131.209 214.703 131.502 214.856 131.823C214.94 131.997 215.017 132.176 215.075 132.361C215.161 132.638 215.166 132.929 215.158 133.217C215.153 133.443 215.121 133.669 215.107 133.896C215.105 133.926 215.13 133.98 215.155 133.987C215.51 134.089 215.804 134.293 216.091 134.518C216.625 134.939 217.017 135.477 217.348 136.062C217.58 136.471 217.779 136.9 217.861 137.368C217.92 137.71 217.954 138.058 217.97 138.405C217.99 138.841 217.934 139.272 217.81 139.694C217.704 140.056 217.527 140.381 217.341 140.706C217.168 141.011 216.937 141.255 216.637 141.425C216.459 141.525 216.27 141.609 216.076 141.673C215.739 141.784 215.396 141.892 215.037 141.883C214.788 141.877 214.538 141.845 214.289 141.819C213.944 141.782 213.61 141.701 213.302 141.536C213.261 141.513 213.212 141.504 213.165 141.488L213.164 141.487ZM212.277 137.638C212.466 137.235 212.576 136.967 212.572 136.459C211.788 137.057 211.687 136.989 212.263 136.456C212.096 136.077 212.139 136.085 211.803 135.853C211.62 135.726 211.601 135.798 211.422 135.666C211.251 135.539 211.236 135.388 211.034 135.366C210.703 135.329 210.693 136.072 210.365 136.157C209.988 136.256 210.177 135.88 210.055 136.261C209.955 136.575 209.401 136.101 209.411 136.422C209.417 136.646 209.454 136.869 209.475 137.093C209.508 137.441 209.595 137.764 209.81 138.051C209.941 138.225 210.101 138.354 210.272 138.477C210.392 138.565 210.511 138.668 210.647 138.719C211.087 138.88 211.524 138.89 211.953 138.642C212.311 138.436 212.623 138.186 212.863 137.767L212.277 137.638Z" fill="#FDF6E9"/>
<circle cx="211.134" cy="137.077" r="1.89753" transform="rotate(-37.2992 211.134 137.077)" fill="#E14A68"/>
<path d="M306.963 157.916C306.826 158 306.697 158.078 306.568 158.157C306.085 158.455 305.569 158.671 305.015 158.798C304.386 158.944 303.795 158.825 303.221 158.572C302.702 158.343 302.215 158.059 301.772 157.708C301.363 157.384 301.127 156.945 301.011 156.439C300.911 155.999 300.894 155.555 300.981 155.112C301.109 154.463 301.383 153.882 301.867 153.411C302.115 153.17 302.374 152.943 302.657 152.739C302.84 152.607 303.027 152.49 303.229 152.392C303.243 152.386 303.251 152.371 303.262 152.36C303.115 152.23 302.969 152.104 302.828 151.973C302.555 151.718 302.331 151.424 302.15 151.097C301.879 150.608 301.7 150.088 301.633 149.533C301.573 149.05 301.609 148.578 301.87 148.142C302.012 147.905 302.195 147.7 302.409 147.526C302.598 147.371 302.787 147.214 302.988 147.077C303.442 146.77 303.945 146.616 304.494 146.611C304.793 146.608 305.087 146.623 305.377 146.707C305.693 146.797 305.98 146.944 306.252 147.124C306.556 147.327 306.822 147.573 307.062 147.848C307.187 147.991 307.304 148.14 307.431 148.293C307.494 148.237 307.574 148.166 307.654 148.095C307.685 148.068 307.714 148.039 307.747 148.013C307.851 147.932 307.95 147.842 308.061 147.773C308.256 147.65 308.453 147.526 308.661 147.428C309.027 147.257 309.411 147.129 309.818 147.104C310.136 147.084 310.455 147.058 310.772 147.128C311.183 147.219 311.529 147.41 311.804 147.728C312.108 148.08 312.336 148.477 312.503 148.908C312.63 149.238 312.682 149.588 312.682 149.943C312.681 150.136 312.673 150.331 312.645 150.523C312.603 150.81 312.481 151.074 312.349 151.33C312.246 151.531 312.119 151.721 312.008 151.92C311.994 151.946 311.992 152.006 312.012 152.022C312.287 152.269 312.464 152.58 312.625 152.907C312.924 153.518 313.043 154.173 313.088 154.843C313.119 155.313 313.112 155.785 312.982 156.243C312.887 156.576 312.767 156.905 312.631 157.225C312.46 157.626 312.223 157.99 311.928 158.316C311.675 158.596 311.374 158.812 311.066 159.025C310.778 159.225 310.464 159.344 310.12 159.367C309.916 159.38 309.709 159.373 309.506 159.347C309.154 159.301 308.799 159.249 308.479 159.085C308.257 158.972 308.046 158.834 307.833 158.703C307.538 158.52 307.272 158.302 307.066 158.019C307.039 157.981 306.999 157.952 306.964 157.916L306.963 157.916ZM307.835 154.063C308.18 153.782 308.395 153.588 308.612 153.129C307.646 153.327 307.584 153.222 308.334 152.992C308.349 152.578 308.385 152.604 308.182 152.249C308.072 152.055 308.024 152.112 307.92 151.915C307.821 151.727 307.873 151.584 307.701 151.476C307.418 151.3 307.087 151.964 306.755 151.899C306.373 151.824 306.706 151.568 306.431 151.858C306.204 152.098 305.91 151.43 305.78 151.724C305.689 151.928 305.625 152.145 305.547 152.356C305.426 152.684 305.364 153.013 305.433 153.365C305.475 153.578 305.564 153.764 305.664 153.949C305.735 154.08 305.796 154.225 305.897 154.329C306.224 154.665 306.613 154.864 307.107 154.827C307.519 154.796 307.908 154.707 308.307 154.434L307.835 154.063Z" fill="#FDF6E9"/>
<circle cx="307.048" cy="153.062" r="1.89753" transform="rotate(-11.5813 307.048 153.062)" fill="#E14A68"/>
<path d="M147.418 108.248C147.161 107.66 146.864 107.083 146.654 106.477C146.358 105.622 146.106 104.753 145.87 103.88C145.678 103.171 145.616 102.447 145.705 101.712C145.809 100.837 146.287 100.22 147.011 99.7568C147.412 99.5006 147.825 99.2883 148.316 99.3212C148.915 99.361 149.476 99.5499 150.004 99.8283C150.864 100.283 151.594 100.899 152.288 101.573C153.23 102.494 154.08 103.493 154.853 104.558C156.322 106.577 157.548 108.731 158.434 111.069C158.458 111.132 158.494 111.188 158.533 111.271C158.918 110.843 159.285 110.438 159.654 110.032C161.371 108.142 163.156 106.318 165.235 104.819C166.074 104.213 166.956 103.672 167.945 103.333C168.883 103.011 169.788 103.029 170.661 103.548C171.208 103.873 171.484 104.377 171.688 104.952C171.882 105.505 171.87 106.07 171.841 106.64C171.796 107.475 171.642 108.289 171.285 109.043C170.941 109.761 170.573 110.474 170.127 111.133C169.605 111.902 169.005 112.617 168.409 113.331C168.023 113.793 167.578 114.206 167.159 114.64C166.668 115.147 166.18 115.661 165.685 116.162C165.394 116.452 165.084 116.724 164.757 117.032C164.831 117.042 164.88 117.055 164.928 117.05C165.413 117.021 165.896 116.968 166.381 116.967C167.601 116.958 168.805 117.093 169.977 117.449C171.046 117.773 172.061 118.223 172.971 118.87C174.04 119.63 174.831 120.603 175.169 121.9C175.416 122.852 175.381 123.797 175.004 124.705C174.677 125.494 174.014 125.937 173.237 126.219C172.435 126.51 171.595 126.562 170.754 126.556C169.974 126.547 169.19 126.528 168.411 126.484C167.861 126.454 167.319 126.36 166.768 126.312C166.235 126.269 165.697 126.255 165.164 126.219C164.767 126.191 164.369 126.153 163.922 126.116C163.976 126.204 164.006 126.267 164.049 126.325C165.262 127.937 166.124 129.727 166.722 131.649C167.052 132.711 167.311 133.798 167.306 134.909C167.301 135.982 167.287 137.07 166.83 138.089C166.382 139.091 165.634 139.743 164.595 140.063C163.947 140.264 163.276 140.376 162.609 140.204C161.779 139.992 160.937 139.765 160.328 139.113C159.762 138.506 159.217 137.876 158.695 137.23C157.063 135.205 155.798 132.969 154.868 130.542C154.762 130.265 154.663 129.987 154.536 129.635C154.358 130.047 154.208 130.4 154.054 130.747C153.433 132.149 152.758 133.525 151.911 134.806C151.287 135.748 150.587 136.607 149.593 137.186C149.108 137.471 148.6 137.689 148.028 137.757C147.563 137.815 147.161 137.625 146.746 137.485C145.867 137.188 145.523 136.483 145.376 135.636C145.158 134.362 145.384 133.136 145.775 131.933C146.265 130.433 146.998 129.041 147.731 127.653C147.772 127.576 147.807 127.501 147.874 127.37C147.57 127.488 147.321 127.602 147.062 127.679C146.204 127.937 145.353 128.222 144.482 128.419C143.774 128.58 143.04 128.688 142.316 128.719C141.09 128.773 139.874 128.615 138.71 128.204C138.04 127.966 137.381 127.693 136.748 127.373C136.021 127.006 135.578 126.346 135.317 125.602C135.104 125 135.301 124.42 135.656 123.892C136.413 122.757 137.492 121.987 138.613 121.254C139.828 120.463 141.146 119.915 142.536 119.531C143.203 119.346 143.885 119.198 144.57 119.088C145.729 118.905 146.899 118.762 148.064 118.603C148.091 118.601 148.118 118.588 148.215 118.558C147.814 118.412 147.477 118.292 147.14 118.169C145.699 117.648 144.302 117.037 142.97 116.274C141.982 115.711 141.054 115.055 140.22 114.287C138.919 113.092 137.877 111.707 137.211 110.057C136.936 109.377 136.751 108.675 136.743 107.939C136.732 106.732 137.317 105.853 138.296 105.202C138.778 104.883 139.292 104.613 139.869 104.599C140.397 104.587 140.943 104.65 141.46 104.77C142.649 105.048 143.696 105.651 144.692 106.334C145.529 106.912 146.339 107.531 147.161 108.131C147.235 108.186 147.313 108.238 147.387 108.289L147.411 108.249L147.418 108.248ZM160.574 121.008C160.516 120.647 160.45 120.286 160.398 119.924C160.253 118.904 159.765 118.068 158.949 117.453C158.367 117.014 157.744 116.613 157.099 116.273C156.421 115.911 155.686 115.753 154.903 115.928C153.836 116.171 152.894 116.631 152.148 117.446C151.681 117.958 151.216 118.487 151.17 119.207C151.118 120.039 151.114 120.877 151.142 121.712C151.164 122.378 151.489 122.921 151.979 123.376C152.601 123.954 153.368 124.234 154.162 124.46C156.05 124.993 157.821 124.8 159.401 123.549C160.211 122.904 160.742 122.117 160.574 121.008Z" fill="#FDF6E9"/>
<circle cx="155.889" cy="120.557" r="5.06044" transform="rotate(-133.669 155.889 120.557)" fill="#E14A68"/>
<path d="M111.206 70.0304C111.575 69.859 111.936 69.6621 112.318 69.52C112.855 69.3199 113.402 69.1472 113.953 68.9851C114.399 68.8529 114.857 68.8029 115.325 68.8487C115.881 68.9015 116.279 69.1953 116.583 69.6475C116.751 69.8982 116.892 70.1565 116.879 70.4683C116.862 70.8486 116.751 71.2072 116.582 71.5462C116.306 72.0981 115.927 72.5699 115.509 73.0199C114.939 73.6309 114.319 74.1841 113.655 74.6896C112.396 75.6508 111.049 76.4596 109.58 77.0563C109.54 77.0721 109.505 77.096 109.453 77.1219C109.73 77.3597 109.992 77.5859 110.255 77.8144C111.479 78.8748 112.661 79.9796 113.642 81.2756C114.039 81.7983 114.394 82.3501 114.624 82.9718C114.842 83.562 114.844 84.1359 114.528 84.697C114.33 85.0483 114.015 85.2309 113.653 85.3685C113.305 85.4999 112.947 85.5006 112.585 85.4908C112.055 85.4744 111.536 85.3885 111.053 85.1731C110.593 84.9659 110.135 84.743 109.711 84.4699C109.216 84.1503 108.754 83.7805 108.292 83.4129C107.994 83.1756 107.726 82.8994 107.444 82.6402C107.115 82.336 106.783 82.0345 106.458 81.7276C106.269 81.5476 106.093 81.3552 105.893 81.1523C105.887 81.1992 105.88 81.2308 105.883 81.2612C105.909 81.5684 105.95 81.8737 105.957 82.1808C105.981 82.9546 105.913 83.7194 105.705 84.4679C105.516 85.1504 105.245 85.8006 104.848 86.3867C104.382 87.0756 103.777 87.5918 102.96 87.8251C102.36 87.9954 101.76 87.9873 101.179 87.7614C100.674 87.5662 100.383 87.1519 100.193 86.6641C99.9968 86.1594 99.9513 85.628 99.943 85.0944C99.9372 84.6001 99.9376 84.1028 99.9537 83.6081C99.9651 83.2592 100.017 82.9143 100.039 82.5641C100.058 82.2252 100.059 81.884 100.074 81.5457C100.086 81.2935 100.104 81.0405 100.121 80.7569C100.066 80.7921 100.027 80.8121 99.9905 80.8406C98.9867 81.6329 97.8645 82.2061 96.6545 82.6136C95.986 82.8381 95.3012 83.0184 94.5966 83.0316C93.9161 83.0441 93.2261 83.0512 92.5732 82.7767C91.9319 82.5074 91.5072 82.043 91.2888 81.3891C91.1523 80.9807 91.0712 80.557 91.1704 80.1316C91.2924 79.6023 91.4244 79.0653 91.8285 78.6698C92.205 78.3017 92.5964 77.9473 92.9982 77.607C94.2578 76.5424 95.6569 75.7076 97.1821 75.0822C97.3562 75.011 97.5309 74.944 97.7517 74.8584C97.4882 74.7511 97.262 74.6613 97.0398 74.5689C96.1419 74.1959 95.2598 73.7879 94.4349 73.2698C93.8287 72.8886 93.2737 72.4572 92.892 71.8359C92.7042 71.5326 92.5585 71.2133 92.5069 70.8521C92.4632 70.5581 92.5778 70.3003 92.6608 70.0352C92.8361 69.4732 93.2776 69.2449 93.8128 69.1395C94.617 68.9825 95.3974 69.1077 96.1661 69.3377C97.1244 69.6266 98.0174 70.0706 98.9083 70.5149C98.9575 70.5399 99.0061 70.5605 99.0901 70.6011C99.0103 70.4104 98.9346 70.2544 98.8822 70.0912C98.706 69.5511 98.5126 69.0153 98.3748 68.4663C98.2625 68.0198 98.1833 67.5562 98.1531 67.0978C98.1005 66.3209 98.1826 65.5478 98.4265 64.8038C98.5671 64.3758 98.7304 63.9538 98.9243 63.548C99.1461 63.0817 99.5582 62.7908 100.026 62.6143C100.405 62.4704 100.775 62.587 101.115 62.8041C101.845 63.2674 102.35 63.9401 102.831 64.6398C103.35 65.3988 103.717 66.2265 103.981 67.1015C104.108 67.522 104.212 67.9519 104.292 68.3846C104.425 69.1168 104.532 69.8564 104.651 70.5926C104.653 70.6099 104.661 70.6265 104.682 70.6879C104.768 70.4313 104.839 70.216 104.913 70.0005C105.221 69.0795 105.588 68.1846 106.052 67.3288C106.395 66.6941 106.797 66.0964 107.272 65.5561C108.01 64.7139 108.873 64.033 109.909 63.5866C110.336 63.4018 110.778 63.2745 111.245 63.2587C112.01 63.234 112.576 63.5914 113.002 64.2029C113.212 64.5037 113.391 64.8256 113.408 65.191C113.423 65.5258 113.392 65.8727 113.323 66.202C113.165 66.96 112.798 67.6327 112.379 68.2742C112.025 68.8134 111.645 69.3359 111.276 69.8658C111.242 69.9138 111.211 69.9638 111.179 70.0115L111.205 70.026L111.206 70.0304ZM103.31 78.5592C103.538 78.5167 103.766 78.4699 103.995 78.4318C104.64 78.3245 105.162 78.0028 105.54 77.4763C105.81 77.101 106.055 76.7002 106.261 76.2863C106.48 75.8511 106.57 75.3829 106.447 74.8893C106.277 74.2164 105.972 73.6257 105.444 73.1647C105.113 72.8762 104.771 72.589 104.313 72.5707C103.785 72.5498 103.254 72.56 102.725 72.5898C102.303 72.6134 101.963 72.8275 101.682 73.1447C101.325 73.5479 101.159 74.0384 101.028 74.5445C100.717 75.7495 100.866 76.8693 101.682 77.8526C102.103 78.3571 102.61 78.6819 103.31 78.5592Z" fill="#DE6843"/>
<circle cx="103.528" cy="75.5823" r="3.20904" transform="rotate(-45 103.528 75.5823)" fill="#FDF6E9"/>
<path d="M53.8989 140.058C54.6394 140.261 55.4004 140.419 56.1228 140.679C57.1406 141.046 58.1391 141.464 59.1297 141.902C59.9336 142.256 60.6545 142.743 61.2719 143.379C62.0086 144.134 62.2232 145.042 62.1102 146.065C62.0469 146.631 61.9345 147.174 61.5346 147.607C61.047 148.134 60.4492 148.515 59.7927 148.797C58.7229 149.256 57.6008 149.473 56.4509 149.612C54.8851 149.797 53.3164 149.836 51.7439 149.755C48.759 149.604 45.8324 149.126 42.9889 148.193C42.9122 148.167 42.8333 148.16 42.7268 148.134C42.8355 148.814 42.9372 149.459 43.0367 150.109C43.5056 153.128 43.8614 156.161 43.6936 159.224C43.627 160.46 43.4666 161.689 43.0396 162.865C42.633 163.98 41.9361 164.809 40.7964 165.231C40.0826 165.496 39.4064 165.375 38.7172 165.131C38.0567 164.897 37.5395 164.461 37.0302 164.005C36.2869 163.335 35.6451 162.579 35.2121 161.68C34.8021 160.82 34.4148 159.941 34.1372 159.031C33.8134 157.966 33.5992 156.87 33.3828 155.778C33.242 155.072 33.1926 154.347 33.1032 153.63C33.0008 152.791 32.8893 151.951 32.7961 151.114C32.744 150.624 32.724 150.132 32.6833 149.595C32.6183 149.656 32.5693 149.693 32.5375 149.741C32.1995 150.215 31.8856 150.704 31.5224 151.156C30.6128 152.299 29.5826 153.318 28.37 154.142C27.2646 154.893 26.0821 155.5 24.7958 155.86C23.2845 156.284 21.7832 156.289 20.3219 155.629C19.2499 155.142 18.3966 154.399 17.835 153.365C17.346 152.468 17.4319 151.517 17.7534 150.582C18.0862 149.616 18.6688 148.795 19.3076 148.017C19.902 147.298 20.509 146.582 21.1355 145.889C21.5774 145.401 22.0722 144.967 22.5313 144.49C22.9723 144.025 23.3902 143.535 23.8242 143.066C24.1489 142.717 24.4839 142.376 24.8542 141.988C24.7318 141.971 24.6505 141.952 24.5636 141.949C22.1518 141.866 19.8367 141.322 17.5971 140.434C16.3605 139.942 15.1544 139.366 14.1236 138.526C13.1283 137.714 12.126 136.883 11.5205 135.691C10.9253 134.521 10.88 133.335 11.3629 132.127C11.6645 131.372 12.0645 130.663 12.726 130.171C13.5472 129.558 14.3923 128.945 15.4566 128.868C16.4477 128.798 17.4435 128.764 18.4372 128.764C21.5497 128.767 24.5827 129.271 27.5418 130.231C27.8795 130.341 28.2126 130.457 28.635 130.603C28.3864 130.127 28.1701 129.722 27.9628 129.318C27.1248 127.686 26.3518 126.022 25.7957 124.27C25.3876 122.982 25.1144 121.684 25.3224 120.324C25.4219 119.658 25.6015 119.02 25.9676 118.437C26.2633 117.96 26.7427 117.729 27.1854 117.448C28.1233 116.853 29.0376 117.062 29.9369 117.563C31.2865 118.318 32.2578 119.45 33.0843 120.719C34.112 122.303 34.8567 124.032 35.5979 125.758C35.6382 125.854 35.6831 125.943 35.7546 126.104C35.8722 125.732 35.9534 125.415 36.077 125.116C36.4818 124.124 36.8568 123.116 37.328 122.157C37.7107 121.377 38.162 120.613 38.6775 119.916C39.5493 118.733 40.6103 117.72 41.8689 116.946C42.5934 116.501 43.3433 116.092 44.1173 115.744C45.0055 115.343 45.9537 115.427 46.8421 115.743C47.5634 115.998 47.9543 116.617 48.1798 117.345C48.6666 118.903 48.5726 120.487 48.4123 122.081C48.2341 123.807 47.7527 125.446 47.0664 127.029C46.7363 127.789 46.3615 128.535 45.9489 129.256C45.2477 130.473 44.5005 131.669 43.7729 132.873C43.7547 132.901 43.7468 132.935 43.7015 133.048C44.1385 132.784 44.5036 132.561 44.8722 132.34C46.44 131.39 48.0596 130.549 49.7714 129.882C51.0389 129.386 52.3468 129.015 53.6897 128.816C55.7799 128.504 57.8533 128.575 59.8896 129.196C60.7297 129.451 61.5222 129.807 62.2136 130.353C63.3453 131.25 63.7245 132.455 63.5933 133.857C63.5282 134.545 63.3934 135.227 62.9722 135.774C62.5863 136.275 62.1179 136.736 61.6173 137.127C60.4644 138.025 59.1158 138.546 57.7302 138.959C56.5628 139.304 55.3781 139.593 54.2014 139.907C54.094 139.935 53.9878 139.968 53.8838 139.998L53.9035 140.051L53.8989 140.058ZM32.1267 142.712C32.507 142.929 32.892 143.139 33.2678 143.363C34.3277 143.995 35.4728 144.169 36.6587 143.871C37.5053 143.66 38.347 143.382 39.1485 143.037C39.9946 142.678 40.6947 142.113 41.1205 141.252C41.6962 140.076 41.9767 138.853 41.7789 137.545C41.6537 136.726 41.5113 135.895 40.8747 135.311C40.1394 134.636 39.362 134.003 38.5641 133.401C37.9278 132.921 37.1773 132.815 36.3853 132.928C35.3796 133.074 34.5421 133.577 33.7356 134.146C31.8193 135.503 30.6672 137.297 30.6435 139.708C30.6341 140.948 30.9683 142.034 32.1267 142.712Z" fill="#7B8C82"/>
<circle cx="36.0707" cy="138.69" r="6.05594" transform="rotate(-4.74143 36.0707 138.69)" fill="#FDF6E9"/>
<path d="M351.42 122.307C351.191 121.798 350.927 121.299 350.737 120.776C350.47 120.038 350.24 119.29 350.024 118.537C349.848 117.926 349.783 117.304 349.847 116.676C349.922 115.927 350.32 115.407 350.932 115.021C351.272 114.808 351.621 114.633 352.042 114.669C352.555 114.713 353.038 114.885 353.495 115.132C354.238 115.536 354.873 116.075 355.478 116.665C356.299 117.47 357.042 118.34 357.721 119.265C359.011 121.021 360.095 122.887 360.893 124.905C360.914 124.96 360.946 125.008 360.981 125.08C361.303 124.72 361.61 124.378 361.919 124.037C363.357 122.445 364.855 120.911 366.609 119.66C367.316 119.154 368.063 118.705 368.903 118.43C369.701 118.171 370.475 118.201 371.231 118.66C371.704 118.948 371.949 119.383 372.132 119.88C372.308 120.357 372.307 120.841 372.292 121.33C372.267 122.045 372.148 122.74 371.855 123.38C371.572 123.99 371.269 124.595 370.898 125.152C370.464 125.803 369.963 126.406 369.464 127.008C369.142 127.398 368.768 127.745 368.417 128.11C368.004 128.537 367.596 128.969 367.18 129.39C366.936 129.634 366.675 129.862 366.4 130.121C366.464 130.131 366.506 130.142 366.547 130.139C366.962 130.122 367.374 130.085 367.789 130.092C368.833 130.104 369.865 130.24 370.874 130.564C371.794 130.859 372.67 131.261 373.459 131.831C374.386 132.5 375.079 133.347 375.39 134.464C375.616 135.285 375.602 136.094 375.294 136.866C375.028 137.537 374.467 137.906 373.808 138.135C373.125 138.371 372.408 138.402 371.688 138.383C371.021 138.362 370.35 138.333 369.682 138.283C369.211 138.248 368.746 138.158 368.274 138.108C367.817 138.063 367.356 138.042 366.9 138.002C366.559 137.972 366.218 137.932 365.835 137.893C365.883 137.97 365.909 138.024 365.948 138.075C367.011 139.476 367.779 141.025 368.322 142.682C368.622 143.598 368.861 144.534 368.875 145.486C368.888 146.406 368.894 147.338 368.52 148.204C368.153 149.055 367.524 149.602 366.641 149.86C366.089 150.021 365.516 150.106 364.943 149.948C364.229 149.753 363.505 149.544 362.974 148.975C362.479 148.445 362.003 147.897 361.546 147.334C360.116 145.572 358.997 143.634 358.161 141.538C358.066 141.299 357.977 141.059 357.862 140.756C357.716 141.106 357.594 141.406 357.468 141.701C356.959 142.893 356.404 144.061 355.7 145.145C355.183 145.942 354.598 146.667 353.757 147.147C353.347 147.383 352.915 147.562 352.427 147.611C352.03 147.653 351.683 147.484 351.326 147.356C350.568 147.087 350.262 146.478 350.123 145.749C349.916 144.654 350.089 143.607 350.403 142.582C350.798 141.304 351.402 140.123 352.007 138.945C352.041 138.88 352.069 138.816 352.124 138.704C351.866 138.801 351.655 138.895 351.435 138.956C350.705 139.163 349.981 139.394 349.239 139.548C348.636 139.674 348.01 139.755 347.391 139.769C346.343 139.796 345.3 139.641 344.297 139.269C343.72 139.054 343.152 138.81 342.605 138.524C341.977 138.198 341.587 137.625 341.351 136.983C341.159 136.463 341.318 135.97 341.613 135.523C342.242 134.563 343.153 133.92 344.1 133.31C345.127 132.652 346.246 132.204 347.428 131.897C347.996 131.75 348.577 131.635 349.161 131.551C350.15 131.414 351.149 131.311 352.143 131.193C352.166 131.191 352.189 131.181 352.272 131.157C351.926 131.026 351.636 130.917 351.345 130.805C350.104 130.336 348.898 129.789 347.746 129.113C346.891 128.614 346.087 128.037 345.36 127.365C344.228 126.319 343.313 125.114 342.717 123.69C342.47 123.102 342.3 122.497 342.281 121.866C342.252 120.832 342.738 120.088 343.565 119.546C343.972 119.28 344.408 119.057 344.901 119.055C345.353 119.053 345.821 119.116 346.265 119.227C347.287 119.485 348.193 120.019 349.056 120.622C349.782 121.131 350.485 121.674 351.198 122.202C351.263 122.25 351.33 122.296 351.394 122.341L351.414 122.307L351.42 122.307ZM362.887 133.46C362.831 133.15 362.769 132.839 362.719 132.528C362.577 131.651 362.146 130.926 361.437 130.386C360.933 130 360.393 129.646 359.836 129.344C359.249 129.023 358.618 128.875 357.951 129.012C357.042 129.203 356.243 129.582 355.618 130.269C355.227 130.7 354.838 131.145 354.811 131.762C354.78 132.474 354.79 133.193 354.828 133.909C354.857 134.48 355.144 134.951 355.571 135.349C356.113 135.854 356.774 136.107 357.457 136.313C359.081 136.801 360.593 136.665 361.924 135.619C362.608 135.08 363.049 134.413 362.887 133.46Z" fill="#FDF6E9"/>
<ellipse cx="358.871" cy="132.996" rx="4.417" ry="4.25058" transform="rotate(-133.669 358.871 132.996)" fill="#E14A68"/>
</g>
<defs>
<clipPath id="clip0_902_11030">
<rect width="393" height="183" fill="white"/>
</clipPath>
</defs>
</svg>
