<svg width="80" height="80" viewBox="0 0 80 80" fill="none" xmlns="http://www.w3.org/2000/svg">
<g clip-path="url(#clip0_681_6120)">
<circle cx="40.2994" cy="39.7006" r="39.7006" fill="#E14A68"/>
<path d="M31.2056 25.7492C30.9013 25.0521 30.5491 24.3677 30.3001 23.6489C29.9494 22.6361 29.6504 21.6062 29.3713 20.5703C29.1437 19.7305 29.0702 18.8719 29.176 18.0003C29.2988 16.9631 29.8651 16.2323 30.7235 15.6829C31.1992 15.3792 31.6881 15.1276 32.2702 15.1665C32.9803 15.2138 33.6457 15.4377 34.2719 15.7678C35.2913 16.3066 36.1566 17.0366 36.9793 17.8362C38.0965 18.9277 39.1035 20.1118 40.0194 21.3743C41.761 23.7684 43.2141 26.3212 44.2655 29.0928C44.2932 29.1681 44.3364 29.2337 44.3826 29.3318C44.839 28.8249 45.2732 28.3446 45.7116 27.8639C47.7464 25.6233 49.8625 23.461 52.3271 21.684C53.3212 20.9658 54.3678 20.3247 55.5397 19.9219C56.6521 19.5412 57.7248 19.5622 58.7597 20.1775C59.4076 20.563 59.7351 21.1595 59.9765 21.8421C60.207 22.4971 60.1928 23.1671 60.1587 23.8431C60.1052 24.8328 59.9222 25.7978 59.4985 26.6914C59.0914 27.5424 58.6549 28.388 58.1262 29.1685C57.5074 30.0807 56.7963 30.9278 56.0892 31.7745C55.6327 32.3225 55.1049 32.8117 54.6083 33.3266C54.0255 33.9277 53.4476 34.5365 52.86 35.1298C52.5154 35.4744 52.1481 35.7965 51.7603 36.1616C51.8476 36.1738 51.9065 36.1887 51.9634 36.1833C52.5386 36.149 53.111 36.0864 53.6852 36.0851C55.1323 36.0745 56.5587 36.2341 57.9485 36.6557C59.2157 37.0397 60.4192 37.5733 61.4973 38.3404C62.7645 39.2413 63.7029 40.395 64.1036 41.9321C64.3956 43.0612 64.3545 44.1809 63.9072 45.2573C63.5203 46.1925 62.7335 46.7186 61.8136 47.0523C60.8618 47.3972 59.8668 47.4591 58.8692 47.4515C57.9452 47.4409 57.0159 47.4186 56.0921 47.367C55.4405 47.3306 54.7981 47.2194 54.1446 47.1627C53.5121 47.1121 52.8746 47.0948 52.2429 47.0524C51.7721 47.0192 51.3001 46.9739 50.7709 46.9299C50.8342 47.0346 50.87 47.1092 50.9216 47.1781C52.3587 49.0884 53.3811 51.2104 54.0903 53.4895C54.4809 54.7486 54.788 56.0362 54.7821 57.3536C54.776 58.6259 54.7593 59.9156 54.2179 61.124C53.6868 62.3109 52.8004 63.0844 51.569 63.4641C50.7998 63.7014 50.0043 63.8346 49.2137 63.6308C48.2299 63.3799 47.2319 63.1097 46.5103 62.3374C45.8388 61.6178 45.1934 60.8711 44.5749 60.1054C42.6399 57.7051 41.1406 55.0541 40.0381 52.1766C39.9125 51.8481 39.795 51.5188 39.6446 51.1024C39.4326 51.5902 39.255 52.0091 39.0726 52.4203C38.3364 54.082 37.5358 55.713 36.5317 57.232C35.7929 58.3484 34.9627 59.3669 33.785 60.0533C33.21 60.391 32.607 60.6494 31.9296 60.7303C31.3782 60.7992 30.9014 60.5738 30.4097 60.4073C29.367 60.0553 28.9594 59.2203 28.7858 58.2153C28.5273 56.7057 28.7951 55.2526 29.2583 53.826C29.8398 52.0477 30.7084 50.398 31.5774 48.7523C31.6261 48.6615 31.6668 48.5715 31.7464 48.4163C31.3865 48.5572 31.0916 48.6919 30.7844 48.7827C29.7674 49.0887 28.7576 49.4268 27.7256 49.6604C26.8863 49.851 26.0165 49.9789 25.1585 50.0154C23.7042 50.08 22.2629 49.8931 20.8832 49.4049C20.0893 49.1236 19.3078 48.8 18.5579 48.4201C17.696 47.9852 17.1703 47.2025 16.8608 46.3212C16.6082 45.6069 16.8423 44.92 17.2627 44.2934C18.1603 42.9486 19.4394 42.0351 20.7679 41.1662C22.2089 40.2291 23.7716 39.5799 25.4183 39.1237C26.2098 38.9048 27.0176 38.7295 27.8298 38.5989C29.2039 38.382 30.5908 38.2131 31.9717 38.0242C32.0042 38.0211 32.0356 38.0058 32.1512 37.9702C31.6753 37.7981 31.2762 37.6556 30.8766 37.509C29.1688 36.8921 27.5123 36.1677 25.933 35.2637C24.7618 34.5957 23.6623 33.8184 22.6731 32.9074C21.1312 31.4912 19.896 29.8489 19.1069 27.8933C18.78 27.0876 18.5613 26.2551 18.552 25.3822C18.539 23.9517 19.2315 22.9095 20.393 22.1385C20.9641 21.7601 21.5735 21.4395 22.2571 21.4237C22.8834 21.4092 23.5304 21.483 24.1429 21.6257C25.5526 21.9551 26.7939 22.6698 27.9745 23.4804C28.9668 24.1655 29.9268 24.8987 30.9011 25.61C30.9894 25.6754 31.0813 25.7364 31.1692 25.7978L31.1975 25.75L31.2056 25.7492ZM46.8021 40.8752C46.7326 40.447 46.655 40.0195 46.5937 39.5905C46.4211 38.3803 45.8427 37.3893 44.875 36.6609C44.1854 36.1399 43.4469 35.6646 42.6824 35.2615C41.8787 34.8334 41.0075 34.6455 40.0796 34.8528C38.8149 35.1413 37.6976 35.6866 36.8132 36.6528C36.2597 37.2593 35.7081 37.8861 35.654 38.7404C35.592 39.7267 35.588 40.7199 35.6207 41.7095C35.6466 42.4988 36.032 43.1431 36.6125 43.6827C37.3504 44.3673 38.2599 44.6992 39.2002 44.9666C41.4386 45.5986 43.5378 45.3702 45.4109 43.8874C46.3719 43.1232 47.001 42.1895 46.8021 40.8752Z" fill="#FDF6E9"/>
<circle cx="41.2487" cy="40.3394" r="5.99885" transform="rotate(-133.669 41.2487 40.3394)" fill="#EC8F9C"/>
</g>
<defs>
<clipPath id="clip0_681_6120">
<rect width="79.4012" height="79.4012" fill="white" transform="translate(0.598755)"/>
</clipPath>
</defs>
</svg>
