<svg width="80" height="80" viewBox="0 0 80 80" fill="none" xmlns="http://www.w3.org/2000/svg">
<g clip-path="url(#clip0_681_6058)">
<circle cx="39.7006" cy="39.7006" r="39.7006" fill="#E97F7F"/>
<path d="M30.6069 25.7492C30.3026 25.0521 29.9503 24.3677 29.7014 23.6489C29.3507 22.6361 29.0517 21.6062 28.7726 20.5703C28.545 19.7305 28.4715 18.8719 28.5772 18.0003C28.7 16.9631 29.2664 16.2323 30.1248 15.6829C30.6005 15.3792 31.0893 15.1276 31.6714 15.1665C32.3815 15.2138 33.0469 15.4377 33.6731 15.7678C34.6926 16.3066 35.5579 17.0366 36.3806 17.8362C37.4977 18.9277 38.5047 20.1118 39.4207 21.3743C41.1623 23.7684 42.6154 26.3212 43.6668 29.0928C43.6944 29.1681 43.7376 29.2337 43.7839 29.3318C44.2402 28.8249 44.6745 28.3446 45.1128 27.8639C47.1476 25.6233 49.2638 23.461 51.7283 21.684C52.7225 20.9658 53.7691 20.3247 54.9409 19.9219C56.0533 19.5412 57.126 19.5622 58.1609 20.1775C58.8089 20.563 59.1364 21.1595 59.3777 21.8421C59.6083 22.4971 59.5941 23.1671 59.56 23.8431C59.5065 24.8328 59.3234 25.7978 58.8998 26.6914C58.4926 27.5424 58.0562 28.388 57.5274 29.1685C56.9086 30.0807 56.1975 30.9278 55.4904 31.7745C55.0339 32.3225 54.5061 32.8117 54.0095 33.3266C53.4268 33.9277 52.8489 34.5365 52.2613 35.1298C51.9166 35.4744 51.5494 35.7965 51.1616 36.1616C51.2489 36.1738 51.3077 36.1887 51.3647 36.1833C51.9398 36.149 52.5123 36.0864 53.0865 36.0851C54.5336 36.0745 55.96 36.2341 57.3497 36.6557C58.617 37.0397 59.8205 37.5733 60.8985 38.3404C62.1657 39.2413 63.1042 40.395 63.5048 41.9321C63.7969 43.0612 63.7557 44.1809 63.3085 45.2573C62.9216 46.1925 62.1348 46.7186 61.2148 47.0523C60.2631 47.3972 59.268 47.4591 58.2704 47.4515C57.3464 47.4409 56.4172 47.4186 55.4933 47.367C54.8417 47.3306 54.1994 47.2194 53.5458 47.1627C52.9134 47.1121 52.2759 47.0948 51.6442 47.0524C51.1734 47.0192 50.7014 46.9739 50.1721 46.9299C50.2354 47.0346 50.2712 47.1092 50.3229 47.1781C51.76 49.0884 52.7824 51.2104 53.4915 53.4895C53.8821 54.7486 54.1892 56.0362 54.1833 57.3536C54.1772 58.6259 54.1605 59.9156 53.6191 61.124C53.088 62.3109 52.2017 63.0844 50.9702 63.4641C50.2011 63.7014 49.4056 63.8346 48.615 63.6308C47.6311 63.3799 46.6332 63.1097 45.9115 62.3374C45.24 61.6178 44.5946 60.8711 43.9762 60.1054C42.0412 57.7051 40.5418 55.0541 39.4393 52.1766C39.3137 51.8481 39.1962 51.5188 39.0458 51.1024C38.8338 51.5902 38.6562 52.0091 38.4738 52.4203C37.7377 54.082 36.9371 55.713 35.933 57.232C35.1941 58.3484 34.3639 59.3669 33.1863 60.0533C32.6113 60.391 32.0082 60.6494 31.3308 60.7303C30.7795 60.7992 30.3027 60.5738 29.811 60.4073C28.7683 60.0553 28.3606 59.2203 28.1871 58.2153C27.9285 56.7057 28.1964 55.2526 28.6596 53.826C29.2411 52.0477 30.1096 50.398 30.9786 48.7523C31.0274 48.6615 31.0681 48.5715 31.1476 48.4163C30.7877 48.5572 30.4929 48.6919 30.1856 48.7827C29.1687 49.0887 28.1589 49.4268 27.1268 49.6604C26.2876 49.851 25.4178 49.9789 24.5597 50.0154C23.1055 50.08 21.6642 49.8931 20.2845 49.4049C19.4906 49.1236 18.7091 48.8 17.9591 48.4201C17.0973 47.9852 16.5715 47.2025 16.2621 46.3212C16.0095 45.6069 16.2436 44.92 16.6639 44.2934C17.5615 42.9486 18.8406 42.0351 20.1691 41.1662C21.6101 40.2291 23.1728 39.5799 24.8196 39.1237C25.611 38.9048 26.4189 38.7295 27.231 38.5989C28.6051 38.382 29.9921 38.2131 31.373 38.0242C31.4055 38.0211 31.4369 38.0058 31.5524 37.9702C31.0766 37.7981 30.6774 37.6556 30.2779 37.509C28.57 36.8921 26.9135 36.1677 25.3342 35.2637C24.1631 34.5957 23.0635 33.8184 22.0743 32.9074C20.5325 31.4912 19.2973 29.8489 18.5081 27.8933C18.1812 27.0876 17.9625 26.2551 17.9533 25.3822C17.9402 23.9517 18.6328 22.9095 19.7942 22.1385C20.3653 21.7601 20.9748 21.4395 21.6584 21.4237C22.2846 21.4092 22.9316 21.483 23.5441 21.6257C24.9538 21.9551 26.1951 22.6698 27.3758 23.4804C28.3681 24.1655 29.3281 24.8987 30.3024 25.61C30.3906 25.6754 30.4826 25.7364 30.5705 25.7978L30.5987 25.75L30.6069 25.7492ZM46.2033 40.8752C46.1338 40.447 46.0562 40.0195 45.9949 39.5905C45.8223 38.3803 45.2439 37.3893 44.2762 36.6609C43.5867 36.1399 42.8482 35.6646 42.0837 35.2615C41.2799 34.8334 40.4088 34.6455 39.4809 34.8528C38.2161 35.1413 37.0988 35.6866 36.2144 36.6528C35.6609 37.2593 35.1093 37.8861 35.0552 38.7404C34.9932 39.7267 34.9893 40.7199 35.0219 41.7095C35.0478 42.4988 35.4332 43.1431 36.0137 43.6827C36.7517 44.3673 37.6611 44.6992 38.6014 44.9666C40.8399 45.5986 42.939 45.3702 44.8121 43.8874C45.7732 43.1232 46.4022 42.1895 46.2033 40.8752Z" fill="#FDF6E9"/>
<circle cx="40.65" cy="40.3396" r="5.99885" transform="rotate(-133.669 40.65 40.3396)" fill="#DE6843"/>
</g>
<defs>
<clipPath id="clip0_681_6058">
<rect width="79.4012" height="79.4012" fill="white"/>
</clipPath>
</defs>
</svg>
