<svg width="80" height="80" viewBox="0 0 80 80" fill="none" xmlns="http://www.w3.org/2000/svg">
<g clip-path="url(#clip0_738_6593)">
<circle cx="40" cy="39.7006" r="39.7006" fill="#2C685D"/>
<path d="M30.9062 25.7492C30.602 25.0521 30.2497 24.3677 30.0008 23.6489C29.6501 22.6361 29.351 21.6062 29.0719 20.5703C28.8443 19.7305 28.7708 18.8719 28.8766 18.0003C28.9994 16.9631 29.5657 16.2323 30.4242 15.6829C30.8998 15.3792 31.3887 15.1276 31.9708 15.1665C32.6809 15.2138 33.3463 15.4377 33.9725 15.7678C34.9919 16.3066 35.8572 17.0366 36.68 17.8362C37.7971 18.9277 38.8041 20.1118 39.7201 21.3743C41.4616 23.7684 42.9148 26.3212 43.9661 29.0928C43.9938 29.1681 44.037 29.2337 44.0833 29.3318C44.5396 28.8249 44.9738 28.3446 45.4122 27.8639C47.447 25.6233 49.5631 23.461 52.0277 21.684C53.0219 20.9658 54.0685 20.3247 55.2403 19.9219C56.3527 19.5412 57.4254 19.5622 58.4603 20.1775C59.1082 20.563 59.4358 21.1595 59.6771 21.8421C59.9076 22.4971 59.8935 23.1671 59.8593 23.8431C59.8058 24.8328 59.6228 25.7978 59.1992 26.6914C58.792 27.5424 58.3556 28.388 57.8268 29.1685C57.208 30.0807 56.4969 30.9278 55.7898 31.7745C55.3333 32.3225 54.8055 32.8117 54.3089 33.3266C53.7262 33.9277 53.1482 34.5365 52.5606 35.1298C52.216 35.4744 51.8487 35.7965 51.461 36.1616C51.5483 36.1738 51.6071 36.1887 51.664 36.1833C52.2392 36.149 52.8117 36.0864 53.3858 36.0851C54.833 36.0745 56.2593 36.2341 57.6491 36.6557C58.9163 37.0397 60.1199 37.5733 61.1979 38.3404C62.4651 39.2413 63.4036 40.395 63.8042 41.9321C64.0962 43.0612 64.0551 44.1809 63.6078 45.2573C63.221 46.1925 62.4342 46.7186 61.5142 47.0523C60.5625 47.3972 59.5674 47.4591 58.5698 47.4515C57.6458 47.4409 56.7165 47.4186 55.7927 47.367C55.1411 47.3306 54.4988 47.2194 53.8452 47.1627C53.2127 47.1121 52.5752 47.0948 51.9435 47.0524C51.4727 47.0192 51.0008 46.9739 50.4715 46.9299C50.5348 47.0346 50.5706 47.1092 50.6223 47.1781C52.0594 49.0884 53.0818 51.2104 53.7909 53.4895C54.1815 54.7486 54.4886 56.0362 54.4827 57.3536C54.4766 58.6259 54.4599 59.9156 53.9185 61.124C53.3874 62.3109 52.5011 63.0844 51.2696 63.4641C50.5004 63.7014 49.7049 63.8346 48.9143 63.6308C47.9305 63.3799 46.9326 63.1097 46.2109 62.3374C45.5394 61.6178 44.894 60.8711 44.2755 60.1054C42.3406 57.7051 40.8412 55.0541 39.7387 52.1766C39.6131 51.8481 39.4956 51.5188 39.3452 51.1024C39.1332 51.5902 38.9556 52.0091 38.7732 52.4203C38.0371 54.082 37.2364 55.713 36.2324 57.232C35.4935 58.3484 34.6633 59.3669 33.4856 60.0533C32.9106 60.391 32.3076 60.6494 31.6302 60.7303C31.0788 60.7992 30.602 60.5738 30.1103 60.4073C29.0677 60.0553 28.66 59.2203 28.4864 58.2153C28.2279 56.7057 28.4958 55.2526 28.9589 53.826C29.5404 52.0477 30.409 50.398 31.278 48.7523C31.3268 48.6615 31.3674 48.5715 31.447 48.4163C31.0871 48.5572 30.7923 48.6919 30.485 48.7827C29.4681 49.0887 28.4582 49.4268 27.4262 49.6604C26.587 49.851 25.7171 49.9789 24.8591 50.0154C23.4049 50.08 21.9636 49.8931 20.5839 49.4049C19.79 49.1236 19.0085 48.8 18.2585 48.4201C17.3967 47.9852 16.8709 47.2025 16.5614 46.3212C16.3088 45.6069 16.543 44.92 16.9633 44.2934C17.8609 42.9486 19.14 42.0351 20.4685 41.1662C21.9095 40.2291 23.4722 39.5799 25.119 39.1237C25.9104 38.9048 26.7183 38.7295 27.5304 38.5989C28.9045 38.382 30.2914 38.2131 31.6723 38.0242C31.7049 38.0211 31.7362 38.0058 31.8518 37.9702C31.376 37.7981 30.9768 37.6556 30.5772 37.509C28.8694 36.8921 27.2129 36.1677 25.6336 35.2637C24.4624 34.5957 23.3629 33.8184 22.3737 32.9074C20.8318 31.4912 19.5966 29.8489 18.8075 27.8933C18.4806 27.0876 18.2619 26.2551 18.2527 25.3822C18.2396 23.9517 18.9322 22.9095 20.0936 22.1385C20.6647 21.7601 21.2742 21.4395 21.9577 21.4237C22.584 21.4092 23.231 21.483 23.8435 21.6257C25.2532 21.9551 26.4945 22.6698 27.6752 23.4804C28.6675 24.1655 29.6274 24.8987 30.6017 25.61C30.69 25.6754 30.782 25.7364 30.8698 25.7978L30.8981 25.75L30.9062 25.7492ZM46.5027 40.8752C46.4332 40.447 46.3556 40.0195 46.2943 39.5905C46.1217 38.3803 45.5433 37.3893 44.5756 36.6609C43.8861 36.1399 43.1475 35.6646 42.3831 35.2615C41.5793 34.8334 40.7081 34.6455 39.7802 34.8528C38.5155 35.1413 37.3982 35.6866 36.5138 36.6528C35.9603 37.2593 35.4087 37.8861 35.3546 38.7404C35.2926 39.7267 35.2886 40.7199 35.3213 41.7095C35.3472 42.4988 35.7326 43.1431 36.3131 43.6827C37.051 44.3673 37.9605 44.6992 38.9008 44.9666C41.1392 45.5986 43.2384 45.3702 45.1115 43.8874C46.0726 43.1232 46.7016 42.1895 46.5027 40.8752Z" fill="#FDF6E9"/>
<circle cx="40.9494" cy="40.3394" r="5.99885" transform="rotate(-133.669 40.9494 40.3394)" fill="#879D93"/>
</g>
<defs>
<clipPath id="clip0_738_6593">
<rect width="79.4012" height="79.4012" fill="white" transform="translate(0.299377)"/>
</clipPath>
</defs>
</svg>
