<svg width="393" height="183" viewBox="0 0 393 183" fill="none" xmlns="http://www.w3.org/2000/svg">
<g clip-path="url(#clip0_902_10940)">
<path d="M0 0H393V183H0V0Z" fill="#D9D9D9"/>
<rect x="-0.0385742" width="395" height="183.394" fill="#F2ACAC"/>
<rect x="-10" width="403" height="184.307" fill="#7B8C82"/>
<path d="M136.95 158.816C154.72 136.281 155.15 87.7422 155.15 87.7422L203.836 93.6273C203.836 93.6273 243.421 51.5262 245.241 69.6341C247.061 87.7421 256.504 102.939 266.171 115.357C275.838 127.775 219.306 124.864 219.306 124.864L162.43 194.58L72 201L62.5 190.5C62.5 190.5 107.655 179.836 117.049 175.566C128.522 170.351 131.676 165.504 136.95 158.816Z" fill="#386159" stroke="#386159" stroke-linecap="round"/>
<path d="M195.646 127.053L189.276 104.418L231.136 109.85L237.961 107.586C237.961 107.586 241.026 104.871 243.421 103.965C247.241 102.52 249.862 103.256 253.886 103.965C257.594 104.618 262.987 107.134 262.987 107.134L269.357 113.019L273.907 119.809L304.392 190.506L297.567 193.222L202.471 195.033L157.88 191.411C157.88 191.411 160.204 183.759 161.52 178.661C162.863 173.461 163.766 170.575 165.615 165.532C167.064 161.585 167.7 159.269 169.71 155.573C171.118 152.985 172.101 151.639 173.806 149.235C177.149 144.518 179.403 142.138 183.361 137.917C187.561 133.437 195.646 127.053 195.646 127.053Z" fill="#C6714F"/>
<ellipse cx="10.4482" cy="14.605" rx="10.4482" ry="14.605" transform="matrix(0.826397 0.563088 -0.566993 0.823723 223.127 -20)" fill="#386159"/>
<path d="M221.125 12.1417L217.94 9.42549L222.49 1.72957L237.961 -0.533936L247.516 23.4592L242.511 32.5133L233.411 20.2903L227.951 16.216L221.125 12.1417Z" fill="#386159" stroke="#386159" stroke-linecap="round"/>
<ellipse cx="10.4134" cy="11.804" rx="10.4134" ry="11.804" transform="matrix(0.15642 0.987691 -0.987934 0.154878 253.893 -17.3645)" fill="#386159"/>
<ellipse cx="12.6792" cy="14.2464" rx="12.6792" ry="14.2464" transform="matrix(0.9447 0.327935 -0.330917 0.94366 243.639 -7.32446)" fill="#386159"/>
<ellipse cx="8.42034" cy="9.46111" rx="8.42034" ry="9.46111" transform="matrix(0.9447 0.327935 -0.330917 0.94366 245.932 18.9321)" fill="#386159"/>
<path d="M215.665 9.42554C215.665 9.42554 226.555 14.6678 232.046 19.8377C237.164 24.6572 245.696 37.9457 245.696 37.9457" stroke="#386159" stroke-linecap="round"/>
<ellipse cx="15.5071" cy="19.2262" rx="15.5071" ry="19.2262" transform="matrix(0.809025 -0.587774 0.591679 0.806174 121.801 56.5908)" fill="#386159"/>
<ellipse cx="142.629" cy="37.8561" rx="10.6679" ry="13.6464" fill="#386159"/>
<ellipse cx="12.5329" cy="10.6206" rx="12.5329" ry="10.6206" transform="matrix(0.936089 -0.351763 0.354902 0.934904 143.173 20.9131)" fill="#386159"/>
<path d="M170.568 25.7261L168.536 66.6652L163.456 65.6544L161.932 66.6652L149.74 57.0622L147.708 29.2641L167.52 22.6936L170.568 25.7261Z" fill="#386159" stroke="#386159" stroke-linecap="round"/>
<path d="M176.66 86.7677C175.348 88.6884 173.564 90.2996 171.474 91.4529C169.384 92.6063 167.055 93.2647 164.7 93.3675C162.345 93.4703 160.042 93.0142 158.001 92.0413C155.96 91.0683 154.247 89.6098 153.021 87.7999C151.795 85.9901 151.095 83.8872 150.984 81.6848C150.874 79.4825 151.357 77.2516 152.39 75.1975C153.423 73.1434 154.971 71.3323 156.893 69.9308C158.815 68.5294 161.049 67.5827 163.388 67.178L165.005 80.1688L176.66 86.7677Z" fill="#D17B58"/>
<path d="M163.34 28.4395C160.61 34.3246 156.479 48.6063 158.791 61.9394C161.9 79.8711 171.076 92.8641 182.906 101.324C198.838 112.718 223.285 117.305 231.591 112.189C241.147 106.304 244.703 90.5795 247.516 75.0679C249.757 62.7152 248.427 51.5271 246.607 43.8313C244.254 33.8843 241.44 27.6572 234.321 20.291C227.18 12.9017 222.558 9.30032 212.481 7.16257C200.962 4.71864 193.109 7.1548 182.451 12.1424C175.171 15.549 166.49 21.6489 163.34 28.4395Z" fill="#D17B58" stroke="#D17B58" stroke-linecap="round"/>
<path d="M262.531 165.155C262.531 165.155 256.161 169.229 254.796 171.493C253.602 173.472 253.431 192.77 253.431 192.77" stroke="#C25B44" stroke-width="2" stroke-linecap="round"/>
<path d="M165.615 24.8176C165.615 24.8176 167.435 26.6284 165.615 32.9662C163.795 39.3041 160.155 38.8514 160.155 38.8514" stroke="#386159" stroke-linecap="square"/>
<path d="M225.668 12.9081C225.668 12.9081 223.943 14.7988 217.542 13.276C211.141 11.7532 211.571 7.16196 211.571 7.16196" stroke="#386159" stroke-linecap="square"/>
<path d="M170.165 20.2905C170.165 20.2905 172.895 27.9864 168.8 36.1351C164.705 44.2837 159.245 43.831 159.245 43.831" stroke="#386159" stroke-linecap="square"/>
<path d="M230.681 17.1215C230.681 17.1215 223.401 20.2904 214.522 16.5844C205.643 12.8784 206.566 6.70943 206.566 6.70943" stroke="#386159" stroke-linecap="square"/>
<path d="M173.35 17.5742C173.35 17.5742 178.81 24.3647 172.895 37.4931C166.98 50.6214 158.79 50.6214 158.79 50.6214" stroke="#386159" stroke-linecap="square"/>
<path d="M233.234 20.269C233.234 20.269 226.704 26.0024 213.349 20.7161C199.994 15.4298 199.285 6.70931 199.285 6.70931" stroke="#386159" stroke-linecap="square"/>
<path d="M177.445 14.8579C177.445 14.8579 182.845 22.1383 177.188 38.417C171.53 54.6956 158.335 56.0537 158.335 56.0537" stroke="#386159" stroke-linecap="square"/>
<path d="M236.125 24.2167C236.125 24.2167 229.103 29.9119 212.618 25.024C196.133 20.1362 194.281 7.61482 194.281 7.61482" stroke="#386159" stroke-linecap="square"/>
<path d="M222.519 90.716C222.519 90.716 219.944 89.7263 218.253 89.8908C213.84 90.3202 213.988 94.8422 212.282 97.7305C211.098 99.7333 210.295 100.316 209.296 101.444C209.296 101.444 212.107 101.918 213.561 102.269C218.967 103.577 221.431 106.113 226.358 104.333C230.894 102.693 231.888 99.222 234.463 95.2549C235.375 93.8499 236.596 91.5413 236.596 91.5413C236.596 91.5413 234.445 91.9567 233.183 91.5413C231.729 91.0625 230.857 90.5285 229.771 89.478C228.491 88.2402 227.633 87.4791 225.932 87.8277C224.199 88.1826 222.519 90.716 222.519 90.716Z" fill="#C25B44" stroke="#C25B44" stroke-linecap="round"/>
<path d="M222.546 94.1516C220.761 94.5485 219.761 97.7023 219.761 97.7023C219.761 97.7023 221.512 96.4463 222.716 96.0096C223.896 95.5814 226.162 96.0096 226.162 96.0096C226.162 96.0096 224.097 93.8068 222.546 94.1516Z" fill="#FDF6E9"/>
<path d="M175.625 70.0884C175.625 70.0884 180.303 64.9517 184.271 63.2978C189.035 61.3119 192.006 61.0336 197.466 62.3924C202.401 63.6206 204.291 66.466 204.291 66.466" stroke="#44140A" stroke-linecap="round"/>
<path d="M197.011 73.7088C191.096 75.5196 175.625 70.0872 175.625 70.0872C175.625 70.0872 180.176 61.9386 185.636 60.1277C191.096 58.3169 195.646 59.2223 197.466 59.675C199.286 60.1277 202.463 61.8187 203.836 64.6548C204.547 66.1233 204.746 68.7291 204.746 68.7291C204.746 68.7291 202.926 71.8979 197.011 73.7088Z" fill="#FDF6E9" stroke="#44140A" stroke-linecap="round"/>
<path d="M232.957 58.7699C239.099 54.6956 239.327 44.2836 239.327 44.2836C239.327 44.2836 233.295 41.3812 228.144 43.9364C222.993 46.4915 220.415 50.33 219.448 51.9295C218.481 53.5289 217.432 56.9589 218.474 59.9311C219.013 61.4701 219.448 62.3916 219.448 62.3916C219.448 62.3916 226.814 62.8443 232.957 58.7699Z" fill="#FDF6E9"/>
<path d="M238.872 44.2835C238.872 44.2835 235.344 43.6035 231.362 45.2207C226.579 47.1628 224.278 49.0536 221.378 53.8526C218.756 58.1901 219.438 61.5325 219.438 61.5325M239.327 44.2836C239.327 44.2836 239.099 54.6956 232.957 58.7699C226.814 62.8443 219.448 62.3916 219.448 62.3916C219.448 62.3916 219.013 61.4701 218.474 59.9311C217.432 56.9589 218.481 53.5289 219.448 51.9295C220.415 50.33 222.993 46.4915 228.144 43.9364C233.295 41.3812 239.327 44.2836 239.327 44.2836Z" stroke="#44140A" stroke-linecap="round"/>
<path d="M217.941 56.5063L218.851 60.1279L219.761 56.5063L221.581 53.3374L223.401 50.6212L232.501 44.7361L237.051 43.8307L233.411 42.9253L230.681 43.378L222.946 47.4523L219.761 51.9793L217.941 56.5063Z" fill="#44140A"/>
<path d="M180.176 64.2024L177.901 67.3713C177.901 67.3713 182.517 63.5185 186.091 62.3915C187.984 61.7943 189.11 61.5484 191.096 61.4861C193.987 61.3954 195.647 61.8899 198.376 62.8442C200.625 63.6308 203.836 65.5605 203.836 65.5605L202.926 63.2969L200.196 61.0334C200.196 61.0334 198.445 60.161 195.646 59.6753C192.847 59.1897 188.821 59.2226 188.821 59.2226L183.816 61.0334L180.176 64.2024Z" fill="#44140A"/>
<path d="M223.4 76.4253C222.017 74.0176 215.643 65.3376 212.661 61.3067C212.117 60.5704 210.964 60.8952 210.887 61.8078C210.429 67.1965 209.501 79.3053 210.205 81.405C211.116 84.1212 219.305 84.5739 219.305 84.5739C219.305 84.5739 225.221 79.5942 223.4 76.4253Z" fill="#C25B44" stroke="#C25B44" stroke-linecap="round"/>
<ellipse cx="189.73" cy="88.6484" rx="5.91506" ry="6.33782" fill="#C25B44"/>
<ellipse cx="240.691" cy="67.8241" rx="5.91506" ry="6.33782" fill="#C25B44"/>
<path d="M202.016 65.5607C202.016 69.311 199.367 72.3512 196.101 72.3512C192.834 72.3512 190.186 69.311 190.186 65.5607C190.186 61.8104 191.924 59.6755 195.191 59.6755C198.457 59.6755 202.016 61.8104 202.016 65.5607Z" fill="#44140A"/>
<path d="M234.777 46.6416C236.564 49.9438 235.68 53.8697 232.804 55.4103C229.927 56.9509 226.147 55.5227 224.36 52.2205C222.574 48.9182 223.709 45.8242 226.586 44.2836C229.462 42.743 232.991 43.3393 234.777 46.6416Z" fill="#44140A"/>
<path d="M191.633 43.9263C191.963 44.0805 192.243 44.3614 192.511 44.5995C193.118 45.1409 193.665 45.7354 194.199 46.3473C195.172 47.462 196.066 48.648 196.906 49.8656C197.56 50.8134 198.191 51.7772 198.77 52.7717C199.126 53.3837 199.548 53.9489 199.836 54.5989C199.963 54.8873 200.125 55.1707 200.237 55.4648C200.284 55.5893 200.232 55.557 200.155 55.483C199.588 54.9396 199.002 54.4247 198.455 53.8553C196.908 52.2458 195.496 50.5298 193.839 49.0268C192.741 48.0309 191.642 47.0024 190.389 46.1977C189.929 45.9022 189.467 45.6419 189.027 45.3136C189 45.2933 188.823 45.1642 188.84 45.1844C189.045 45.4257 189.295 45.6388 189.514 45.8667C190.741 47.1389 191.93 48.4537 193.092 49.784C193.728 50.5127 194.436 51.2154 194.978 52.0191C195.088 52.1813 195.246 52.3149 194.969 52.2821C193.638 52.1244 192.401 51.3359 191.219 50.7678C189.84 50.1052 188.48 49.4411 187.026 48.9543C186.436 48.7566 185.852 48.5295 185.236 48.4238C185.055 48.3929 184.844 48.4131 184.671 48.3649C184.634 48.3546 184.98 48.5466 185.049 48.587C185.502 48.8525 185.985 49.1172 186.343 49.5074C186.561 49.7456 186.702 49.9455 186.835 50.2328C186.945 50.4706 186.409 50.4516 186.27 50.4731C185.021 50.6669 183.744 50.7021 182.483 50.7814C181.829 50.8226 181.175 50.8276 180.528 50.9446C180.503 50.9492 179.988 51.0442 180.004 51.0988C180.025 51.1682 180.442 51.2525 180.474 51.262C181.077 51.4455 181.662 51.6697 182.246 51.9058C182.646 52.0672 183.046 52.2261 183.454 52.366C183.475 52.3734 183.741 52.4364 183.741 52.4861C183.741 52.5632 182.159 52.9554 182.059 52.9848C180.712 53.3816 179.352 53.7248 178.004 54.1183C177.25 54.3382 176.479 54.5089 175.739 54.7712C175.671 54.7951 175.487 54.8043 175.475 54.9026C175.47 54.9391 175.393 54.98 175.393 54.9434" stroke="#386159" stroke-linecap="round"/>
<path d="M214.442 34.7891C214.267 35.1068 214.207 35.4983 214.132 35.8473C213.962 36.6409 213.872 37.4415 213.803 38.2492C213.676 39.7205 213.656 41.2025 213.699 42.6786C213.731 43.8278 213.725 44.046 213.846 45.1889C213.92 45.892 213.981 47.5271 214.134 48.2208C214.201 48.5286 214.239 48.8522 214.322 49.1556C214.358 49.284 214.381 49.2273 214.399 49.1221C214.536 48.3507 214.704 47.5915 214.809 46.8107C215.106 44.6036 215.231 42.3891 215.68 40.2034C215.978 38.7551 216.257 37.28 216.792 35.8954C216.989 35.387 217.209 34.9055 217.37 34.3824C217.38 34.35 217.446 34.1421 217.444 34.1685C217.421 34.4838 217.346 34.8022 217.303 35.1152C217.066 36.8617 216.884 38.6212 216.732 40.3771C216.649 41.3391 216.493 42.322 216.531 43.289C216.539 43.4842 216.49 43.6851 216.694 43.4962C217.677 42.5884 218.209 41.2266 218.828 40.0744C219.55 38.7307 220.256 37.3969 221.142 36.1517C221.502 35.6461 221.84 35.1199 222.275 34.6734C222.403 34.5427 222.585 34.4351 222.697 34.2946C222.721 34.2647 222.555 34.6228 222.523 34.6958C222.314 35.176 222.08 35.673 222.022 36.1981C221.986 36.5186 221.991 36.7628 222.054 37.0727C222.106 37.3292 222.528 36.9996 222.653 36.9357C223.777 36.3602 224.83 35.64 225.895 34.9653C226.448 34.6148 226.979 34.236 227.571 33.9513C227.595 33.9402 228.067 33.715 228.086 33.7687C228.11 33.8371 227.823 34.1498 227.804 34.1757C227.424 34.6778 227.085 35.2016 226.752 35.7349C226.525 36.0996 226.296 36.4625 226.049 36.8146C226.036 36.8332 225.859 37.0397 225.888 37.0799C225.934 37.1422 227.444 36.5322 227.542 36.4974C228.866 36.0285 230.168 35.5082 231.491 35.0362C232.23 34.7723 232.954 34.4582 233.707 34.2363C233.776 34.216 233.93 34.1154 233.999 34.1876C234.024 34.2143 234.111 34.202 234.089 34.1725" stroke="#386159" stroke-linecap="round"/>
<ellipse cx="165.16" cy="89.101" rx="1.36501" ry="1.3581" fill="white"/>
<path opacity="0.9" d="M165.846 104.048C165.725 102.441 166.425 98.9011 166.748 95.0884C166.748 95.0884 171.17 102.036 171.261 103.242C171.352 104.448 170.899 106.071 169.563 106.602C168.106 107.181 165.967 105.656 165.846 104.048Z" fill="white"/>
<path d="M200.651 193.222C200.651 193.222 224.311 105.398 245.696 103.587C267.082 101.777 272.997 119.432 274.817 122.601C276.637 125.77 304.392 190.506 304.392 190.506" stroke="#C25B44" stroke-width="2"/>
<path d="M47.5976 119.323L47.6237 119.416C47.6078 119.423 47.5908 119.432 47.5749 119.439C47.2892 118.899 46.9944 118.362 46.7203 117.817C46.6219 117.619 46.5785 117.398 46.5014 117.189C46.4637 117.086 46.4034 116.994 46.3599 116.893C46.3072 116.773 46.2436 116.653 46.2167 116.527C46.0087 115.567 45.9203 114.597 45.9468 113.616C45.9804 112.327 46.2948 111.105 46.8899 109.964C47.417 108.956 48.0238 107.992 48.9867 107.34C49.3854 107.07 49.8356 106.86 50.2865 106.685C50.8111 106.48 51.3574 106.319 51.9053 106.182C52.6357 105.999 53.3746 105.807 54.1326 106.011C54.4121 106.086 54.681 106.216 54.9401 106.345C55.1015 106.426 55.2083 106.403 55.3285 106.283C56.48 105.148 57.8859 104.475 59.4319 104.082C60.4491 103.823 61.4586 103.862 62.446 104.292C63.2791 104.655 64.1163 105.006 64.8341 105.58C65.6492 106.231 66.1388 107.06 66.1463 108.128C66.1519 108.757 65.9031 109.313 65.6016 109.841C65.4077 110.178 65.1523 110.477 64.9244 110.794C64.5696 111.287 64.2244 111.787 63.857 112.272C63.2388 113.09 62.6182 113.908 61.9815 114.711C61.2917 115.579 60.7023 116.507 60.2748 117.532C59.9833 118.233 59.6935 118.938 59.4437 119.654C59.3336 119.971 59.2855 120.322 59.2743 120.66C59.2564 121.189 59.2601 121.723 59.3164 122.249C59.3546 122.603 59.5035 122.944 59.5841 123.295C59.6119 123.421 59.5889 123.558 59.5871 123.69C59.5863 123.738 59.5756 123.785 59.582 123.832C59.623 124.12 59.5366 124.267 59.2442 124.287C58.8633 124.312 58.4714 124.338 58.0951 124.286C56.8358 124.114 55.5739 123.948 54.3282 123.702C53.1017 123.46 51.978 122.909 50.8651 122.349C50.1474 121.986 49.5601 121.46 48.9872 120.903C48.5584 120.484 48.2228 119.998 47.8467 119.542C47.7766 119.458 47.701 119.378 47.6275 119.296C47.6177 119.304 47.6093 119.312 47.5996 119.32L47.5976 119.323Z" fill="#386159"/>
<path d="M67.9955 126.471L67.9042 126.441C67.907 126.423 67.9091 126.404 67.9119 126.387C68.5198 126.454 69.1295 126.512 69.7345 126.591C69.953 126.621 70.1603 126.709 70.3768 126.763C70.4832 126.789 70.5931 126.791 70.701 126.812C70.83 126.836 70.9647 126.85 71.0847 126.899C71.9953 127.266 72.8477 127.738 73.6441 128.31C74.692 129.062 75.5268 130.009 76.1363 131.142C76.6744 132.144 77.1308 133.188 77.1298 134.351C77.1291 134.832 77.0497 135.322 76.9415 135.794C76.8161 136.343 76.6428 136.886 76.4487 137.416C76.1897 138.123 75.9333 138.842 75.339 139.355C75.1203 139.544 74.8615 139.693 74.6089 139.835C74.4517 139.924 74.4103 140.024 74.4422 140.191C74.7341 141.781 74.5015 143.323 73.9586 144.823C73.6016 145.81 73.0025 146.623 72.0921 147.199C71.3237 147.684 70.5627 148.179 69.6852 148.451C68.6881 148.759 67.7273 148.699 66.8394 148.105C66.3165 147.757 65.9955 147.238 65.7285 146.693C65.5586 146.343 65.4545 145.964 65.3204 145.597C65.1116 145.026 64.8916 144.46 64.6973 143.884C64.3675 142.913 64.0388 141.94 63.7322 140.962C63.4015 139.904 62.9651 138.895 62.3571 137.966C61.9407 137.331 61.5205 136.695 61.068 136.086C60.8675 135.817 60.6039 135.58 60.3307 135.381C59.903 135.069 59.4591 134.772 58.9927 134.523C58.6781 134.356 58.3122 134.288 57.9765 134.157C57.8571 134.11 57.7563 134.013 57.6485 133.938C57.6093 133.911 57.5763 133.875 57.534 133.854C57.272 133.726 57.1993 133.572 57.3474 133.319C57.5404 132.99 57.739 132.651 57.9929 132.369C58.8427 131.423 59.6886 130.472 60.5925 129.58C61.4811 128.701 62.5683 128.081 63.657 127.475C64.3599 127.085 65.1249 126.894 65.9081 126.733C66.4949 126.614 67.0855 126.609 67.6741 126.554C67.7832 126.543 67.8915 126.525 68.001 126.511C68.0001 126.498 67.9976 126.487 67.9967 126.474L67.9955 126.471Z" fill="#386159"/>
<path d="M36.2803 141.01L36.374 140.988C36.3808 141.004 36.3889 141.021 36.3957 141.037C35.8428 141.299 35.2933 141.569 34.7366 141.819C34.5351 141.909 34.3123 141.942 34.0997 142.01C33.9952 142.043 33.9006 142.099 33.798 142.138C33.6756 142.185 33.5533 142.244 33.4254 142.265C32.4577 142.43 31.4844 142.475 30.5061 142.405C29.2195 142.314 28.0122 141.946 26.8991 141.3C25.9154 140.729 24.9798 140.08 24.3707 139.089C24.1189 138.679 23.9295 138.22 23.7744 137.762C23.5934 137.228 23.4563 136.675 23.3436 136.122C23.1933 135.384 23.0347 134.637 23.272 133.889C23.3589 133.613 23.501 133.35 23.6418 133.097C23.7292 132.94 23.7117 132.832 23.597 132.707C22.5147 131.506 21.9046 130.071 21.5804 128.509C21.3668 127.482 21.4505 126.475 21.9239 125.508C22.3238 124.692 22.7121 123.871 23.3168 123.179C24.0042 122.394 24.854 121.942 25.9214 121.982C26.5492 122.004 27.0944 122.277 27.608 122.602C27.936 122.811 28.2235 123.079 28.5299 123.321C29.0068 123.697 29.4912 124.064 29.9587 124.453C30.7486 125.107 31.5389 125.763 32.3126 126.435C33.1491 127.163 34.0495 127.793 35.0545 128.265C35.7421 128.588 36.4331 128.908 37.1377 129.19C37.4497 129.314 37.7984 129.378 38.1354 129.404C38.6631 129.445 39.1968 129.465 39.7243 129.432C40.0799 129.41 40.4273 129.276 40.7816 129.211C40.9082 129.189 41.0445 129.218 41.1758 129.226C41.2236 129.229 41.2702 129.242 41.3173 129.237C41.6076 129.209 41.7502 129.302 41.7567 129.595C41.7651 129.977 41.7735 130.369 41.7054 130.743C41.4774 131.993 41.2558 133.247 40.9538 134.48C40.6581 135.695 40.0575 136.793 39.4482 137.88C39.0543 138.581 38.5028 139.144 37.9202 139.692C37.4834 140.101 36.9829 140.415 36.5105 140.77C36.4233 140.837 36.3403 140.909 36.2547 140.978C36.262 140.989 36.2704 140.997 36.2776 141.007L36.2803 141.01Z" fill="#386159"/>
<path d="M57.5739 151.516L57.5782 151.419C57.5957 151.417 57.6146 151.414 57.6321 151.412C57.7332 152.015 57.8442 152.618 57.933 153.221C57.9644 153.44 57.9361 153.663 57.9435 153.886C57.9468 153.996 57.9752 154.102 57.9847 154.211C57.997 154.342 58.0198 154.475 58.0054 154.604C57.9012 155.58 57.68 156.529 57.3466 157.452C56.9092 158.665 56.2264 159.727 55.3028 160.622C54.4854 161.414 53.6064 162.138 52.4872 162.454C52.0239 162.585 51.5306 162.642 51.0474 162.667C50.4851 162.696 49.9157 162.678 49.3525 162.636C48.6016 162.58 47.84 162.529 47.1845 162.097C46.9426 161.939 46.7283 161.731 46.5231 161.526C46.395 161.399 46.2867 161.387 46.1348 161.463C44.6849 162.178 43.1386 162.375 41.5474 162.262C40.5003 162.188 39.5543 161.834 38.7521 161.115C38.0755 160.509 37.3912 159.912 36.8902 159.142C36.3214 158.267 36.1172 157.326 36.446 156.31C36.6382 155.712 37.0495 155.261 37.5015 154.855C37.7916 154.596 38.128 154.393 38.444 154.164C38.936 153.807 39.4209 153.441 39.9219 153.097C40.7661 152.514 41.6126 151.932 42.4695 151.37C43.3972 150.763 44.2484 150.068 44.9765 149.23C45.4737 148.656 45.9703 148.078 46.4327 147.476C46.637 147.21 46.7932 146.892 46.9099 146.574C47.0933 146.078 47.2577 145.57 47.3695 145.053C47.4446 144.705 47.4106 144.334 47.4445 143.976C47.4575 143.848 47.5225 143.725 47.5656 143.6C47.5814 143.555 47.6064 143.514 47.615 143.467C47.667 143.18 47.7951 143.068 48.0788 143.142C48.4483 143.237 48.8285 143.336 49.1695 143.503C50.3108 144.063 51.4566 144.617 52.5615 145.243C53.6498 145.857 54.5432 146.734 55.4235 147.616C55.9908 148.186 56.383 148.87 56.7515 149.579C57.027 150.111 57.1927 150.678 57.4063 151.229C57.4464 151.331 57.4931 151.43 57.537 151.532C57.5487 151.527 57.5594 151.522 57.5711 151.518L57.5739 151.516Z" fill="#386159"/>
<path d="M344.166 47.7096L344.077 47.7473C344.068 47.7324 344.057 47.7167 344.047 47.7019C344.547 47.3498 345.042 46.9891 345.548 46.6479C345.732 46.5252 345.945 46.454 346.143 46.3509C346.241 46.3005 346.324 46.2289 346.419 46.173C346.531 46.1055 346.642 46.0271 346.764 45.9844C347.689 45.6561 348.64 45.4451 349.616 45.3466C350.899 45.2161 352.152 45.3725 353.359 45.8177C354.426 46.2124 355.459 46.6918 356.228 47.5639C356.547 47.925 356.812 48.3449 357.043 48.7699C357.313 49.2642 357.542 49.7856 357.748 50.3115C358.022 51.0128 358.306 51.7213 358.201 52.4991C358.162 52.7858 358.067 53.0691 357.972 53.3425C357.913 53.5129 357.948 53.6159 358.083 53.7198C359.355 54.7178 360.201 56.0267 360.788 57.5101C361.174 58.4862 361.264 59.4924 360.963 60.5265C360.709 61.3989 360.466 62.2741 359.989 63.0589C359.446 63.9503 358.686 64.5413 357.628 64.6845C357.005 64.7699 356.421 64.5939 355.86 64.362C355.501 64.2124 355.172 63.9972 354.829 63.8114C354.294 63.5221 353.754 63.2434 353.227 62.9406C352.337 62.4314 351.446 61.9199 350.569 61.3904C349.62 60.8165 348.625 60.3499 347.554 60.0562C346.822 59.8562 346.086 59.6584 345.343 59.5017C345.015 59.4328 344.66 59.4297 344.324 59.4616C343.797 59.5111 343.268 59.5827 342.754 59.7053C342.407 59.7882 342.088 59.9793 341.75 60.1038C341.629 60.1474 341.489 60.1421 341.359 60.157C341.311 60.1623 341.263 60.1577 341.217 60.17C340.936 60.2474 340.78 60.1802 340.723 59.8927C340.65 59.5181 340.574 59.1327 340.577 58.7529C340.588 57.482 340.592 56.2092 340.678 54.9422C340.762 53.695 341.166 52.5104 341.58 51.3352C341.848 50.5773 342.295 49.9279 342.776 49.2887C343.136 48.8103 343.575 48.4156 343.98 47.9846C344.055 47.9043 344.124 47.8192 344.196 47.7358C344.187 47.7271 344.178 47.7199 344.169 47.7112L344.166 47.7096Z" fill="#304A40"/>
<path d="M339.669 68.8507L339.688 68.7563C339.705 68.7568 339.724 68.7565 339.742 68.757C339.752 69.3685 339.773 69.9807 339.771 70.5908C339.769 70.8113 339.708 71.0281 339.682 71.2497C339.67 71.3586 339.682 71.4679 339.675 71.5775C339.668 71.7085 339.67 71.844 339.637 71.9692C339.389 72.9191 339.029 73.8246 338.563 74.6873C337.95 75.8223 337.117 76.7707 336.071 77.5193C335.145 78.1804 334.168 78.7658 333.014 78.9127C332.537 78.9732 332.04 78.9567 331.559 78.9094C330.999 78.8548 330.438 78.7519 329.888 78.6267C329.153 78.4598 328.408 78.2969 327.823 77.7726C327.608 77.5798 327.427 77.342 327.254 77.1095C327.146 76.9649 327.041 76.9365 326.88 76.9894C325.34 77.4811 323.781 77.4464 322.224 77.0985C321.2 76.87 320.317 76.3791 319.63 75.5493C319.051 74.8489 318.463 74.1569 318.082 73.3212C317.65 72.3713 317.587 71.4107 318.063 70.4545C318.342 69.8916 318.816 69.5073 319.323 69.173C319.649 68.96 320.011 68.8085 320.358 68.6289C320.897 68.3493 321.431 68.059 321.978 67.7931C322.899 67.3426 323.823 66.8927 324.754 66.4643C325.761 66.0018 326.706 65.4406 327.551 64.7194C328.128 64.2257 328.705 63.7281 329.251 63.2019C329.493 62.9687 329.694 62.6771 329.857 62.3808C330.112 61.917 330.35 61.4389 330.537 60.9447C330.663 60.6114 330.685 60.2398 330.772 59.8902C330.803 59.7657 330.886 59.6535 330.947 59.537C330.969 59.4946 331 59.4574 331.016 59.4128C331.11 59.1366 331.253 59.0449 331.523 59.1596C331.874 59.3092 332.235 59.4631 332.548 59.6791C333.593 60.4018 334.644 61.1199 335.644 61.9031C336.629 62.6726 337.382 63.6722 338.122 64.675C338.598 65.3226 338.884 66.0572 339.143 66.8136C339.337 67.3804 339.416 67.9656 339.546 68.5425C339.57 68.6493 339.602 68.7545 339.63 68.8612C339.642 68.8588 339.654 68.8548 339.666 68.8523L339.669 68.8507Z" fill="#304A40"/>
<path d="M321.216 39.2415L321.25 39.3316C321.235 39.3404 321.219 39.3507 321.203 39.3595C320.874 38.8442 320.535 38.3337 320.217 37.8132C320.103 37.6247 320.041 37.408 319.947 37.2058C319.901 37.1062 319.833 37.0196 319.781 36.9227C319.719 36.8074 319.646 36.6935 319.608 36.5693C319.321 35.6305 319.153 34.6708 319.098 33.6916C319.025 32.4038 319.237 31.1595 319.735 29.9734C320.177 28.925 320.702 27.9145 321.607 27.1843C321.982 26.8824 322.413 26.6362 322.848 26.4241C323.354 26.1768 323.885 25.9705 324.419 25.7884C325.132 25.5455 325.853 25.2932 326.625 25.4334C326.91 25.4846 327.188 25.5921 327.457 25.6996C327.625 25.7662 327.729 25.7352 327.839 25.6054C328.893 24.3793 330.238 23.5917 331.746 23.0716C332.738 22.729 333.747 22.6841 334.767 23.0307C335.627 23.3236 336.491 23.6044 337.254 24.1162C338.12 24.6982 338.677 25.4836 338.773 26.5474C338.831 27.173 338.629 27.7486 338.372 28.2992C338.207 28.6511 337.977 28.9704 337.776 29.305C337.463 29.826 337.161 30.3531 336.835 30.8661C336.287 31.7328 335.736 32.6001 335.168 33.453C334.553 34.3752 334.042 35.3484 333.701 36.4054C333.469 37.1283 333.239 37.8545 333.049 38.5892C332.966 38.9144 332.947 39.2684 332.964 39.606C332.99 40.1347 333.038 40.6666 333.137 41.1856C333.205 41.5355 333.381 41.8631 333.491 42.2063C333.529 42.329 333.518 42.4678 333.527 42.5991C333.53 42.6469 333.523 42.6948 333.533 42.7408C333.598 43.0253 333.524 43.1785 333.234 43.2222C332.857 43.279 332.468 43.3374 332.089 43.3173C330.82 43.2501 329.549 43.1896 328.287 43.0469C327.045 42.9081 325.879 42.4519 324.723 41.9858C323.978 41.6841 323.349 41.2087 322.732 40.7005C322.27 40.3193 321.895 39.8628 321.483 39.4394C321.406 39.3613 321.324 39.2882 321.244 39.2121C321.235 39.2206 321.227 39.23 321.218 39.2385L321.216 39.2415Z" fill="#304A40"/>
<path d="M313.503 61.698L313.599 61.69C313.603 61.7071 313.608 61.7254 313.613 61.7425C313.027 61.9195 312.444 62.1063 311.857 62.2711C311.644 62.3299 311.419 62.3303 311.199 62.3659C311.09 62.3832 310.988 62.4249 310.881 62.4482C310.753 62.477 310.624 62.5166 310.494 62.5187C309.513 62.5394 308.543 62.4407 307.586 62.2272C306.327 61.9476 305.187 61.4053 304.181 60.6031C303.292 59.8929 302.463 59.1131 302.006 58.0432C301.818 57.6003 301.698 57.1184 301.612 56.6423C301.512 56.0882 301.458 55.5211 301.428 54.9571C301.388 54.2052 301.341 53.4433 301.686 52.7383C301.812 52.4782 301.992 52.2391 302.168 52.0096C302.278 51.8664 302.277 51.7574 302.182 51.6165C301.288 50.2692 300.896 48.7605 300.806 47.1679C300.746 46.1198 300.977 45.1364 301.588 44.2495C302.104 43.5012 302.609 42.7466 303.309 42.1517C304.104 41.4763 305.012 41.1541 306.061 41.351C306.679 41.4656 307.178 41.8164 307.638 42.2131C307.932 42.4679 308.177 42.7757 308.444 43.06C308.86 43.5026 309.285 43.9371 309.69 44.3903C310.375 45.1535 311.06 45.9192 311.726 46.6977C312.446 47.5407 313.244 48.2966 314.169 48.9122C314.801 49.3324 315.437 49.7515 316.093 50.1337C316.383 50.3024 316.719 50.4168 317.048 50.4923C317.564 50.6111 318.089 50.7095 318.615 50.7548C318.97 50.785 319.334 50.7041 319.694 50.6922C319.822 50.6889 319.953 50.7377 320.081 50.7646C320.128 50.7745 320.173 50.794 320.22 50.7967C320.511 50.8117 320.638 50.9246 320.602 51.2153C320.554 51.594 320.504 51.9836 320.382 52.3431C319.972 53.5463 319.568 54.7532 319.088 55.9288C318.616 57.0864 317.86 58.084 317.097 59.0693C316.604 59.7044 315.976 60.1803 315.319 60.6361C314.827 60.977 314.285 61.2134 313.766 61.4954C313.67 61.5481 313.577 61.607 313.482 61.6634C313.488 61.6745 313.495 61.6844 313.5 61.6955L313.503 61.698Z" fill="#304A40"/>
<path d="M153.535 24.1917C153.694 24.1661 153.844 24.1434 153.993 24.1184C154.553 24.0271 155.112 24.0233 155.673 24.1154C156.31 24.2202 156.811 24.5541 157.246 25.0062C157.64 25.4157 157.982 25.8632 158.258 26.3561C158.514 26.8116 158.566 27.3066 158.48 27.8193C158.406 28.2641 158.253 28.6818 158.004 29.0579C157.639 29.61 157.165 30.0425 156.539 30.2947C156.217 30.4242 155.891 30.5354 155.553 30.6163C155.333 30.6691 155.115 30.7061 154.891 30.7196C154.877 30.7204 154.863 30.7315 154.849 30.7369C154.935 30.9134 155.022 31.0855 155.103 31.2599C155.259 31.5993 155.354 31.9564 155.397 32.3281C155.462 32.8833 155.43 33.4317 155.282 33.9712C155.153 34.441 154.941 34.8638 154.534 35.1674C154.312 35.3332 154.065 35.4526 153.801 35.5331C153.567 35.6044 153.333 35.6781 153.095 35.7279C152.558 35.8398 152.034 35.7913 151.525 35.5868C151.247 35.4757 150.981 35.3507 150.744 35.1632C150.486 34.9595 150.277 34.7144 150.094 34.4447C149.889 34.1412 149.737 33.8122 149.619 33.4667C149.558 33.2879 149.506 33.1055 149.447 32.9151C149.367 32.9433 149.267 32.9785 149.166 33.0138C149.127 33.0275 149.088 33.0432 149.048 33.0545C148.921 33.09 148.796 33.1349 148.666 33.1571C148.439 33.1962 148.21 33.2366 147.981 33.248C147.577 33.2674 147.173 33.2399 146.788 33.109C146.485 33.0065 146.181 32.9093 145.914 32.7238C145.568 32.4837 145.321 32.1751 145.187 31.7766C145.04 31.3359 144.98 30.8814 144.989 30.4196C144.996 30.0665 145.081 29.7228 145.217 29.3946C145.291 29.2157 145.373 29.0384 145.471 28.8719C145.619 28.6226 145.832 28.4248 146.052 28.238C146.224 28.0907 146.413 27.9631 146.591 27.8217C146.614 27.8028 146.638 27.7482 146.627 27.7257C146.465 27.3931 146.42 27.038 146.396 26.6741C146.351 25.9956 146.49 25.3444 146.703 24.7072C146.853 24.2611 147.038 23.8264 147.332 23.4524C147.547 23.1802 147.783 22.9217 148.03 22.6777C148.341 22.3719 148.699 22.1253 149.096 21.9354C149.436 21.7726 149.796 21.6869 150.162 21.6072C150.504 21.532 150.84 21.5407 151.167 21.6507C151.361 21.7159 151.549 21.8008 151.727 21.9021C152.035 22.0784 152.344 22.261 152.578 22.534C152.74 22.7234 152.882 22.9309 153.03 23.1333C153.234 23.4144 153.396 23.7168 153.479 24.0571C153.49 24.1024 153.516 24.1443 153.535 24.1909L153.535 24.1917ZM151.266 27.4245C150.84 27.5531 150.567 27.6508 150.192 27.9933C151.161 28.1771 151.178 28.2973 150.397 28.2252C150.226 28.6032 150.203 28.5656 150.255 28.9709C150.284 29.1916 150.349 29.1577 150.371 29.3792C150.391 29.5905 150.289 29.7034 150.407 29.8685C150.601 30.1389 151.16 29.6502 151.443 29.8363C151.768 30.0509 151.362 30.1611 151.727 29.9977C152.028 29.8622 152.046 30.5911 152.278 30.3691C152.44 30.2144 152.581 30.0383 152.734 29.8728C152.97 29.6159 153.152 29.3346 153.222 28.983C153.264 28.7701 153.253 28.5642 153.231 28.3549C153.215 28.2065 153.213 28.0495 153.159 27.9144C152.985 27.4796 152.7 27.1477 152.229 26.9945C151.836 26.8661 151.442 26.8009 150.97 26.9026L151.266 27.4245Z" fill="#FDF6E9"/>
<circle cx="151.613" cy="28.6491" r="1.89753" transform="rotate(-169.254 151.613 28.6491)" fill="#E14A68"/>
<path d="M131.055 35.8474C130.993 35.699 130.936 35.5589 130.877 35.4199C130.657 34.8963 130.523 34.3533 130.481 33.7871C130.434 33.1427 130.642 32.5775 130.98 32.049C131.286 31.5707 131.641 31.1333 132.056 30.7495C132.439 30.3944 132.908 30.2283 133.427 30.1918C133.877 30.1604 134.318 30.2112 134.742 30.3657C135.364 30.5915 135.896 30.9513 136.287 31.5011C136.488 31.7832 136.673 32.0744 136.83 32.3847C136.933 32.586 137.02 32.7889 137.085 33.0039C137.089 33.0178 137.104 33.0287 137.112 33.0406C137.264 32.9159 137.411 32.7908 137.561 32.6719C137.855 32.4406 138.18 32.2649 138.531 32.1359C139.056 31.9428 139.596 31.8457 140.156 31.864C140.642 31.8794 141.103 31.9867 141.493 32.3114C141.707 32.489 141.88 32.7009 142.02 32.9391C142.144 33.1496 142.271 33.3597 142.375 33.5799C142.609 34.0759 142.684 34.5963 142.604 35.1391C142.561 35.4356 142.502 35.724 142.375 35.9975C142.237 36.2959 142.048 36.5572 141.828 36.7977C141.581 37.0678 141.297 37.2928 140.988 37.4879C140.829 37.589 140.664 37.6821 140.492 37.7844C140.538 37.8552 140.596 37.9444 140.654 38.0343C140.676 38.0695 140.701 38.1029 140.721 38.1392C140.785 38.2545 140.858 38.3663 140.91 38.4867C141.001 38.6982 141.094 38.9114 141.158 39.1321C141.272 39.5202 141.339 39.9191 141.302 40.3246C141.273 40.6427 141.25 40.9615 141.132 41.2644C140.979 41.6562 140.737 41.9691 140.381 42.192C139.987 42.4387 139.559 42.6032 139.107 42.7019C138.762 42.7772 138.408 42.775 138.058 42.7199C137.866 42.6897 137.675 42.6517 137.49 42.5946C137.213 42.5095 136.971 42.3479 136.738 42.1783C136.555 42.0456 136.386 41.8915 136.207 41.7515C136.183 41.733 136.125 41.7225 136.105 41.739C135.82 41.9736 135.485 42.1007 135.137 42.2094C134.488 42.4111 133.822 42.4287 133.153 42.3701C132.684 42.3289 132.218 42.25 131.786 42.0516C131.471 41.9067 131.164 41.7375 130.869 41.5538C130.499 41.3231 130.176 41.0332 129.899 40.6915C129.661 40.3989 129.493 40.0685 129.33 39.7313C129.177 39.4161 129.107 39.0877 129.138 38.744C129.156 38.5405 129.194 38.337 129.251 38.1412C129.351 37.8002 129.456 37.4566 129.667 37.166C129.813 36.964 129.982 36.7769 130.144 36.5864C130.37 36.3225 130.626 36.0935 130.937 35.9333C130.979 35.9122 131.013 35.8774 131.054 35.8477L131.055 35.8474ZM134.729 37.2987C134.953 37.683 135.112 37.9255 135.532 38.2097C135.485 37.2253 135.598 37.1802 135.71 37.9567C136.118 38.0341 136.087 38.0657 136.468 37.9201C136.676 37.8408 136.628 37.7848 136.838 37.7122C137.039 37.6435 137.173 37.7165 137.306 37.5627C137.523 37.3107 136.917 36.8813 137.032 36.563C137.165 36.1969 137.367 36.5654 137.123 36.2492C136.921 35.988 137.625 35.8003 137.355 35.6266C137.167 35.5053 136.963 35.4087 136.766 35.2994C136.461 35.1295 136.145 35.0182 135.787 35.0323C135.57 35.0414 135.372 35.1005 135.174 35.1708C135.034 35.2208 134.881 35.2596 134.762 35.3434C134.38 35.6144 134.124 35.9688 134.085 36.4623C134.052 36.8747 134.081 37.273 134.29 37.7084L134.729 37.2987Z" fill="#FDF6E9"/>
<circle cx="135.838" cy="36.6751" r="1.89753" transform="rotate(87.2331 135.838 36.6751)" fill="#E14A68"/>
<path d="M134.907 50.5752C134.916 50.4146 134.925 50.2637 134.932 50.1128C134.962 49.5457 135.076 48.9982 135.285 48.4701C135.522 47.8692 135.954 47.45 136.488 47.1205C136.971 46.8224 137.481 46.5825 138.021 46.4166C138.521 46.263 139.015 46.3169 139.498 46.5091C139.917 46.676 140.293 46.9135 140.608 47.2367C141.071 47.71 141.393 48.2647 141.507 48.9299C141.566 49.2713 141.606 49.6136 141.613 49.9617C141.618 50.1876 141.609 50.408 141.574 50.6302C141.572 50.6446 141.58 50.6605 141.582 50.6749C141.773 50.6283 141.96 50.5794 142.147 50.5376C142.512 50.4566 142.881 50.4393 143.254 50.4756C143.81 50.5292 144.339 50.6764 144.835 50.9356C145.267 51.1607 145.635 51.4573 145.846 51.9192C145.961 52.1717 146.026 52.438 146.049 52.7133C146.069 52.9567 146.092 53.2009 146.09 53.4444C146.086 53.9929 145.928 54.4944 145.62 54.9488C145.453 55.1973 145.274 55.4314 145.041 55.6227C144.787 55.8317 144.503 55.9849 144.201 56.1064C143.861 56.2424 143.507 56.3218 143.145 56.3637C142.957 56.3855 142.768 56.3977 142.569 56.4156C142.58 56.4993 142.593 56.6047 142.606 56.7108C142.611 56.7523 142.619 56.793 142.621 56.8345C142.629 56.9661 142.646 57.0986 142.641 57.2296C142.631 57.4596 142.622 57.6919 142.585 57.9189C142.518 58.3177 142.406 58.7063 142.197 59.0556C142.033 59.3295 141.873 59.6067 141.635 59.8283C141.328 60.1151 140.974 60.2919 140.556 60.3381C140.094 60.3894 139.637 60.352 139.188 60.2451C138.844 60.1631 138.526 60.0076 138.234 59.8056C138.075 59.6955 137.919 59.5782 137.777 59.4464C137.565 59.2496 137.416 58.9989 137.28 58.745C137.173 58.546 137.088 58.3341 136.987 58.1302C136.974 58.1032 136.925 58.0683 136.901 58.0748C136.542 58.1622 136.185 58.1315 135.824 58.0784C135.152 57.9783 134.545 57.7054 133.967 57.3621C133.562 57.1216 133.177 56.8483 132.873 56.4819C132.653 56.2148 132.45 55.9293 132.264 55.6357C132.031 55.2673 131.865 54.8659 131.763 54.4377C131.676 54.0709 131.669 53.7005 131.668 53.326C131.667 52.9755 131.746 52.6493 131.923 52.3529C132.028 52.1775 132.151 52.0108 132.287 51.8591C132.525 51.5951 132.769 51.3311 133.085 51.1609C133.304 51.0423 133.537 50.9468 133.766 50.8458C134.084 50.7059 134.414 50.6106 134.764 50.6015C134.811 50.6005 134.857 50.5842 134.907 50.5752L134.907 50.5752ZM137.587 53.4769C137.623 53.9206 137.661 54.208 137.916 54.6465C138.301 53.7389 138.422 53.7473 138.186 54.4957C138.52 54.7422 138.478 54.7572 138.885 54.7917C139.107 54.8104 139.088 54.739 139.309 54.765C139.519 54.7901 139.608 54.9139 139.795 54.833C140.1 54.7004 139.74 54.0506 139.982 53.8137C140.261 53.5415 140.282 53.961 140.2 53.5703C140.131 53.2473 140.847 53.3839 140.679 53.1102C140.562 52.9192 140.42 52.7436 140.291 52.5599C140.089 52.2743 139.853 52.0369 139.524 51.8942C139.325 51.8083 139.121 51.7759 138.912 51.7531C138.764 51.7371 138.61 51.706 138.466 51.73C138.005 51.8084 137.62 52.0165 137.371 52.4442C137.162 52.8015 137.015 53.1727 137.015 53.6558L137.587 53.4769Z" fill="#FDF6E9"/>
<circle cx="138.858" cy="53.3965" r="1.89753" transform="rotate(112.951 138.858 53.3965)" fill="#E14A68"/>
<path d="M179.308 148.148C179.316 147.987 179.326 147.836 179.333 147.686C179.362 147.118 179.477 146.571 179.685 146.043C179.922 145.442 180.355 145.023 180.888 144.693C181.372 144.395 181.882 144.155 182.422 143.989C182.921 143.836 183.416 143.89 183.899 144.082C184.318 144.249 184.694 144.486 185.009 144.809C185.471 145.283 185.794 145.837 185.908 146.503C185.966 146.844 186.006 147.186 186.014 147.534C186.019 147.76 186.009 147.981 185.975 148.203C185.972 148.217 185.98 148.233 185.983 148.248C186.173 148.201 186.36 148.152 186.548 148.11C186.912 148.029 187.281 148.012 187.654 148.048C188.21 148.102 188.74 148.249 189.236 148.508C189.667 148.733 190.036 149.03 190.247 149.492C190.362 149.744 190.426 150.011 190.449 150.286C190.469 150.529 190.492 150.774 190.49 151.017C190.486 151.566 190.328 152.067 190.02 152.522C189.853 152.77 189.674 153.004 189.441 153.195C189.188 153.404 188.904 153.558 188.602 153.679C188.262 153.815 187.908 153.895 187.545 153.936C187.358 153.958 187.168 153.97 186.97 153.988C186.98 154.072 186.994 154.177 187.007 154.284C187.012 154.325 187.019 154.366 187.022 154.407C187.03 154.539 187.047 154.671 187.041 154.802C187.031 155.032 187.023 155.265 186.985 155.492C186.919 155.89 186.806 156.279 186.597 156.628C186.433 156.902 186.274 157.179 186.036 157.401C185.728 157.688 185.374 157.865 184.956 157.911C184.494 157.962 184.038 157.925 183.588 157.818C183.245 157.736 182.927 157.58 182.634 157.378C182.475 157.268 182.319 157.151 182.177 157.019C181.965 156.822 181.817 156.572 181.681 156.318C181.573 156.119 181.488 155.907 181.388 155.703C181.374 155.676 181.326 155.641 181.301 155.648C180.942 155.735 180.586 155.704 180.225 155.651C179.552 155.551 178.945 155.278 178.367 154.935C177.963 154.694 177.577 154.421 177.274 154.055C177.053 153.788 176.85 153.502 176.664 153.208C176.431 152.84 176.266 152.439 176.164 152.01C176.077 151.644 176.069 151.273 176.069 150.899C176.067 150.548 176.147 150.222 176.324 149.926C176.428 149.75 176.551 149.584 176.688 149.432C176.925 149.168 177.169 148.904 177.485 148.734C177.704 148.615 177.937 148.52 178.166 148.419C178.484 148.279 178.814 148.183 179.164 148.174C179.211 148.173 179.257 148.157 179.307 148.148L179.308 148.148ZM181.988 151.05C182.023 151.493 182.061 151.781 182.317 152.219C182.701 151.312 182.822 151.32 182.587 152.068C182.92 152.315 182.878 152.33 183.286 152.364C183.507 152.383 183.488 152.312 183.709 152.338C183.92 152.363 184.008 152.487 184.195 152.406C184.5 152.273 184.141 151.623 184.382 151.386C184.661 151.114 184.683 151.534 184.6 151.143C184.531 150.82 185.248 150.957 185.08 150.683C184.963 150.492 184.821 150.316 184.691 150.133C184.49 149.847 184.254 149.61 183.925 149.467C183.725 149.381 183.522 149.349 183.313 149.326C183.164 149.31 183.01 149.279 182.867 149.303C182.405 149.381 182.02 149.589 181.771 150.017C181.563 150.374 181.416 150.746 181.415 151.229L181.988 151.05Z" fill="#FDF6E9"/>
<circle cx="183.258" cy="150.969" r="1.89753" transform="rotate(112.951 183.258 150.969)" fill="#388596"/>
<path d="M177.702 163.761C177.628 163.618 177.56 163.483 177.489 163.349C177.227 162.846 177.048 162.316 176.96 161.755C176.86 161.116 177.021 160.536 177.314 159.981C177.58 159.48 177.898 159.014 178.279 158.598C178.632 158.212 179.086 158.008 179.599 157.929C180.045 157.86 180.49 157.875 180.925 157.994C181.563 158.167 182.123 158.482 182.558 158.998C182.782 159.262 182.989 159.537 183.172 159.834C183.291 160.026 183.394 160.221 183.477 160.43C183.483 160.443 183.498 160.453 183.507 160.464C183.648 160.327 183.784 160.19 183.924 160.059C184.198 159.805 184.507 159.603 184.847 159.445C185.353 159.21 185.884 159.068 186.443 159.04C186.93 159.016 187.398 159.085 187.813 159.376C188.04 159.535 188.231 159.732 188.39 159.958C188.531 160.158 188.674 160.357 188.796 160.568C189.071 161.042 189.188 161.555 189.154 162.102C189.135 162.401 189.1 162.694 188.996 162.977C188.883 163.286 188.716 163.562 188.517 163.819C188.293 164.109 188.028 164.357 187.737 164.577C187.586 164.69 187.429 164.797 187.267 164.913C187.319 164.98 187.383 165.064 187.449 165.149C187.474 165.182 187.501 165.213 187.524 165.248C187.598 165.357 187.68 165.463 187.741 165.578C187.849 165.782 187.959 165.986 188.042 166.201C188.187 166.579 188.287 166.97 188.283 167.378C188.281 167.697 188.284 168.017 188.191 168.328C188.071 168.731 187.856 169.063 187.519 169.315C187.147 169.593 186.734 169.792 186.292 169.928C185.955 170.031 185.602 170.058 185.247 170.032C185.054 170.018 184.861 169.996 184.671 169.954C184.389 169.892 184.134 169.751 183.888 169.601C183.694 169.484 183.514 169.345 183.324 169.22C183.298 169.203 183.239 169.198 183.221 169.216C182.956 169.473 182.633 169.627 182.295 169.764C181.664 170.019 181.002 170.091 180.33 170.088C179.86 170.086 179.389 170.046 178.942 169.883C178.616 169.765 178.297 169.622 177.987 169.463C177.6 169.264 177.254 169.001 176.949 168.684C176.688 168.412 176.494 168.096 176.304 167.774C176.125 167.472 176.028 167.151 176.03 166.806C176.032 166.601 176.053 166.395 176.094 166.195C176.165 165.847 176.241 165.496 176.427 165.189C176.557 164.976 176.709 164.776 176.855 164.572C177.058 164.291 177.294 164.041 177.592 163.856C177.631 163.832 177.663 163.794 177.701 163.761L177.702 163.761ZM181.483 164.904C181.738 165.269 181.917 165.497 182.359 165.746C182.231 164.769 182.339 164.714 182.515 165.479C182.928 165.522 182.899 165.557 183.268 165.38C183.469 165.284 183.416 165.232 183.619 165.142C183.814 165.057 183.953 165.119 184.073 164.955C184.269 164.686 183.63 164.308 183.718 163.981C183.82 163.605 184.052 163.956 183.782 163.661C183.559 163.417 184.246 163.172 183.963 163.021C183.765 162.916 183.553 162.836 183.349 162.744C183.03 162.599 182.706 162.515 182.351 162.558C182.135 162.585 181.943 162.66 181.751 162.747C181.615 162.808 181.467 162.859 181.355 162.953C180.997 163.254 180.771 163.629 180.773 164.124C180.774 164.537 180.835 164.932 181.08 165.349L181.483 164.904Z" fill="#FDF6E9"/>
<circle cx="182.537" cy="164.191" r="1.89753" transform="rotate(82.503 182.537 164.191)" fill="#388596"/>
<path d="M191.702 158.761C191.628 158.618 191.56 158.483 191.489 158.349C191.227 157.846 191.048 157.316 190.96 156.755C190.86 156.116 191.021 155.536 191.314 154.981C191.58 154.48 191.898 154.014 192.279 153.598C192.632 153.212 193.086 153.008 193.599 152.929C194.045 152.86 194.49 152.875 194.925 152.994C195.563 153.167 196.123 153.482 196.558 153.998C196.782 154.262 196.989 154.537 197.172 154.834C197.291 155.026 197.394 155.221 197.477 155.43C197.483 155.443 197.498 155.453 197.507 155.464C197.648 155.327 197.784 155.19 197.924 155.059C198.198 154.805 198.507 154.603 198.847 154.445C199.353 154.21 199.884 154.068 200.443 154.04C200.93 154.016 201.398 154.085 201.813 154.376C202.04 154.535 202.231 154.732 202.39 154.958C202.531 155.158 202.674 155.357 202.796 155.568C203.071 156.042 203.188 156.555 203.154 157.102C203.135 157.401 203.1 157.694 202.996 157.977C202.883 158.286 202.716 158.562 202.517 158.819C202.293 159.109 202.028 159.357 201.737 159.577C201.586 159.69 201.429 159.797 201.267 159.913C201.319 159.98 201.383 160.064 201.449 160.149C201.474 160.182 201.501 160.213 201.524 160.248C201.598 160.357 201.68 160.463 201.741 160.578C201.849 160.782 201.959 160.986 202.042 161.201C202.187 161.579 202.287 161.97 202.283 162.378C202.281 162.697 202.284 163.017 202.191 163.328C202.071 163.731 201.856 164.063 201.519 164.315C201.147 164.593 200.734 164.792 200.292 164.928C199.955 165.031 199.602 165.058 199.247 165.032C199.054 165.018 198.861 164.996 198.671 164.954C198.389 164.892 198.134 164.751 197.888 164.601C197.694 164.484 197.514 164.345 197.324 164.22C197.298 164.203 197.239 164.198 197.221 164.216C196.956 164.473 196.633 164.627 196.295 164.764C195.664 165.019 195.002 165.091 194.33 165.088C193.86 165.086 193.389 165.046 192.942 164.883C192.616 164.765 192.297 164.622 191.987 164.463C191.6 164.264 191.254 164.001 190.949 163.684C190.688 163.412 190.494 163.096 190.304 162.774C190.125 162.472 190.028 162.151 190.03 161.806C190.032 161.601 190.053 161.395 190.094 161.195C190.165 160.847 190.241 160.496 190.427 160.189C190.557 159.976 190.709 159.776 190.855 159.572C191.058 159.291 191.294 159.041 191.592 158.856C191.631 158.832 191.663 158.794 191.701 158.761L191.702 158.761ZM195.483 159.904C195.738 160.269 195.917 160.497 196.359 160.746C196.231 159.769 196.339 159.714 196.515 160.479C196.928 160.522 196.899 160.557 197.268 160.38C197.469 160.284 197.416 160.232 197.619 160.142C197.814 160.057 197.953 160.119 198.073 159.955C198.269 159.686 197.63 159.308 197.718 158.981C197.82 158.605 198.052 158.956 197.782 158.661C197.559 158.417 198.246 158.172 197.963 158.021C197.765 157.916 197.553 157.836 197.349 157.744C197.03 157.599 196.706 157.515 196.351 157.558C196.135 157.585 195.943 157.66 195.751 157.747C195.615 157.808 195.467 157.859 195.355 157.953C194.997 158.254 194.771 158.629 194.773 159.124C194.774 159.537 194.835 159.932 195.08 160.349L195.483 159.904Z" fill="#FDF6E9"/>
<circle cx="196.537" cy="159.191" r="1.89753" transform="rotate(82.503 196.537 159.191)" fill="#388596"/>
<path d="M194.702 171.761C194.628 171.618 194.56 171.483 194.489 171.349C194.227 170.846 194.048 170.316 193.96 169.755C193.86 169.116 194.021 168.536 194.314 167.981C194.58 167.48 194.898 167.014 195.279 166.598C195.632 166.212 196.086 166.008 196.599 165.929C197.045 165.86 197.49 165.875 197.925 165.994C198.563 166.167 199.123 166.482 199.558 166.998C199.782 167.262 199.989 167.537 200.172 167.834C200.291 168.026 200.394 168.221 200.477 168.43C200.483 168.443 200.498 168.453 200.507 168.464C200.648 168.327 200.784 168.19 200.924 168.059C201.198 167.805 201.507 167.603 201.847 167.445C202.353 167.21 202.884 167.068 203.443 167.04C203.93 167.016 204.398 167.085 204.813 167.376C205.04 167.535 205.231 167.732 205.39 167.958C205.531 168.158 205.674 168.357 205.796 168.568C206.071 169.042 206.188 169.555 206.154 170.102C206.135 170.401 206.1 170.694 205.996 170.977C205.883 171.286 205.716 171.562 205.517 171.819C205.293 172.109 205.028 172.357 204.737 172.577C204.586 172.69 204.429 172.797 204.267 172.913C204.319 172.98 204.383 173.064 204.449 173.149C204.474 173.182 204.501 173.213 204.524 173.248C204.598 173.357 204.68 173.463 204.741 173.578C204.849 173.782 204.959 173.986 205.042 174.201C205.187 174.579 205.287 174.97 205.283 175.378C205.281 175.697 205.284 176.017 205.191 176.328C205.071 176.731 204.856 177.063 204.519 177.315C204.147 177.593 203.734 177.792 203.292 177.928C202.955 178.031 202.602 178.058 202.247 178.032C202.054 178.018 201.861 177.996 201.671 177.954C201.389 177.892 201.134 177.751 200.888 177.601C200.694 177.484 200.514 177.345 200.324 177.22C200.298 177.203 200.239 177.198 200.221 177.216C199.956 177.473 199.633 177.627 199.295 177.764C198.664 178.019 198.002 178.091 197.33 178.088C196.86 178.086 196.389 178.046 195.942 177.883C195.616 177.765 195.297 177.622 194.987 177.463C194.6 177.264 194.254 177.001 193.949 176.684C193.688 176.412 193.494 176.096 193.304 175.774C193.125 175.472 193.028 175.151 193.03 174.806C193.032 174.601 193.053 174.395 193.094 174.195C193.165 173.847 193.241 173.496 193.427 173.189C193.557 172.976 193.709 172.776 193.855 172.572C194.058 172.291 194.294 172.041 194.592 171.856C194.631 171.832 194.663 171.794 194.701 171.761L194.702 171.761ZM198.483 172.904C198.738 173.269 198.917 173.497 199.359 173.746C199.231 172.769 199.339 172.714 199.515 173.479C199.928 173.522 199.899 173.557 200.268 173.38C200.469 173.284 200.416 173.232 200.619 173.142C200.814 173.057 200.953 173.119 201.073 172.955C201.269 172.686 200.63 172.308 200.718 171.981C200.82 171.605 201.052 171.956 200.782 171.661C200.559 171.417 201.246 171.172 200.963 171.021C200.765 170.916 200.553 170.836 200.349 170.744C200.03 170.599 199.706 170.515 199.351 170.558C199.135 170.585 198.943 170.66 198.751 170.747C198.615 170.808 198.467 170.859 198.355 170.953C197.997 171.254 197.771 171.629 197.773 172.124C197.774 172.537 197.835 172.932 198.08 173.349L198.483 172.904Z" fill="#FDF6E9"/>
<circle cx="199.537" cy="172.191" r="1.89753" transform="rotate(82.503 199.537 172.191)" fill="#388596"/>
<path d="M40.4175 118.317C40.1225 117.641 39.7808 116.977 39.5395 116.28C39.1993 115.298 38.9094 114.299 38.6387 113.294C38.418 112.48 38.3467 111.647 38.4493 110.802C38.5684 109.796 39.1176 109.088 39.95 108.555C40.4113 108.26 40.8854 108.016 41.4499 108.054C42.1385 108.1 42.7838 108.317 43.3911 108.637C44.3797 109.16 45.2188 109.867 46.0167 110.643C47.1 111.701 48.0765 112.85 48.9648 114.074C50.6537 116.396 52.0629 118.871 53.0825 121.559C53.1093 121.632 53.1512 121.696 53.1961 121.791C53.6386 121.299 54.0597 120.834 54.4848 120.367C56.4581 118.194 58.5102 116.098 60.9003 114.374C61.8643 113.678 62.8793 113.056 64.0157 112.666C65.0945 112.296 66.1347 112.317 67.1383 112.913C67.7667 113.287 68.0843 113.866 68.3183 114.528C68.5419 115.163 68.5281 115.813 68.495 116.468C68.4432 117.428 68.2657 118.364 67.8548 119.23C67.46 120.056 67.0367 120.876 66.524 121.633C65.9239 122.517 65.2343 123.339 64.5486 124.16C64.1059 124.691 63.5941 125.166 63.1125 125.665C62.5473 126.248 61.9869 126.838 61.4171 127.414C61.0829 127.748 60.7267 128.06 60.3506 128.414C60.4353 128.426 60.4924 128.44 60.5476 128.435C61.1054 128.402 61.6605 128.341 62.2173 128.34C63.6207 128.33 65.0039 128.484 66.3517 128.893C67.5806 129.266 68.7477 129.783 69.7931 130.527C71.022 131.401 71.9321 132.519 72.3206 134.01C72.6038 135.105 72.5639 136.191 72.1302 137.235C71.755 138.142 70.992 138.652 70.0999 138.975C69.1769 139.31 68.2119 139.37 67.2445 139.363C66.3484 139.352 65.4473 139.331 64.5514 139.281C63.9195 139.245 63.2966 139.138 62.6628 139.083C62.0495 139.033 61.4312 139.017 60.8186 138.976C60.3621 138.943 59.9044 138.899 59.3911 138.857C59.4525 138.958 59.4872 139.031 59.5373 139.097C60.931 140.95 61.9224 143.008 62.6101 145.218C62.9889 146.439 63.2868 147.688 63.281 148.965C63.2751 150.199 63.2589 151.45 62.7339 152.622C62.2188 153.773 61.3593 154.523 60.1651 154.891C59.4192 155.121 58.6477 155.25 57.881 155.053C56.927 154.809 55.9592 154.547 55.2594 153.798C54.6082 153.101 53.9823 152.376 53.3825 151.634C51.5061 149.306 50.052 146.735 48.9829 143.945C48.8611 143.626 48.7471 143.307 48.6013 142.903C48.3957 143.376 48.2235 143.782 48.0466 144.181C47.3327 145.793 46.5563 147.374 45.5826 148.847C44.8661 149.93 44.061 150.918 42.9189 151.583C42.3613 151.911 41.7765 152.161 41.1196 152.24C40.5849 152.307 40.1225 152.088 39.6457 151.927C38.6346 151.585 38.2393 150.775 38.0709 149.801C37.8202 148.337 38.08 146.928 38.5291 145.544C39.093 143.82 39.9353 142.22 40.778 140.624C40.8254 140.536 40.8648 140.449 40.942 140.298C40.5929 140.435 40.307 140.565 40.0091 140.654C39.0229 140.95 38.0436 141.278 37.0427 141.505C36.2289 141.69 35.3854 141.814 34.5533 141.849C33.143 141.912 31.7453 141.73 30.4073 141.257C29.6374 140.984 28.8796 140.67 28.1523 140.302C27.3165 139.88 26.8067 139.121 26.5065 138.267C26.2616 137.574 26.4886 136.908 26.8962 136.3C27.7667 134.996 29.0072 134.11 30.2955 133.267C31.6929 132.359 33.2083 131.729 34.8053 131.287C35.5728 131.074 36.3562 130.904 37.1438 130.778C38.4764 130.567 39.8213 130.404 41.1605 130.22C41.192 130.217 41.2224 130.203 41.3345 130.168C40.8731 130.001 40.486 129.863 40.0985 129.721C38.4423 129.123 36.8359 128.42 35.3044 127.543C34.1686 126.896 33.1023 126.142 32.143 125.258C30.6478 123.885 29.45 122.292 28.6847 120.396C28.3677 119.615 28.1556 118.807 28.1466 117.961C28.134 116.574 28.8056 115.563 29.9319 114.815C30.4857 114.448 31.0768 114.137 31.7397 114.122C32.347 114.108 32.9744 114.179 33.5684 114.318C34.9355 114.637 36.1392 115.33 37.2842 116.116C38.2465 116.781 39.1774 117.492 40.1222 118.182C40.2078 118.245 40.297 118.304 40.3822 118.364L40.4097 118.317L40.4175 118.317ZM55.5423 132.985C55.475 132.57 55.3997 132.155 55.3402 131.739C55.1729 130.566 54.612 129.605 53.6735 128.898C53.0048 128.393 52.2886 127.932 51.5473 127.541C50.7678 127.126 49.923 126.944 49.0232 127.145C47.7967 127.425 46.7132 127.954 45.8555 128.89C45.3187 129.479 44.7838 130.086 44.7314 130.915C44.6712 131.871 44.6674 132.835 44.6991 133.794C44.7242 134.56 45.0979 135.185 45.6609 135.708C46.3765 136.372 47.2585 136.694 48.1703 136.953C50.3411 137.566 52.3767 137.344 54.1932 135.906C55.1252 135.165 55.7352 134.26 55.5423 132.985Z" fill="#FDF6E9"/>
<path d="M344.251 40.4588C344.884 40.0801 345.499 39.6569 346.159 39.3289C347.09 38.8666 348.044 38.452 349.006 38.0559C349.786 37.7334 350.603 37.5568 351.454 37.5511C352.467 37.5414 353.24 37.996 353.874 38.754C354.225 39.1741 354.527 39.6133 354.561 40.178C354.603 40.8669 354.47 41.5345 354.23 42.1776C353.837 43.2246 353.242 44.1469 352.574 45.0368C351.662 46.246 350.647 47.3606 349.546 48.3973C347.457 50.3677 345.181 52.0802 342.645 53.4332C342.576 53.4691 342.518 53.5187 342.429 53.5753C342.973 53.9517 343.489 54.3102 344.005 54.6726C346.411 56.3536 348.752 58.1225 350.765 60.2741C351.578 61.1418 352.324 62.0695 352.856 63.147C353.359 64.1701 353.472 65.2045 353.007 66.2758C352.716 66.9465 352.183 67.3351 351.556 67.6514C350.955 67.9539 350.308 68.0229 349.654 68.0734C348.695 68.144 347.744 68.0869 346.833 67.7896C345.964 67.5028 345.097 67.1873 344.281 66.7749C343.327 66.2922 342.425 65.7126 341.523 65.1369C340.94 64.7653 340.404 64.318 339.847 63.9038C339.197 63.4173 338.541 62.9365 337.897 62.4445C337.523 62.1554 337.168 61.8419 336.769 61.5139C336.768 61.5994 336.761 61.6578 336.774 61.7119C336.877 62.2609 337.008 62.8038 337.08 63.356C337.269 64.7466 337.291 66.1383 337.057 67.5271C336.844 68.7934 336.479 70.0169 335.874 71.1484C335.164 72.4784 334.17 73.5233 332.741 74.0982C331.691 74.5183 330.608 74.6168 329.518 74.3193C328.571 74.0625 327.968 73.3705 327.533 72.5267C327.084 71.6538 326.902 70.7043 326.786 69.7438C326.682 68.8537 326.589 67.9571 326.525 67.0621C326.48 66.4308 326.507 65.7993 326.482 65.1636C326.452 64.549 326.39 63.9337 326.353 63.3208C326.327 62.8639 326.312 62.4043 326.289 61.8898C326.197 61.9636 326.129 62.0072 326.069 62.0654C324.409 63.6833 322.494 64.9283 320.389 65.8915C319.226 66.4224 318.025 66.8766 316.758 67.0333C315.533 67.1843 314.29 67.3272 313.061 66.9555C311.854 66.5909 311.001 65.8337 310.484 64.696C310.161 63.9854 309.935 63.2367 310.033 62.4511C310.153 61.4738 310.29 60.4806 310.944 59.6912C311.553 58.9566 312.192 58.2437 312.852 57.5544C314.922 55.3972 317.288 53.6282 319.919 52.2129C320.22 52.0516 320.522 51.898 320.904 51.702C320.409 51.5582 319.984 51.439 319.566 51.3143C317.877 50.8111 316.209 50.242 314.624 49.4635C313.459 48.8905 312.377 48.2175 311.572 47.1693C311.176 46.6579 310.853 46.1097 310.692 45.4681C310.558 44.9462 310.716 44.4598 310.815 43.9663C311.025 42.92 311.778 42.4249 312.724 42.134C314.144 41.6992 315.575 41.7777 317.004 42.0474C318.786 42.3874 320.48 43.0195 322.17 43.6525C322.263 43.6882 322.355 43.7162 322.514 43.7736C322.334 43.4448 322.168 43.1778 322.043 42.8935C321.623 41.953 321.174 41.0233 320.822 40.0594C320.535 39.2757 320.305 38.4548 320.164 37.634C319.922 36.2431 319.924 34.8337 320.224 33.4464C320.397 32.648 320.611 31.8564 320.884 31.0882C321.196 30.2056 321.885 29.6034 322.694 29.197C323.35 28.866 324.04 29.0065 324.694 29.3336C326.098 30.0311 327.135 31.1489 328.134 32.3196C329.213 33.5902 330.031 35.0133 330.672 36.541C330.98 37.2753 331.249 38.0308 331.475 38.7958C331.853 40.0909 332.186 41.4041 332.538 42.7091C332.545 42.74 332.564 42.7683 332.612 42.8751C332.719 42.3961 332.807 41.9946 332.899 41.5922C333.281 39.8734 333.774 38.1907 334.449 36.5602C334.947 35.3513 335.559 34.1978 336.313 33.134C337.485 31.4763 338.913 30.0857 340.697 29.0855C341.431 28.6717 342.205 28.3587 343.044 28.2422C344.418 28.0533 345.506 28.5909 346.391 29.613C346.825 30.1157 347.209 30.6624 347.308 31.318C347.399 31.9186 347.408 32.55 347.346 33.1568C347.203 34.5534 346.669 35.8355 346.035 37.0711C345.498 38.11 344.911 39.1238 344.347 40.1487C344.295 40.2417 344.248 40.3376 344.199 40.4298L344.249 40.451L344.251 40.4588ZM331.624 57.3257C332.027 57.2061 332.429 57.0788 332.834 56.9669C333.977 56.6517 334.859 55.9731 335.44 54.9525C335.856 54.225 336.222 53.456 336.516 52.671C336.829 51.8451 336.902 50.984 336.588 50.117C336.155 48.936 335.492 47.9285 334.454 47.197C333.802 46.7393 333.131 46.286 332.303 46.3393C331.347 46.4013 330.391 46.5199 329.443 46.6734C328.687 46.7956 328.115 47.2457 327.667 47.8707C327.1 48.6649 326.893 49.5806 326.751 50.518C326.419 52.7491 326.898 54.74 328.555 56.359C329.409 57.1892 330.384 57.6791 331.624 57.3257Z" fill="#FDF6E9"/>
<circle cx="50.1569" cy="132.466" r="5.81744" transform="rotate(-133.669 50.1569 132.466)" fill="#DE6843"/>
<circle cx="331.225" cy="51.9177" r="5.81744" transform="rotate(-133.669 331.225 51.9177)" fill="#DE6843"/>
</g>
<defs>
<clipPath id="clip0_902_10940">
<rect width="393" height="183" fill="white"/>
</clipPath>
</defs>
</svg>
