<svg width="393" height="391" viewBox="0 0 393 391" fill="none" xmlns="http://www.w3.org/2000/svg">
<g clip-path="url(#clip0_836_7996)">
<g filter="url(#filter0_i_836_7996)">
<path d="M316.5 195.5C316.5 278.619 284.5 360.5 172 312.5C90.5379 312.5 25.4996 275.5 75.9994 187.5C43.4996 118.5 90.4998 34.4999 190.5 66C271.962 66 334.5 95.5 316.5 195.5Z" fill="#7B8C82"/>
</g>
<g clip-path="url(#clip1_836_7996)">
<rect x="91" y="136.777" width="110.212" height="66.9919" rx="33.4959" transform="rotate(-18.7785 91 136.777)" fill="#D2D2D8"/>
<g filter="url(#filter1_ddd_836_7996)">
<rect x="96.4834" y="139.478" width="58.3477" height="58.3477" rx="29.1739" transform="rotate(-18.7785 96.4834 139.478)" fill="white"/>
</g>
</g>
<g filter="url(#filter2_d_836_7996)">
<path d="M159.398 227.202C159.516 214.855 171.891 200.692 171.891 200.692L157.378 180.03C157.378 180.03 150.642 171.544 145.491 159.44C142.949 153.466 144.329 144.549 151.412 143.491C155.752 142.842 168.079 156.4 168.079 156.4L178.508 171.823C178.508 171.823 187.48 182.08 194.216 190.566C198.764 196.295 213.327 205.983 213.327 205.983C213.327 205.983 211.403 191.353 214.54 182.581C220.85 164.934 238.711 175.922 238.711 175.922C238.711 175.922 231.522 193.14 235.317 203.904C238 211.513 247.177 221.319 247.177 221.319C247.177 221.319 248.493 223.09 245.438 230.546C242.867 236.823 240.088 242.362 243.157 247.086C253.628 263.197 279.587 280.8 279.587 280.8C279.587 280.8 306.347 298.193 326.383 298.934C352.182 299.889 369.157 295.106 379.133 284.404C399.392 262.669 398.082 199.234 398.082 199.234C398.082 199.234 436.494 181.007 455.226 192.052C474.07 203.165 470.312 245.525 470.312 245.525C470.312 245.525 450.265 317.513 406.277 338.973C383.205 350.231 368.967 355.83 343.457 359.459C327.558 361.721 309.1 358.713 295.295 355.926C281.49 353.138 267.709 345.877 246.517 332.865C225.325 319.854 189.615 278.909 189.615 278.909C189.615 278.909 159.971 266.386 160.575 246.764C160.674 243.521 161.715 238.496 161.715 238.496C161.715 238.496 159.354 231.724 159.398 227.202Z" fill="#F2ACAC"/>
</g>
<path d="M144.094 309.489C144.213 309.94 144.32 310.365 144.434 310.788C144.856 312.379 145.023 313.991 144.911 315.633C144.784 317.501 143.953 319.038 142.76 320.417C141.679 321.666 140.474 322.777 139.118 323.71C137.866 324.573 136.441 324.86 134.927 324.754C133.613 324.662 132.357 324.337 131.194 323.722C129.488 322.822 128.099 321.575 127.192 319.838C126.726 318.947 126.312 318.037 125.982 317.083C125.768 316.464 125.6 315.847 125.498 315.203C125.492 315.162 125.455 315.125 125.436 315.087C124.947 315.383 124.471 315.683 123.986 315.963C123.043 316.508 122.032 316.88 120.963 317.107C119.368 317.449 117.765 317.508 116.156 317.229C114.754 316.988 113.466 316.493 112.47 315.403C111.927 314.807 111.511 314.129 111.203 313.389C110.931 312.735 110.652 312.081 110.441 311.407C109.966 309.889 109.961 308.365 110.414 306.84C110.659 306.007 110.948 305.204 111.427 304.47C111.948 303.67 112.602 302.997 113.335 302.396C114.16 301.721 115.074 301.191 116.045 300.756C116.548 300.531 117.063 300.331 117.6 300.107C117.496 299.885 117.366 299.606 117.235 299.324C117.185 299.214 117.128 299.108 117.084 298.996C116.946 298.639 116.78 298.289 116.68 297.922C116.503 297.279 116.322 296.629 116.225 295.97C116.056 294.81 116.023 293.639 116.296 292.49C116.51 291.589 116.708 290.684 117.173 289.863C117.774 288.801 118.602 288.001 119.724 287.506C120.963 286.958 122.268 286.659 123.613 286.559C124.641 286.483 125.663 286.632 126.655 286.933C127.196 287.097 127.734 287.284 128.245 287.522C129.011 287.879 129.645 288.441 130.25 289.022C130.725 289.477 131.149 289.987 131.609 290.461C131.671 290.524 131.836 290.578 131.899 290.538C132.82 289.981 133.84 289.752 134.891 289.581C136.851 289.266 138.782 289.485 140.693 289.924C142.032 290.233 143.347 290.648 144.516 291.392C145.366 291.936 146.184 292.545 146.962 293.192C147.937 294.004 148.753 294.967 149.416 296.059C149.984 296.995 150.333 298.011 150.667 299.045C150.981 300.011 151.049 300.982 150.82 301.955C150.685 302.532 150.49 303.1 150.245 303.639C149.819 304.577 149.374 305.52 148.646 306.268C148.141 306.789 147.577 307.257 147.03 307.738C146.269 308.404 145.436 308.957 144.47 309.29C144.341 309.334 144.226 309.42 144.096 309.488L144.094 309.489ZM134.066 303.836C133.573 302.643 133.214 301.882 132.114 300.897C131.849 303.74 131.504 303.824 131.496 301.55C130.35 301.163 130.453 301.085 129.29 301.348C128.656 301.492 128.773 301.672 128.135 301.795C127.527 301.91 127.17 301.647 126.723 302.034C125.991 302.669 127.567 304.147 127.105 305.013C126.572 306.01 126.139 304.871 126.715 305.877C127.193 306.708 125.079 306.961 125.789 307.569C126.284 307.993 126.835 308.353 127.358 308.746C128.171 309.358 129.039 309.805 130.081 309.91C130.711 309.972 131.307 309.882 131.909 309.761C132.336 309.674 132.791 309.625 133.169 309.432C134.384 308.81 135.27 307.897 135.584 306.497C135.848 305.327 135.927 304.172 135.501 302.838L134.066 303.836Z" fill="#DE6843"/>
<circle cx="130.588" cy="305.176" r="5.49827" transform="rotate(-84.7262 130.588 305.176)" fill="#FDF6E9"/>
<path d="M309.831 144.209C310.295 144.28 310.732 144.342 311.168 144.412C312.806 144.666 314.439 144.666 316.073 144.388C317.933 144.072 319.389 143.095 320.65 141.777C321.791 140.583 322.782 139.28 323.579 137.846C324.317 136.521 324.459 135.086 324.199 133.602C323.972 132.315 323.518 131.107 322.783 130.022C321.707 128.43 320.315 127.186 318.482 126.467C317.541 126.098 316.587 125.782 315.596 125.554C314.954 125.405 314.318 125.302 313.663 125.268C313.62 125.266 313.579 125.234 313.54 125.218C313.787 124.705 314.038 124.205 314.27 123.698C314.72 122.712 314.99 121.675 315.109 120.597C315.289 118.987 315.185 117.399 314.741 115.838C314.356 114.48 313.728 113.259 312.534 112.387C311.882 111.911 311.159 111.57 310.386 111.341C309.702 111.139 309.018 110.93 308.321 110.791C306.751 110.477 305.223 110.627 303.741 111.23C302.93 111.557 302.155 111.924 301.468 112.472C300.719 113.067 300.111 113.782 299.584 114.567C298.991 115.45 298.553 116.406 298.216 117.41C298.042 117.929 297.893 118.458 297.724 119.011C297.491 118.931 297.197 118.831 296.902 118.731C296.787 118.692 296.675 118.647 296.558 118.615C296.186 118.515 295.818 118.387 295.44 118.325C294.777 118.216 294.107 118.104 293.436 118.075C292.257 118.027 291.079 118.114 289.956 118.501C289.074 118.804 288.187 119.091 287.411 119.634C286.408 120.336 285.691 121.235 285.309 122.392C284.886 123.672 284.719 124.99 284.756 126.328C284.785 127.351 285.039 128.345 285.441 129.294C285.661 129.81 285.903 130.323 286.194 130.803C286.63 131.523 287.258 132.092 287.902 132.629C288.406 133.052 288.961 133.418 289.484 133.824C289.553 133.879 289.624 134.037 289.59 134.102C289.126 135.069 289 136.099 288.936 137.153C288.82 139.12 289.236 141.005 289.872 142.847C290.317 144.137 290.868 145.393 291.733 146.47C292.365 147.255 293.059 147.999 293.787 148.702C294.7 149.582 295.749 150.289 296.912 150.832C297.908 151.297 298.962 151.539 300.032 151.762C301.033 151.974 302.012 151.942 302.965 151.617C303.529 151.424 304.079 151.175 304.594 150.878C305.491 150.361 306.391 149.826 307.067 149.03C307.537 148.479 307.949 147.875 308.375 147.285C308.965 146.467 309.435 145.587 309.67 144.6C309.701 144.468 309.775 144.346 309.831 144.211L309.831 144.209ZM303.142 134.885C301.895 134.521 301.096 134.243 299.996 133.258C302.819 132.707 302.868 132.358 300.588 132.582C300.083 131.49 300.015 131.599 300.16 130.424C300.24 129.784 300.432 129.881 300.49 129.239C300.544 128.626 300.244 128.301 300.586 127.82C301.148 127.033 302.79 128.438 303.612 127.894C304.556 127.265 303.37 126.954 304.438 127.42C305.32 127.807 305.358 125.695 306.039 126.334C306.515 126.779 306.932 127.286 307.38 127.763C308.075 128.503 308.613 129.314 308.824 130.332C308.95 130.948 308.921 131.545 308.861 132.151C308.818 132.582 308.814 133.037 308.66 133.429C308.16 134.692 307.335 135.66 305.963 136.113C304.818 136.492 303.669 136.689 302.288 136.403L303.142 134.885Z" fill="#DE6843"/>
<circle cx="5.49827" cy="5.49827" r="5.49827" transform="matrix(-0.981199 0.192998 0.192998 0.981199 308.619 124.844)" fill="#FDF6E9"/>
<path d="M87.7747 294.546C88.107 294.875 88.4168 295.187 88.7312 295.494C89.9071 296.654 90.8744 297.96 91.6162 299.431C92.4603 301.106 92.5291 302.849 92.2052 304.638C91.911 306.257 91.439 307.821 90.7468 309.308C90.1079 310.682 89.0261 311.645 87.667 312.316C86.4874 312.897 85.2384 313.249 83.9219 313.303C81.9915 313.385 80.1569 313.008 78.4881 311.968C77.6315 311.434 76.8098 310.858 76.0386 310.201C75.5373 309.775 75.0772 309.327 74.661 308.824C74.6342 308.791 74.584 308.777 74.548 308.755C74.2777 309.256 74.0203 309.754 73.7457 310.239C73.211 311.183 72.5291 312.012 71.7242 312.746C70.5233 313.842 69.1717 314.7 67.6416 315.269C66.3103 315.765 64.9474 315.986 63.5323 315.548C62.7593 315.307 62.0545 314.932 61.4114 314.448C60.8427 314.021 60.2676 313.598 59.7417 313.123C58.5571 312.053 57.775 310.742 57.3863 309.2C57.1725 308.358 57.0115 307.52 57.0501 306.647C57.09 305.695 57.3101 304.786 57.6351 303.899C58.0021 302.903 58.5189 301.986 59.1344 301.123C59.4527 300.676 59.795 300.244 60.1433 299.781C59.9403 299.642 59.6856 299.467 59.4292 299.29C59.3293 299.22 59.2266 299.157 59.1313 299.083C58.8297 298.845 58.508 298.626 58.2342 298.361C57.7532 297.895 57.2654 297.426 56.8449 296.906C56.1073 295.992 55.4811 294.998 55.13 293.87C54.8542 292.986 54.5623 292.106 54.5438 291.165C54.5199 289.946 54.8254 288.841 55.5392 287.85C56.3281 286.754 57.2999 285.841 58.4083 285.078C59.256 284.495 60.2138 284.11 61.2224 283.87C61.772 283.74 62.3311 283.63 62.8942 283.579C63.7363 283.501 64.5699 283.666 65.3877 283.863C66.03 284.016 66.656 284.243 67.295 284.421C67.3803 284.444 67.5503 284.407 67.5837 284.342C68.0937 283.398 68.8558 282.687 69.6744 282.012C71.2029 280.754 72.9798 279.972 74.8522 279.389C76.1632 278.982 77.509 278.679 78.8968 278.733C79.9077 278.773 80.9235 278.888 81.9247 279.054C83.18 279.264 84.3755 279.683 85.5047 280.292C86.4722 280.813 87.2923 281.513 88.1073 282.236C88.8716 282.912 89.4259 283.714 89.7261 284.668C89.9034 285.234 90.0264 285.821 90.0902 286.409C90.2012 287.432 90.3 288.469 90.0539 289.48C89.884 290.183 89.6376 290.87 89.4111 291.56C89.0956 292.516 88.6596 293.412 87.9969 294.185C87.9085 294.288 87.8533 294.42 87.7762 294.544L87.7747 294.546ZM76.2427 294.716C75.2086 293.934 74.5102 293.46 73.0586 293.163C74.2827 295.748 74.0282 295.993 72.8603 294.037C71.6745 294.28 71.7231 294.161 70.8545 294.973C70.3816 295.415 70.5745 295.511 70.0874 295.938C69.6219 296.344 69.1799 296.296 68.9922 296.855C68.6855 297.77 70.7989 298.251 70.8429 299.231C70.8919 300.358 69.9371 299.594 70.9477 300.172C71.784 300.648 70.0909 301.929 71.0134 302.096C71.6566 302.213 72.3156 302.246 72.9676 302.322C73.9804 302.44 74.9573 302.389 75.9086 301.956C76.4837 301.692 76.9512 301.315 77.4084 300.908C77.7322 300.619 78.0999 300.347 78.3274 299.991C79.057 298.843 79.354 297.611 78.9099 296.246C78.5398 295.105 78.0191 294.069 76.9699 293.134L76.2427 294.716Z" fill="#E14A68"/>
<circle cx="73.8194" cy="297.612" r="5.49827" transform="rotate(-115.174 73.8194 297.612)" fill="#FDF6E9"/>
<path d="M298.62 93.1375C298.984 93.432 299.329 93.706 299.669 93.9851C300.951 95.0276 302.359 95.8493 303.91 96.4316C305.674 97.0941 307.429 96.9842 309.189 96.4819C310.782 96.0263 312.302 95.4009 313.721 94.566C315.034 93.7951 315.889 92.6289 316.423 91.2188C316.885 89.9951 317.11 88.7261 317.03 87.4209C316.916 85.5069 316.351 83.7342 315.138 82.193C314.515 81.4018 313.854 80.6494 313.116 79.9551C312.638 79.5036 312.143 79.0951 311.595 78.7356C311.56 78.7124 311.541 78.6643 311.515 78.6311C311.99 78.3131 312.462 78.0082 312.921 77.6876C313.812 77.0635 314.574 76.3058 315.227 75.4364C316.204 74.139 316.926 72.7173 317.34 71.1487C317.702 69.7838 317.785 68.4159 317.201 67.0636C316.881 66.325 316.432 65.6675 315.882 65.082C315.396 64.5641 314.913 64.0396 314.383 63.5689C313.19 62.5085 311.796 61.8702 310.21 61.6438C309.345 61.5186 308.488 61.4451 307.617 61.5723C306.667 61.7087 305.779 62.0187 304.923 62.43C303.961 62.8939 303.095 63.4976 302.292 64.1933C301.876 64.5531 301.478 64.935 301.05 65.3262C300.89 65.1399 300.688 64.9064 300.485 64.6712C300.405 64.5797 300.331 64.4847 300.247 64.3983C299.978 64.1248 299.725 63.8296 299.431 63.5863C298.915 63.159 298.396 62.7253 297.832 62.3631C296.84 61.7283 295.78 61.2115 294.614 60.9799C293.699 60.7978 292.787 60.5994 291.842 60.6772C290.618 60.7779 289.541 61.1922 288.62 61.9979C287.602 62.8885 286.786 63.941 286.134 65.1129C285.636 66.0093 285.348 66.9941 285.21 68.0142C285.136 68.5701 285.083 69.1332 285.089 69.6943C285.097 70.5335 285.347 71.3397 285.628 72.1268C285.847 72.7453 286.139 73.3401 286.382 73.9529C286.413 74.0348 286.394 74.2063 286.332 74.2459C285.437 74.8457 284.803 75.6705 284.21 76.5475C283.105 78.1846 282.502 80.0186 282.109 81.9264C281.834 83.2621 281.668 84.6217 281.863 85.9862C282.007 86.98 282.226 87.9711 282.494 88.9425C282.832 90.1604 283.375 91.2978 284.1 92.3505C284.721 93.2523 285.507 93.9905 286.315 94.7214C287.07 95.407 287.931 95.8724 288.918 96.0714C289.503 96.1887 290.104 96.2502 290.7 96.2533C291.737 96.2585 292.786 96.2503 293.775 95.9042C294.462 95.6648 295.126 95.3515 295.794 95.0575C296.72 94.6486 297.574 94.1267 298.282 93.3937C298.375 93.296 298.502 93.228 298.619 93.1392L298.62 93.1375ZM297.614 81.7359C296.725 80.7948 296.179 80.1537 295.733 78.7509C298.449 79.6957 298.669 79.4195 296.589 78.466C296.711 77.2708 296.597 77.3309 297.322 76.3906C297.717 75.8786 297.834 76.0591 298.212 75.5348C298.571 75.0338 298.478 74.6024 299.019 74.3601C299.905 73.964 300.603 76.0012 301.59 75.9448C302.725 75.8782 301.861 75.0135 302.544 75.9523C303.106 76.7293 304.218 74.9273 304.479 75.8208C304.662 76.4439 304.762 77.0911 304.905 77.727C305.127 78.7148 305.176 79.6843 304.838 80.6676C304.632 81.2623 304.302 81.7622 303.941 82.2551C303.684 82.6043 303.448 82.995 303.115 83.2559C302.039 84.0932 300.834 84.5121 299.42 84.2129C298.238 83.9639 297.148 83.5556 296.103 82.6151L297.614 81.7359Z" fill="#E14A68"/>
<circle cx="5.49827" cy="5.49827" r="5.49827" transform="matrix(-0.943685 -0.330847 -0.330847 0.943685 307.439 75.8506)" fill="#FDF6E9"/>
<path d="M76.3487 248.759C76.681 249.088 76.9908 249.4 77.3052 249.707C78.4811 250.867 79.4484 252.173 80.1902 253.644C81.0343 255.318 81.1031 257.062 80.7791 258.851C80.485 260.47 80.013 262.034 79.3208 263.521C78.6819 264.895 77.6001 265.858 76.2409 266.529C75.0614 267.11 73.8124 267.462 72.4958 267.516C70.5655 267.598 68.7308 267.221 67.0621 266.181C66.2055 265.647 65.3838 265.071 64.6125 264.413C64.1112 263.988 63.6512 263.54 63.235 263.037C63.2082 263.004 63.158 262.99 63.122 262.968C62.8517 263.469 62.5943 263.966 62.3196 264.452C61.785 265.396 61.1031 266.225 60.2982 266.959C59.0973 268.055 57.7457 268.913 56.2156 269.481C54.8842 269.978 53.5214 270.199 52.1063 269.76C51.3333 269.52 50.6284 269.144 49.9854 268.661C49.4167 268.234 48.8416 267.811 48.3157 267.336C47.131 266.266 46.349 264.955 45.9603 263.413C45.7465 262.571 45.5855 261.733 45.6241 260.86C45.664 259.908 45.8841 258.999 46.2091 258.112C46.5761 257.116 47.0929 256.199 47.7084 255.336C48.0267 254.889 48.3689 254.457 48.7173 253.994C48.5143 253.855 48.2596 253.679 48.0031 253.503C47.9033 253.433 47.8005 253.37 47.7052 253.296C47.4037 253.058 47.082 252.839 46.8082 252.574C46.3272 252.108 45.8394 251.639 45.4188 251.119C44.6813 250.204 44.0551 249.211 43.7039 248.083C43.4282 247.199 43.1363 246.319 43.1178 245.378C43.0939 244.159 43.3994 243.054 44.1132 242.063C44.9021 240.967 45.8739 240.054 46.9822 239.291C47.83 238.708 48.7878 238.323 49.7964 238.083C50.346 237.953 50.9051 237.843 51.4682 237.792C52.3102 237.714 53.1439 237.879 53.9616 238.076C54.604 238.229 55.2299 238.456 55.869 238.633C55.9543 238.657 56.1243 238.62 56.1577 238.554C56.6677 237.61 57.4298 236.9 58.2484 236.225C59.7768 234.967 61.5538 234.185 63.4261 233.602C64.7371 233.195 66.083 232.892 67.4708 232.946C68.4817 232.986 69.4975 233.101 70.4987 233.267C71.754 233.477 72.9494 233.896 74.0787 234.505C75.0461 235.026 75.8662 235.726 76.6813 236.449C77.4456 237.125 77.9999 237.927 78.3001 238.881C78.4774 239.447 78.6003 240.034 78.6642 240.622C78.7752 241.645 78.8739 242.682 78.6278 243.693C78.458 244.396 78.2116 245.083 77.9851 245.773C77.6696 246.729 77.2336 247.625 76.5709 248.398C76.4825 248.501 76.4273 248.632 76.3502 248.757L76.3487 248.759ZM64.8167 248.929C63.7826 248.147 63.0841 247.673 61.6325 247.376C62.8566 249.961 62.6021 250.206 61.4342 248.25C60.2485 248.493 60.2971 248.374 59.4285 249.185C58.9556 249.628 59.1484 249.724 58.6613 250.151C58.1958 250.557 57.7538 250.509 57.5662 251.068C57.2595 251.983 59.3729 252.464 59.4169 253.444C59.4659 254.571 58.5111 253.807 59.5217 254.385C60.358 254.861 58.6649 256.142 59.5874 256.309C60.2306 256.426 60.8896 256.459 61.5416 256.535C62.5544 256.653 63.5312 256.602 64.4825 256.169C65.0577 255.905 65.5251 255.528 65.9823 255.121C66.3062 254.832 66.6739 254.56 66.9014 254.204C67.6309 253.056 67.928 251.824 67.4838 250.459C67.1138 249.317 66.5931 248.282 65.5439 247.347L64.8167 248.929Z" fill="#388596"/>
<circle cx="62.5821" cy="251.824" r="5.49827" transform="rotate(-115.174 62.5821 251.824)" fill="#FDF6E9"/>
<path d="M252.822 86.596C253.185 86.8905 253.53 87.1645 253.87 87.4436C255.153 88.4861 256.56 89.3078 258.111 89.8901C259.875 90.5526 261.63 90.4427 263.39 89.9404C264.984 89.4848 266.503 88.8594 267.923 88.0245C269.235 87.2536 270.09 86.0874 270.624 84.6773C271.086 83.4536 271.311 82.1846 271.232 80.8794C271.117 78.9654 270.552 77.1927 269.339 75.6515C268.717 74.8603 268.055 74.1079 267.318 73.4135C266.84 72.9621 266.344 72.5536 265.797 72.1941C265.761 72.1709 265.743 72.1228 265.716 72.0896C266.191 71.7716 266.664 71.4667 267.122 71.1461C268.014 70.522 268.776 69.7643 269.429 68.8949C270.406 67.5975 271.127 66.1758 271.541 64.6072C271.903 63.2423 271.986 61.8744 271.402 60.5221C271.082 59.7835 270.634 59.126 270.084 58.5405C269.598 58.0226 269.114 57.4981 268.585 57.0274C267.392 55.967 265.998 55.3287 264.412 55.1023C263.546 54.9771 262.69 54.9036 261.818 55.0307C260.869 55.1672 259.98 55.4772 259.124 55.8885C258.162 56.3524 257.296 56.9561 256.493 57.6518C256.078 58.0116 255.68 58.3935 255.251 58.7847C255.091 58.5984 254.889 58.3649 254.686 58.1297C254.606 58.0382 254.533 57.9432 254.448 57.8568C254.179 57.5833 253.927 57.2881 253.633 57.0448C253.117 56.6175 252.597 56.1838 252.033 55.8216C251.041 55.1868 249.981 54.67 248.815 54.4383C247.901 54.2563 246.989 54.0579 246.043 54.1356C244.819 54.2364 243.742 54.6507 242.822 55.4564C241.804 56.347 240.987 57.3995 240.335 58.5714C239.838 59.4678 239.549 60.4526 239.412 61.4727C239.337 62.0286 239.284 62.5917 239.29 63.1528C239.298 63.992 239.549 64.7981 239.83 65.5853C240.049 66.2038 240.34 66.7986 240.583 67.4114C240.615 67.4933 240.595 67.6648 240.533 67.7044C239.639 68.3042 239.005 69.129 238.411 70.006C237.306 71.6431 236.703 73.4771 236.31 75.3849C236.036 76.7206 235.869 78.0802 236.065 79.4447C236.208 80.4385 236.427 81.4296 236.696 82.401C237.034 83.6189 237.576 84.7563 238.301 85.809C238.923 86.7108 239.708 87.449 240.516 88.1799C241.271 88.8655 242.132 89.3309 243.119 89.5299C243.704 89.6472 244.306 89.7087 244.901 89.7118C245.938 89.717 246.988 89.7088 247.976 89.3627C248.663 89.1233 249.327 88.81 249.995 88.516C250.922 88.1071 251.776 87.5852 252.483 86.8522C252.577 86.7545 252.703 86.6865 252.82 86.5977L252.822 86.596ZM251.816 75.1944C250.927 74.2533 250.38 73.6122 249.935 72.2094C252.65 73.1542 252.87 72.878 250.791 71.9245C250.913 70.7293 250.799 70.7894 251.524 69.8491C251.919 69.3371 252.035 69.5176 252.413 68.9933C252.773 68.4923 252.68 68.0609 253.221 67.8186C254.107 67.4225 254.805 69.4597 255.791 69.4033C256.926 69.3367 256.063 68.472 256.745 69.4108C257.308 70.1878 258.419 68.3857 258.681 69.2793C258.864 69.9024 258.964 70.5496 259.106 71.1855C259.328 72.1733 259.377 73.1428 259.039 74.1261C258.834 74.7208 258.504 75.2207 258.142 75.7136C257.885 76.0628 257.65 76.4535 257.316 76.7144C256.24 77.5517 255.035 77.9706 253.621 77.6714C252.44 77.4224 251.349 77.014 250.304 76.0736L251.816 75.1944Z" fill="#388596"/>
<circle cx="5.49827" cy="5.49827" r="5.49827" transform="matrix(-0.943685 -0.330847 -0.330847 0.943685 261.641 69.3091)" fill="#FDF6E9"/>
</g>
<defs>
<filter id="filter0_i_836_7996" x="58.2297" y="59.1804" width="261.379" height="271.573" filterUnits="userSpaceOnUse" color-interpolation-filters="sRGB">
<feFlood flood-opacity="0" result="BackgroundImageFix"/>
<feBlend mode="normal" in="SourceGraphic" in2="BackgroundImageFix" result="shape"/>
<feColorMatrix in="SourceAlpha" type="matrix" values="0 0 0 0 0 0 0 0 0 0 0 0 0 0 0 0 0 0 127 0" result="hardAlpha"/>
<feOffset dy="4"/>
<feGaussianBlur stdDeviation="2"/>
<feComposite in2="hardAlpha" operator="arithmetic" k2="-1" k3="1"/>
<feColorMatrix type="matrix" values="0 0 0 0 0 0 0 0 0 0 0 0 0 0 0 0 0 0 0.25 0"/>
<feBlend mode="normal" in2="shape" result="effect1_innerShadow_836_7996"/>
</filter>
<filter id="filter1_ddd_836_7996" x="79.1952" y="109.89" width="108.601" height="108.601" filterUnits="userSpaceOnUse" color-interpolation-filters="sRGB">
<feFlood flood-opacity="0" result="BackgroundImageFix"/>
<feColorMatrix in="SourceAlpha" type="matrix" values="0 0 0 0 0 0 0 0 0 0 0 0 0 0 0 0 0 0 127 0" result="hardAlpha"/>
<feOffset dy="6.48308"/>
<feGaussianBlur stdDeviation="1.08051"/>
<feComposite in2="hardAlpha" operator="out"/>
<feColorMatrix type="matrix" values="0 0 0 0 0 0 0 0 0 0 0 0 0 0 0 0 0 0 0.06 0"/>
<feBlend mode="normal" in2="BackgroundImageFix" result="effect1_dropShadow_836_7996"/>
<feColorMatrix in="SourceAlpha" type="matrix" values="0 0 0 0 0 0 0 0 0 0 0 0 0 0 0 0 0 0 127 0" result="hardAlpha"/>
<feOffset dy="6.48308"/>
<feGaussianBlur stdDeviation="8.64411"/>
<feComposite in2="hardAlpha" operator="out"/>
<feColorMatrix type="matrix" values="0 0 0 0 0 0 0 0 0 0 0 0 0 0 0 0 0 0 0.15 0"/>
<feBlend mode="normal" in2="effect1_dropShadow_836_7996" result="effect2_dropShadow_836_7996"/>
<feColorMatrix in="SourceAlpha" type="matrix" values="0 0 0 0 0 0 0 0 0 0 0 0 0 0 0 0 0 0 127 0" result="hardAlpha"/>
<feMorphology radius="2.16103" operator="dilate" in="SourceAlpha" result="effect3_dropShadow_836_7996"/>
<feOffset/>
<feComposite in2="hardAlpha" operator="out"/>
<feColorMatrix type="matrix" values="0 0 0 0 0 0 0 0 0 0 0 0 0 0 0 0 0 0 0.04 0"/>
<feBlend mode="normal" in2="effect2_dropShadow_836_7996" result="effect3_dropShadow_836_7996"/>
<feBlend mode="normal" in="SourceGraphic" in2="effect3_dropShadow_836_7996" result="shape"/>
</filter>
<filter id="filter2_d_836_7996" x="136.829" y="143.469" width="341.269" height="231.746" filterUnits="userSpaceOnUse" color-interpolation-filters="sRGB">
<feFlood flood-opacity="0" result="BackgroundImageFix"/>
<feColorMatrix in="SourceAlpha" type="matrix" values="0 0 0 0 0 0 0 0 0 0 0 0 0 0 0 0 0 0 127 0" result="hardAlpha"/>
<feOffset dy="7.48074"/>
<feGaussianBlur stdDeviation="3.74037"/>
<feComposite in2="hardAlpha" operator="out"/>
<feColorMatrix type="matrix" values="0 0 0 0 0 0 0 0 0 0 0 0 0 0 0 0 0 0 0.25 0"/>
<feBlend mode="normal" in2="BackgroundImageFix" result="effect1_dropShadow_836_7996"/>
<feBlend mode="normal" in="SourceGraphic" in2="effect1_dropShadow_836_7996" result="shape"/>
</filter>
<clipPath id="clip0_836_7996">
<rect width="393" height="391" fill="white"/>
</clipPath>
<clipPath id="clip1_836_7996">
<rect x="91" y="136.777" width="110.212" height="66.9919" rx="33.4959" transform="rotate(-18.7785 91 136.777)" fill="white"/>
</clipPath>
</defs>
</svg>
