<svg width="281" height="281" viewBox="0 0 281 281" fill="none" xmlns="http://www.w3.org/2000/svg">
<mask id="mask0_806_28483" style="mask-type:luminance" maskUnits="userSpaceOnUse" x="0" y="0" width="281" height="281">
<path d="M280.208 140.232C280.208 62.9118 217.527 0.231689 140.208 0.231689C62.8877 0.231689 0.20752 62.9118 0.20752 140.232C0.20752 217.552 62.8877 280.232 140.208 280.232C217.527 280.232 280.208 217.552 280.208 140.232Z" fill="white"/>
</mask>
<g mask="url(#mask0_806_28483)">
<path d="M280.208 140.232C280.208 62.9118 217.528 0.231689 140.208 0.231689C62.8879 0.231689 0.207764 62.9118 0.207764 140.232C0.207764 217.552 62.8879 280.232 140.208 280.232C217.528 280.232 280.208 217.552 280.208 140.232Z" fill="#F2ACAC"/>
<path d="M-160.381 64.7415C-160.381 46.5486 -145.632 31.8003 -127.44 31.8003H406.7C424.892 31.8003 439.641 46.5486 439.641 64.7415V311.801H-160.381V64.7415Z" fill="#D9D9D9"/>
<path d="M-160.381 -29.2373H439.641V317.34H-160.381V-29.2373Z" fill="#640E0E"/>
<path fill-rule="evenodd" clip-rule="evenodd" d="M339.679 77.1348C339.402 78.7983 340.526 80.3715 342.189 80.6488C363.782 84.2474 376.574 97.3112 386.508 117.897C395.813 137.18 397.527 161.405 395.722 184.051C393.94 206.413 386.365 227.542 374.077 244.594C361.79 261.64 345.412 273.757 327.209 279.408C309.018 285.056 289.796 284.003 272.11 276.375C254.373 268.724 236.77 254.259 227.195 230.691C226.56 229.129 224.78 228.377 223.218 229.012C221.654 229.646 220.902 231.428 221.538 232.99C231.812 258.279 250.734 273.806 269.691 281.982C288.701 290.181 309.422 291.325 329.02 285.24C348.608 279.159 366.046 266.181 379.031 248.164C392.013 230.151 399.945 207.938 401.81 184.536C403.652 161.419 401.994 135.935 392.008 115.243C381.552 93.5747 367.405 78.66 343.194 74.6248C341.53 74.3475 339.957 75.4713 339.679 77.1348Z" fill="#F7996E"/>
<path d="M45.7336 320.394V208.939H225.893V320.394H45.7336Z" fill="#E79595"/>
<path fill-rule="evenodd" clip-rule="evenodd" d="M-70.3431 76.3713C-70.0658 78.0348 -71.1895 79.6081 -72.8531 79.8853C-94.445 83.484 -107.237 96.5477 -117.171 117.133C-126.477 136.416 -128.189 160.641 -126.385 183.287C-124.604 205.649 -117.029 226.78 -104.74 243.83C-92.4538 260.878 -76.0761 272.993 -57.8728 278.644C-39.6809 284.292 -20.4595 283.239 -2.77371 275.611C14.9361 267.972 36.9869 249.017 44.318 222.627C44.7694 221.001 46.4526 220.05 48.0774 220.501C49.7023 220.953 50.6536 222.635 50.2023 224.261C42.2656 252.833 18.63 273.03 -0.354996 281.218C-19.364 289.418 -40.085 290.561 -59.6835 284.477C-79.2706 278.397 -96.7092 265.418 -109.694 247.401C-122.677 229.388 -130.608 207.174 -132.473 183.773C-134.316 160.655 -132.657 135.171 -122.671 114.479C-112.215 92.8113 -98.0682 77.8965 -73.857 73.8614C-72.1936 73.5841 -70.6203 74.7078 -70.3431 76.3713Z" fill="#F7996E"/>
<path d="M-41.9399 105.463C-60.3933 53.9769 -53.3906 -32.7095 -53.3906 -32.7095H334.41C334.41 -32.7095 340.301 55.7306 321.432 106.99C303.266 156.342 285.45 179.162 246.619 214.628C210.592 247.534 174.862 281.042 141.273 281.806C107.684 282.568 67.9917 249.838 31.3451 214.628C-5.44286 179.281 -24.7821 153.335 -41.9399 105.463Z" fill="#F2ACAC"/>
<path d="M45.7344 98.2482C45.7344 116.377 31.0379 131.073 12.9088 131.073C-5.22021 131.073 -19.9167 116.377 -19.9167 98.2482C-19.9167 80.1191 -5.22021 65.4226 12.9088 65.4226C31.0379 65.4226 45.7344 80.1191 45.7344 98.2482Z" fill="#E79595"/>
<path d="M291.544 93.6679C291.544 111.797 276.848 126.493 258.718 126.493C240.589 126.493 225.893 111.797 225.893 93.6679C225.893 75.5388 240.589 60.8423 258.718 60.8423C276.848 60.8423 291.544 75.5388 291.544 93.6679Z" fill="#E79595"/>
<path d="M103.751 180.694C96.1172 185.343 87.72 183.747 87.72 183.747C87.72 183.747 98.1458 198.539 105.278 205.122C115.202 214.282 120.304 222.325 133.523 224.97C139.954 226.257 143.873 226.185 150.317 224.97C166.972 221.829 171.692 210.466 183.906 198.251L198.411 183.747C198.411 183.747 191.54 185.274 183.906 179.167C171.377 169.143 165.31 149.783 150.317 155.502C146.686 156.888 141.92 160.846 141.92 160.846C141.92 160.846 137.196 156.772 133.523 155.502C119.924 150.798 116.042 173.208 103.751 180.694Z" fill="#E79595"/>
<path fill-rule="evenodd" clip-rule="evenodd" d="M159.841 156.085C157.157 154.994 154.167 154.85 150.589 156.216C148.868 156.873 146.834 158.16 145.197 159.317C144.387 159.889 143.687 160.42 143.19 160.808C142.943 161.001 142.746 161.159 142.612 161.266C142.544 161.321 142.493 161.363 142.458 161.392L142.42 161.423L142.41 161.431L142.408 161.433L141.91 161.846L141.421 161.424L141.419 161.422L141.41 161.414L141.372 161.382C141.338 161.353 141.287 161.31 141.221 161.254C141.088 161.143 140.893 160.982 140.646 160.785C140.154 160.389 139.46 159.849 138.654 159.27C137.024 158.1 135 156.82 133.273 156.223C130.101 155.126 127.55 155.609 125.269 157.047C122.938 158.518 120.866 161.002 118.769 163.968C117.938 165.144 117.093 166.411 116.228 167.708C114.961 169.609 113.652 171.571 112.286 173.396C109.96 176.505 107.343 179.4 104.148 181.346C100.192 183.755 96.0522 184.539 92.9179 184.727C91.4877 184.811 90.2602 184.773 89.345 184.705C89.559 185.001 89.8039 185.339 90.0763 185.711C91.1622 187.196 92.684 189.246 94.4277 191.499C97.9251 196.019 102.281 201.317 105.795 204.561C107.988 206.585 109.934 208.537 111.771 210.38C118.364 216.995 123.549 222.196 133.673 224.222C139.998 225.488 143.818 225.419 150.176 224.22C158.319 222.684 163.531 219.151 168.239 214.472C170.486 212.24 172.611 209.751 174.896 207.076C175.019 206.931 175.143 206.787 175.267 206.642C177.687 203.809 180.29 200.789 183.367 197.712L196.398 184.681C195.704 184.683 194.865 184.639 193.913 184.503C191.121 184.104 187.364 182.91 183.43 179.763C180.232 177.206 177.463 174.065 174.889 170.919C174.11 169.967 173.351 169.018 172.605 168.083C170.867 165.909 169.193 163.814 167.474 161.948C165.022 159.288 162.558 157.188 159.841 156.085ZM198.246 183.002L200.804 182.433L184.446 198.792C181.415 201.822 178.847 204.802 176.428 207.633C176.299 207.785 176.171 207.934 176.043 208.084C173.77 210.744 171.608 213.277 169.315 215.555C164.445 220.395 158.97 224.115 150.458 225.721C143.927 226.952 139.909 227.026 133.373 225.719C122.757 223.595 117.191 218.003 110.537 211.317C108.732 209.504 106.847 207.61 104.76 205.683C101.142 202.344 96.7188 196.955 93.2203 192.434C91.4661 190.166 89.9356 188.105 88.8438 186.612C88.2978 185.865 87.8613 185.259 87.561 184.841C87.4109 184.631 87.2947 184.468 87.2161 184.357L87.1266 184.231L87.0962 184.188C87.0961 184.188 87.0957 184.187 87.7196 183.747L87.0962 184.188L86.0088 182.646L87.8615 182.997H87.8641L87.878 183.001L87.9411 183.012C87.9986 183.02 88.0863 183.035 88.2022 183.051C88.4338 183.084 88.7775 183.126 89.2155 183.163C90.0921 183.238 91.3429 183.291 92.8269 183.202C95.7997 183.025 99.6751 182.282 103.354 180.042C106.303 178.245 108.781 175.532 111.063 172.481C112.423 170.664 113.671 168.792 114.907 166.936C115.773 165.635 116.634 164.344 117.522 163.087C119.632 160.102 121.849 157.399 124.454 155.756C127.111 154.08 130.145 153.526 133.772 154.781C135.72 155.454 137.894 156.846 139.544 158.031C140.377 158.629 141.094 159.187 141.602 159.594C141.723 159.691 141.832 159.779 141.928 159.859C142.024 159.783 142.133 159.698 142.251 159.604C142.762 159.205 143.481 158.66 144.316 158.07C145.971 156.901 148.135 155.517 150.046 154.789C153.963 153.295 157.354 153.426 160.415 154.671C163.444 155.901 166.092 158.196 168.596 160.913C170.354 162.821 172.082 164.983 173.836 167.178C174.574 168.103 175.319 169.033 176.071 169.953C178.628 173.079 181.315 176.117 184.383 178.571C188.083 181.531 191.578 182.627 194.129 182.992C195.407 183.174 196.451 183.174 197.171 183.128C197.529 183.106 197.806 183.073 197.99 183.045C198.081 183.032 198.149 183.02 198.192 183.013C198.202 183.011 198.211 183.008 198.219 183.007C198.226 183.006 198.233 183.005 198.238 183.004L198.246 183.002Z" fill="#E79595"/>
<path d="M141.921 189.859C137.659 189.624 131.234 192.149 131.234 192.149C131.234 192.149 137.659 184.281 141.921 184.516C145.315 184.704 151.845 192.149 151.845 192.149C151.845 192.149 145.315 190.046 141.921 189.859Z" fill="white"/>
<path fill-rule="evenodd" clip-rule="evenodd" d="M130.05 191.184L131.233 192.149C131.233 192.149 132.454 191.67 134.185 191.148C136.424 190.472 139.516 189.727 141.92 189.859C143.841 189.966 146.767 190.685 148.944 191.289C150.615 191.754 151.845 192.149 151.845 192.149L152.992 191.142L156.634 195.296L151.376 193.602L151.361 193.598L151.309 193.581C151.262 193.566 151.192 193.545 151.102 193.516C150.921 193.46 150.658 193.378 150.331 193.28C149.677 193.084 148.77 192.819 147.761 192.55C145.7 192 143.358 191.468 141.837 191.384C139.972 191.281 137.506 191.791 135.392 192.385C134.359 192.676 133.453 192.975 132.806 193.2C132.483 193.313 132.225 193.406 132.051 193.472C131.964 193.504 131.897 193.529 131.852 193.547L131.805 193.565L131.794 193.57L131.791 193.571L126.358 195.706L130.05 191.184ZM149.744 189.929C150.993 191.178 151.845 192.149 151.845 192.149C152.992 191.142 152.993 191.143 152.992 191.142L152.985 191.135L152.969 191.117L152.91 191.05C152.858 190.992 152.784 190.908 152.688 190.802C152.496 190.592 152.219 190.291 151.878 189.932C151.198 189.214 150.249 188.251 149.186 187.277C148.131 186.309 146.93 185.303 145.748 184.516C144.625 183.769 143.288 183.063 142.004 182.991C140.49 182.908 138.972 183.534 137.68 184.293C136.353 185.071 135.063 186.108 133.953 187.112C132.837 188.124 131.866 189.138 131.175 189.895C130.828 190.275 130.551 190.593 130.358 190.819C130.262 190.931 130.187 191.02 130.134 191.082L130.074 191.154L130.058 191.175L130.053 191.18L130.05 191.184C130.05 191.184 130.05 191.184 131.233 192.149C131.233 192.149 132.08 191.113 133.363 189.802C135.613 187.505 139.205 184.366 141.92 184.516C144.089 184.636 147.537 187.717 149.744 189.929Z" fill="#E79595"/>
<path d="M140.394 15.0391C139.383 16.7237 114.253 91.3192 109.773 104.626C109.36 105.853 109.775 107.179 110.794 107.977L138.684 129.802C141.946 132.353 146.513 132.4 149.826 129.916L179.069 107.983C180.131 107.187 180.568 105.829 180.133 104.574C176.477 94.0285 159.715 45.6844 149.555 16.5658C147.158 9.69552 142.686 11.2213 140.394 15.0391Z" fill="#E79595"/>
<path d="M225.448 94.1331C225.743 93.7136 226.013 93.271 226.34 92.876C226.8 92.3193 227.288 91.7864 227.787 91.2628C228.19 90.8376 228.658 90.4944 229.197 90.2499C229.837 89.9571 230.456 90.0271 231.073 90.3286C231.415 90.4961 231.731 90.6893 231.912 91.0379C232.134 91.4632 232.238 91.9246 232.268 92.4008C232.315 93.1763 232.197 93.93 232.026 94.6837C231.789 95.7091 231.459 96.7035 231.054 97.673C230.286 99.5143 229.326 101.245 228.099 102.821C228.066 102.863 228.043 102.911 228.003 102.972C228.455 103.057 228.883 103.139 229.313 103.223C231.316 103.609 233.302 104.069 235.188 104.865C235.949 105.186 236.686 105.564 237.327 106.097C237.937 106.604 238.3 107.229 238.309 108.04C238.315 108.548 238.086 108.945 237.777 109.324C237.481 109.685 237.09 109.912 236.689 110.13C236.101 110.446 235.482 110.678 234.818 110.748C234.186 110.811 233.547 110.856 232.912 110.825C232.171 110.789 231.433 110.677 230.699 110.566C230.223 110.495 229.757 110.363 229.286 110.257C228.736 110.133 228.183 110.013 227.636 109.882C227.317 109.805 227.002 109.707 226.657 109.611C226.681 109.666 226.693 109.705 226.716 109.736C226.937 110.055 227.173 110.363 227.375 110.693C227.888 111.522 228.297 112.399 228.541 113.346C228.764 114.21 228.878 115.09 228.814 115.979C228.74 117.024 228.405 117.969 227.66 118.738C227.112 119.301 226.454 119.669 225.678 119.789C225.004 119.895 224.426 119.626 223.911 119.214C223.379 118.787 222.995 118.236 222.65 117.658C222.332 117.123 222.019 116.581 221.725 116.03C221.518 115.643 221.357 115.234 221.16 114.839C220.968 114.456 220.754 114.084 220.558 113.705C220.412 113.422 220.273 113.135 220.112 112.815C220.074 112.888 220.044 112.935 220.022 112.989C219.426 114.486 218.563 115.817 217.5 117.024C216.913 117.69 216.278 118.317 215.518 118.776C214.784 119.218 214.036 119.661 213.151 119.772C212.281 119.882 211.526 119.643 210.876 119.067C210.469 118.707 210.114 118.297 209.955 117.77C209.755 117.116 209.56 116.447 209.751 115.761C209.931 115.122 210.135 114.489 210.358 113.865C211.062 111.91 212.062 110.119 213.332 108.476C213.477 108.288 213.626 108.105 213.813 107.873C213.458 107.922 213.154 107.966 212.854 108.005C211.639 108.164 210.42 108.275 209.195 108.229C208.292 108.195 207.415 108.074 206.608 107.637C206.213 107.424 205.852 107.167 205.569 106.806C205.336 106.513 205.299 106.159 205.221 105.818C205.059 105.094 205.397 104.567 205.914 104.115C206.693 103.438 207.622 103.083 208.606 102.849C209.833 102.561 211.087 102.483 212.339 102.406C212.409 102.403 212.474 102.395 212.592 102.386C212.385 102.228 212.204 102.106 212.044 101.961C211.511 101.483 210.963 101.02 210.467 100.508C210.063 100.091 209.685 99.6357 209.362 99.1545C208.817 98.3401 208.419 97.4451 208.216 96.48C208.1 95.9245 208.012 95.3614 207.969 94.7966C207.917 94.1482 208.184 93.5713 208.582 93.0844C208.905 92.6888 209.382 92.5829 209.89 92.6053C210.978 92.6507 211.952 93.0669 212.917 93.5271C213.962 94.0281 214.883 94.7001 215.723 95.4881C216.126 95.8669 216.509 96.2704 216.87 96.6921C217.476 97.407 218.059 98.1461 218.651 98.8746C218.664 98.8923 218.684 98.905 218.745 98.9591C218.678 98.6248 218.62 98.3451 218.564 98.0638C218.321 96.8647 218.158 95.6576 218.125 94.4319C218.099 93.5237 218.161 92.6185 218.339 91.7301C218.613 90.3464 219.126 89.06 219.975 87.9208C220.325 87.4502 220.727 87.0327 221.226 86.7216C222.045 86.2129 222.887 86.2463 223.738 86.6446C224.156 86.8407 224.554 87.0792 224.803 87.4671C225.03 87.8225 225.214 88.2207 225.347 88.6233C225.651 89.5501 225.675 90.5148 225.622 91.4785C225.575 92.2896 225.49 93.099 225.422 93.9089C225.415 93.9827 225.412 94.057 225.407 94.1291L225.444 94.1286L225.448 94.1331ZM222.206 108.409C222.429 108.219 222.648 108.025 222.873 107.839C223.509 107.316 223.877 106.636 223.957 105.824C224.015 105.244 224.03 104.653 223.994 104.071C223.959 103.459 223.762 102.892 223.318 102.43C222.709 101.803 222.003 101.351 221.138 101.181C220.594 101.075 220.04 100.977 219.53 101.245C218.94 101.555 218.367 101.9 217.809 102.266C217.364 102.557 217.128 103.005 217.02 103.528C216.885 104.193 217.013 104.833 217.188 105.467C217.609 106.977 218.476 108.105 219.986 108.664C220.762 108.95 221.52 108.985 222.206 108.409Z" fill="#E14A68"/>
<path d="M224.473 106.071C225.051 103.915 223.771 101.698 221.615 101.121C219.458 100.543 217.242 101.822 216.664 103.979C216.086 106.135 217.366 108.351 219.522 108.929C221.679 109.507 223.895 108.227 224.473 106.071Z" fill="#FDF6E9"/>
<path d="M-13.5972 256.49C-13.9759 256.712 -14.334 256.916 -14.6884 257.127C-16.0243 257.911 -17.4437 258.471 -18.9597 258.788C-20.6849 259.149 -22.2884 258.793 -23.8399 258.071C-25.2442 257.417 -26.5557 256.615 -27.7439 255.633C-28.8428 254.725 -29.4622 253.517 -29.749 252.128C-29.9969 250.923 -30.0199 249.711 -29.7558 248.509C-29.3711 246.745 -28.5909 245.177 -27.2463 243.92C-26.5564 243.274 -25.8362 242.67 -25.0542 242.131C-24.5472 241.78 -24.0302 241.472 -23.4726 241.217C-23.4364 241.2 -23.4121 241.158 -23.383 241.131C-23.7752 240.767 -24.1666 240.415 -24.543 240.05C-25.2748 239.341 -25.8676 238.526 -26.3437 237.623C-27.0562 236.274 -27.5147 234.848 -27.6684 233.329C-27.8031 232.006 -27.68 230.723 -26.9437 229.549C-26.5409 228.909 -26.031 228.362 -25.4378 227.897C-24.9137 227.486 -24.3913 227.068 -23.8337 226.707C-22.5777 225.893 -21.1978 225.501 -19.7012 225.52C-18.884 225.529 -18.0827 225.585 -17.2969 225.829C-16.4404 226.094 -15.6653 226.51 -14.9352 227.016C-14.1153 227.587 -13.4038 228.275 -12.7644 229.037C-12.4333 229.432 -12.1216 229.845 -11.7829 230.271C-11.608 230.121 -11.3878 229.933 -11.1659 229.743C-11.0788 229.67 -10.9971 229.592 -10.9064 229.524C-10.6181 229.309 -10.3423 229.071 -10.0354 228.887C-9.49673 228.565 -8.95376 228.237 -8.38053 227.981C-7.37227 227.534 -6.31836 227.207 -5.20834 227.16C-4.33789 227.123 -3.46737 227.071 -2.6056 227.28C-1.49083 227.55 -0.556992 228.092 0.175026 228.974C0.984732 229.95 1.58489 231.047 2.01542 232.232C2.34409 233.137 2.46663 234.095 2.44468 235.064C2.43253 235.592 2.39931 236.123 2.31197 236.644C2.1822 237.423 1.83315 238.137 1.45896 238.829C1.16689 239.372 0.811213 239.883 0.49752 240.418C0.456177 240.489 0.449203 240.651 0.500689 240.698C1.23867 241.385 1.70362 242.244 2.12378 243.145C2.90465 244.828 3.19379 246.622 3.27807 248.452C3.33671 249.734 3.2924 251.023 2.91256 252.264C2.63522 253.167 2.28873 254.058 1.89908 254.923C1.40943 256.007 0.742861 256.986 -0.0801601 257.86C-0.785088 258.608 -1.61777 259.181 -2.47024 259.745C-3.26715 260.273 -4.12956 260.581 -5.06985 260.623C-5.62667 260.648 -6.19099 260.617 -6.74117 260.535C-7.699 260.39 -8.66638 260.23 -9.52844 259.764C-10.1278 259.443 -10.6948 259.055 -11.2685 258.685C-12.0641 258.17 -12.7761 257.561 -13.3221 256.777C-13.3943 256.673 -13.501 256.592 -13.596 256.492L-13.5972 256.49ZM-11.0056 246.031C-10.048 245.284 -9.44979 244.767 -8.83404 243.527C-11.4785 244.012 -11.6412 243.724 -9.58241 243.138C-9.52099 242.009 -9.42421 242.081 -9.95645 241.101C-10.2464 240.569 -10.3802 240.719 -10.6526 240.176C-10.9114 239.659 -10.7626 239.271 -11.2266 238.967C-11.9867 238.47 -12.928 240.265 -13.8301 240.07C-14.8682 239.843 -13.9453 239.164 -14.7118 239.938C-15.3444 240.579 -16.1075 238.743 -16.4793 239.536C-16.7389 240.089 -16.9259 240.676 -17.1502 241.247C-17.499 242.134 -17.6854 243.029 -17.5172 243.992C-17.4141 244.575 -17.1824 245.088 -16.9206 245.598C-16.7344 245.96 -16.5743 246.358 -16.3046 246.649C-15.4332 247.583 -14.3822 248.147 -13.0337 248.073C-11.9068 248.013 -10.8402 247.791 -9.73883 247.067L-11.0056 246.031Z" fill="#FDF6E9"/>
<path d="M31.4821 115.75C30.7842 115.735 30.1277 115.717 29.4716 115.707C27.0065 115.662 24.6137 115.244 22.2918 114.415C19.6499 113.471 17.7687 111.655 16.2621 109.386C14.8991 107.33 13.7847 105.152 12.9874 102.832C12.2489 100.687 12.4122 98.5316 13.1768 96.4079C13.8412 94.5656 14.8179 92.8998 16.1755 91.4867C18.1633 89.4118 20.5244 87.9325 23.3952 87.3419C24.8686 87.0383 26.3484 86.8167 27.8579 86.7345C28.8377 86.6796 29.7957 86.6906 30.7648 86.8075C30.8276 86.8153 30.8954 86.7784 30.9574 86.7657C30.728 85.9451 30.4888 85.142 30.2807 84.3342C29.8766 82.7628 29.7491 81.1637 29.853 79.5418C30.006 77.1195 30.5688 74.8012 31.6223 72.6116C32.5376 70.7047 33.7719 69.0633 35.7464 68.0823C36.8256 67.5471 37.9721 67.2287 39.1638 67.0901C40.2172 66.9672 41.2738 66.834 42.331 66.8069C44.7122 66.746 46.9112 67.3603 48.9274 68.6296C50.0297 69.3205 51.0713 70.0619 51.9351 71.0466C52.8785 72.1173 53.5844 73.3275 54.1547 74.6216C54.7937 76.0777 55.1891 77.6015 55.423 79.1691C55.5445 79.9801 55.6247 80.7998 55.7307 81.6594C56.0927 81.6009 56.5479 81.5284 57.0066 81.456C57.1859 81.4284 57.3614 81.3908 57.5412 81.3736C58.1116 81.3208 58.684 81.2267 59.2531 81.2322C60.2527 81.2416 61.2626 81.2472 62.2529 81.377C63.9932 81.6081 65.6959 82.0394 67.2418 82.8984C68.4543 83.5713 69.6799 84.2233 70.6761 85.2234C71.9647 86.5173 72.7828 88.0282 73.0433 89.8348C73.332 91.8322 73.2351 93.8205 72.8356 95.7863C72.5294 97.289 71.8998 98.6912 71.0652 99.9883C70.6102 100.695 70.1234 101.389 69.572 102.024C68.7483 102.974 67.6814 103.653 66.5989 104.28C65.7506 104.776 64.8431 105.174 63.9729 105.64C63.8573 105.702 63.713 105.917 63.7448 106.022C64.1757 107.568 64.0933 109.121 63.9145 110.694C63.5767 113.627 62.4794 116.302 61.0722 118.859C60.0865 120.648 58.9556 122.361 57.4089 123.73C56.2816 124.726 55.0715 125.648 53.8241 126.497C52.2588 127.562 50.54 128.338 48.6962 128.841C47.1169 129.272 45.5103 129.357 43.8854 129.414C42.3643 129.468 40.9373 129.171 39.6256 128.447C38.8493 128.017 38.1079 127.508 37.4302 126.938C36.2504 125.945 35.0696 124.924 34.2855 123.576C33.7394 122.642 33.2915 121.644 32.8201 120.664C32.1674 119.306 31.7068 117.887 31.617 116.368C31.6058 116.167 31.5286 115.967 31.4822 115.753L31.4821 115.75ZM43.6911 103.703C45.6118 103.485 46.8536 103.28 48.7201 102.107C44.7262 100.57 44.7452 100.042 48.0272 100.957C49.049 99.4751 49.1202 99.6539 49.2115 97.8817C49.2609 96.9167 48.9538 97.0106 49.0346 96.0478C49.1137 95.1296 49.638 94.7266 49.2603 93.9288C48.6409 92.6227 45.8724 94.2762 44.8097 93.2615C43.5885 92.0918 45.406 91.9364 43.7218 92.3509C42.33 92.696 42.8203 89.5678 41.6564 90.3359C40.8444 90.8711 40.1023 91.5133 39.3236 92.102C38.1133 93.0158 37.1168 94.0757 36.5447 95.5236C36.2003 96.4007 36.0888 97.2893 36.0199 98.2003C35.9719 98.8465 35.8592 99.5192 35.9836 100.138C36.3901 102.131 37.3485 103.77 39.2405 104.791C40.8209 105.645 42.4533 106.23 44.5498 106.163L43.6911 103.703Z" fill="#FDF6E9"/>
<path d="M40.2002 105.89C44.447 107.525 49.2152 105.408 50.8504 101.161C52.4855 96.9144 50.3684 92.1462 46.1216 90.511C41.8748 88.8758 37.1066 90.993 35.4714 95.2398C33.8363 99.4866 35.9534 104.255 40.2002 105.89Z" fill="#DE6843"/>
<path d="M261.642 212.068C261.396 212.063 261.165 212.056 260.934 212.053C260.068 212.038 259.227 211.891 258.41 211.599C257.482 211.266 256.821 210.628 256.29 209.83C255.812 209.108 255.419 208.342 255.139 207.526C254.879 206.772 254.937 206.014 255.206 205.268C255.439 204.619 255.782 204.034 256.259 203.538C256.959 202.808 257.789 202.288 258.798 202.08C259.317 201.973 259.836 201.896 260.368 201.866C260.712 201.847 261.049 201.851 261.39 201.892C261.412 201.895 261.436 201.882 261.457 201.877C261.377 201.588 261.293 201.306 261.219 201.023C261.077 200.47 261.033 199.907 261.069 199.338C261.123 198.486 261.32 197.671 261.691 196.901C262.013 196.23 262.447 195.653 263.141 195.309C263.521 195.12 263.924 195.008 264.342 194.96C264.713 194.916 265.084 194.87 265.456 194.86C266.294 194.839 267.066 195.055 267.775 195.5C268.163 195.743 268.529 196.005 268.833 196.35C269.165 196.727 269.413 197.153 269.613 197.607C269.838 198.12 269.977 198.656 270.059 199.207C270.101 199.491 270.13 199.78 270.168 200.082C270.294 200.061 270.454 200.036 270.616 200.011C270.679 200.001 270.741 199.988 270.804 199.981C271.005 199.963 271.206 199.93 271.406 199.932C271.758 199.936 272.113 199.937 272.46 199.983C273.073 200.064 273.671 200.216 274.214 200.517C274.641 200.754 275.072 200.984 275.423 201.336C275.875 201.79 276.163 202.322 276.255 202.957C276.356 203.659 276.323 204.358 276.182 205.049C276.074 205.577 275.853 206.071 275.559 206.526C275.399 206.774 275.228 207.019 275.034 207.242C274.745 207.576 274.369 207.815 273.989 208.036C273.69 208.209 273.371 208.35 273.065 208.513C273.025 208.535 272.975 208.611 272.985 208.648C273.137 209.192 273.107 209.738 273.045 210.29C272.927 211.322 272.54 212.262 272.045 213.161C271.699 213.791 271.301 214.392 270.757 214.874C270.361 215.225 269.936 215.548 269.497 215.847C268.947 216.221 268.342 216.494 267.694 216.671C267.139 216.823 266.574 216.852 266.003 216.872C265.468 216.892 264.966 216.787 264.505 216.532C264.232 216.382 263.971 216.202 263.733 216.001C263.318 215.653 262.903 215.294 262.628 214.82C262.436 214.491 262.278 214.141 262.112 213.796C261.882 213.318 261.721 212.82 261.69 212.286C261.685 212.214 261.658 212.145 261.642 212.069V212.068ZM265.934 207.832C266.61 207.756 267.047 207.684 267.702 207.271C266.298 206.731 266.305 206.546 267.458 206.867C267.818 206.346 267.843 206.408 267.876 205.786C267.893 205.446 267.785 205.479 267.814 205.141C267.841 204.818 268.025 204.676 267.892 204.396C267.675 203.936 266.701 204.518 266.327 204.162C265.898 203.75 266.538 203.696 265.945 203.842C265.456 203.962 265.628 202.863 265.219 203.132C264.933 203.321 264.673 203.546 264.399 203.753C263.973 204.075 263.623 204.447 263.422 204.957C263.301 205.266 263.262 205.577 263.238 205.897C263.22 206.125 263.181 206.362 263.225 206.579C263.367 207.28 263.704 207.856 264.37 208.215C264.925 208.515 265.499 208.721 266.236 208.697L265.934 207.832Z" fill="#DE6843"/>
<path d="M264.708 208.602C266.201 209.177 267.877 208.433 268.452 206.94C269.027 205.446 268.283 203.77 266.79 203.195C265.296 202.62 263.62 203.365 263.045 204.858C262.47 206.351 263.214 208.027 264.708 208.602Z" fill="#FDF6E9"/>
<path d="M87.6318 117.569C87.4834 117.373 87.3454 117.188 87.2047 117.006C86.6792 116.316 86.2722 115.565 85.994 114.744C85.6774 113.81 85.7674 112.895 86.0639 111.984C86.333 111.161 86.6902 110.377 87.1557 109.652C87.5857 108.979 88.2155 108.554 88.9678 108.301C89.6206 108.082 90.2929 107.988 90.9788 108.054C91.9846 108.149 92.9077 108.477 93.6972 109.14C94.1023 109.478 94.4865 109.838 94.8386 110.237C95.0676 110.495 95.2736 110.761 95.453 111.054C95.4645 111.072 95.4895 111.083 95.5066 111.097C95.6826 110.856 95.8518 110.614 96.0291 110.381C96.374 109.926 96.787 109.542 97.2566 109.217C97.9577 108.73 98.7196 108.379 99.5532 108.192C100.279 108.028 101 108.01 101.702 108.34C102.085 108.52 102.423 108.767 102.721 109.066C102.985 109.329 103.252 109.591 103.491 109.876C104.027 110.519 104.338 111.26 104.428 112.092C104.478 112.548 104.501 112.996 104.418 113.449C104.329 113.943 104.15 114.402 103.917 114.841C103.655 115.336 103.322 115.777 102.941 116.183C102.744 116.393 102.535 116.595 102.321 116.812C102.416 116.899 102.536 117.008 102.656 117.119C102.703 117.163 102.751 117.203 102.795 117.249C102.934 117.394 103.085 117.531 103.208 117.69C103.424 117.967 103.642 118.247 103.823 118.547C104.139 119.078 104.392 119.641 104.492 120.255C104.572 120.736 104.659 121.217 104.601 121.709C104.526 122.346 104.288 122.902 103.847 123.368C103.359 123.884 102.79 124.291 102.161 124.61C101.68 124.853 101.156 124.986 100.616 125.04C100.322 125.068 100.025 125.085 99.7294 125.072C99.2876 125.053 98.8677 124.907 98.4584 124.746C98.1366 124.619 97.8287 124.456 97.5105 124.317C97.468 124.3 97.3772 124.306 97.3552 124.338C97.023 124.795 96.5771 125.111 96.1045 125.405C95.2222 125.953 94.2454 126.234 93.2336 126.404C92.5252 126.523 91.8062 126.585 91.0913 126.457C90.5705 126.363 90.0527 126.232 89.5461 126.074C88.9109 125.874 88.3219 125.569 87.7809 125.172C87.3173 124.829 86.9429 124.406 86.5728 123.97C86.2256 123.563 85.9963 123.105 85.9096 122.585C85.8585 122.277 85.8371 121.962 85.8464 121.65C85.8625 121.109 85.886 120.56 86.0864 120.05C86.225 119.696 86.4021 119.354 86.5691 119.01C86.8014 118.534 87.0919 118.097 87.4907 117.741C87.5439 117.694 87.582 117.629 87.631 117.57L87.6318 117.569ZM93.6174 118.304C94.0968 118.786 94.4244 119.083 95.1549 119.343C94.707 117.906 94.8565 117.796 95.3205 118.9C95.9522 118.859 95.9184 118.918 96.4269 118.556C96.7037 118.359 96.6108 118.295 96.8938 118.106C97.1641 117.928 97.3897 117.984 97.527 117.706C97.7519 117.251 96.6918 116.848 96.7397 116.334C96.7954 115.742 97.235 116.209 96.7532 115.836C96.3542 115.527 97.3235 114.979 96.8578 114.826C96.533 114.719 96.1941 114.655 95.8618 114.569C95.3457 114.435 94.836 114.391 94.3121 114.549C93.9951 114.646 93.7258 114.809 93.4597 114.989C93.2712 115.117 93.061 115.233 92.9176 115.402C92.457 115.949 92.2143 116.571 92.3461 117.315C92.4556 117.937 92.6507 118.515 93.1268 119.078L93.6174 118.304Z" fill="#DE6843"/>
<path d="M92.2521 117.82C92.7284 119.347 94.3527 120.2 95.8802 119.723C97.4077 119.247 98.2599 117.623 97.7837 116.095C97.3075 114.568 95.6831 113.716 94.1556 114.192C92.6281 114.668 91.7759 116.292 92.2521 117.82Z" fill="#FDF6E9"/>
</g>
</svg>
