<svg width="84" height="83" viewBox="0 0 84 83" fill="none" xmlns="http://www.w3.org/2000/svg">
<path fill-rule="evenodd" clip-rule="evenodd" d="M18.9823 24.2057C18.9617 24.5377 18.9408 24.8745 18.9204 25.2188H18.9159C18.8168 25.2363 18.7199 25.2587 18.6244 25.2808C18.4415 25.3232 18.2637 25.3643 18.0859 25.3673C16.05 25.4091 14.1287 25.9522 12.2762 26.7551C12.0078 26.8719 11.7384 26.9873 11.4689 27.1027C10.3989 27.5612 9.32725 28.0203 8.30531 28.5653C6.46199 29.5447 5.03593 31.0717 3.64656 32.5988C2.84871 33.476 2.12881 34.4414 1.51437 35.4579C0.478075 37.1753 0.00577915 39.069 0.00119368 41.1066C-0.00797716 43.2834 0.0241233 45.4371 0.519344 47.5722C1.0971 50.0646 2.04627 52.4039 3.38979 54.553C4.46277 56.2657 5.63204 57.9319 6.90677 59.4915C8.65839 61.6312 10.8915 63.2325 13.2346 64.6435C16.5819 66.6579 20.1035 68.2639 24.0102 68.8673C26.1057 69.1875 28.1783 69.3778 30.2693 68.8812C30.4114 68.8441 30.6911 69.0483 30.7691 69.2061C31.0022 69.6857 31.2205 70.1728 31.4385 70.6595C31.7608 71.3788 32.0827 72.0973 32.4519 72.7893C33.236 74.27 34.0889 75.732 35.3178 76.8831C36.1385 77.6536 37.0419 78.3405 37.9635 78.9857C39.6555 80.1693 41.4988 81.0836 43.4935 81.571C46.1026 82.2069 48.7575 82.439 51.4445 82.1558C53.8748 81.9006 55.9382 80.8841 57.7357 79.2271C59.0469 78.018 59.9538 76.5196 60.8611 75.0205C60.9152 74.9312 60.9692 74.8419 61.0234 74.7527C62.2522 72.729 62.9171 70.4732 63.3161 68.1571C63.5339 66.8792 63.5966 65.5707 63.6587 64.274L63.6645 64.1515C63.6905 63.6129 63.6499 63.0697 63.6093 62.5268C63.5925 62.3024 63.5757 62.078 63.5637 61.854C63.5546 61.6943 63.5334 61.5366 63.5122 61.3782C63.5013 61.2973 63.4904 61.2162 63.4811 61.1346C63.4078 60.5173 63.3344 59.9046 63.2748 59.4172C63.6609 59.3847 64.0409 59.3557 64.4164 59.3271C65.1647 59.2701 65.8954 59.2144 66.6221 59.1341C68.7314 58.902 70.7902 58.4518 72.7711 57.672C74.5319 56.9758 76.1872 56.0939 77.6683 54.8871C79.0301 53.7825 80.0756 52.4272 81.0569 50.9883C82.8589 48.3566 83.7943 45.4464 83.8356 42.2577C83.8524 40.9642 83.7505 39.6669 83.6488 38.3727C83.6392 38.2505 83.6296 38.1283 83.6201 38.0061C83.4963 36.4048 83.1295 34.8545 82.4692 33.3832C81.2586 30.6911 79.1264 28.9552 76.6228 27.6324C73.7478 26.11 70.6756 25.2374 67.4429 24.9078C65.2786 24.685 63.1326 24.7732 61.0096 25.2327C60.2596 25.3954 59.5117 25.5779 58.757 25.7619C58.4137 25.8457 58.0689 25.9298 57.7219 26.0125C57.7172 25.984 57.7088 25.9545 57.7003 25.9246C57.6838 25.8668 57.667 25.8077 57.676 25.7526C57.8824 24.4623 57.9466 23.1812 57.9237 21.8677C57.8916 19.844 57.6715 17.8528 57.3413 15.8662C56.6994 11.9952 54.8423 8.76013 52.169 5.99381C50.3486 4.10473 48.1706 2.71229 45.7403 1.7283C42.9386 0.595775 40.0636 0.26623 37.1565 1.14347C34.0109 2.09033 31.0396 3.46885 28.2196 5.1862C25.1061 7.08456 22.5796 9.50741 21.181 12.9932C19.9522 16.0565 19.2689 19.2359 19.0809 22.5314C19.052 23.0848 19.0176 23.6383 18.9823 24.2057Z" fill="#F2ACAC"/>
</svg>
