<svg width="85" height="83" viewBox="0 0 85 83" fill="none" xmlns="http://www.w3.org/2000/svg">
<path fill-rule="evenodd" clip-rule="evenodd" d="M19.1896 24.2057C19.169 24.5377 19.148 24.8745 19.1277 25.2188H19.1231C19.0241 25.2363 18.9272 25.2587 18.8317 25.2808C18.6487 25.3232 18.471 25.3643 18.2932 25.3673C16.2573 25.4091 14.336 25.9522 12.4835 26.7551C12.2151 26.8719 11.9457 26.9873 11.6762 27.1027C10.6062 27.5612 9.53453 28.0203 8.51259 28.5653C6.66927 29.5447 5.24321 31.0717 3.85384 32.5988C3.05598 33.476 2.33609 34.4414 1.72165 35.4579C0.685351 37.1753 0.213055 39.069 0.208469 41.1066C0.199298 43.2834 0.231399 45.4371 0.726619 47.5722C1.30438 50.0646 2.25355 52.4039 3.59706 54.553C4.67004 56.2657 5.83931 57.9319 7.11405 59.4915C8.86566 61.6312 11.0987 63.2325 13.4419 64.6435C16.7892 66.6579 20.3108 68.2639 24.2175 68.8673C26.313 69.1875 28.3856 69.3778 30.4765 68.8812C30.6187 68.8441 30.8984 69.0483 30.9763 69.2061C31.2095 69.6857 31.4277 70.1728 31.6458 70.6595C31.9681 71.3788 32.29 72.0973 32.6592 72.7893C33.4433 74.27 34.2962 75.732 35.525 76.8831C36.3458 77.6536 37.2491 78.3405 38.1708 78.9857C39.8628 80.1693 41.7061 81.0836 43.7008 81.571C46.3098 82.2069 48.9648 82.439 51.6518 82.1558C54.082 81.9006 56.1455 80.8841 57.9429 79.2271C59.2542 78.018 60.1611 76.5196 61.0684 75.0205C61.1225 74.9312 61.1765 74.8419 61.2306 74.7527C62.4595 72.729 63.1244 70.4732 63.5233 68.1571C63.7411 66.8792 63.8038 65.5707 63.8659 64.274L63.8718 64.1515C63.8978 63.6129 63.8572 63.0697 63.8166 62.5268C63.7998 62.3024 63.783 62.078 63.7709 61.854C63.7618 61.6943 63.7407 61.5366 63.7194 61.3782C63.7086 61.2973 63.6977 61.2162 63.6884 61.1346C63.615 60.5173 63.5417 59.9046 63.4821 59.4172C63.8682 59.3847 64.2481 59.3557 64.6237 59.3271C65.372 59.2701 66.1027 59.2144 66.8294 59.1341C68.9387 58.902 70.9975 58.4518 72.9784 57.672C74.7392 56.9758 76.3945 56.0939 77.8756 54.8871C79.2374 53.7825 80.2829 52.4272 81.2641 50.9883C83.0662 48.3566 84.0016 45.4464 84.0429 42.2577C84.0596 40.9642 83.9577 39.6669 83.8561 38.3727C83.8465 38.2505 83.8369 38.1283 83.8274 38.0061C83.7036 36.4048 83.3367 34.8545 82.6764 33.3832C81.4659 30.6911 79.3337 28.9552 76.8301 27.6324C73.9551 26.11 70.8829 25.2374 67.6502 24.9078C65.4859 24.685 63.3399 24.7732 61.2169 25.2327C60.4668 25.3954 59.719 25.5779 58.9643 25.7619C58.621 25.8457 58.2762 25.9298 57.9292 26.0125C57.9245 25.984 57.9161 25.9545 57.9076 25.9246C57.8911 25.8668 57.8743 25.8077 57.8833 25.7526C58.0897 24.4623 58.1539 23.1812 58.1309 21.8677C58.0988 19.844 57.8787 17.8528 57.5486 15.8662C56.9066 11.9952 55.0496 8.76013 52.3763 5.99381C50.5559 4.10473 48.3778 2.71229 45.9476 1.7283C43.1459 0.595775 40.2709 0.26623 37.3638 1.14347C34.2182 2.09033 31.2469 3.46885 28.4269 5.1862C25.3134 7.08456 22.7869 9.50741 21.3883 12.9932C20.1594 16.0565 19.4762 19.2359 19.2882 22.5314C19.2593 23.0848 19.2249 23.6383 19.1896 24.2057Z" fill="#386159"/>
</svg>
