<svg width="54" height="57" viewBox="0 0 54 57" fill="none" xmlns="http://www.w3.org/2000/svg">
<g clip-path="url(#clip0_914_5899)">
<path d="M17.9643 14.9681C17.6465 14.2401 17.2786 13.5253 17.0186 12.7746C16.6524 11.717 16.3401 10.6414 16.0486 9.55958C15.8109 8.68253 15.7342 7.78587 15.8446 6.87568C15.9729 5.79243 16.5643 5.02926 17.4608 4.45554C17.9575 4.13836 18.468 3.87558 19.076 3.91626C19.8176 3.96564 20.5124 4.1994 21.1664 4.54416C22.2311 5.10689 23.1347 5.86916 23.9939 6.7042C25.1606 7.84415 26.2122 9.08073 27.1688 10.3992C28.9876 12.8994 30.5052 15.5654 31.6032 18.4598C31.6321 18.5385 31.6772 18.607 31.7255 18.7095C32.2021 18.1801 32.6556 17.6785 33.1133 17.1765C35.2384 14.8365 37.4483 12.5784 40.0221 10.7226C41.0604 9.97256 42.1534 9.30302 43.3772 8.88238C44.5389 8.48478 45.6591 8.50669 46.7399 9.14928C47.4166 9.55186 47.7586 10.1748 48.0107 10.8877C48.2514 11.5717 48.2366 12.2714 48.201 12.9774C48.1451 14.0109 47.954 15.0187 47.5116 15.952C47.0863 16.8407 46.6306 17.7238 46.0784 18.5389C45.4321 19.4915 44.6895 20.3762 43.9511 21.2604C43.4743 21.8328 42.9231 22.3436 42.4045 22.8814C41.7959 23.5091 41.1924 24.1449 40.5787 24.7645C40.2188 25.1244 39.8353 25.4608 39.4303 25.842C39.5215 25.8548 39.583 25.8703 39.6424 25.8647C40.2431 25.8289 40.8409 25.7635 41.4406 25.7621C42.9518 25.7511 44.4414 25.9178 45.8928 26.358C47.2162 26.759 48.4731 27.3163 49.599 28.1174C50.9224 29.0582 51.9024 30.2631 52.3208 31.8684C52.6258 33.0475 52.5829 34.2169 52.1158 35.3409C51.7118 36.3176 50.8901 36.8671 49.9293 37.2155C48.9354 37.5758 47.8962 37.6404 46.8544 37.6324C45.8894 37.6214 44.919 37.5981 43.9542 37.5443C43.2737 37.5062 42.6029 37.3901 41.9203 37.3308C41.2598 37.278 40.594 37.26 39.9343 37.2157C39.4427 37.181 38.9498 37.1337 38.397 37.0878C38.4631 37.1972 38.5005 37.275 38.5545 37.347C40.0553 39.3419 41.123 41.5581 41.8637 43.9381C42.2716 45.2531 42.5923 46.5978 42.5861 47.9736C42.5798 49.3023 42.5623 50.6492 41.9969 51.9112C41.4423 53.1507 40.5167 53.9585 39.2306 54.3551C38.4273 54.6029 37.5966 54.7419 36.7709 54.5292C35.7435 54.2671 34.7013 53.985 33.9476 53.1784C33.2463 52.4269 32.5723 51.6471 31.9264 50.8474C29.9057 48.3407 28.3398 45.5722 27.1884 42.5672C27.0572 42.2241 26.9345 41.8802 26.7775 41.4453C26.5561 41.9547 26.3706 42.3922 26.1801 42.8216C25.4114 44.5571 24.5752 46.2603 23.5266 47.8467C22.7551 49.0126 21.8881 50.0762 20.6582 50.793C20.0577 51.1458 19.4279 51.4157 18.7205 51.5001C18.1447 51.5721 17.6467 51.3367 17.1332 51.1628C16.0443 50.7952 15.6186 49.9231 15.4373 48.8736C15.1673 47.297 15.447 45.7795 15.9307 44.2897C16.538 42.4326 17.4451 40.7097 18.3526 38.9911C18.4035 38.8963 18.446 38.8022 18.5291 38.6401C18.1532 38.7873 17.8453 38.928 17.5245 39.0228C16.4624 39.3423 15.4078 39.6955 14.33 39.9394C13.4536 40.1385 12.5452 40.2721 11.6491 40.3102C10.1304 40.3776 8.62521 40.1824 7.18434 39.6726C6.35524 39.3788 5.53908 39.0409 4.75588 38.6442C3.85583 38.1901 3.30677 37.3726 2.98356 36.4523C2.71977 35.7062 2.96425 34.9889 3.40322 34.3345C4.34061 32.9301 5.67645 31.9761 7.06384 31.0686C8.5687 30.09 10.2007 29.412 11.9205 28.9356C12.747 28.707 13.5907 28.5239 14.4388 28.3875C15.8739 28.161 17.3223 27.9846 18.7644 27.7873C18.7983 27.7841 18.8311 27.7681 18.9518 27.7309C18.4549 27.5512 18.038 27.4023 17.6207 27.2493C15.8372 26.605 14.1072 25.8485 12.4579 24.9045C11.2348 24.2069 10.0865 23.3951 9.05345 22.4437C7.44322 20.9647 6.15326 19.2496 5.32913 17.2073C4.98772 16.3659 4.75932 15.4965 4.74968 14.5849C4.73603 13.091 5.45929 12.0025 6.6722 11.1974C7.26865 10.8021 7.90512 10.4674 8.619 10.4509C9.27304 10.4357 9.94871 10.5128 10.5884 10.6619C12.0606 11.0059 13.3569 11.7522 14.5899 12.5988C15.6262 13.3142 16.6287 14.0799 17.6462 14.8227C17.7384 14.8911 17.8345 14.9548 17.9262 15.0189L17.9558 14.9689L17.9643 14.9681ZM34.2522 30.7646C34.1797 30.3174 34.0987 29.871 34.0346 29.423C33.8543 28.1592 33.2503 27.1242 32.2397 26.3635C31.5196 25.8194 30.7483 25.323 29.95 24.9021C29.1106 24.455 28.2008 24.2588 27.2317 24.4753C25.9109 24.7766 24.7441 25.3461 23.8205 26.3551C23.2424 26.9884 22.6664 27.6431 22.6099 28.5352C22.5451 29.5653 22.541 30.6025 22.5751 31.636C22.6022 32.4603 23.0046 33.1332 23.6109 33.6967C24.3816 34.4116 25.3314 34.7582 26.3133 35.0375C28.651 35.6975 30.8432 35.4589 32.7994 33.9104C33.8031 33.1123 34.46 32.1372 34.2522 30.7646Z" fill="#E75F7A"/>
<ellipse cx="28.3391" cy="30" rx="6.27588" ry="6.45974" transform="rotate(-133.669 28.3391 30)" fill="#E75F7A"/>
<path d="M23.8496 29.7119C23.8569 29.3457 23.9814 29.0454 24.2817 28.7598L29.8188 23.3325C30.0459 23.1128 30.3096 23.0029 30.6318 23.0029C31.2764 23.0029 31.811 23.5303 31.811 24.1675C31.811 24.4897 31.6719 24.79 31.4302 25.0244L26.6035 29.7046L31.4302 34.3921C31.6719 34.6338 31.811 34.9268 31.811 35.2563C31.811 35.9009 31.2764 36.4209 30.6318 36.4209C30.3096 36.4209 30.0459 36.311 29.8188 36.0913L24.2817 30.6641C23.9814 30.3711 23.8496 30.0708 23.8496 29.7119Z" fill="#FDF6E9"/>
</g>
<defs>
<clipPath id="clip0_914_5899">
<rect width="54" height="57" fill="white"/>
</clipPath>
</defs>
</svg>
