<svg width="80" height="80" viewBox="0 0 80 80" fill="none" xmlns="http://www.w3.org/2000/svg">
<g clip-path="url(#clip0_681_6093)">
<circle cx="40" cy="39.7006" r="39.7006" fill="#386159"/>
<circle cx="40.9494" cy="40.3394" r="5.99885" transform="rotate(-133.669 40.9494 40.3394)" fill="#879D93"/>
<path d="M32.0365 51.554C31.5651 51.5444 31.1217 51.5314 30.6786 51.5254C29.0136 51.4947 27.3975 51.2121 25.8294 50.6521C24.0449 50.0149 22.7744 48.7883 21.7569 47.2557C20.8363 45.8675 20.0836 44.3964 19.5451 42.8291C19.0463 41.3806 19.1566 39.9248 19.673 38.4904C20.1218 37.2462 20.7814 36.1211 21.6983 35.1667C23.0409 33.7653 24.6357 32.7662 26.5746 32.3673C27.5696 32.1622 28.5692 32.0125 29.5887 31.957C30.2504 31.9199 30.8975 31.9274 31.552 32.0063C31.5944 32.0116 31.6403 31.9867 31.6821 31.9781C31.5272 31.4239 31.3656 30.8814 31.2251 30.3359C30.9522 29.2746 30.866 28.1945 30.9362 27.0991C31.0395 25.463 31.4196 23.8973 32.1312 22.4184C32.7494 21.1305 33.583 20.0219 34.9166 19.3593C35.6455 18.9978 36.4199 18.7828 37.2247 18.6892C37.9362 18.6062 38.6498 18.5162 39.3638 18.4979C40.9721 18.4567 42.4574 18.8717 43.8191 19.7289C44.5635 20.1956 45.2671 20.6963 45.8505 21.3614C46.4876 22.0845 46.9644 22.9019 47.3496 23.776C47.7812 24.7594 48.0482 25.7885 48.2062 26.8474C48.2883 27.3952 48.3424 27.9487 48.414 28.5293C48.6585 28.4898 48.966 28.4409 49.2757 28.3919C49.3969 28.3733 49.5154 28.3479 49.6368 28.3363C50.0221 28.3006 50.4086 28.2371 50.7931 28.2407C51.4682 28.2471 52.1503 28.2509 52.8191 28.3385C53.9945 28.4946 55.1446 28.7859 56.1887 29.3661C57.0076 29.8206 57.8354 30.261 58.5082 30.9365C59.3785 31.8104 59.931 32.8308 60.107 34.051C60.3019 35.4001 60.2366 36.743 59.9667 38.0706C59.7598 39.0856 59.3347 40.0326 58.771 40.9086C58.4637 41.3858 58.1349 41.8545 57.7625 42.2833C57.2061 42.9252 56.4856 43.3835 55.7545 43.8076C55.1815 44.1422 54.5686 44.4113 53.9808 44.7256C53.9028 44.768 53.8053 44.913 53.8267 44.9839C54.1178 46.0283 54.0621 47.0768 53.9414 48.1395C53.7132 50.1206 52.9721 51.9272 52.0217 53.6538C51.3559 54.8624 50.5921 56.0193 49.5475 56.9439C48.7861 57.6168 47.9688 58.2387 47.1263 58.8129C46.0691 59.532 44.9082 60.056 43.663 60.3957C42.5963 60.6868 41.5112 60.7449 40.4136 60.7826C39.3864 60.8199 38.4225 60.6186 37.5366 60.1296C37.0122 59.8396 36.5116 59.4955 36.0538 59.1103C35.257 58.4396 34.4595 57.7504 33.9299 56.8402C33.5611 56.2086 33.2586 55.535 32.9402 54.8736C32.4993 53.9553 32.1882 52.9974 32.1276 51.9718C32.12 51.8355 32.0679 51.701 32.0366 51.5563L32.0365 51.554ZM40.2824 43.4174C41.5796 43.2701 42.4184 43.1316 43.6791 42.3398C40.9816 41.3012 40.9944 40.945 43.211 41.5633C43.9012 40.562 43.9493 40.6828 44.0109 39.4859C44.0443 38.8341 43.8369 38.8975 43.8915 38.2472C43.9449 37.627 44.299 37.3549 44.0439 36.8161C43.6255 35.934 41.7557 37.0507 41.038 36.3654C40.2131 35.5754 41.4406 35.4704 40.3032 35.7504C39.3632 35.9834 39.6943 33.8707 38.9082 34.3894C38.3598 34.7509 37.8586 35.1846 37.3326 35.5823C36.5152 36.1995 35.8421 36.9153 35.4557 37.8933C35.2231 38.4856 35.1479 39.0858 35.1013 39.7011C35.0689 40.1375 34.9927 40.5919 35.0768 41.01C35.3513 42.356 35.9986 43.463 37.2765 44.1522C38.3439 44.7292 39.4465 45.1242 40.8624 45.0788L40.2824 43.4174Z" fill="#FDF6E9"/>
<circle cx="39.9237" cy="39.7013" r="5.56517" transform="rotate(21.0584 39.9237 39.7013)" fill="#879D93"/>
</g>
<defs>
<clipPath id="clip0_681_6093">
<rect width="79.4012" height="79.4012" fill="white" transform="translate(0.299377)"/>
</clipPath>
</defs>
</svg>
