<svg width="80" height="80" viewBox="0 0 80 80" fill="none" xmlns="http://www.w3.org/2000/svg">
<g clip-path="url(#clip0_738_6598)">
<circle cx="40" cy="39.7006" r="39.7006" fill="#2C685D"/>
<circle cx="40.9494" cy="40.3394" r="5.99885" transform="rotate(-133.669 40.9494 40.3394)" fill="#879D93"/>
<path d="M32.0365 51.5541C31.5651 51.5445 31.1217 51.5315 30.6786 51.5255C29.0136 51.4948 27.3975 51.2122 25.8294 50.6523C24.0449 50.015 22.7744 48.7885 21.7569 47.2558C20.8363 45.8676 20.0836 44.3965 19.5451 42.8292C19.0463 41.3807 19.1566 39.9249 19.673 38.4906C20.1218 37.2463 20.7814 36.1212 21.6983 35.1668C23.0409 33.7654 24.6357 32.7663 26.5746 32.3674C27.5696 32.1623 28.5692 32.0127 29.5887 31.9571C30.2504 31.92 30.8975 31.9275 31.552 32.0064C31.5944 32.0117 31.6403 31.9868 31.6821 31.9783C31.5272 31.424 31.3656 30.8816 31.2251 30.336C30.9522 29.2747 30.866 28.1946 30.9362 27.0992C31.0395 25.4632 31.4196 23.8974 32.1312 22.4185C32.7494 21.1306 33.583 20.022 34.9166 19.3594C35.6455 18.9979 36.4199 18.7829 37.2247 18.6893C37.9362 18.6063 38.6498 18.5163 39.3638 18.498C40.9721 18.4568 42.4574 18.8718 43.8191 19.7291C44.5635 20.1958 45.2671 20.6964 45.8505 21.3615C46.4876 22.0847 46.9644 22.902 47.3496 23.7761C47.7812 24.7595 48.0482 25.7887 48.2062 26.8475C48.2883 27.3953 48.3424 27.9488 48.414 28.5294C48.6585 28.4899 48.966 28.441 49.2757 28.392C49.3969 28.3734 49.5154 28.348 49.6368 28.3364C50.0221 28.3007 50.4086 28.2372 50.7931 28.2409C51.4682 28.2472 52.1503 28.251 52.8191 28.3387C53.9945 28.4947 55.1446 28.786 56.1887 29.3662C57.0076 29.8208 57.8354 30.2611 58.5082 30.9366C59.3785 31.8105 59.931 32.8309 60.107 34.0511C60.3019 35.4002 60.2366 36.7431 59.9667 38.0707C59.7598 39.0857 59.3347 40.0328 58.771 40.9087C58.4637 41.3859 58.1349 41.8546 57.7625 42.2834C57.2061 42.9253 56.4856 43.3837 55.7545 43.8077C55.1815 44.1424 54.5686 44.4114 53.9808 44.7258C53.9028 44.7681 53.8053 44.9131 53.8267 44.984C54.1178 46.0284 54.0621 47.077 53.9414 48.1396C53.7132 50.1208 52.9721 51.9273 52.0217 53.6539C51.3559 54.8625 50.5921 56.0194 49.5475 56.944C48.7861 57.617 47.9688 58.2388 47.1263 58.813C46.0691 59.5321 44.9082 60.0561 43.663 60.3958C42.5963 60.687 41.5112 60.745 40.4136 60.7827C39.3864 60.82 38.4225 60.6188 37.5366 60.1297C37.0122 59.8398 36.5116 59.4956 36.0538 59.1105C35.257 58.4397 34.4595 57.7505 33.9299 56.8403C33.5611 56.2087 33.2586 55.5351 32.9402 54.8737C32.4993 53.9555 32.1882 52.9975 32.1276 51.972C32.12 51.8357 32.0679 51.7011 32.0366 51.5564L32.0365 51.5541ZM40.2824 43.4175C41.5796 43.2703 42.4184 43.1317 43.6791 42.34C40.9816 41.3013 40.9944 40.9451 43.211 41.5634C43.9012 40.5622 43.9493 40.6829 44.0109 39.486C44.0443 38.8342 43.8369 38.8976 43.8915 38.2473C43.9449 37.6272 44.299 37.355 44.0439 36.8162C43.6255 35.9341 41.7557 37.0508 41.038 36.3655C40.2131 35.5755 41.4406 35.4705 40.3032 35.7505C39.3632 35.9836 39.6943 33.8708 38.9082 34.3896C38.3598 34.751 37.8586 35.1847 37.3326 35.5824C36.5152 36.1996 35.8421 36.9154 35.4557 37.8934C35.2231 38.4857 35.1479 39.0859 35.1013 39.7012C35.0689 40.1376 34.9927 40.592 35.0768 41.0101C35.3513 42.3561 35.9986 43.4632 37.2765 44.1524C38.3439 44.7293 39.4465 45.1243 40.8624 45.079L40.2824 43.4175Z" fill="#FDF6E9"/>
<circle cx="39.9237" cy="39.7013" r="5.56517" transform="rotate(21.0584 39.9237 39.7013)" fill="#879D93"/>
</g>
<defs>
<clipPath id="clip0_738_6598">
<rect width="79.4012" height="79.4012" fill="white" transform="translate(0.299377)"/>
</clipPath>
</defs>
</svg>
