<svg width="80" height="77" viewBox="0 0 80 77" fill="none" xmlns="http://www.w3.org/2000/svg">
<g clip-path="url(#clip0_738_6539)">
<path d="M0 20.4922C0 9.17469 9.17469 0 20.4922 0H59.0605C70.3781 0 79.5527 9.17469 79.5527 20.4922V56.9444C79.5527 68.262 70.3781 77.4367 59.0605 77.4367H20.4922C9.17469 77.4367 0 68.262 0 56.9444V20.4922Z" fill="#2C685D"/>
<path d="M33.9046 30.383C33.9046 33.2225 31.6028 35.5243 28.7633 35.5243C25.9238 35.5243 23.622 33.2225 23.622 30.383C23.622 27.5435 25.9238 25.2417 28.7633 25.2417C31.6028 25.2417 33.9046 27.5435 33.9046 30.383Z" fill="#FDF6E9"/>
<path d="M23.622 41.3347C23.622 45.2589 20.4408 48.4401 16.5166 48.4401C12.5923 48.4401 9.41113 45.2589 9.41113 41.3347C9.41113 37.4105 12.5923 34.2292 16.5166 34.2292C20.4408 34.2292 23.622 37.4105 23.622 41.3347Z" fill="#FDF6E9" fill-opacity="0.4"/>
<path d="M67.3229 30.383C67.3229 33.2225 65.021 35.5243 62.1816 35.5243C59.3421 35.5243 57.0403 33.2225 57.0403 30.383C57.0403 27.5435 59.3421 25.2417 62.1816 25.2417C65.021 25.2417 67.3229 27.5435 67.3229 30.383Z" fill="#FDF6E9"/>
<path fill-rule="evenodd" clip-rule="evenodd" d="M56.3691 43.1422C57.3453 44.166 57.3067 45.7874 56.2828 46.7637C52.4291 50.4381 47.857 51.3502 43.8895 50.8921C40.0316 50.4467 36.5538 48.689 34.6034 46.706C33.6114 45.6975 33.6248 44.0756 34.6334 43.0836C35.642 42.0916 37.2638 42.105 38.2558 43.1136C39.2948 44.1698 41.6462 45.4761 44.477 45.8029C47.1981 46.1171 50.1742 45.5096 52.7475 43.0559C53.7714 42.0797 55.3928 42.1183 56.3691 43.1422Z" fill="#FDF6E9"/>
<path d="M44.9441 25.3457C45.5092 23.8955 47.5613 23.8955 48.1264 25.3457L52.5391 36.6702C52.9754 37.7898 52.1496 38.9979 50.9479 38.9979H42.1225C40.9209 38.9979 40.0951 37.7898 40.5314 36.6702L44.9441 25.3457Z" fill="#FDF6E9"/>
<path fill-rule="evenodd" clip-rule="evenodd" d="M79.5528 35.3727V47.2967C78.4399 48.02 77.1119 48.4401 75.6858 48.4401C71.7615 48.4401 68.5803 45.2589 68.5803 41.3347C68.5803 37.4105 71.7615 34.2292 75.6858 34.2292C77.1119 34.2292 78.4399 34.6494 79.5528 35.3727Z" fill="#879D93"/>
</g>
<defs>
<clipPath id="clip0_738_6539">
<rect width="79.5246" height="77" fill="white"/>
</clipPath>
</defs>
</svg>
