<svg width="80" height="80" viewBox="0 0 80 80" fill="none" xmlns="http://www.w3.org/2000/svg">
<g clip-path="url(#clip0_738_6583)">
<circle cx="39.8502" cy="39.7006" r="39.7006" fill="#47ADC3"/>
<path d="M30.7566 25.7492C30.4524 25.0521 30.1001 24.3677 29.8512 23.6489C29.5005 22.6361 29.2014 21.6062 28.9224 20.5703C28.6947 19.7305 28.6212 18.8719 28.727 18.0003C28.8498 16.9631 29.4161 16.2323 30.2746 15.6829C30.7503 15.3792 31.2391 15.1276 31.8212 15.1665C32.5313 15.2138 33.1967 15.4377 33.8229 15.7678C34.8423 16.3066 35.7077 17.0366 36.5304 17.8362C37.6475 18.9277 38.6545 20.1118 39.5705 21.3743C41.312 23.7684 42.7652 26.3212 43.8165 29.0928C43.8442 29.1681 43.8874 29.2337 43.9337 29.3318C44.39 28.8249 44.8243 28.3446 45.2626 27.8639C47.2974 25.6233 49.4135 23.461 51.8781 21.684C52.8723 20.9658 53.9189 20.3247 55.0907 19.9219C56.2031 19.5412 57.2758 19.5622 58.3107 20.1775C58.9587 20.563 59.2862 21.1595 59.5275 21.8421C59.758 22.4971 59.7439 23.1671 59.7097 23.8431C59.6562 24.8328 59.4732 25.7978 59.0496 26.6914C58.6424 27.5424 58.206 28.388 57.6772 29.1685C57.0584 30.0807 56.3473 30.9278 55.6402 31.7745C55.1837 32.3225 54.6559 32.8117 54.1593 33.3266C53.5766 33.9277 52.9986 34.5365 52.411 35.1298C52.0664 35.4744 51.6992 35.7965 51.3114 36.1616C51.3987 36.1738 51.4575 36.1887 51.5144 36.1833C52.0896 36.149 52.6621 36.0864 53.2363 36.0851C54.6834 36.0745 56.1097 36.2341 57.4995 36.6557C58.7667 37.0397 59.9703 37.5733 61.0483 38.3404C62.3155 39.2413 63.254 40.395 63.6546 41.9321C63.9466 43.0612 63.9055 44.1809 63.4582 45.2573C63.0714 46.1925 62.2846 46.7186 61.3646 47.0523C60.4129 47.3972 59.4178 47.4591 58.4202 47.4515C57.4962 47.4409 56.5669 47.4186 55.6431 47.367C54.9915 47.3306 54.3492 47.2194 53.6956 47.1627C53.0631 47.1121 52.4256 47.0948 51.7939 47.0524C51.3231 47.0192 50.8512 46.9739 50.3219 46.9299C50.3852 47.0346 50.421 47.1092 50.4727 47.1781C51.9098 49.0884 52.9322 51.2104 53.6413 53.4895C54.0319 54.7486 54.339 56.0362 54.3331 57.3536C54.327 58.6259 54.3103 59.9156 53.7689 61.124C53.2378 62.3109 52.3515 63.0844 51.12 63.4641C50.3508 63.7014 49.5554 63.8346 48.7647 63.6308C47.7809 63.3799 46.783 63.1097 46.0613 62.3374C45.3898 61.6178 44.7444 60.8711 44.1259 60.1054C42.191 57.7051 40.6916 55.0541 39.5891 52.1766C39.4635 51.8481 39.346 51.5188 39.1956 51.1024C38.9836 51.5902 38.806 52.0091 38.6236 52.4203C37.8875 54.082 37.0868 55.713 36.0828 57.232C35.3439 58.3484 34.5137 59.3669 33.336 60.0533C32.7611 60.391 32.158 60.6494 31.4806 60.7303C30.9292 60.7992 30.4524 60.5738 29.9607 60.4073C28.9181 60.0553 28.5104 59.2203 28.3368 58.2153C28.0783 56.7057 28.3462 55.2526 28.8093 53.826C29.3908 52.0477 30.2594 50.398 31.1284 48.7523C31.1772 48.6615 31.2178 48.5715 31.2974 48.4163C30.9375 48.5572 30.6427 48.6919 30.3354 48.7827C29.3185 49.0887 28.3087 49.4268 27.2766 49.6604C26.4374 49.851 25.5675 49.9789 24.7095 50.0154C23.2553 50.08 21.814 49.8931 20.4343 49.4049C19.6404 49.1236 18.8589 48.8 18.1089 48.4201C17.2471 47.9852 16.7213 47.2025 16.4118 46.3212C16.1592 45.6069 16.3934 44.92 16.8137 44.2934C17.7113 42.9486 18.9904 42.0351 20.3189 41.1662C21.7599 40.2291 23.3226 39.5799 24.9694 39.1237C25.7608 38.9048 26.5687 38.7295 27.3808 38.5989C28.7549 38.382 30.1418 38.2131 31.5227 38.0242C31.5553 38.0211 31.5866 38.0058 31.7022 37.9702C31.2264 37.7981 30.8272 37.6556 30.4276 37.509C28.7198 36.8921 27.0633 36.1677 25.484 35.2637C24.3128 34.5957 23.2133 33.8184 22.2241 32.9074C20.6822 31.4912 19.447 29.8489 18.6579 27.8933C18.331 27.0876 18.1123 26.2551 18.1031 25.3822C18.09 23.9517 18.7826 22.9095 19.944 22.1385C20.5151 21.7601 21.1246 21.4395 21.8081 21.4237C22.4344 21.4092 23.0814 21.483 23.6939 21.6257C25.1036 21.9551 26.3449 22.6698 27.5256 23.4804C28.5179 24.1655 29.4778 24.8987 30.4521 25.61C30.5404 25.6754 30.6324 25.7364 30.7202 25.7978L30.7485 25.75L30.7566 25.7492ZM46.3531 40.8752C46.2836 40.447 46.206 40.0195 46.1447 39.5905C45.9721 38.3803 45.3937 37.3893 44.426 36.6609C43.7365 36.1399 42.9979 35.6646 42.2335 35.2615C41.4297 34.8334 40.5586 34.6455 39.6306 34.8528C38.3659 35.1413 37.2486 35.6866 36.3642 36.6528C35.8107 37.2593 35.2591 37.8861 35.205 38.7404C35.143 39.7267 35.1391 40.7199 35.1717 41.7095C35.1976 42.4988 35.583 43.1431 36.1635 43.6827C36.9014 44.3673 37.8109 44.6992 38.7512 44.9666C40.9896 45.5986 43.0888 45.3702 44.9619 43.8874C45.923 43.1232 46.552 42.1895 46.3531 40.8752Z" fill="#FDF6E9"/>
<circle cx="40.7998" cy="40.3394" r="5.99885" transform="rotate(-133.669 40.7998 40.3394)" fill="#87B2B7"/>
</g>
<defs>
<clipPath id="clip0_738_6583">
<rect width="79.4012" height="79.4012" fill="white" transform="translate(0.149597)"/>
</clipPath>
</defs>
</svg>
