<svg width="80" height="80" viewBox="0 0 80 80" fill="none" xmlns="http://www.w3.org/2000/svg">
<g clip-path="url(#clip0_738_6609)">
<circle cx="40.1496" cy="39.7006" r="39.7006" fill="#F8764E"/>
<circle cx="41.0992" cy="40.3394" r="5.99885" transform="rotate(-133.669 41.0992 40.3394)" fill="#EAA185"/>
<path d="M33.2174 52.5853C32.746 52.5757 32.3026 52.5627 31.8595 52.5566C30.1946 52.5259 28.5785 52.2433 27.0103 51.6834C25.2259 51.0461 23.9553 49.8196 22.9378 48.2869C22.0172 46.8987 21.2645 45.4276 20.726 43.8603C20.2273 42.4118 20.3375 40.9561 20.8539 39.5217C21.3027 38.2774 21.9623 37.1524 22.8793 36.1979C24.2218 34.7965 25.8166 33.7974 27.7555 33.3985C28.7506 33.1935 29.7501 33.0438 30.7696 32.9883C31.4314 32.9512 32.0784 32.9586 32.7329 33.0375C32.7753 33.0429 32.8212 33.0179 32.863 33.0094C32.7081 32.4551 32.5466 31.9127 32.406 31.3671C32.1331 30.3058 32.0469 29.2257 32.1171 28.1303C32.2204 26.4943 32.6006 24.9286 33.3121 23.4496C33.9303 22.1618 34.764 21.0531 36.0975 20.3905C36.8264 20.0291 37.6008 19.814 38.4056 19.7205C39.1172 19.6375 39.8307 19.5474 40.5447 19.5291C42.153 19.4879 43.6383 19.9029 45 20.7602C45.7445 21.2269 46.448 21.7276 47.0314 22.3926C47.6686 23.1158 48.1453 23.9331 48.5305 24.8072C48.9621 25.7907 49.2291 26.8198 49.3871 27.8786C49.4692 28.4264 49.5234 28.9799 49.595 29.5605C49.8395 29.521 50.1469 29.4721 50.4567 29.4231C50.5778 29.4046 50.6964 29.3792 50.8178 29.3675C51.203 29.3318 51.5896 29.2683 51.974 29.272C52.6491 29.2784 53.3312 29.2822 54.0001 29.3698C55.1754 29.5259 56.3255 29.8172 57.3696 30.3973C58.1885 30.8519 59.0163 31.2922 59.6891 31.9677C60.5594 32.8416 61.112 33.8621 61.2879 35.0822C61.4829 36.4313 61.4175 37.7742 61.1477 39.1019C60.9408 40.1169 60.5157 41.0639 59.9519 41.9399C59.6446 42.417 59.3159 42.8858 58.9434 43.3145C58.387 43.9564 57.6666 44.4148 56.9354 44.8389C56.3625 45.1735 55.7495 45.4425 55.1618 45.7569C55.0837 45.7992 54.9862 45.9442 55.0077 46.0152C55.2987 47.0596 55.2431 48.1081 55.1224 49.1707C54.8941 51.1519 54.153 52.9584 53.2026 54.685C52.5369 55.8937 51.773 57.0505 50.7284 57.9751C49.967 58.6481 49.1498 59.2699 48.3072 59.8441C47.25 60.5632 46.0892 61.0872 44.8439 61.4269C43.7772 61.7181 42.6921 61.7761 41.5946 61.8139C40.5673 61.8512 39.6035 61.6499 38.7176 61.1609C38.1932 60.8709 37.6925 60.5267 37.2348 60.1416C36.4379 59.4709 35.6404 58.7817 35.1108 57.8715C34.742 57.2398 34.4395 56.5662 34.1211 55.9048C33.6803 54.9866 33.3692 54.0286 33.3085 53.0031C33.3009 52.8668 33.2489 52.7322 33.2175 52.5876L33.2174 52.5853ZM41.4634 44.4486C42.7606 44.3014 43.5994 44.1628 44.86 43.3711C42.1625 42.3325 42.1753 41.9763 44.392 42.5945C45.0821 41.5933 45.1302 41.7141 45.1918 40.5171C45.2253 39.8653 45.0178 39.9288 45.0724 39.2785C45.1258 38.6583 45.4799 38.3862 45.2248 37.8473C44.8065 36.9653 42.9366 38.082 42.2189 37.3966C41.3941 36.6066 42.6216 36.5016 41.4842 36.7816C40.5441 37.0147 40.8752 34.9019 40.0891 35.4207C39.5407 35.7822 39.0395 36.2159 38.5136 36.6135C37.6961 37.2307 37.0231 37.9466 36.6367 38.9245C36.4041 39.5169 36.3288 40.117 36.2822 40.7323C36.2499 41.1688 36.1737 41.6231 36.2577 42.0412C36.5323 43.3872 37.1796 44.4943 38.4575 45.1835C39.5249 45.7604 40.6274 46.1554 42.0434 46.1101L41.4634 44.4486Z" fill="#FDF6E9"/>
<circle cx="41.1047" cy="40.7326" r="5.56517" transform="rotate(21.0584 41.1047 40.7326)" fill="#EAA185"/>
</g>
<defs>
<clipPath id="clip0_738_6609">
<rect width="79.4012" height="79.4012" fill="white" transform="translate(0.448975)"/>
</clipPath>
</defs>
</svg>
