<svg width="80" height="80" viewBox="0 0 80 80" fill="none" xmlns="http://www.w3.org/2000/svg">
<g clip-path="url(#clip0_681_6109)">
<circle cx="40.1496" cy="39.7006" r="39.7006" fill="#DE6843"/>
<circle cx="41.0992" cy="40.3394" r="5.99885" transform="rotate(-133.669 41.0992 40.3394)" fill="#EAA185"/>
<path d="M33.2174 52.5851C32.746 52.5755 32.3026 52.5626 31.8595 52.5565C30.1946 52.5258 28.5785 52.2432 27.0103 51.6833C25.2259 51.046 23.9553 49.8195 22.9378 48.2868C22.0172 46.8986 21.2645 45.4275 20.726 43.8602C20.2273 42.4117 20.3375 40.956 20.8539 39.5216C21.3027 38.2773 21.9623 37.1522 22.8793 36.1978C24.2218 34.7964 25.8166 33.7973 27.7555 33.3984C28.7506 33.1933 29.7501 33.0437 30.7696 32.9881C31.4314 32.951 32.0784 32.9585 32.7329 33.0374C32.7753 33.0427 32.8212 33.0178 32.863 33.0093C32.7081 32.455 32.5466 31.9126 32.406 31.367C32.1331 30.3057 32.0469 29.2256 32.1171 28.1302C32.2204 26.4942 32.6006 24.9284 33.3121 23.4495C33.9303 22.1617 34.764 21.053 36.0975 20.3904C36.8264 20.029 37.6008 19.8139 38.4056 19.7203C39.1172 19.6373 39.8307 19.5473 40.5447 19.529C42.153 19.4878 43.6383 19.9028 45 20.7601C45.7445 21.2268 46.448 21.7274 47.0314 22.3925C47.6686 23.1157 48.1453 23.933 48.5305 24.8071C48.9621 25.7905 49.2291 26.8197 49.3871 27.8785C49.4692 28.4263 49.5234 28.9798 49.595 29.5604C49.8395 29.5209 50.1469 29.472 50.4567 29.423C50.5778 29.4044 50.6964 29.379 50.8178 29.3674C51.203 29.3317 51.5896 29.2682 51.974 29.2719C52.6491 29.2782 53.3312 29.282 54.0001 29.3697C55.1754 29.5257 56.3255 29.8171 57.3696 30.3972C58.1885 30.8518 59.0163 31.2921 59.6891 31.9676C60.5594 32.8415 61.112 33.8619 61.2879 35.0821C61.4829 36.4312 61.4175 37.7741 61.1477 39.1017C60.9408 40.1167 60.5157 41.0638 59.9519 41.9398C59.6446 42.4169 59.3159 42.8857 58.9434 43.3144C58.387 43.9563 57.6666 44.4147 56.9354 44.8387C56.3625 45.1734 55.7495 45.4424 55.1618 45.7568C55.0837 45.7991 54.9862 45.9441 55.0077 46.015C55.2987 47.0595 55.2431 48.108 55.1224 49.1706C54.8941 51.1518 54.153 52.9583 53.2026 54.6849C52.5369 55.8935 51.773 57.0504 50.7284 57.975C49.967 58.648 49.1498 59.2698 48.3072 59.844C47.25 60.5631 46.0892 61.0871 44.8439 61.4268C43.7772 61.718 42.6921 61.776 41.5946 61.8137C40.5673 61.851 39.6035 61.6498 38.7176 61.1607C38.1932 60.8708 37.6925 60.5266 37.2348 60.1415C36.4379 59.4708 35.6404 58.7815 35.1108 57.8713C34.742 57.2397 34.4395 56.5661 34.1211 55.9047C33.6803 54.9865 33.3692 54.0285 33.3085 53.003C33.3009 52.8667 33.2489 52.7321 33.2175 52.5875L33.2174 52.5851ZM41.4634 44.4485C42.7606 44.3013 43.5994 44.1627 44.86 43.371C42.1625 42.3323 42.1753 41.9762 44.392 42.5944C45.0821 41.5932 45.1302 41.7139 45.1918 40.517C45.2253 39.8652 45.0178 39.9286 45.0724 39.2783C45.1258 38.6582 45.4799 38.386 45.2248 37.8472C44.8065 36.9651 42.9366 38.0818 42.2189 37.3965C41.3941 36.6065 42.6216 36.5015 41.4842 36.7815C40.5441 37.0146 40.8752 34.9018 40.0891 35.4206C39.5407 35.782 39.0395 36.2157 38.5136 36.6134C37.6961 37.2306 37.0231 37.9464 36.6367 38.9244C36.4041 39.5167 36.3288 40.1169 36.2822 40.7322C36.2499 41.1686 36.1737 41.623 36.2577 42.0411C36.5323 43.3871 37.1796 44.4942 38.4575 45.1834C39.5249 45.7603 40.6274 46.1553 42.0434 46.11L41.4634 44.4485Z" fill="#FDF6E9"/>
<circle cx="41.1047" cy="40.7325" r="5.56517" transform="rotate(21.0584 41.1047 40.7325)" fill="#EAA185"/>
</g>
<defs>
<clipPath id="clip0_681_6109">
<rect width="79.4012" height="79.4012" fill="white" transform="translate(0.448975)"/>
</clipPath>
</defs>
</svg>
