<svg width="80" height="80" viewBox="0 0 80 80" fill="none" xmlns="http://www.w3.org/2000/svg">
<g clip-path="url(#clip0_738_6604)">
<circle cx="40.1496" cy="39.7006" r="39.7006" fill="#F8764E"/>
<path d="M31.056 25.7492C30.7517 25.0521 30.3995 24.3677 30.1505 23.6489C29.7998 22.6361 29.5008 21.6062 29.2217 20.5703C28.9941 19.7305 28.9206 18.8719 29.0264 18.0003C29.1492 16.9631 29.7155 16.2323 30.5739 15.6829C31.0496 15.3792 31.5385 15.1276 32.1206 15.1665C32.8307 15.2138 33.4961 15.4377 34.1223 15.7678C35.1417 16.3066 36.007 17.0366 36.8297 17.8362C37.9469 18.9277 38.9539 20.1118 39.8698 21.3743C41.6114 23.7684 43.0645 26.3212 44.1159 29.0928C44.1436 29.1681 44.1868 29.2337 44.233 29.3318C44.6894 28.8249 45.1236 28.3446 45.562 27.8639C47.5968 25.6233 49.7129 23.461 52.1775 21.684C53.1716 20.9658 54.2182 20.3247 55.3901 19.9219C56.5025 19.5412 57.5752 19.5622 58.6101 20.1775C59.258 20.563 59.5855 21.1595 59.8269 21.8421C60.0574 22.4971 60.0432 23.1671 60.0091 23.8431C59.9556 24.8328 59.7726 25.7978 59.3489 26.6914C58.9418 27.5424 58.5053 28.388 57.9766 29.1685C57.3578 30.0807 56.6467 30.9278 55.9396 31.7745C55.4831 32.3225 54.9553 32.8117 54.4587 33.3266C53.8759 33.9277 53.298 34.5365 52.7104 35.1298C52.3658 35.4744 51.9985 35.7965 51.6107 36.1616C51.698 36.1738 51.7569 36.1887 51.8138 36.1833C52.389 36.149 52.9614 36.0864 53.5356 36.0851C54.9827 36.0745 56.4091 36.2341 57.7989 36.6557C59.0661 37.0397 60.2696 37.5733 61.3477 38.3404C62.6149 39.2413 63.5533 40.395 63.954 41.9321C64.246 43.0612 64.2049 44.1809 63.7576 45.2573C63.3707 46.1925 62.5839 46.7186 61.664 47.0523C60.7122 47.3972 59.7172 47.4591 58.7196 47.4515C57.7956 47.4409 56.8663 47.4186 55.9425 47.367C55.2909 47.3306 54.6485 47.2194 53.995 47.1627C53.3625 47.1121 52.725 47.0948 52.0933 47.0524C51.6225 47.0192 51.1505 46.9739 50.6213 46.9299C50.6846 47.0346 50.7204 47.1092 50.772 47.1781C52.2091 49.0884 53.2315 51.2104 53.9407 53.4895C54.3313 54.7486 54.6384 56.0362 54.6325 57.3536C54.6264 58.6259 54.6097 59.9156 54.0683 61.124C53.5372 62.3109 52.6508 63.0844 51.4194 63.4641C50.6502 63.7014 49.8547 63.8346 49.0641 63.6308C48.0803 63.3799 47.0823 63.1097 46.3607 62.3374C45.6892 61.6178 45.0438 60.8711 44.4253 60.1054C42.4903 57.7051 40.991 55.0541 39.8885 52.1766C39.7629 51.8481 39.6454 51.5188 39.495 51.1024C39.283 51.5902 39.1054 52.0091 38.923 52.4203C38.1868 54.082 37.3862 55.713 36.3821 57.232C35.6433 58.3484 34.8131 59.3669 33.6354 60.0533C33.0604 60.391 32.4574 60.6494 31.78 60.7303C31.2286 60.7992 30.7518 60.5738 30.2601 60.4073C29.2174 60.0553 28.8098 59.2203 28.6362 58.2153C28.3777 56.7057 28.6455 55.2526 29.1087 53.826C29.6902 52.0477 30.5588 50.398 31.4278 48.7523C31.4765 48.6615 31.5172 48.5715 31.5968 48.4163C31.2369 48.5572 30.942 48.6919 30.6348 48.7827C29.6178 49.0887 28.608 49.4268 27.576 49.6604C26.7367 49.851 25.8669 49.9789 25.0089 50.0154C23.5546 50.08 22.1133 49.8931 20.7336 49.4049C19.9397 49.1236 19.1582 48.8 18.4083 48.4201C17.5464 47.9852 17.0207 47.2025 16.7112 46.3212C16.4586 45.6069 16.6927 44.92 17.1131 44.2934C18.0107 42.9486 19.2898 42.0351 20.6183 41.1662C22.0593 40.2291 23.622 39.5799 25.2687 39.1237C26.0602 38.9048 26.868 38.7295 27.6802 38.5989C29.0543 38.382 30.4412 38.2131 31.8221 38.0242C31.8547 38.0211 31.886 38.0058 32.0016 37.9702C31.5258 37.7981 31.1266 37.6556 30.727 37.509C29.0192 36.8921 27.3627 36.1677 25.7834 35.2637C24.6122 34.5957 23.5127 33.8184 22.5235 32.9074C20.9816 31.4912 19.7464 29.8489 18.9573 27.8933C18.6304 27.0876 18.4117 26.2551 18.4024 25.3822C18.3894 23.9517 19.0819 22.9095 20.2434 22.1385C20.8145 21.7601 21.4239 21.4395 22.1075 21.4237C22.7338 21.4092 23.3808 21.483 23.9933 21.6257C25.403 21.9551 26.6443 22.6698 27.8249 23.4804C28.8172 24.1655 29.7772 24.8987 30.7515 25.61C30.8398 25.6754 30.9317 25.7364 31.0196 25.7978L31.0479 25.75L31.056 25.7492ZM46.6525 40.8752C46.583 40.447 46.5054 40.0195 46.4441 39.5905C46.2715 38.3803 45.6931 37.3893 44.7254 36.6609C44.0358 36.1399 43.2973 35.6646 42.5329 35.2615C41.7291 34.8334 40.8579 34.6455 39.93 34.8528C38.6653 35.1413 37.548 35.6866 36.6636 36.6528C36.1101 37.2593 35.5585 37.8861 35.5044 38.7404C35.4424 39.7267 35.4384 40.7199 35.4711 41.7095C35.497 42.4988 35.8824 43.1431 36.4629 43.6827C37.2008 44.3673 38.1103 44.6992 39.0506 44.9666C41.289 45.5986 43.3882 45.3702 45.2613 43.8874C46.2223 43.1232 46.8514 42.1895 46.6525 40.8752Z" fill="#FDF6E9"/>
<circle cx="41.0992" cy="40.3394" r="5.99885" transform="rotate(-133.669 41.0992 40.3394)" fill="#EAA185"/>
</g>
<defs>
<clipPath id="clip0_738_6604">
<rect width="79.4012" height="79.4012" fill="white" transform="translate(0.448975)"/>
</clipPath>
</defs>
</svg>
